<svg xmlns="http://www.w3.org/2000/svg" width="104.038" height="80.352" viewBox="0 0 104.038 80.352">
  <path id="Trazado_828965" data-name="Trazado 828965" d="M59.082-31.958q0,15.845-7.117,24.438T31.9,1.074q-13.052,0-20.2-8.647T4.565-31.958V-46.245q0-15.845,7.117-24.438T31.8-79.277q13,0,20.142,8.647t7.144,24.438Zm-18.1-16.6q0-8.433-2.2-12.6A7.361,7.361,0,0,0,31.8-65.312,7.186,7.186,0,0,0,25-61.445q-2.122,3.867-2.283,11.709v19.98q0,8.755,2.2,12.81A7.389,7.389,0,0,0,31.9-12.891a7.29,7.29,0,0,0,6.821-3.948q2.2-3.948,2.256-12.38ZM108.6,0H90.449V-57.793l-17.832,5.21v-13.75L106.938-78.2H108.6Z" transform="translate(-4.565 79.277)" fill="#12263f" opacity="0.05"/>
</svg>
