<svg xmlns="http://www.w3.org/2000/svg" width="118.486" height="80.405" viewBox="0 0 118.486 80.405">
  <path id="Trazado_828964" data-name="Trazado 828964" d="M59.082-31.958q0,15.845-7.117,24.438T31.9,1.074q-13.052,0-20.2-8.647T4.565-31.958V-46.245q0-15.845,7.117-24.438T31.8-79.277q13,0,20.142,8.647t7.144,24.438Zm-18.1-16.6q0-8.433-2.2-12.6A7.361,7.361,0,0,0,31.8-65.312,7.186,7.186,0,0,0,25-61.445q-2.122,3.867-2.283,11.709v19.98q0,8.755,2.2,12.81A7.389,7.389,0,0,0,31.9-12.891a7.29,7.29,0,0,0,6.821-3.948q2.2-3.948,2.256-12.38ZM123.052,0H68.481V-11.816L93.618-38.242q9.292-10.581,9.292-16.812,0-5.049-2.2-7.681a7.862,7.862,0,0,0-6.392-2.632A7.961,7.961,0,0,0,87.6-61.848a14.458,14.458,0,0,0-2.578,8.782H66.87a25.682,25.682,0,0,1,3.6-13.293,25.236,25.236,0,0,1,9.99-9.534,29.676,29.676,0,0,1,14.287-3.437q12.676,0,19.524,5.854t6.848,16.812a24.413,24.413,0,0,1-1.719,9,39.454,39.454,0,0,1-5.344,9.185A134.623,134.623,0,0,1,102.373-25.62l-10.1,11.655h30.776Z" transform="translate(-4.565 79.331)" fill="#12263f" opacity="0.05"/>
</svg>
