<svg xmlns="http://www.w3.org/2000/svg" width="100" height="100" viewBox="0 0 100 100">
  <g id="Grupo_1076207" data-name="Grupo 1076207" transform="translate(-316 -2520)">
    <circle id="Elipse_10045" data-name="Elipse 10045" cx="50" cy="50" r="50" transform="translate(316 2520)" fill="#fff" opacity="0.7"/>
    <g id="loading" transform="translate(336 2544)">
      <path id="Trazado_834060" data-name="Trazado 834060" d="M57.041,29.271H44.025a.879.879,0,1,0,0,1.758H57.041a1.2,1.2,0,0,1,1.2,1.2v4.575H1.758V32.23a1.2,1.2,0,0,1,1.2-1.2H39.938a.879.879,0,1,0,0-1.758H2.959A2.962,2.962,0,0,0,0,32.23V79.452a2.962,2.962,0,0,0,2.959,2.959H57.041A2.962,2.962,0,0,0,60,79.452V32.23a2.962,2.962,0,0,0-2.959-2.959Zm1.2,50.181a1.2,1.2,0,0,1-1.2,1.2H2.959a1.2,1.2,0,0,1-1.2-1.2V38.563H58.242Z" transform="translate(0 -29.271)" fill="#1682fb"/>
      <path id="Trazado_834061" data-name="Trazado 834061" d="M52.8,59.147a1.176,1.176,0,1,0,1.176-1.176A1.176,1.176,0,0,0,52.8,59.147Z" transform="translate(-46.611 -54.608)" fill="#1682fb"/>
      <path id="Trazado_834062" data-name="Trazado 834062" d="M91.19,59.147a1.176,1.176,0,1,0,1.176-1.176A1.176,1.176,0,0,0,91.19,59.147Z" transform="translate(-80.504 -54.608)" fill="#1682fb"/>
      <path id="Trazado_834063" data-name="Trazado 834063" d="M129.582,59.147a1.176,1.176,0,1,0,1.176-1.176A1.176,1.176,0,0,0,129.582,59.147Z" transform="translate(-114.397 -54.608)" fill="#1682fb"/>
      <path id="Trazado_834064" data-name="Trazado 834064" d="M174.858,293.368l-.01-.024a1.013,1.013,0,0,0-1.875,0l-.008.02-2.229,5.851a.879.879,0,1,0,1.642.625l.34-.891h2.367l.335.889a.879.879,0,0,0,1.644-.621Zm-1.47,3.826.52-1.365.515,1.365Z" transform="translate(-150.678 -261.844)" fill="#1682fb"/>
      <path id="Trazado_834065" data-name="Trazado 834065" d="M335.959,292.716a.879.879,0,0,0-.879.879v3.04l-2.437-3.529a.879.879,0,0,0-1.6.5v5.831a.879.879,0,1,0,1.758,0v-3.011l2.341,3.389a.921.921,0,0,0,1.052.394.94.94,0,0,0,.646-.969v-5.645A.879.879,0,0,0,335.959,292.716Z" transform="translate(-292.247 -261.844)" fill="#1682fb"/>
      <path id="Trazado_834066" data-name="Trazado 834066" d="M58.213,300.4s1.549,0,2.231,0a.879.879,0,0,0,0-1.758h-.005l-1.195,0V293.6a.879.879,0,0,0-1.758,0v5.93A.892.892,0,0,0,58.213,300.4Z" transform="translate(-50.746 -261.844)" fill="#1682fb"/>
      <path id="Trazado_834067" data-name="Trazado 834067" d="M301.088,294.265a.879.879,0,0,0-.879.879v5.66a.879.879,0,0,0,1.758,0v-5.66A.879.879,0,0,0,301.088,294.265Z" transform="translate(-265.028 -263.211)" fill="#1682fb"/>
      <path id="Trazado_834068" data-name="Trazado 834068" d="M239.523,294.214h-1.631a.879.879,0,0,0-.879.881l.012,5.761a.879.879,0,0,0,.879.876h0c.049,0,1.213,0,1.679-.013,1.82-.032,3.142-1.607,3.142-3.746,0-2.248-1.288-3.759-3.2-3.759Zm.032,5.747c-.182,0-.481.006-.776.008,0-.667-.006-3.3-.007-4h.751c1.343,0,1.447,1.532,1.447,2C240.97,298.95,240.532,299.944,239.555,299.961Z" transform="translate(-209.238 -263.166)" fill="#1682fb"/>
      <path id="Trazado_834069" data-name="Trazado 834069" d="M398.748,295.683h-1.775a.879.879,0,1,0,0,1.758h.78a1.582,1.582,0,0,1-1.566,1.21,2.089,2.089,0,1,1,1.167-3.821.879.879,0,0,0,.984-1.456,3.846,3.846,0,1,0-2.151,7.035c2.026,0,3.441-1.582,3.441-3.846A.879.879,0,0,0,398.748,295.683Z" transform="translate(-346.363 -261.844)" fill="#1682fb"/>
      <path id="Trazado_834070" data-name="Trazado 834070" d="M101.471,292.716a3.846,3.846,0,1,0,3.846,3.846A3.851,3.851,0,0,0,101.471,292.716Zm0,5.935a2.089,2.089,0,1,1,2.089-2.089A2.091,2.091,0,0,1,101.471,298.651Z" transform="translate(-86.185 -261.844)" fill="#1682fb"/>
      <path id="Trazado_834071" data-name="Trazado 834071" d="M58.36,223.932H72.715a.879.879,0,1,0,0-1.758H69.48v-2.482h32.772v2.482H76.807a.879.879,0,1,0,0,1.758H103.13a.879.879,0,0,0,.879-.879v-4.239a.879.879,0,0,0-.879-.879H58.36a.879.879,0,0,0-.879.879v4.239A.879.879,0,0,0,58.36,223.932Zm.879-4.239h8.484v2.482H59.239Z" transform="translate(-50.745 -195.826)" fill="#1682fb"/>
    </g>
  </g>
</svg>
