<svg xmlns="http://www.w3.org/2000/svg" width="118.486" height="80.405" viewBox="0 0 118.486 80.405">
  <path id="Trazado_828963" data-name="Trazado 828963" d="M59.082-31.958q0,15.845-7.117,24.438T31.9,1.074q-13.052,0-20.2-8.647T4.565-31.958V-46.245q0-15.845,7.117-24.438T31.8-79.277q13,0,20.142,8.647t7.144,24.438Zm-18.1-16.6q0-8.433-2.2-12.6A7.361,7.361,0,0,0,31.8-65.312,7.186,7.186,0,0,0,25-61.445q-2.122,3.867-2.283,11.709v19.98q0,8.755,2.2,12.81A7.389,7.389,0,0,0,31.9-12.891a7.29,7.29,0,0,0,6.821-3.948q2.2-3.948,2.256-12.38Zm44.043,1.88h8.54q10.151,0,10.151-9.937a8.592,8.592,0,0,0-2.417-6.311,9.165,9.165,0,0,0-6.821-2.444,9.812,9.812,0,0,0-6.257,2.095,6.391,6.391,0,0,0-2.659,5.21h-18.1A18.529,18.529,0,0,1,70.9-69.072a22.7,22.7,0,0,1,9.534-7.546,32.6,32.6,0,0,1,13.4-2.712q13.052,0,20.518,5.962t7.466,16.382a16.519,16.519,0,0,1-3.088,9.534,22.012,22.012,0,0,1-9,7.278,21.025,21.025,0,0,1,9.775,6.848,18.035,18.035,0,0,1,3.545,11.36A20.179,20.179,0,0,1,115-5.21q-8.057,6.284-21.162,6.284a34.681,34.681,0,0,1-14.26-2.927,22.342,22.342,0,0,1-9.963-8.11,21.086,21.086,0,0,1-3.384-11.79H84.434a8.15,8.15,0,0,0,2.9,6.23,10.239,10.239,0,0,0,7.144,2.632,10.725,10.725,0,0,0,7.627-2.659,8.886,8.886,0,0,0,2.847-6.794q0-5.908-2.954-8.379t-8.164-2.471H85.024Z" transform="translate(-4.565 79.331)" fill="#12263f" opacity="0.05"/>
</svg>
