<svg xmlns="http://www.w3.org/2000/svg" width="100" height="100" viewBox="0 0 100 100">
  <g id="Grupo_1076209" data-name="Grupo 1076209" transform="translate(-316 -2881)">
    <circle id="Elipse_10047" data-name="Elipse 10047" cx="50" cy="50" r="50" transform="translate(316 2881)" fill="#fff" opacity="0.7"/>
    <g id="checklist" transform="translate(336 2898)">
      <g id="Grupo_1076201" data-name="Grupo 1076201" transform="translate(0)">
        <path id="Trazado_834015" data-name="Trazado 834015" d="M61.7.333A.973.973,0,0,0,60.969,0H26.315a.973.973,0,0,0-.973.973V65.619a.973.973,0,0,0,.973.973h9.111a.973.973,0,1,0,0-1.947H27.289V1.947H60V13.495a.973.973,0,0,0,.973.973h9.962V64.646H39.942a.973.973,0,1,0,0,1.947H71.9a.973.973,0,0,0,.973-.973V13.495a.973.973,0,0,0-.24-.64Zm.24,12.188V3.568l7.82,8.954Z" transform="translate(-25.342)" fill="#1682fb"/>
        <path id="Trazado_834016" data-name="Trazado 834016" d="M155.005,170.49h2.606a.973.973,0,0,0,0-1.947h-2.606a.973.973,0,0,0,0,1.947Z" transform="translate(-137.293 -146.62)" fill="#1682fb"/>
        <path id="Trazado_834017" data-name="Trazado 834017" d="M155.005,200.21h16.846a.973.973,0,0,0,0-1.947H155.005a.973.973,0,1,0,0,1.947Z" transform="translate(-137.293 -172.474)" fill="#1682fb"/>
        <path id="Trazado_834018" data-name="Trazado 834018" d="M222.827,168.543H207.872a.973.973,0,1,0,0,1.947h14.954a.973.973,0,1,0,0-1.947Z" transform="translate(-183.283 -146.62)" fill="#1682fb"/>
        <path id="Trazado_834019" data-name="Trazado 834019" d="M82.531,164.432h.035a.974.974,0,0,0,.757-.407l3.818-5.35a.973.973,0,1,0-1.584-1.131l-3.084,4.321-1.45-1.748a.973.973,0,0,0-1.5,1.243l2.257,2.72A.973.973,0,0,0,82.531,164.432Z" transform="translate(-72.282 -136.697)" fill="#1682fb"/>
        <path id="Trazado_834020" data-name="Trazado 834020" d="M155.005,249.776h2.606a.973.973,0,0,0,0-1.947h-2.606a.973.973,0,0,0,0,1.947Z" transform="translate(-137.293 -215.593)" fill="#1682fb"/>
        <path id="Trazado_834021" data-name="Trazado 834021" d="M155.005,279.5h16.846a.973.973,0,0,0,0-1.947H155.005a.973.973,0,1,0,0,1.947Z" transform="translate(-137.293 -241.447)" fill="#1682fb"/>
        <path id="Trazado_834022" data-name="Trazado 834022" d="M222.827,247.829H207.872a.973.973,0,1,0,0,1.947h14.954a.973.973,0,1,0,0-1.947Z" transform="translate(-183.283 -215.593)" fill="#1682fb"/>
        <path id="Trazado_834023" data-name="Trazado 834023" d="M79.525,240.647l2.257,2.72a.973.973,0,0,0,.749.352h.035a.974.974,0,0,0,.757-.407l3.818-5.35a.973.973,0,0,0-1.584-1.131l-3.084,4.321-1.45-1.748a.973.973,0,0,0-1.5,1.243Z" transform="translate(-72.282 -205.67)" fill="#1682fb"/>
        <path id="Trazado_834024" data-name="Trazado 834024" d="M155.005,329.062h2.606a.973.973,0,0,0,0-1.947h-2.606a.973.973,0,0,0,0,1.947Z" transform="translate(-137.293 -284.566)" fill="#1682fb"/>
        <path id="Trazado_834025" data-name="Trazado 834025" d="M155.005,358.782h16.846a.973.973,0,1,0,0-1.947H155.005a.973.973,0,1,0,0,1.947Z" transform="translate(-137.293 -310.42)" fill="#1682fb"/>
        <path id="Trazado_834026" data-name="Trazado 834026" d="M222.827,327.115H207.872a.973.973,0,0,0,0,1.947h14.954a.973.973,0,1,0,0-1.947Z" transform="translate(-183.283 -284.566)" fill="#1682fb"/>
        <path id="Trazado_834027" data-name="Trazado 834027" d="M79.525,319.931l2.257,2.72a.973.973,0,0,0,.749.352h.035a.974.974,0,0,0,.757-.407l3.818-5.35a.973.973,0,0,0-1.585-1.131l-3.084,4.321-1.45-1.748a.973.973,0,0,0-1.5,1.243Z" transform="translate(-72.282 -274.642)" fill="#1682fb"/>
        <path id="Trazado_834028" data-name="Trazado 834028" d="M155.005,408.348h2.606a.973.973,0,0,0,0-1.947h-2.606a.973.973,0,0,0,0,1.947Z" transform="translate(-137.293 -353.539)" fill="#1682fb"/>
        <path id="Trazado_834029" data-name="Trazado 834029" d="M155.005,438.068h16.846a.973.973,0,0,0,0-1.947H155.005a.973.973,0,1,0,0,1.947Z" transform="translate(-137.293 -379.393)" fill="#1682fb"/>
        <path id="Trazado_834030" data-name="Trazado 834030" d="M222.827,406.4H207.872a.973.973,0,0,0,0,1.947h14.954a.973.973,0,1,0,0-1.947Z" transform="translate(-183.283 -353.539)" fill="#1682fb"/>
        <path id="Trazado_834031" data-name="Trazado 834031" d="M84.833,405.463a.973.973,0,0,0-1.376.024l-1.241,1.286-1.241-1.286a.973.973,0,0,0-1.4,1.352l1.289,1.336-1.289,1.336a.973.973,0,0,0,1.4,1.352l1.241-1.286,1.241,1.286a.973.973,0,0,0,1.4-1.352l-1.289-1.336,1.289-1.336A.973.973,0,0,0,84.833,405.463Z" transform="translate(-72.282 -352.485)" fill="#1682fb"/>
        <path id="Trazado_834032" data-name="Trazado 834032" d="M423.34,105.983h-2.1v-3.409a3.121,3.121,0,0,0-6.242,0v8.7a.973.973,0,1,0,1.947,0v-3.343h2.349V145.67h-2.349v-29.86a.973.973,0,1,0-1.947,0v30.834a.033.033,0,0,0,0,0,1,1,0,0,0,.062.335l2.153,5.509a.978.978,0,0,0,1.813,0L421.174,147a.988.988,0,0,0,.067-.354V107.929h1.127V121.4a.973.973,0,0,0,1.947,0V106.956A.974.974,0,0,0,423.34,105.983Zm-5.221,43.481-.722-1.847h1.444Zm1.174-43.481h-2.349v-3.409a1.174,1.174,0,0,1,2.349,0v3.409Z" transform="translate(-364.314 -86.517)" fill="#1682fb"/>
      </g>
    </g>
  </g>
</svg>
