<svg xmlns="http://www.w3.org/2000/svg" width="119.668" height="80.352" viewBox="0 0 119.668 80.352">
  <path id="Trazado_828962" data-name="Trazado 828962" d="M59.082-31.958q0,15.845-7.117,24.438T31.9,1.074q-13.052,0-20.2-8.647T4.565-31.958V-46.245q0-15.845,7.117-24.438T31.8-79.277q13,0,20.142,8.647t7.144,24.438Zm-18.1-16.6q0-8.433-2.2-12.6A7.361,7.361,0,0,0,31.8-65.312,7.186,7.186,0,0,0,25-61.445q-2.122,3.867-2.283,11.709v19.98q0,8.755,2.2,12.81A7.389,7.389,0,0,0,31.9-12.891a7.29,7.29,0,0,0,6.821-3.948q2.2-3.948,2.256-12.38Zm75.3,17.993h7.949V-16.6h-7.949V0h-18.1V-16.6H67.944L66.87-27.661,98.184-78.042V-78.2h18.1Zm-32.173,0H98.184V-54.624L97.056-52.8Z" transform="translate(-4.565 79.277)" fill="#12263f" opacity="0.05"/>
</svg>
