<svg xmlns="http://www.w3.org/2000/svg" width="118.11" height="80.352" viewBox="0 0 118.11 80.352">
  <path id="Trazado_828961" data-name="Trazado 828961" d="M59.082-31.958q0,15.845-7.117,24.438T31.9,1.074q-13.052,0-20.2-8.647T4.565-31.958V-46.245q0-15.845,7.117-24.438T31.8-79.277q13,0,20.142,8.647t7.144,24.438Zm-18.1-16.6q0-8.433-2.2-12.6A7.361,7.361,0,0,0,31.8-65.312,7.186,7.186,0,0,0,25-61.445q-2.122,3.867-2.283,11.709v19.98q0,8.755,2.2,12.81A7.389,7.389,0,0,0,31.9-12.891a7.29,7.29,0,0,0,6.821-3.948q2.2-3.948,2.256-12.38ZM69.556-38.2l4.78-40h45.708v14.072H89.053L87.28-48.6a21.349,21.349,0,0,1,5.076-2,23.158,23.158,0,0,1,6.15-.863q11.655,0,17.913,6.9t6.257,19.363a27.752,27.752,0,0,1-3.357,13.616A23.073,23.073,0,0,1,109.893-2.2,29.76,29.76,0,0,1,95.552,1.074a32.022,32.022,0,0,1-13.8-3.032,24.764,24.764,0,0,1-10.1-8.318,20.213,20.213,0,0,1-3.6-11.941H86.206a10.268,10.268,0,0,0,2.739,6.807,8.694,8.694,0,0,0,6.5,2.519q9.131,0,9.131-13.507,0-12.489-11.172-12.489-6.338,0-9.453,4.074Z" transform="translate(-4.565 79.277)" fill="#12263f" opacity="0.05"/>
</svg>
