<svg xmlns="http://www.w3.org/2000/svg" width="119.775" height="80.405" viewBox="0 0 119.775 80.405">
  <path id="Trazado_828960" data-name="Trazado 828960" d="M59.082-31.958q0,15.845-7.117,24.438T31.9,1.074q-13.052,0-20.2-8.647T4.565-31.958V-46.245q0-15.845,7.117-24.438T31.8-79.277q13,0,20.142,8.647t7.144,24.438Zm-18.1-16.6q0-8.433-2.2-12.6A7.361,7.361,0,0,0,31.8-65.312,7.186,7.186,0,0,0,25-61.445q-2.122,3.867-2.283,11.709v19.98q0,8.755,2.2,12.81A7.389,7.389,0,0,0,31.9-12.891a7.29,7.29,0,0,0,6.821-3.948q2.2-3.948,2.256-12.38ZM112.2-79.331V-65.1H111.4q-10.151,0-16.677,4.861a20.523,20.523,0,0,0-8.03,13.508,21.166,21.166,0,0,1,15.469-6.016q10.151,0,16.167,7.412t6.016,19.443a27.376,27.376,0,0,1-3.518,13.7,25.1,25.1,0,0,1-9.829,9.749A28.244,28.244,0,0,1,97,1.074,29.19,29.19,0,0,1,82.124-2.712,26.034,26.034,0,0,1,71.919-13.535a35.638,35.638,0,0,1-3.76-16.221v-7.251a45.145,45.145,0,0,1,5.183-21.726,37.576,37.576,0,0,1,14.8-15.12,42.307,42.307,0,0,1,21.323-5.479ZM95.874-38.887a10.356,10.356,0,0,0-6.016,1.665,10.571,10.571,0,0,0-3.6,4.082v5.425q0,14.824,10.259,14.824a8.322,8.322,0,0,0,6.9-3.706,15.1,15.1,0,0,0,2.766-9.292,14.825,14.825,0,0,0-2.82-9.373A9.019,9.019,0,0,0,95.874-38.887Z" transform="translate(-4.565 79.331)" fill="#12263f" opacity="0.05"/>
</svg>
