<svg xmlns="http://www.w3.org/2000/svg" width="330.685" height="827" viewBox="0 0 330.685 827">
  <g id="Grupo_1075290" data-name="Grupo 1075290" transform="translate(827.685 7842)">
    <g id="Grupo_1075263" data-name="Grupo 1075263" transform="translate(-933 -9677)">
      <rect id="Rectángulo_382320" data-name="Rectángulo 382320" width="190" height="118" rx="10" transform="translate(180 1835)" fill="#dee1ed"/>
      <g id="SonarQube_Logo" transform="translate(200 1876)">
        <path id="Trazado_828967" data-name="Trazado 828967" d="M.8,25.963a8.631,8.631,0,0,0,3.888,1.12c1.371,0,1.931-.484,1.931-1.231s-.443-1.112-2.14-1.689c-3-1.027-4.155-2.682-4.122-4.43,0-2.741,2.316-4.82,5.9-4.82a9.681,9.681,0,0,1,4.1.84l-.8,3.165a6.99,6.99,0,0,0-3.144-.84c-1.1,0-1.722.45-1.722,1.205,0,.7.569,1.052,2.349,1.689,2.759.967,3.921,2.376,3.946,4.549,0,2.741-2.132,4.761-6.3,4.761A10.174,10.174,0,0,1,0,29.256Z" transform="translate(0 2.271)" fill="#1b171b"/>
        <path id="Trazado_828968" data-name="Trazado 828968" d="M25.317,22.442c0,5.389-3.771,7.867-7.659,7.867a7.162,7.162,0,0,1-7.508-7.6c0-4.761,3.085-7.8,7.751-7.8C22.358,14.906,25.317,18.012,25.317,22.442Zm-10.5.144c0,2.529,1.037,4.43,2.968,4.43,1.756,0,2.876-1.782,2.876-4.43,0-2.2-.828-4.43-2.876-4.43C15.619,18.156,14.816,20.422,14.816,22.586Z" transform="translate(1.546 2.271)" fill="#1b171b"/>
        <path id="Trazado_828969" data-name="Trazado 828969" d="M24.73,19.939c0-1.833-.059-3.4-.117-4.7h3.921l.209,2.02h.092a5.29,5.29,0,0,1,4.482-2.351c2.968,0,5.2,1.986,5.2,6.322V29.97H34V21.8c0-1.9-.652-3.191-2.283-3.191a2.408,2.408,0,0,0-2.283,1.714,3.213,3.213,0,0,0-.184,1.146v8.495H24.747V19.939Z" transform="translate(3.749 2.27)" fill="#1b171b"/>
        <path id="Trazado_828970" data-name="Trazado 828970" d="M47.152,29.972,46.884,28.5H46.8A5.166,5.166,0,0,1,42.653,30.3a4.482,4.482,0,0,1-4.691-4.523c0-3.827,3.386-5.669,8.52-5.635v-.212c0-.781-.418-1.9-2.642-1.9a8.087,8.087,0,0,0-4.005,1.112L39,16.19a11.8,11.8,0,0,1,5.644-1.3c4.841,0,6.38,2.894,6.38,6.356v5.126a22.825,22.825,0,0,0,.209,3.581h-4.08Zm-.527-6.959c-2.375-.034-4.214.543-4.214,2.317a1.629,1.629,0,0,0,1.781,1.748,2.459,2.459,0,0,0,2.341-1.689,3.5,3.5,0,0,0,.092-.781Z" transform="translate(5.782 2.268)" fill="#1b171b"/>
        <path id="Trazado_828971" data-name="Trazado 828971" d="M51.375,20.091c0-2.164-.059-3.581-.117-4.846h3.888l.151,2.707h.117a4.271,4.271,0,0,1,3.921-3.038,5.144,5.144,0,0,1,.953.059v4.311a6.519,6.519,0,0,0-1.212-.119,2.92,2.92,0,0,0-3.094,2.325,6.016,6.016,0,0,0-.084,1.027v7.468H51.383Z" transform="translate(7.807 2.271)" fill="#1b171b"/>
        <path id="Trazado_828972" data-name="Trazado 828972" d="M86.527,25.926c0,1.5.033,2.835.117,3.98H84.328l-.15-2.385h-.059a5.411,5.411,0,0,1-4.749,2.716c-2.257,0-4.958-1.264-4.958-6.39v-8.52h2.609V23.4c0,2.767.828,4.642,3.2,4.642a3.794,3.794,0,0,0,3.445-2.41,3.928,3.928,0,0,0,.234-1.358V15.326h2.609v10.6Z" transform="translate(11.333 2.334)" fill="#1b171b"/>
        <path id="Trazado_828973" data-name="Trazado 828973" d="M87.559,30.806c.059-.993.117-2.469.117-3.768V9.412h2.584v9.165h.059a5.331,5.331,0,0,1,4.9-2.682c3.562,0,6.087,3.013,6.053,7.443,0,5.211-3.236,7.807-6.438,7.807A5.1,5.1,0,0,1,90.025,28.4h-.092l-.117,2.41Zm2.7-5.847a5.446,5.446,0,0,0,.117.967,4.035,4.035,0,0,0,3.913,3.1c2.734,0,4.364-2.257,4.364-5.6,0-2.919-1.48-5.423-4.273-5.423a4.176,4.176,0,0,0-3.98,3.25,5.382,5.382,0,0,0-.15,1.086v2.622Z" transform="translate(13.335 1.433)" fill="#1b171b"/>
        <path id="Trazado_828974" data-name="Trazado 828974" d="M102.88,23.144c.059,3.581,2.316,5.058,4.925,5.058a9.28,9.28,0,0,0,3.98-.755l.444,1.9a11.468,11.468,0,0,1-4.783.9c-4.423,0-7.065-2.953-7.065-7.349s2.55-7.867,6.739-7.867c4.691,0,5.937,4.192,5.937,6.874a9.923,9.923,0,0,1-.084,1.231Zm7.659-1.9c.033-1.689-.678-4.311-3.621-4.311-2.642,0-3.8,2.47-4.013,4.311Z" transform="translate(15.288 2.289)" fill="#1b171b"/>
        <path id="Trazado_828975" data-name="Trazado 828975" d="M73.6,18.057A7.686,7.686,0,0,0,62.823,15.97a7.947,7.947,0,0,0-2.057,10.939A7.685,7.685,0,0,0,70.273,29.7l3,4.948L75.657,33l-3-4.948A7.949,7.949,0,0,0,73.6,18.057Zm-3.361,8.987a5.383,5.383,0,0,1-7.55-1.46,5.566,5.566,0,0,1,1.438-7.663,5.383,5.383,0,0,1,7.55,1.46A5.581,5.581,0,0,1,70.239,27.045Z" transform="translate(9.05 2.225)" fill="#1b171b"/>
        <path id="Trazado_828976" data-name="Trazado 828976" d="M130.723,31.881h-1.839A27.287,27.287,0,0,0,101.635,4.614V2.747A29.145,29.145,0,0,1,130.723,31.881Z" transform="translate(15.479 0.418)" fill="#4e9bcd"/>
        <path id="Trazado_828977" data-name="Trazado 828977" d="M130.516,22.181A27.918,27.918,0,0,0,111.336,2.12l.418-1.494A29.477,29.477,0,0,1,132,21.825Z" transform="translate(16.957 0.095)" fill="#4e9bcd"/>
        <path id="Trazado_828978" data-name="Trazado 828978" d="M130.652,13.425a28.48,28.48,0,0,0-10.92-12.365L120.368,0a29.7,29.7,0,0,1,11.4,12.916Z" transform="translate(18.236)" fill="#4e9bcd"/>
      </g>
    </g>
    <rect id="Rectángulo_383353" data-name="Rectángulo 383353" width="295" height="70" rx="10" transform="translate(-792 -7660)" fill="#dcecfe"/>
    <rect id="Rectángulo_383352" data-name="Rectángulo 383352" width="295" height="130" rx="10" transform="translate(-792 -7345)" fill="#dcecfe"/>
    <rect id="Rectángulo_383354" data-name="Rectángulo 383354" width="295" height="70" rx="10" transform="translate(-792 -7425)" fill="#dcecfe"/>
    <rect id="Rectángulo_383355" data-name="Rectángulo 383355" width="295" height="50" rx="10" transform="translate(-792 -7580)" fill="#dcecfe"/>
    <rect id="Rectángulo_383351" data-name="Rectángulo 383351" width="295" height="50" rx="10" transform="translate(-792 -7205)" fill="#dcecfe"/>
    <rect id="Rectángulo_383349" data-name="Rectángulo 383349" width="295" height="50" rx="10" transform="translate(-792 -7065)" fill="#dcecfe"/>
    <rect id="Rectángulo_383350" data-name="Rectángulo 383350" width="295" height="70" rx="10" transform="translate(-792 -7145)" fill="#dcecfe"/>
    <rect id="Rectángulo_383356" data-name="Rectángulo 383356" width="295" height="85" rx="10" transform="translate(-792 -7520)" fill="#dcecfe"/>
    <text id="_Instala_un_servidor_local_que_se_puede_configurar_con_diferentes_BD_para_analizar_grandes_cantidades_de_código_o_también_trae_su_BD_embebida._" data-name="• Instala un servidor local que se puede configurar con diferentes BD para analizar grandes cantidades de código o también trae su BD embebida. " transform="translate(-770 -7333)" fill="#12263f" font-size="16" font-family="Roboto-Regular, Roboto"><tspan x="0" y="17">• Instala un servidor local que se </tspan><tspan x="0" y="39">puede configurar con diferentes BD </tspan><tspan x="0" y="61">para analizar grandes cantidades </tspan><tspan x="0" y="83">de código o también trae su BD </tspan><tspan x="0" y="105">embebida. </tspan></text>
    <text id="_Escalable_a_las_necesidades_de_una_empresa." data-name="• Escalable a las necesidades de una empresa." transform="translate(-772 -7130)" fill="#12263f" font-size="16" font-family="Roboto-Regular, Roboto"><tspan x="0" y="17">• Escalable a las necesidades de </tspan><tspan x="0" y="39">una empresa.</tspan></text>
    <text id="_Inspección_continúa." data-name="• Inspección continúa." transform="translate(-772 -7049)" fill="#12263f" font-size="16" font-family="Roboto-Regular, Roboto"><tspan x="0" y="17">• Inspección continúa.</tspan></text>
    <text id="_Curva_de_aprendizaje_rápida." data-name="• Curva de aprendizaje rápida." transform="translate(-773 -7189)" fill="#12263f" font-size="16" font-family="Roboto-Regular, Roboto"><tspan x="0" y="17">• Curva de aprendizaje rápida.</tspan></text>
    <text id="_Integración_DevOps_Jenkins_Azure_DevOps_." data-name="• Integración DevOps (Jenkins &amp; Azure DevOps)." transform="translate(-774 -7645)" fill="#12263f" font-size="16" font-family="Roboto-Regular, Roboto"><tspan x="0" y="17">• Integración DevOps (Jenkins &amp; </tspan><tspan x="0" y="39">Azure DevOps).</tspan></text>
    <text id="_Se_integra_con_IDEs_de_desarrollo_con_herramientas_de_integración_continua." data-name="• Se integra con IDEs de desarrollo con herramientas de integración continua." transform="translate(-774 -7509)" fill="#12263f" font-size="16" font-family="Roboto-Regular, Roboto"><tspan x="0" y="17">• Se integra con IDEs de desarrollo </tspan><tspan x="0" y="39">con herramientas de integración </tspan><tspan x="0" y="61">continua.</tspan></text>
    <text id="_Analiza_el_código_fuente_de_más_de_20_lenguajes_de_programación." data-name="• Analiza el código fuente de más de 20 lenguajes de programación." transform="translate(-774 -7410)" fill="#12263f" font-size="16" font-family="Roboto-Regular, Roboto"><tspan x="0" y="17">• Analiza el código fuente de más de </tspan><tspan x="0" y="39">20 lenguajes de programación.</tspan></text>
    <text id="_Detecta_problemas_complicados." data-name="• Detecta problemas complicados." transform="translate(-774 -7564)" fill="#12263f" font-size="16" font-family="Roboto-Regular, Roboto"><tspan x="0" y="17">• Detecta problemas complicados.</tspan></text>
    <circle id="Elipse_10028" data-name="Elipse 10028" cx="10" cy="10" r="10" transform="translate(-812 -7050)" fill="#1682fb"/>
    <circle id="Elipse_10029" data-name="Elipse 10029" cx="10" cy="10" r="10" transform="translate(-812 -7120)" fill="#1682fb"/>
    <circle id="Elipse_10030" data-name="Elipse 10030" cx="10" cy="10" r="10" transform="translate(-812 -7190)" fill="#1682fb"/>
    <circle id="Elipse_10031" data-name="Elipse 10031" cx="10" cy="10" r="10" transform="translate(-812 -7290)" fill="#1682fb"/>
    <circle id="Elipse_10032" data-name="Elipse 10032" cx="10" cy="10" r="10" transform="translate(-812 -7400)" fill="#1682fb"/>
    <circle id="Elipse_10033" data-name="Elipse 10033" cx="10" cy="10" r="10" transform="translate(-812 -7487)" fill="#1682fb"/>
    <circle id="Elipse_10034" data-name="Elipse 10034" cx="10" cy="10" r="10" transform="translate(-812 -7565)" fill="#1682fb"/>
    <circle id="Elipse_10035" data-name="Elipse 10035" cx="10" cy="10" r="10" transform="translate(-812 -7635)" fill="#1682fb"/>
    <path id="Trazado_831946" data-name="Trazado 831946" d="M236.033-7646.069H218v-649.979H386.185v-36.02" transform="translate(-1044.685 608.068)" fill="none" stroke="#1682fb" stroke-linecap="round" stroke-width="2"/>
    <path id="Trazado_831947" data-name="Trazado 831947" d="M-772.685-7113.149h23.19" transform="translate(-54 3.649)" fill="none" stroke="#1682fb" stroke-linecap="round" stroke-width="2"/>
    <path id="Trazado_831948" data-name="Trazado 831948" d="M-772.685-7113.149h23.19" transform="translate(-54 -66.351)" fill="none" stroke="#1682fb" stroke-linecap="round" stroke-width="2"/>
    <path id="Trazado_831949" data-name="Trazado 831949" d="M-772.685-7113.149h23.19" transform="translate(-54 -166.851)" fill="none" stroke="#1682fb" stroke-linecap="round" stroke-width="2"/>
    <path id="Trazado_831950" data-name="Trazado 831950" d="M-772.685-7113.149h23.19" transform="translate(-54 -276.851)" fill="none" stroke="#1682fb" stroke-linecap="round" stroke-width="2"/>
    <path id="Trazado_831951" data-name="Trazado 831951" d="M-772.685-7113.149h23.19" transform="translate(-54 -364.351)" fill="none" stroke="#1682fb" stroke-linecap="round" stroke-width="2"/>
    <path id="Trazado_831952" data-name="Trazado 831952" d="M-772.685-7113.149h23.19" transform="translate(-54 -441.351)" fill="none" stroke="#1682fb" stroke-linecap="round" stroke-width="2"/>
    <path id="Trazado_831953" data-name="Trazado 831953" d="M-772.685-7113.149h23.19" transform="translate(-54 -511.851)" fill="none" stroke="#1682fb" stroke-linecap="round" stroke-width="2"/>
  </g>
</svg>
