<svg xmlns="http://www.w3.org/2000/svg" xmlns:xlink="http://www.w3.org/1999/xlink" width="569.278" height="317.27" viewBox="0 0 569.278 317.27">
  <defs>
    <clipPath id="clip-path">
      <rect id="Rect치ngulo_383789" data-name="Rect치ngulo 383789" width="270.974" height="274.696" fill="none"/>
    </clipPath>
  </defs>
  <g id="Grupo_1076195" data-name="Grupo 1076195" transform="translate(-810 -900.445)">
    <rect id="Rect치ngulo_382242" data-name="Rect치ngulo 382242" width="569.278" height="277.813" rx="7" transform="translate(810 939.901)" fill="#1682fb"/>
    <g id="Grupo_1076196" data-name="Grupo 1076196" transform="translate(959 900.445)">
      <g id="Grupo_1076196-2" data-name="Grupo 1076196" clip-path="url(#clip-path)">
        <path id="Trazado_833648" data-name="Trazado 833648" d="M270.974,156.669c0,42.007-60.659,76.062-135.488,76.062S0,198.676,0,156.669,60.659,80.607,135.486,80.607s135.488,34.054,135.488,76.062" transform="translate(0 41.966)" fill="#dceaf4"/>
        <path id="Trazado_833649" data-name="Trazado 833649" d="M122.949,79.911V99.726L114.1,91.11Z" transform="translate(59.402 41.604)" fill="#c66bc6"/>
        <path id="Trazado_833650" data-name="Trazado 833650" d="M150.761,99.014c-36.925-14.937-88.9-9.837-116.092,11.389s-19.3,50.541,17.624,65.477,88.9,9.837,116.092-11.389,19.3-50.541-17.624-65.477m-21,49.852c-11.237,8.772-32.716,10.879-47.976,4.706S63.261,135.285,74.5,126.514s32.716-10.88,47.976-4.708,18.521,18.287,7.284,27.06" transform="translate(9.627 47.089)" fill="#c66bc6"/>
        <path id="Trazado_833651" data-name="Trazado 833651" d="M35.943,95.4l-5.6,4.37-9.489,7.407-5.6,4.372,12.014,10.692L37.447,114.3l10.176-7.944L57.8,98.409Z" transform="translate(7.943 49.668)" fill="#c66bc6"/>
        <path id="Trazado_833652" data-name="Trazado 833652" d="M145.5,140.351l-5.6,4.37-9.489,7.407-5.6,4.372-21.857-3.009,10.178-7.944,10.176-7.944,10.176-7.944Z" transform="translate(53.604 67.504)" fill="#c66bc6"/>
        <path id="Trazado_833653" data-name="Trazado 833653" d="M136.095,99.643l-7.6-3.076-12.886-5.211L108,88.279,88.849,95.312l13.819,5.59,13.818,5.59,13.819,5.59Z" transform="translate(46.257 45.96)" fill="#c66bc6"/>
        <path id="Trazado_833654" data-name="Trazado 833654" d="M54.368,162.58l-7.6-3.076-12.886-5.211-7.6-3.076,5.787-12.439,13.819,5.59,13.819,5.59,13.819,5.59Z" transform="translate(13.68 72.251)" fill="#c66bc6"/>
        <path id="Trazado_833655" data-name="Trazado 833655" d="M88.463,84.9l-9.337.915L63.307,87.366l-9.337.915-5.048,12.533,16.967-1.664,16.969-1.665,16.967-1.665Z" transform="translate(25.47 44.2)" fill="#c66bc6"/>
        <path id="Trazado_833656" data-name="Trazado 833656" d="M109.652,159.878l-9.335.915L84.5,162.346l-9.337.915L63.8,152.339l16.969-1.665,16.967-1.664,16.967-1.665Z" transform="translate(33.215 76.711)" fill="#c66bc6"/>
        <path id="Trazado_833657" data-name="Trazado 833657" d="M146.824,129.851V105.763l-27.275,2.047,2.576,9.569,2.576,9.571,2.576,9.569Z" transform="translate(62.24 55.063)" fill="#c66bc6"/>
        <path id="Trazado_833658" data-name="Trazado 833658" d="M13.946,143.95l-1.417-5.266-2.4-8.923L8.709,124.5l3.82-9.9,15.729,3.233,2.576,9.569,2.576,9.569,2.576,9.571Z" transform="translate(4.534 59.661)" fill="#c66bc6"/>
        <path id="Trazado_833659" data-name="Trazado 833659" d="M15.256,90.179v22.94l9.3-1.918,4.618-14.8Z" transform="translate(7.943 46.949)" fill="#c66bc6"/>
        <path id="Trazado_833660" data-name="Trazado 833660" d="M127.144,111.127v24.088l15.725-5.365V105.764Z" transform="translate(66.194 55.063)" fill="#b456b7"/>
        <path id="Trazado_833661" data-name="Trazado 833661" d="M150.761,83.173c-36.925-14.937-88.9-9.837-116.092,11.389s-19.3,50.541,17.624,65.477,88.9,9.837,116.092-11.389,19.3-50.541-17.624-65.477m-21,49.852c-11.237,8.772-32.716,10.88-47.976,4.706S63.261,119.444,74.5,110.673s32.716-10.88,47.976-4.708,18.521,18.287,7.284,27.06" transform="translate(9.627 38.842)" fill="#e79ce1"/>
        <path id="Trazado_833662" data-name="Trazado 833662" d="M35.943,79.559l-5.6,4.37-9.489,7.407-5.6,4.372L27.271,106.4l10.176-7.944,10.176-7.944L57.8,82.569Z" transform="translate(7.943 41.42)" fill="#e79ce1"/>
        <path id="Trazado_833663" data-name="Trazado 833663" d="M145.5,124.51l-5.6,4.37-9.489,7.407-5.6,4.372L102.96,137.65l10.178-7.944,10.176-7.944,10.176-7.944Z" transform="translate(53.604 59.257)" fill="#e79ce1"/>
        <path id="Trazado_833664" data-name="Trazado 833664" d="M136.095,83.8l-7.6-3.076-12.886-5.211L108,72.438,88.849,79.471l13.819,5.59,13.818,5.59,13.819,5.59Z" transform="translate(46.257 37.713)" fill="#e79ce1"/>
        <path id="Trazado_833665" data-name="Trazado 833665" d="M54.368,146.74l-7.6-3.076-12.886-5.211-7.6-3.076,5.787-12.439,13.819,5.59,13.819,5.59,13.819,5.59Z" transform="translate(13.68 64.004)" fill="#e79ce1"/>
        <path id="Trazado_833666" data-name="Trazado 833666" d="M88.463,69.057l-9.337.915L63.307,71.525l-9.337.915L48.922,84.973,65.889,83.31l16.969-1.665L99.825,79.98Z" transform="translate(25.47 35.953)" fill="#e79ce1"/>
        <path id="Trazado_833667" data-name="Trazado 833667" d="M109.652,144.037l-9.335.915L84.5,146.505l-9.337.915L63.8,136.5l16.969-1.665,16.967-1.664L114.7,131.5Z" transform="translate(33.215 68.464)" fill="#e79ce1"/>
        <path id="Trazado_833668" data-name="Trazado 833668" d="M146.824,113.309l-1.417-5.266-2.4-8.923-1.419-5.264-22.038-2.588,2.576,9.569,2.576,9.571,2.576,9.569Z" transform="translate(62.24 47.516)" fill="#e79ce1"/>
        <path id="Trazado_833669" data-name="Trazado 833669" d="M13.946,127l-1.417-5.266-2.4-8.923-1.417-5.264,19.549-6.668,2.576,9.569,2.576,9.569,2.576,9.571Z" transform="translate(4.534 52.521)" fill="#e79ce1"/>
        <path id="Trazado_833670" data-name="Trazado 833670" d="M71.27,143.13v24.088l34.492-3.383V139.746Z" transform="translate(37.105 72.755)" fill="#d680d4"/>
        <path id="Trazado_833671" data-name="Trazado 833671" d="M117.334,137v24.088l20.687-16.149V120.849Z" transform="translate(61.087 62.917)" fill="#d680d4"/>
        <path id="Trazado_833672" data-name="Trazado 833672" d="M54.368,142.481v24.088L26.276,155.205V131.117Z" transform="translate(13.68 68.263)" fill="#d680d4"/>
        <path id="Trazado_833673" data-name="Trazado 833673" d="M13.946,124.719v24.088L8.709,129.354V105.266Z" transform="translate(4.534 54.804)" fill="#d680d4"/>
        <path id="Trazado_833674" data-name="Trazado 833674" d="M60.151,158.96V134.872l-15.4,5.655v24.088Z" transform="translate(23.298 70.217)" fill="#b456b7"/>
        <path id="Trazado_833675" data-name="Trazado 833675" d="M29.882,120.141v24.087l-17.729-2.08V118.059Z" transform="translate(6.327 61.464)" fill="#b456b7"/>
        <path id="Trazado_833676" data-name="Trazado 833676" d="M65.259,136.194v24.088l9.139,8.786V144.98Z" transform="translate(33.976 70.906)" fill="#b456b7"/>
        <path id="Trazado_833677" data-name="Trazado 833677" d="M93.952,143.2l4.062-10.082V157.2l-4.062,10.082Z" transform="translate(48.914 69.304)" fill="#b456b7"/>
        <path id="Trazado_833678" data-name="Trazado 833678" d="M105.777,129.878v24.088l17.574,2.419V132.3Z" transform="translate(55.07 67.618)" fill="#b456b7"/>
        <path id="Trazado_833679" data-name="Trazado 833679" d="M133.9,117.521a112.669,112.669,0,0,0-4.452,13.351s-7.661,7.675-11.986,10.269-6.765,5.693-7.886,8.286,3.526,2.728,6.066,1.4,4.043-5.112,4.642-4.752.515,2.019,1.369,3.351.967-3.64,1.539-5.927,7.875-3.718,10.619-5.614,7.085-12.468,7.075-15.737-6.986-4.627-6.986-4.627" transform="translate(56.957 61.184)" fill="#ffc9b6"/>
        <path id="Trazado_833680" data-name="Trazado 833680" d="M156.889,147.4a12.288,12.288,0,0,0,4.141-4.893c1.128-2.634,4.767-4.614,6.523-1.994s2.795,3.751,3.89,5.382c2.15,3.2,3.35,4.921.877,8.029s-3.764,3.088-5.018,2.211-.882-3.841-1.341-4.092-1.8-1.883-2.8-1.381-6.273-3.262-6.273-3.262" transform="translate(81.68 72.515)" fill="#ffc9b6"/>
        <path id="Trazado_833681" data-name="Trazado 833681" d="M165.3,143.306c-.719-.339-8.262,4.77-12.787,8.16s-10.132,12.241-8.96,14.841,7.843,6.263,14.294-.336a178.647,178.647,0,0,0,13.348-15.989,11.124,11.124,0,0,0-5.9-6.676" transform="translate(74.653 74.601)" fill="#d680d4"/>
        <path id="Trazado_833682" data-name="Trazado 833682" d="M144.682,140.725a12.288,12.288,0,0,0,4.141-4.893c1.128-2.635,4.767-4.614,6.523-1.994s2.795,3.751,3.89,5.381c2.15,3.2,3.35,4.921.877,8.029s-3.764,3.09-5.018,2.211-.882-3.841-1.341-4.092-1.8-1.883-2.8-1.381-6.273-3.262-6.273-3.262" transform="translate(75.325 69.037)" fill="#ffc9b6"/>
        <path id="Trazado_833683" data-name="Trazado 833683" d="M157.085,138.27c-.59-.534-9.288,2.176-14.6,4.112S129.246,151.171,129.615,154c.23,1.756-5.05,4.385-1.773,5.9,5.108,2.369,12.492-.406,15.553-2.092a178.119,178.119,0,0,0,17.4-11.446,11.116,11.116,0,0,0-3.712-8.094" transform="translate(65.998 71.951)" fill="#b456b7"/>
        <path id="Trazado_833684" data-name="Trazado 833684" d="M162.644,128.443c-5.334-2.407-7.985-10.556-8.6-15.8-.625-5.309.237-11.043-1.811-16.111a8.532,8.532,0,0,0-8.964-5.7,9.024,9.024,0,0,0-5.7,2.032,3.682,3.682,0,0,0-1.51,3.558c0,.056-.008.106-.006.163a.055.055,0,0,0,.055.053,3.7,3.7,0,0,0,.093.411,3.65,3.65,0,0,0,.842,1.288c.053.053.1.108.163.157a3.11,3.11,0,0,0,2.643.956c1.586.274,3.3.392,4.118,1.165,1.949,1.84,1.343,6.105,1.67,8.549.322,2.407.537,6.612,1.077,8.979,1.4,6.155,7.694,12.652,15.933,10.3" transform="translate(70.811 47.282)" fill="#672a5c"/>
        <path id="Trazado_833685" data-name="Trazado 833685" d="M133.806,95s2.322-3.161,5.43-1.074c4.118,2.768,2.914,5.6,1.852,6.346S133.806,95,133.806,95" transform="translate(69.663 48.53)" fill="#d680d4"/>
        <path id="Trazado_833686" data-name="Trazado 833686" d="M128.437,164.026c2.947,1.361,6.137,1.118,9.629-.762,2.228-1.2,2.57-2.974,4.273-5,.138-2.722,3.116-9.185,3.116-9.185s-.918-11.709,1.361-15.374c-2.12-1.367-5.155-2.806-5.88-3.424-9.261,7.819-14.233,17.422-15.249,27.33-.245,2.377.167,5.222,2.751,6.414" transform="translate(65.403 67.828)" fill="#b456b7"/>
        <path id="Trazado_833687" data-name="Trazado 833687" d="M156.189,170.1c.277-.2.528-.423.8-.628,4.156-8.217,4.086-16.526,2.238-25.749-.544-2.72-1.673-9.069-4.477-10.558-1.128-.6-14.343-.116-15.675-.526l-.079-.023c-1.188,4.148-2.618,9.527-2.751,11.808-.339,5.871,4.363,7.3,4.363,7.3a41.748,41.748,0,0,0,.81,5.742c.9,4.281,2.888,12.236,6.913,15.757,3.444,1.314,4.4-.664,7.862-3.119" transform="translate(70.921 69.043)" fill="#d680d4"/>
        <path id="Trazado_833688" data-name="Trazado 833688" d="M132.344,109.32c3.528-4.474,5.584-3.911,9.855-1.466,5.234,3,10.961,6.4,13.251,8.307,3.887,3.231,4.638,8.371,5.3,16.744a47.843,47.843,0,0,0,1.318,6.881c1.609,4.574.824,5.325-.319,6.394.628.617,1.242,3.292-.076,4.066-6.057,3.554-19.514,4.185-24.195-4.423-.29-.532.465-2.393.835-2.876a3.791,3.791,0,0,1-1.67-3.161,6.667,6.667,0,0,1-3.738-4.974c-3.6-.811-7.471-2.831-6.3-7.168.57-2.117,2.348-6.939,3.023-9.375,1.338-4.831,1.711-7.672,2.719-8.949" transform="translate(65.801 55.177)" fill="#fff"/>
        <path id="Trazado_833689" data-name="Trazado 833689" d="M132.667,113.481c.985-.161,3.557-1.475,2.789-6.248-.216-1.337,5.794-4.928,5.791-4.74-.064,4.326.614,9.267,2.6,11.511-2.859,2.987-6.124,10.552-11.014,9.513-2.684-.569-2.106-4.53-.163-10.036" transform="translate(68.207 53.357)" fill="#ffb9a4"/>
        <path id="Trazado_833690" data-name="Trazado 833690" d="M131.678,108.74s-.862,4.475-1.425,6.1-1.735,5.333-1.735,5.333,1.588-.839,2.462-.4,1.574,1.6,2.325,1.79a4.788,4.788,0,0,0,1.726,0l.528-2.063s-1.566-.438-1.629-3.066.249-6.192.249-6.192Z" transform="translate(66.91 56.613)" fill="#bdd6e5"/>
        <path id="Trazado_833691" data-name="Trazado 833691" d="M141.456,107.552c-.035.078-1.331,3.122-2.591,5.427a25.271,25.271,0,0,1-5.5,6.107,4.841,4.841,0,0,0-1.338,4.691s.771-1.854,1.779-1.565a10.1,10.1,0,0,1,3.225,2.231c.876-1.413,2.979-2.839,4.425-5.292,1.405-2.384,3.625-6.507,2.806-9.381s-2.806-2.219-2.806-2.219" transform="translate(68.662 55.961)" fill="#bdd6e5"/>
        <path id="Trazado_833692" data-name="Trazado 833692" d="M129.483,99.218c3.83-.859,5.833-1.017,9.235.359a18.967,18.967,0,0,1,5.438,2.5.477.477,0,0,1,.211.435c-.874,5.044-2.568,10.393-8.231,12.633-4.656,1.841-7.269-3.269-8.078-6.694-.944-3.992-1.229-8.639,1.425-9.235" transform="translate(66.32 51.312)" fill="#ffc9b6"/>
        <path id="Trazado_833693" data-name="Trazado 833693" d="M141.894,96.369c-3.656-2.961-8.277-2.6-10.79-.552-2.666,2.167-4.8,5.383-3.6,8.838,1.251.249,3.028-.865,3.875-1.586,1.534,1.715,4.25,3.741,7.57,3.272.654,2.1,2.053,6.729,3.975,6.6,3.847-7.927,4.851-11.814-1.028-16.575" transform="translate(66.203 49.051)" fill="#954a83"/>
        <path id="Trazado_833694" data-name="Trazado 833694" d="M134.445,104.4s.915-3.1,2.935-1.507-.839,4.729-.839,4.729Z" transform="translate(69.995 53.331)" fill="#ffc9b6"/>
        <path id="Trazado_833695" data-name="Trazado 833695" d="M147.479,125.789c-.093,1.16.157,10.8.157,10.8a59.392,59.392,0,0,0-6.724,7.378A19.394,19.394,0,0,1,137.025,148c-1.185.821-2.837,1.043-3.538,1.565a33.62,33.62,0,0,1-3.794,2.286c-.519.283-.182,1.443,1.107,1.213s2.126-.763,2.544-.762-1.572,3.513-2.649,4.577a12.934,12.934,0,0,0-2.781,3.275c-.456,1.069,1.933,2.159,4.24,1.477s5.109-3.592,5.938-5.876a7.25,7.25,0,0,1,2.213-3.627c.368-.365,5.856-4.46,8.456-6.291s5.742-4.826,6.1-6.516c.29-1.375,1.081-4.5,1.781-6.82a43.6,43.6,0,0,0,1.13-5.7Z" transform="translate(66.565 65.489)" fill="#ffc9b6"/>
        <path id="Trazado_833696" data-name="Trazado 833696" d="M142.124,114.161c-1.717,3.532-1.48,17.349-1.48,17.349s5.711.955,10.191,1.986c2.947-5.406,3.858-12.538,1.785-16.853-3.149-6.552-8.792-5.988-10.5-2.482" transform="translate(73.217 58.099)" fill="#bdd6e5"/>
        <path id="Trazado_833697" data-name="Trazado 833697" d="M140.641,124.811a13.67,13.67,0,0,1,5.258-.182,38.11,38.11,0,0,1,5.4,1.274l-.359,2.8s-4.212-1.042-5.967-1.22a16.737,16.737,0,0,0-4.008.254Z" transform="translate(73.221 64.798)" fill="#fff"/>
        <path id="Trazado_833698" data-name="Trazado 833698" d="M130,107.012a20.765,20.765,0,0,0-2.488,4.121,30.886,30.886,0,0,0-1.706,6.977,12.823,12.823,0,0,0-.09,3.149s2.324,1.206,2.7,1.411a49.814,49.814,0,0,0,1.68-5.272c.912-2.947,2.059-7.443,2.059-7.443A26.448,26.448,0,0,1,130,107.012" transform="translate(65.424 55.713)" fill="#bdd6e5"/>
        <path id="Trazado_833699" data-name="Trazado 833699" d="M126.025,116.381l-.946,2.923,2.713,1.251,1.1-3.123a5.224,5.224,0,0,0-2.868-1.051" transform="translate(65.119 60.591)" fill="#fff"/>
        <path id="Trazado_833700" data-name="Trazado 833700" d="M74.13,68.53V80.208L68.913,75.13Z" transform="translate(35.878 35.678)" fill="#d63259"/>
        <path id="Trazado_833701" data-name="Trazado 833701" d="M90.52,79.787c-21.762-8.8-52.393-5.8-68.417,6.712s-11.374,29.786,10.387,38.589,52.392,5.8,68.417-6.712S112.281,88.589,90.52,79.787m-12.378,29.38c-6.622,5.17-19.282,6.411-28.274,2.774s-10.915-10.777-4.293-15.947,19.282-6.411,28.274-2.774S84.764,104,78.142,109.167" transform="translate(6.543 38.911)" fill="#e43c5d"/>
        <path id="Trazado_833702" data-name="Trazado 833702" d="M22.853,77.658l-3.3,2.576L13.962,84.6l-3.3,2.576,7.08,6.3,6-4.682,6-4.682,6-4.682Z" transform="translate(5.551 40.431)" fill="#e43c5d"/>
        <path id="Trazado_833703" data-name="Trazado 833703" d="M87.422,104.15l-3.3,2.576-5.591,4.366-3.3,2.576L62.35,111.894l6-4.682,6-4.682,6-4.682Z" transform="translate(32.461 50.942)" fill="#e43c5d"/>
        <path id="Trazado_833704" data-name="Trazado 833704" d="M81.877,80.158,77.4,78.346,69.8,75.274l-4.48-1.813L54.033,77.605l8.144,3.3,8.144,3.294,8.144,3.3Z" transform="translate(28.131 38.246)" fill="#e43c5d"/>
        <path id="Trazado_833705" data-name="Trazado 833705" d="M33.712,117.25l-4.481-1.813-7.594-3.072-4.481-1.813,3.412-7.331,8.144,3.3,8.143,3.294,8.144,3.3Z" transform="translate(8.932 53.74)" fill="#e43c5d"/>
        <path id="Trazado_833706" data-name="Trazado 833706" d="M53.805,71.469l-5.5.54-9.324.914-5.5.54L30.5,80.85l10-.981,10-.982,10-.981Z" transform="translate(15.881 37.208)" fill="#e43c5d"/>
        <path id="Trazado_833707" data-name="Trazado 833707" d="M66.293,115.657l-5.5.54-9.323.914-5.5.54-6.7-6.437,10-.981,10-.981,10-.981Z" transform="translate(20.445 56.369)" fill="#e43c5d"/>
        <path id="Trazado_833708" data-name="Trazado 833708" d="M88.2,97.962v-14.2L72.125,84.971l1.518,5.64,1.519,5.64,1.518,5.64Z" transform="translate(37.55 43.61)" fill="#e43c5d"/>
        <path id="Trazado_833709" data-name="Trazado 833709" d="M9.89,106.27l-.835-3.1L7.64,97.908,6.8,94.8l2.252-5.833,9.27,1.9,1.518,5.64,1.518,5.64,1.519,5.64Z" transform="translate(3.542 46.321)" fill="#e43c5d"/>
        <path id="Trazado_833710" data-name="Trazado 833710" d="M10.662,74.581V88.1l5.48-1.13,2.722-8.724Z" transform="translate(5.551 38.829)" fill="#ed4069"/>
        <path id="Trazado_833711" data-name="Trazado 833711" d="M76.6,86.927v14.2l9.268-3.161v-14.2Z" transform="translate(39.881 43.61)" fill="#d63259"/>
        <path id="Trazado_833712" data-name="Trazado 833712" d="M90.52,70.452c-21.762-8.8-52.393-5.8-68.417,6.712S10.728,106.95,32.489,115.753s52.392,5.8,68.417-6.712S112.281,79.254,90.52,70.452M78.142,99.832c-6.622,5.17-19.282,6.411-28.274,2.774S38.952,91.829,45.574,86.659s19.282-6.411,28.274-2.774,10.915,10.777,4.293,15.947" transform="translate(6.543 34.051)" fill="#ff5a72"/>
        <path id="Trazado_833713" data-name="Trazado 833713" d="M22.853,68.323l-3.3,2.576-5.591,4.366-3.3,2.576,7.08,6.3,6-4.68,6-4.682,6-4.682Z" transform="translate(5.551 35.57)" fill="#ff5a72"/>
        <path id="Trazado_833714" data-name="Trazado 833714" d="M87.422,94.814l-3.3,2.576-5.591,4.366-3.3,2.576L62.35,102.559l6-4.682,6-4.682,6-4.682Z" transform="translate(32.461 46.082)" fill="#ff5a72"/>
        <path id="Trazado_833715" data-name="Trazado 833715" d="M81.877,70.823,77.4,69.01,69.8,65.939l-4.48-1.813L54.033,68.27l8.144,3.3,8.144,3.294,8.144,3.3Z" transform="translate(28.131 33.386)" fill="#ff5a72"/>
        <path id="Trazado_833716" data-name="Trazado 833716" d="M33.712,107.915,29.231,106.1l-7.594-3.072-4.481-1.813,3.412-7.331,8.144,3.3,8.143,3.294,8.144,3.3Z" transform="translate(8.932 48.88)" fill="#ff5a72"/>
        <path id="Trazado_833717" data-name="Trazado 833717" d="M53.805,62.133l-5.5.54-9.324.914-5.5.54L30.5,71.514l10-.981,10-.982,10-.981Z" transform="translate(15.881 32.348)" fill="#ff5a72"/>
        <path id="Trazado_833718" data-name="Trazado 833718" d="M66.293,106.322l-5.5.54-9.323.914-5.5.54-6.7-6.437,10-.981,10-.981,10-.981Z" transform="translate(20.445 51.509)" fill="#ff5a72"/>
        <path id="Trazado_833719" data-name="Trazado 833719" d="M88.2,88.213l-.835-3.1-1.416-5.258-.835-3.1L72.125,75.223l1.518,5.64,1.519,5.64,1.518,5.64Z" transform="translate(37.55 39.163)" fill="#ff5a72"/>
        <path id="Trazado_833720" data-name="Trazado 833720" d="M9.89,96.283l-.835-3.1L7.64,87.921l-.836-3.1,11.522-3.929,1.518,5.64,1.518,5.64,1.519,5.64Z" transform="translate(3.542 42.112)" fill="#ff5a72"/>
        <path id="Trazado_833721" data-name="Trazado 833721" d="M43.673,105.787v14.2l20.328-2v-14.2Z" transform="translate(22.737 54.038)" fill="#ed4069"/>
        <path id="Trazado_833722" data-name="Trazado 833722" d="M70.821,102.174v14.2l12.191-9.518v-14.2Z" transform="translate(36.871 48.239)" fill="#ed4069"/>
        <path id="Trazado_833723" data-name="Trazado 833723" d="M33.712,105.4v14.2l-16.557-6.7v-14.2Z" transform="translate(8.932 51.39)" fill="#ed4069"/>
        <path id="Trazado_833724" data-name="Trazado 833724" d="M9.89,94.938v14.2L6.8,97.669v-14.2Z" transform="translate(3.542 43.458)" fill="#ed4069"/>
        <path id="Trazado_833725" data-name="Trazado 833725" d="M37.12,115.117v-14.2l-9.077,3.333v14.2Z" transform="translate(14.6 52.541)" fill="#d63259"/>
        <path id="Trazado_833726" data-name="Trazado 833726" d="M19.282,92.239v14.2L8.833,105.208v-14.2Z" transform="translate(4.599 47.383)" fill="#d63259"/>
        <path id="Trazado_833727" data-name="Trazado 833727" d="M40.131,101.7v14.2l5.386,5.178v-14.2Z" transform="translate(20.893 52.947)" fill="#d63259"/>
        <path id="Trazado_833728" data-name="Trazado 833728" d="M57.041,105.827l2.393-5.941v14.2l-2.393,5.943Z" transform="translate(29.697 52.003)" fill="#d63259"/>
        <path id="Trazado_833729" data-name="Trazado 833729" d="M64.009,97.978v14.2L74.366,113.6V99.4Z" transform="translate(33.325 51.01)" fill="#d63259"/>
        <path id="Trazado_833730" data-name="Trazado 833730" d="M106.153,162.759l.809.918a6.045,6.045,0,0,1,1.112-.83l12.087-6.978c2.733-1.577,6.9-1.75,9.27-.385L148.7,166.611a4,4,0,0,1,.373.274l.883-1.005a5.017,5.017,0,0,1,.195,3.835c-.011.029-.027.05-.04.078a4.552,4.552,0,0,1-2.077,2.171l-12.087,6.978c-2.733,1.578-6.9,1.75-9.27.385L107.408,168.2a3.205,3.205,0,0,1-1.369-1.419,1.848,1.848,0,0,1-.114-.219,4.854,4.854,0,0,1,.228-3.8" transform="translate(54.993 80.469)" fill="#672a5c"/>
        <path id="Trazado_833731" data-name="Trazado 833731" d="M126.618,178.083l-19.272-11.126c-2.366-1.366-2.068-3.774.666-5.353l12.087-6.978c2.731-1.578,6.905-1.75,9.271-.385l19.269,11.126c2.366,1.366,2.067,3.774-.665,5.353L135.886,177.7c-2.733,1.578-6.9,1.75-9.268.385" transform="translate(55.056 79.822)" fill="#954a83"/>
        <path id="Trazado_833732" data-name="Trazado 833732" d="M120.738,155.013l-1.559-.9a.669.669,0,0,0-.6.024l-.861.5c-.176.1-.2.258-.044.347l1.56.9a.661.661,0,0,0,.6-.024l.862-.5c.176-.1.195-.257.043-.345" transform="translate(61.211 80.204)" fill="#a85699"/>
        <path id="Trazado_833733" data-name="Trazado 833733" d="M125.827,157.951l-4.67-2.7a.669.669,0,0,0-.6.024l-.861.5c-.176.1-.2.257-.043.347l4.67,2.7a.669.669,0,0,0,.6-.026l.861-.5c.176-.1.2-.257.043-.345" transform="translate(62.241 80.798)" fill="#a85699"/>
        <path id="Trazado_833734" data-name="Trazado 833734" d="M126.739,158.479l-1.559-.9a.669.669,0,0,0-.6.024l-.861.5c-.176.1-.2.258-.043.347l1.559.9a.674.674,0,0,0,.6-.026l.861-.5c.176-.1.2-.257.043-.345" transform="translate(64.336 82.008)" fill="#a85699"/>
        <path id="Trazado_833735" data-name="Trazado 833735" d="M117.711,156.761l-1.559-.9a.669.669,0,0,0-.6.024l-.861.5c-.176.1-.2.257-.044.347l1.56.9a.669.669,0,0,0,.6-.026l.861-.5c.176-.1.195-.257.043-.345" transform="translate(59.635 81.114)" fill="#a85699"/>
        <path id="Trazado_833736" data-name="Trazado 833736" d="M119.689,157.9l-1.559-.9a.669.669,0,0,0-.6.024l-.861.5c-.176.1-.2.257-.044.347l1.56.9a.669.669,0,0,0,.6-.024l.861-.5c.176-.1.2-.257.043-.345" transform="translate(60.665 81.708)" fill="#a85699"/>
        <path id="Trazado_833737" data-name="Trazado 833737" d="M121.735,159.084l-1.559-.9a.669.669,0,0,0-.6.024l-.861.5c-.176.1-.2.258-.044.347l1.56.9a.661.661,0,0,0,.6-.024l.862-.5c.176-.1.195-.257.043-.345" transform="translate(61.73 82.323)" fill="#a85699"/>
        <path id="Trazado_833738" data-name="Trazado 833738" d="M123.712,160.226l-1.559-.9a.669.669,0,0,0-.6.024l-.861.5c-.176.1-.2.258-.043.347l1.559.9a.669.669,0,0,0,.6-.026l.861-.5c.176-.1.2-.257.043-.345" transform="translate(62.76 82.918)" fill="#a85699"/>
        <path id="Trazado_833739" data-name="Trazado 833739" d="M116.2,157.634l-1.559-.9a.669.669,0,0,0-.6.024l-.861.5c-.176.1-.2.258-.043.347l1.559.9a.664.664,0,0,0,.6-.024l.861-.5c.176-.1.2-.257.043-.345" transform="translate(58.848 81.568)" fill="#a85699"/>
        <path id="Trazado_833740" data-name="Trazado 833740" d="M118.176,158.776l-1.559-.9a.669.669,0,0,0-.6.024l-.861.5c-.176.1-.2.258-.044.347l1.56.9a.666.666,0,0,0,.6-.026l.862-.5c.176-.1.195-.257.043-.345" transform="translate(59.877 82.163)" fill="#a85699"/>
        <path id="Trazado_833741" data-name="Trazado 833741" d="M120.221,159.958l-1.559-.9a.669.669,0,0,0-.6.024l-.861.5c-.176.1-.2.258-.043.345l1.559.9a.674.674,0,0,0,.6-.026l.861-.5c.176-.1.2-.257.043-.345" transform="translate(60.943 82.778)" fill="#a85699"/>
        <path id="Trazado_833742" data-name="Trazado 833742" d="M122.2,161.1l-1.559-.9a.669.669,0,0,0-.6.024l-.861.5c-.176.1-.2.258-.044.345l1.56.9a.664.664,0,0,0,.6-.024l.861-.5c.176-.1.195-.257.043-.345" transform="translate(61.972 83.373)" fill="#a85699"/>
        <path id="Trazado_833743" data-name="Trazado 833743" d="M114.278,158.742l-1.559-.9a.669.669,0,0,0-.6.024l-.861.5c-.176.1-.2.258-.043.347l1.559.9a.664.664,0,0,0,.6-.024l.861-.5c.176-.1.2-.257.043-.345" transform="translate(57.849 82.145)" fill="#a85699"/>
        <path id="Trazado_833744" data-name="Trazado 833744" d="M116.257,159.884l-1.559-.9a.669.669,0,0,0-.6.024l-.861.5c-.176.1-.2.258-.044.347l1.559.9a.669.669,0,0,0,.6-.026l.862-.5c.176-.1.195-.257.043-.345" transform="translate(58.878 82.74)" fill="#a85699"/>
        <path id="Trazado_833745" data-name="Trazado 833745" d="M118.3,161.066l-1.559-.9a.669.669,0,0,0-.6.024l-.861.5c-.176.1-.2.257-.044.345l1.56.9a.669.669,0,0,0,.6-.024l.861-.5c.176-.1.2-.257.043-.345" transform="translate(59.944 83.355)" fill="#a85699"/>
        <path id="Trazado_833746" data-name="Trazado 833746" d="M120.28,162.208l-1.559-.9a.669.669,0,0,0-.6.024l-.861.5c-.176.1-.2.257-.043.345l1.559.9a.664.664,0,0,0,.6-.024l.861-.5c.176-.1.2-.257.043-.345" transform="translate(60.973 83.95)" fill="#a85699"/>
        <path id="Trazado_833747" data-name="Trazado 833747" d="M119.225,155.887l-1.559-.9a.672.672,0,0,0-.6.024l-.859.5c-.178.1-.2.258-.043.347l1.557.9a.667.667,0,0,0,.6-.024l.859-.5c.178-.1.2-.257.044-.345" transform="translate(60.423 80.659)" fill="#a85699"/>
        <path id="Trazado_833748" data-name="Trazado 833748" d="M121.2,157.029l-1.559-.9a.669.669,0,0,0-.6.024l-.861.5c-.176.1-.2.259-.044.347l1.56.9a.664.664,0,0,0,.6-.024l.861-.5c.176-.1.195-.257.043-.345" transform="translate(61.453 81.253)" fill="#a85699"/>
        <path id="Trazado_833749" data-name="Trazado 833749" d="M123.247,158.21l-1.559-.9a.669.669,0,0,0-.6.024l-.861.5c-.176.1-.2.258-.043.347l1.559.9a.669.669,0,0,0,.6-.024l.861-.5c.176-.1.2-.257.043-.345" transform="translate(62.518 81.868)" fill="#a85699"/>
        <path id="Trazado_833750" data-name="Trazado 833750" d="M125.227,159.352l-1.559-.9a.669.669,0,0,0-.6.024l-.861.5c-.176.1-.2.258-.044.347l1.56.9a.669.669,0,0,0,.6-.024l.861-.5c.176-.1.195-.257.043-.345" transform="translate(63.548 82.463)" fill="#a85699"/>
        <path id="Trazado_833751" data-name="Trazado 833751" d="M128.748,159.638l-1.559-.9a.669.669,0,0,0-.6.024l-.861.5c-.176.1-.2.257-.044.347l1.56.9a.669.669,0,0,0,.6-.024l.861-.5c.176-.1.195-.257.043-.345" transform="translate(65.381 82.612)" fill="#a85699"/>
        <path id="Trazado_833752" data-name="Trazado 833752" d="M126.508,161.385l-1.559-.9a.669.669,0,0,0-.6.024l-3.163,1.826c-.176.1-.195.257-.043.345l1.56.9a.666.666,0,0,0,.6-.024l3.163-1.826c.176-.1.195-.257.043-.345" transform="translate(63.018 83.521)" fill="#a85699"/>
        <path id="Trazado_833753" data-name="Trazado 833753" d="M122.289,163.367l-1.559-.9a.669.669,0,0,0-.6.024l-.861.5c-.176.1-.2.258-.044.347l1.56.9a.664.664,0,0,0,.6-.024l.861-.5c.176-.1.195-.257.043-.345" transform="translate(62.019 84.553)" fill="#a85699"/>
        <path id="Trazado_833754" data-name="Trazado 833754" d="M127.235,160.511l-1.559-.9a.669.669,0,0,0-.6.024l-.861.5c-.178.1-.2.257-.043.345l1.559.9a.669.669,0,0,0,.6-.026l.861-.5c.176-.1.195-.257.043-.345" transform="translate(64.594 83.066)" fill="#a85699"/>
        <path id="Trazado_833755" data-name="Trazado 833755" d="M130.726,160.78l-1.559-.9a.669.669,0,0,0-.6.024l-.861.5c-.176.1-.2.257-.044.347l1.56.9a.674.674,0,0,0,.6-.026l.861-.5c.176-.1.2-.257.043-.345" transform="translate(66.411 83.206)" fill="#a85699"/>
        <path id="Trazado_833756" data-name="Trazado 833756" d="M135.815,163.717l-4.67-2.7a.669.669,0,0,0-.6.024l-.861.5c-.176.1-.2.259-.043.345l4.67,2.7a.669.669,0,0,0,.6-.026l.861-.5c.176-.1.2-.257.043-.345" transform="translate(67.441 83.801)" fill="#a85699"/>
        <path id="Trazado_833757" data-name="Trazado 833757" d="M127.7,162.527l-1.559-.9a.669.669,0,0,0-.6.024l-.861.5c-.176.1-.2.259-.043.347l1.559.9a.669.669,0,0,0,.6-.026l.861-.5c.176-.1.2-.257.043-.345" transform="translate(64.835 84.116)" fill="#a85699"/>
        <path id="Trazado_833758" data-name="Trazado 833758" d="M129.676,163.669l-1.559-.9a.669.669,0,0,0-.6.024l-.861.5c-.176.1-.2.258-.043.347l1.559.9a.669.669,0,0,0,.6-.026l.861-.5c.176-.1.2-.257.043-.345" transform="translate(65.865 84.71)" fill="#a85699"/>
        <path id="Trazado_833759" data-name="Trazado 833759" d="M131.722,164.851l-1.559-.9a.669.669,0,0,0-.6.024l-.861.5c-.176.1-.2.258-.043.347l1.559.9a.664.664,0,0,0,.6-.024l.861-.5c.176-.1.2-.257.043-.345" transform="translate(66.93 85.326)" fill="#a85699"/>
        <path id="Trazado_833760" data-name="Trazado 833760" d="M126.185,163.4l-1.559-.9a.669.669,0,0,0-.6.024l-.861.5c-.176.1-.2.258-.043.347l1.559.9a.67.67,0,0,0,.6-.026l.861-.5c.176-.1.2-.259.043-.347" transform="translate(64.048 84.571)" fill="#a85699"/>
        <path id="Trazado_833761" data-name="Trazado 833761" d="M128.164,164.543l-1.559-.9a.669.669,0,0,0-.6.024l-.861.5c-.178.1-.2.258-.044.347l1.56.9a.666.666,0,0,0,.6-.024l.861-.5c.178-.1.2-.257.044-.345" transform="translate(65.077 85.165)" fill="#a85699"/>
        <path id="Trazado_833762" data-name="Trazado 833762" d="M130.21,165.724l-1.559-.9a.669.669,0,0,0-.6.024l-.861.5c-.176.1-.2.258-.044.347l1.56.9a.664.664,0,0,0,.6-.024l.861-.5c.176-.1.195-.257.043-.345" transform="translate(66.143 85.78)" fill="#a85699"/>
        <path id="Trazado_833763" data-name="Trazado 833763" d="M124.267,164.509l-1.559-.9a.669.669,0,0,0-.6.024l-.861.5c-.178.1-.2.258-.044.347l1.56.9a.669.669,0,0,0,.6-.026l.861-.5c.176-.1.195-.257.043-.345" transform="translate(63.048 85.148)" fill="#a85699"/>
        <path id="Trazado_833764" data-name="Trazado 833764" d="M126.245,165.651l-1.559-.9a.669.669,0,0,0-.6.024l-.861.5c-.176.1-.2.258-.044.347l1.56.9a.669.669,0,0,0,.6-.026l.861-.5c.176-.1.195-.257.043-.345" transform="translate(64.078 85.742)" fill="#a85699"/>
        <path id="Trazado_833765" data-name="Trazado 833765" d="M128.291,166.832l-1.559-.9a.669.669,0,0,0-.6.024l-.861.5c-.178.1-.2.258-.044.347l1.56.9a.666.666,0,0,0,.6-.026l.862-.5c.176-.1.195-.257.043-.345" transform="translate(65.143 86.357)" fill="#a85699"/>
        <path id="Trazado_833766" data-name="Trazado 833766" d="M120.636,164.288l-1.559-.9a.669.669,0,0,0-.6.026l-.861.5c-.176.1-.2.258-.043.347l1.559.9a.669.669,0,0,0,.6-.024l.861-.5c.176-.1.2-.258.043-.347" transform="translate(61.159 85.033)" fill="#a85699"/>
        <path id="Trazado_833767" data-name="Trazado 833767" d="M122.614,165.432l-1.559-.9a.669.669,0,0,0-.6.024l-.861.5c-.176.1-.2.259-.043.347l1.559.9a.674.674,0,0,0,.6-.026l.861-.5c.176-.1.2-.257.043-.345" transform="translate(62.189 85.628)" fill="#a85699"/>
        <path id="Trazado_833768" data-name="Trazado 833768" d="M124.593,166.574l-1.559-.9a.669.669,0,0,0-.6.024l-.861.5c-.176.1-.2.257-.044.347l1.56.9a.669.669,0,0,0,.6-.026l.861-.5c.176-.1.195-.257.043-.345" transform="translate(63.218 86.223)" fill="#a85699"/>
        <path id="Trazado_833769" data-name="Trazado 833769" d="M126.638,167.755l-1.559-.9a.669.669,0,0,0-.6.024l-.861.5c-.176.1-.2.257-.043.345l1.559.9a.669.669,0,0,0,.6-.026l.861-.5c.176-.1.2-.257.043-.345" transform="translate(64.284 86.837)" fill="#a85699"/>
        <path id="Trazado_833770" data-name="Trazado 833770" d="M129.211,161.653l-1.559-.9a.669.669,0,0,0-.6.024l-.861.5c-.176.1-.2.258-.043.347l1.559.9a.669.669,0,0,0,.6-.026l.861-.5c.176-.1.2-.257.043-.345" transform="translate(65.623 83.661)" fill="#a85699"/>
        <path id="Trazado_833771" data-name="Trazado 833771" d="M131.191,162.8l-1.56-.9a.666.666,0,0,0-.6.024l-.861.5c-.178.1-.2.258-.043.347l1.557.9a.669.669,0,0,0,.6-.026l.861-.5c.178-.1.2-.257.044-.345" transform="translate(66.653 84.256)" fill="#a85699"/>
        <path id="Trazado_833772" data-name="Trazado 833772" d="M133.236,163.977l-1.559-.9a.669.669,0,0,0-.6.024l-.861.5c-.176.1-.2.258-.043.347l1.559.9a.664.664,0,0,0,.6-.024l.861-.5c.176-.1.195-.257.043-.345" transform="translate(67.719 84.871)" fill="#a85699"/>
        <path id="Trazado_833773" data-name="Trazado 833773" d="M98.343,146.441a3.065,3.065,0,0,1,2.471-1.477h.02l.021,0,0,0a3.49,3.49,0,0,1,1.782.537l22.768,13.02a8.357,8.357,0,0,1,3.277,4.448c.26.76,4.621,11.018,5.9,14.411a6.482,6.482,0,0,1,.585,3,1.67,1.67,0,0,1-.062.272c-.331,1.534-2.279,1.629-2.279,1.629l-.187-1.408c-.052-.027-.1-.052-.154-.082l-20.545-11.861c-2.071-1.2-3.7-3.952-5-6.72L100.6,148.679l-.429.412s-2.325-1.7-1.826-2.65" transform="translate(51.163 75.471)" fill="#672a5c"/>
        <path id="Trazado_833774" data-name="Trazado 833774" d="M110.443,169.548l20.542,11.861c2.073,1.2,3.633.654,2.1-3.415-1.28-3.393-5.64-13.651-5.9-14.411a8.338,8.338,0,0,0-3.278-4.448l-22.767-13.02c-1.238-.715-2.635-.856-2.909.408a3.284,3.284,0,0,0,.421,1.819c.2.423,6.791,14.487,6.791,14.487,1.3,2.768,2.929,5.524,5,6.72" transform="translate(51.127 75.789)" fill="#954a83"/>
        <path id="Trazado_833775" data-name="Trazado 833775" d="M116.744,169.456l3.247,1.875-1.2-2.98-3.247-1.875Z" transform="translate(60.156 86.672)" fill="#bdd6e5"/>
        <path id="Trazado_833776" data-name="Trazado 833776" d="M115.546,166.581l.523-.307,3.245,1.875-.522.307Z" transform="translate(60.156 86.566)" fill="#e9f1ff"/>
        <path id="Trazado_833777" data-name="Trazado 833777" d="M118.879,170.794l.522-.307-1.2-2.98-.522.307Z" transform="translate(61.267 87.208)" fill="#8ebcce"/>
        <path id="Trazado_833778" data-name="Trazado 833778" d="M107.577,164.134l3.247,1.875-1.2-2.98-3.247-1.875Z" transform="translate(55.383 83.901)" fill="#bdd6e5"/>
        <path id="Trazado_833779" data-name="Trazado 833779" d="M106.378,161.259l.522-.307,3.248,1.875-.523.307Z" transform="translate(55.383 83.796)" fill="#e9f1ff"/>
        <path id="Trazado_833780" data-name="Trazado 833780" d="M109.711,165.472l.523-.307-1.2-2.98-.522.307Z" transform="translate(56.495 84.437)" fill="#8ebcce"/>
        <path id="Trazado_833781" data-name="Trazado 833781" d="M105.086,69.946l19.983,11.537c3.184,1.838,5.789-.131,5.789-4.376V50.464c0-4.246-2.6-9.223-5.789-11.061L105.086,27.866C101.9,26.027,99.3,28,99.3,32.242V58.885c0,4.246,2.6,9.223,5.789,11.061" transform="translate(51.696 14.149)" fill="#7f3371"/>
        <path id="Trazado_833782" data-name="Trazado 833782" d="M120.786,59.072c.117.263,1.522,6.057,1.522,6.057l-7.273,4.244-3.262-8.692Z" transform="translate(58.192 30.754)" fill="#7f3371"/>
        <path id="Trazado_833783" data-name="Trazado 833783" d="M103.242,27.369l-7.281,4.188L99,36.978l6.194-3.687Z" transform="translate(49.96 14.249)" fill="#7f3371"/>
        <path id="Trazado_833784" data-name="Trazado 833784" d="M100.352,72.669l19.983,11.537c3.184,1.838,5.789-.131,5.789-4.376V53.185c0-4.244-2.6-9.221-5.789-11.06L100.352,30.589c-3.184-1.838-5.789.131-5.789,4.375V61.608c0,4.246,2.6,9.223,5.789,11.061" transform="translate(49.232 15.567)" fill="#954a83"/>
        <path id="Trazado_833785" data-name="Trazado 833785" d="M106.4,65.184C100.565,60,96.945,50.423,98.312,43.8s7.2-7.781,13.032-2.593,9.451,14.761,8.085,21.38-7.2,7.781-13.033,2.593m6.933-8.02c.564-2.736-.931-6.692-3.341-8.836s-4.822-1.664-5.386,1.072.931,6.692,3.341,8.836,4.822,1.664,5.386-1.072" transform="translate(51.033 19.767)" fill="#fff"/>
        <path id="Trazado_833786" data-name="Trazado 833786" d="M96.754,44.192l.281-1.362.477-2.311.281-1.362,2.921,1.182-.511,2.477-.511,2.477-.512,2.479Z" transform="translate(50.373 20.385)" fill="#fff"/>
        <path id="Trazado_833787" data-name="Trazado 833787" d="M113.875,59.76l.281-1.362.477-2.311.281-1.362-2.428-3.578-.511,2.477-.511,2.479-.511,2.477Z" transform="translate(57.765 26.628)" fill="#fff"/>
        <path id="Trazado_833788" data-name="Trazado 833788" d="M106.393,61.144l-1.2-1.069-2.035-1.81-1.2-1.069-.429-3.975,2.184,1.942,2.182,1.942,2.182,1.942Z" transform="translate(52.857 27.709)" fill="#fff"/>
        <path id="Trazado_833789" data-name="Trazado 833789" d="M110.6,41.482l-1.2-1.069-2.035-1.81-1.2-1.069-1.683,2.1,2.184,1.942,2.182,1.942,2.182,1.942Z" transform="translate(54.395 19.541)" fill="#fff"/>
        <path id="Trazado_833790" data-name="Trazado 833790" d="M99.734,54.323l-.651-1.72-1.1-2.914-.651-1.72L99.1,45.994l1.182,3.125,1.182,3.125,1.182,3.125Z" transform="translate(50.673 23.946)" fill="#fff"/>
        <path id="Trazado_833791" data-name="Trazado 833791" d="M114.8,51.206l-.651-1.72-1.1-2.914-.651-1.718-2.906-1.048,1.182,3.125,1.183,3.125,1.182,3.125Z" transform="translate(57.003 22.807)" fill="#fff"/>
        <path id="Trazado_833792" data-name="Trazado 833792" d="M112.93,60.645l-1.048.208-1.776.353-1.048.21L106.69,57.77l1.9-.38,1.905-.379,1.905-.379Z" transform="translate(55.545 29.484)" fill="#fff"/>
        <path id="Trazado_833793" data-name="Trazado 833793" d="M103.391,36.189l-1.048.208-1.776.353-1.048.21.526,4.011,1.905-.379,1.9-.379,1.905-.379Z" transform="translate(51.812 18.841)" fill="#fff"/>
        <path id="Trazado_833794" data-name="Trazado 833794" d="M122.954,42.77l19.983,11.537c3.184,1.838,5.789-.131,5.789-4.376V23.286c0-4.244-2.6-9.221-5.789-11.06L122.954.69c-3.184-1.838-5.789.131-5.789,4.375V31.709c0,4.246,2.6,9.223,5.789,11.061" transform="translate(60.999 0)" fill="#e43c5d"/>
        <path id="Trazado_833795" data-name="Trazado 833795" d="M138.654,31.895c.117.263,1.522,6.057,1.522,6.057L132.9,42.2,129.641,33.5Z" transform="translate(67.494 16.605)" fill="#e43c5d"/>
        <path id="Trazado_833796" data-name="Trazado 833796" d="M121.11.193,113.83,4.381,116.872,9.8l6.193-3.687Z" transform="translate(59.263 0.1)" fill="#e43c5d"/>
        <path id="Trazado_833797" data-name="Trazado 833797" d="M118.22,45.493,138.2,57.03c3.184,1.838,5.789-.131,5.789-4.376V26.009c0-4.244-2.6-9.221-5.789-11.06L118.22,3.413c-3.184-1.838-5.789.131-5.789,4.375V34.432c0,4.246,2.6,9.223,5.789,11.061" transform="translate(58.534 1.418)" fill="#ff5a72"/>
        <path id="Trazado_833798" data-name="Trazado 833798" d="M133.539,30.462v-.993c-.978-2.276-1.908-2.609-1.908-7.068,0-1.508-.753-4.475-4.41-6.589a15.1,15.1,0,0,0-2.787-1.328V17.44c.584.322,1.422.563,2.167.994a3.017,3.017,0,0,1,1.651,2.813c.02,3.935.975,5.149,1.584,6.187v.993c-1.2.578-1.432.036-1.452,4.585-.009,1.546-.94,1.362-1.916.8-.817-.474-1.67-1.213-2.035-1.426v2.98a18.381,18.381,0,0,0,2.635,1.9c3.055,1.764,4.562,1.029,4.562-1.057,0-4.559.783-4.311,1.908-5.749" transform="translate(64.783 7.541)" fill="#fff"/>
        <path id="Trazado_833799" data-name="Trazado 833799" d="M122.116,30.455a3.367,3.367,0,0,1-1.911-3.008c-.018-4.569-.248-4.293-1.451-6.26v-.993c.613-.336,1.565-.447,1.584-4.355,0-1.512.753-1.429,1.645-.912.747.43,1.589,1.162,2.173,1.511V13.483a19.05,19.05,0,0,0-2.787-1.89c-3.567-2.059-4.41-.2-4.41,1.492v.061c-.018,4.448-.935,3.662-1.908,4.807v.994c1.125,2.737,1.908,3.393,1.908,7.951,0,2.089,1.507,4.562,4.562,6.326a12.734,12.734,0,0,0,2.635,1.14v-2.98c-.366-.211-1.221-.455-2.041-.929" transform="translate(59.898 5.564)" fill="#fff"/>
        <path id="Trazado_833800" data-name="Trazado 833800" d="M146.553,66.87l19.984,11.537c3.183,1.838,5.788-.131,5.788-4.376V47.386c0-4.244-2.6-9.221-5.788-11.06L146.553,24.79c-3.184-1.838-5.789.131-5.789,4.375V55.809c0,4.246,2.6,9.223,5.789,11.061" transform="translate(73.285 12.548)" fill="#f8b505"/>
        <path id="Trazado_833801" data-name="Trazado 833801" d="M162.254,56c.117.263,1.522,6.057,1.522,6.057L156.5,66.3,153.241,57.6Z" transform="translate(79.781 29.153)" fill="#f8b505"/>
        <path id="Trazado_833802" data-name="Trazado 833802" d="M144.71,24.293l-7.281,4.188,3.043,5.421,6.193-3.687Z" transform="translate(71.549 12.648)" fill="#f8b505"/>
        <path id="Trazado_833803" data-name="Trazado 833803" d="M141.819,69.593,161.8,81.13c3.184,1.838,5.789-.131,5.789-4.376V50.109c0-4.244-2.6-9.221-5.789-11.06L141.819,27.513c-3.184-1.838-5.789.131-5.789,4.375V58.532c0,4.246,2.6,9.223,5.789,11.061" transform="translate(70.821 13.965)" fill="#fed03d"/>
        <path id="Trazado_833804" data-name="Trazado 833804" d="M147.687,50.133l5.082,2.935v7.313a6.4,6.4,0,0,1-1.026.126,5.542,5.542,0,0,1-1.4-.131,11.33,11.33,0,0,1-1.8-.544,16.189,16.189,0,0,1-2.257-1.1,16.593,16.593,0,0,1-3.367-2.567,14.482,14.482,0,0,1-2.562-3.456,17.8,17.8,0,0,1-1.63-4.455,25.143,25.143,0,0,1-.57-5.6,17.192,17.192,0,0,1,.57-4.921,4.841,4.841,0,0,1,1.619-2.593,3.309,3.309,0,0,1,2.553-.5,10.137,10.137,0,0,1,3.345,1.308,20.271,20.271,0,0,1,2.266,1.508,23.4,23.4,0,0,1,1.79,1.525,16.746,16.746,0,0,1,1.4,1.486q.6.728,1.069,1.337v7.06l-5.082-2.935V43.892a3.953,3.953,0,0,0-.359-1.8,2.7,2.7,0,0,0-1.08-1.119q-.719-.413-1.081-.129c-.24.192-.359.654-.359,1.39v8.525a3.94,3.94,0,0,0,.359,1.8,2.71,2.71,0,0,0,1.081,1.118c.479.278.839.319,1.08.131s.359-.655.359-1.39Z" transform="translate(71.93 18.002)" fill="#fff"/>
        <path id="Trazado_833805" data-name="Trazado 833805" d="M152.236,48.236V43.576l3.535,2.042v4.661l3.475,2V57l-3.475-2V59.65l-3.535-2.042V52.949l-3.494-2.016V46.218Z" transform="translate(77.439 22.687)" fill="#fff"/>
        <path id="Trazado_833806" data-name="Trazado 833806" d="M73.722,37.9c1.981,1.508,4.718,1.574,7.748-.175a21.371,21.371,0,0,0,7.523-8.344l-.66,6.435,4.522-.33c-3.119,5.138-7.075,9.425-11.385,11.913-4.927,2.845-9.39,2.8-12.665.455l.543-6.808Z" transform="translate(35.821 15.295)" fill="#fed03d"/>
        <path id="Trazado_833807" data-name="Trazado 833807" d="M82.306,39.312a27.177,27.177,0,0,0,3.418-12.56c0-3.523-.935-6.212-2.494-7.833l4.454-1.586,1.807-7.039c2.193,2.74,3.49,6.926,3.49,12.267,0,7.655-2.661,16.012-6.812,22.857l-4.522.33Z" transform="translate(42.507 5.359)" fill="#954a83"/>
        <path id="Trazado_833808" data-name="Trazado 833808" d="M90.217,20.176c-2.007-2.088-5.045-2.4-8.447-.439-3.355,1.937-6.355,5.687-8.362,10.016l-.5-5.987L68.224,25.96c3.33-6.878,8.163-12.79,13.546-15.9,6.044-3.49,11.4-2.649,14.707,1.489L94.671,18.59Z" transform="translate(35.519 4.102)" fill="#ff5a72"/>
        <path id="Trazado_833809" data-name="Trazado 833809" d="M60.21,33.121c-.02-.026-.038-.053-.058-.081v0l-.141-.2.166-.259.293-5.748,4.9-3.657q.244.267.474.555l0-.006.09.129a12.683,12.683,0,0,1,.8,1.154L76,38.363s.791,1.145.976,1.4A6.44,6.44,0,0,0,78.3,41.129l-4.375,3.146-.543,6.806a10.263,10.263,0,0,1-1.91-1.806c-.067-.081-.978-1.331-.978-1.331Z" transform="translate(31.243 12.063)" fill="#954a83"/>
        <path id="Trazado_833810" data-name="Trazado 833810" d="M44.565,41.594C47.88,33.713,53.2,26.773,59.195,23.31c5.759-3.324,10.888-2.719,14.221.923l-4.9,3.657L68.194,34.1c-1.972-2.67-5.263-3.275-9-1.119-3.333,1.925-6.315,5.637-8.322,9.931l-4.586,3.578Z" transform="translate(23.202 11)" fill="#ff5a72"/>
        <path id="Trazado_833811" data-name="Trazado 833811" d="M42.219,51.072a43.36,43.36,0,0,1,3.567-16.485l1.721,4.9,4.585-3.578a26.574,26.574,0,0,0-2.617,10.974c0,3.91,1.156,6.79,3.032,8.324l.686,5.883-4.329,4.892c-4.057-2.108-6.645-7.358-6.645-14.91" transform="translate(21.98 18.007)" fill="#d680d4"/>
        <path id="Trazado_833812" data-name="Trazado 833812" d="M60.751,51.5l.012-.009,9.956-25.858s1.194-3.032,1.294-3.266q.406-.933.847-1.846l4.688-2.193.5,5.987q-.3.655-.572,1.324L66.892,53.108c-.119.315-.769,1.934-.856,2.14q-.614,1.446-1.314,2.842l-.49-5.489-4.913,2.123A29.844,29.844,0,0,0,60.751,51.5" transform="translate(30.883 9.541)" fill="#d680d4"/>
        <path id="Trazado_833813" data-name="Trazado 833813" d="M50.92,57.821l-.686-5.883c1.992,1.629,4.8,1.743,7.909-.053,3.061-1.767,5.822-5.047,7.805-8.9l4.912-2.123.49,5.489c-3.315,6.581-8,12.2-13.207,15.2-4.387,2.532-8.411,2.786-11.554,1.153Z" transform="translate(24.255 21.276)" fill="#fed03d"/>
      </g>
    </g>
  </g>
</svg>
