<svg xmlns="http://www.w3.org/2000/svg" width="50.515" height="54.411" viewBox="0 0 50.515 54.411">
  <g id="framework" transform="translate(-21 -5.7)">
    <g id="Grupo_1074733" data-name="Grupo 1074733" transform="translate(41.227 19.782)">
      <path id="Trazado_828695" data-name="Trazado 828695" d="M189.632,129.664a5.032,5.032,0,1,1,5.032-5.032A5.036,5.036,0,0,1,189.632,129.664Zm0-8.815a3.8,3.8,0,1,0,3.8,3.8A3.8,3.8,0,0,0,189.632,120.849Z" transform="translate(-184.6 -119.6)" fill="#1682fb"/>
    </g>
    <g id="Grupo_1074734" data-name="Grupo 1074734" transform="translate(36.392 14.985)">
      <path id="Trazado_828696" data-name="Trazado 828696" d="M156.5,100.532h-2.275a.612.612,0,0,1-.618-.618V98.863c-.284-.062-.556-.136-.828-.223l-.532.915a.61.61,0,0,1-.841.223l-1.966-1.137a.649.649,0,0,1-.284-.371.633.633,0,0,1,.062-.47l.532-.915c-.21-.2-.42-.4-.606-.606l-.915.532a.61.61,0,0,1-.841-.223l-1.137-1.966a.61.61,0,0,1,.223-.841l.915-.532c-.087-.272-.161-.544-.223-.828h-1.051a.612.612,0,0,1-.618-.618V89.529a.612.612,0,0,1,.618-.618h1.051c.062-.284.136-.556.223-.828l-.915-.532a.649.649,0,0,1-.284-.371.626.626,0,0,1,.062-.47l1.137-1.966a.61.61,0,0,1,.841-.223l.915.532c.2-.21.4-.42.606-.606l-.532-.915a.626.626,0,0,1-.062-.47.58.58,0,0,1,.284-.371l1.966-1.137a.61.61,0,0,1,.841.223l.532.915c.272-.087.544-.161.828-.223V81.418a.612.612,0,0,1,.618-.618H156.5a.612.612,0,0,1,.618.618v1.051c.284.062.556.136.828.223l.532-.915a.61.61,0,0,1,.841-.223l1.978,1.137a.649.649,0,0,1,.284.371.618.618,0,0,1-.062.47l-.532.915c.21.2.42.4.606.606l.915-.532a.607.607,0,0,1,.841.223l1.137,1.966a.618.618,0,0,1,.062.47.58.58,0,0,1-.284.371l-.915.532c.087.272.161.544.223.828h1.051a.612.612,0,0,1,.618.618V91.8a.612.612,0,0,1-.618.618h-1.051c-.062.284-.136.556-.223.828l.915.532a.649.649,0,0,1,.284.371.633.633,0,0,1-.062.47l-1.137,1.966a.61.61,0,0,1-.841.223l-.915-.532a7,7,0,0,1-.606.606l.532.915a.618.618,0,0,1,.062.47.58.58,0,0,1-.284.371l-1.978,1.137a.618.618,0,0,1-.47.062.58.58,0,0,1-.371-.284l-.532-.915c-.272.087-.556.161-.828.223v1.051A.628.628,0,0,1,156.5,100.532ZM154.847,99.3h1.039v-.952a.6.6,0,0,1,.532-.606,7.228,7.228,0,0,0,1.595-.42.632.632,0,0,1,.767.26l.482.828.9-.519-.482-.828a.627.627,0,0,1,.148-.791,7.379,7.379,0,0,0,1.162-1.162.612.612,0,0,1,.791-.148l.828.482.519-.9-.828-.482a.613.613,0,0,1-.26-.767,6.885,6.885,0,0,0,.42-1.595.625.625,0,0,1,.618-.532h.952V90.122h-.952a.625.625,0,0,1-.618-.532,7.228,7.228,0,0,0-.42-1.595.632.632,0,0,1,.26-.767l.828-.482-.519-.9-.828.482a.627.627,0,0,1-.791-.148,7.379,7.379,0,0,0-1.162-1.162.612.612,0,0,1-.148-.791l.482-.828-.9-.519-.482.828a.619.619,0,0,1-.767.272,7.053,7.053,0,0,0-1.595-.42.622.622,0,0,1-.532-.606V82h-1.039v.952a.6.6,0,0,1-.532.606,7.229,7.229,0,0,0-1.595.42.623.623,0,0,1-.767-.272l-.482-.828-.9.519.482.828a.627.627,0,0,1-.148.791,7.38,7.38,0,0,0-1.162,1.162.612.612,0,0,1-.791.148l-.828-.482-.519.9.828.482a.613.613,0,0,1,.26.767,6.885,6.885,0,0,0-.42,1.595.622.622,0,0,1-.606.532h-.952v1.039h.952a.6.6,0,0,1,.606.532,7.228,7.228,0,0,0,.42,1.595.632.632,0,0,1-.26.767l-.828.482.519.9.828-.482a.627.627,0,0,1,.791.148,7.38,7.38,0,0,0,1.162,1.162.612.612,0,0,1,.148.791l-.482.828.9.519.482-.828a.613.613,0,0,1,.767-.26,6.886,6.886,0,0,0,1.595.42.622.622,0,0,1,.532.606Z" transform="translate(-145.5 -80.8)" fill="#1682fb"/>
    </g>
    <g id="Grupo_1074735" data-name="Grupo 1074735" transform="translate(28.554 5.7)">
      <path id="Trazado_828697" data-name="Trazado 828697" d="M114.851,37.771H84.758A2.662,2.662,0,0,1,82.1,35.113V8.358A2.662,2.662,0,0,1,84.758,5.7h30.093a2.662,2.662,0,0,1,2.658,2.658V35.1A2.673,2.673,0,0,1,114.851,37.771ZM84.758,6.936a1.43,1.43,0,0,0-1.422,1.422V35.1a1.422,1.422,0,0,0,1.422,1.422h30.093a1.422,1.422,0,0,0,1.422-1.422V8.358a1.43,1.43,0,0,0-1.422-1.422Z" transform="translate(-82.1 -5.7)" fill="#1682fb"/>
    </g>
    <g id="Grupo_1074736" data-name="Grupo 1074736" transform="translate(28.554 11.882)">
      <path id="Trazado_828698" data-name="Trazado 828698" d="M116.891,56.936H82.718a.618.618,0,1,1,0-1.236h34.172a.612.612,0,0,1,.618.618A.62.62,0,0,1,116.891,56.936Z" transform="translate(-82.1 -55.7)" fill="#1682fb"/>
    </g>
    <g id="Grupo_1074737" data-name="Grupo 1074737" transform="translate(31.398 7.579)">
      <path id="Trazado_828699" data-name="Trazado 828699" d="M106.93,24.56a1.83,1.83,0,1,1,1.83-1.83,1.834,1.834,0,0,1-1.83,1.83Zm0-2.436a.594.594,0,0,0-.593.593.593.593,0,0,0,1.187,0A.586.586,0,0,0,106.93,22.124Z" transform="translate(-105.1 -20.9)" fill="#1682fb"/>
    </g>
    <g id="Grupo_1074738" data-name="Grupo 1074738" transform="translate(35.651 7.579)">
      <path id="Trazado_828700" data-name="Trazado 828700" d="M141.33,24.56a1.83,1.83,0,1,1,1.83-1.83A1.834,1.834,0,0,1,141.33,24.56Zm0-2.436a.594.594,0,0,0-.593.593.593.593,0,1,0,.593-.593Z" transform="translate(-139.5 -20.9)" fill="#1682fb"/>
    </g>
    <g id="Grupo_1074739" data-name="Grupo 1074739" transform="translate(39.891 7.579)">
      <path id="Trazado_828701" data-name="Trazado 828701" d="M175.63,24.56a1.83,1.83,0,1,1,1.83-1.83A1.834,1.834,0,0,1,175.63,24.56Zm0-2.436a.594.594,0,0,0-.593.593.593.593,0,0,0,1.187,0A.586.586,0,0,0,175.63,22.124Z" transform="translate(-173.8 -20.9)" fill="#1682fb"/>
    </g>
    <g id="Grupo_1074740" data-name="Grupo 1074740" transform="translate(21 41.579)">
      <path id="Trazado_828702" data-name="Trazado 828702" d="M35.119,314.433h-13.5a.612.612,0,0,1-.618-.618v-17.3a.612.612,0,0,1,.618-.618H31.67a.618.618,0,0,1,0,1.236H22.236V313.2H34.5V299.968a.618.618,0,0,1,1.236,0v13.859A.626.626,0,0,1,35.119,314.433Z" transform="translate(-21 -295.9)" fill="#1682fb"/>
    </g>
    <g id="Grupo_1074741" data-name="Grupo 1074741" transform="translate(31.051 41.566)">
      <path id="Trazado_828703" data-name="Trazado 828703" d="M106.368,300.482h-3.449a.612.612,0,0,1-.618-.618v-3.449a.6.6,0,0,1,.383-.569.586.586,0,0,1,.668.136l3.449,3.449a.612.612,0,0,1-.433,1.051Zm-2.831-1.236h1.335l-1.335-1.335Z" transform="translate(-102.3 -295.796)" fill="#1682fb"/>
    </g>
    <g id="Grupo_1074742" data-name="Grupo 1074742" transform="translate(23.473 47.229)">
      <path id="Trazado_828704" data-name="Trazado 828704" d="M50.161,342.836H41.618a.618.618,0,1,1,0-1.236h8.543a.618.618,0,1,1,0,1.236Z" transform="translate(-41 -341.6)" fill="#1682fb"/>
    </g>
    <g id="Grupo_1074743" data-name="Grupo 1074743" transform="translate(23.473 49.59)">
      <path id="Trazado_828705" data-name="Trazado 828705" d="M50.161,361.936H41.618a.618.618,0,1,1,0-1.236h8.543a.618.618,0,1,1,0,1.236Z" transform="translate(-41 -360.7)" fill="#1682fb"/>
    </g>
    <g id="Grupo_1074744" data-name="Grupo 1074744" transform="translate(23.473 51.952)">
      <path id="Trazado_828706" data-name="Trazado 828706" d="M50.161,381.036H41.618a.618.618,0,1,1,0-1.236h8.543a.618.618,0,1,1,0,1.236Z" transform="translate(-41 -379.8)" fill="#1682fb"/>
    </g>
    <g id="Grupo_1074745" data-name="Grupo 1074745" transform="translate(23.473 54.301)">
      <path id="Trazado_828707" data-name="Trazado 828707" d="M50.161,400.036H41.618a.618.618,0,1,1,0-1.236h8.543a.618.618,0,1,1,0,1.236Z" transform="translate(-41 -398.8)" fill="#1682fb"/>
    </g>
    <g id="Grupo_1074746" data-name="Grupo 1074746" transform="translate(23.473 56.662)">
      <path id="Trazado_828708" data-name="Trazado 828708" d="M50.161,419.136H41.618a.618.618,0,1,1,0-1.236h8.543a.618.618,0,1,1,0,1.236Z" transform="translate(-41 -417.9)" fill="#1682fb"/>
    </g>
    <g id="Grupo_1074747" data-name="Grupo 1074747" transform="translate(38.89 41.579)">
      <path id="Trazado_828709" data-name="Trazado 828709" d="M179.819,314.433h-13.5a.612.612,0,0,1-.618-.618v-17.3a.612.612,0,0,1,.618-.618H176.37a.618.618,0,0,1,0,1.236h-9.433V313.2H179.2V299.968a.618.618,0,0,1,1.236,0v13.859A.626.626,0,0,1,179.819,314.433Z" transform="translate(-165.7 -295.9)" fill="#1682fb"/>
    </g>
    <g id="Grupo_1074748" data-name="Grupo 1074748" transform="translate(48.941 41.566)">
      <path id="Trazado_828710" data-name="Trazado 828710" d="M251.068,300.482h-3.449a.612.612,0,0,1-.618-.618v-3.449a.622.622,0,0,1,1.063-.433l3.449,3.449a.627.627,0,0,1,.136.68A.656.656,0,0,1,251.068,300.482Zm-2.831-1.236h1.335l-1.335-1.335Z" transform="translate(-247 -295.796)" fill="#1682fb"/>
    </g>
    <g id="Grupo_1074749" data-name="Grupo 1074749" transform="translate(41.363 47.229)">
      <path id="Trazado_828711" data-name="Trazado 828711" d="M194.861,342.836h-8.543a.618.618,0,1,1,0-1.236h8.543a.618.618,0,0,1,0,1.236Z" transform="translate(-185.7 -341.6)" fill="#1682fb"/>
    </g>
    <g id="Grupo_1074750" data-name="Grupo 1074750" transform="translate(41.363 49.59)">
      <path id="Trazado_828712" data-name="Trazado 828712" d="M194.861,361.936h-8.543a.618.618,0,1,1,0-1.236h8.543a.618.618,0,1,1,0,1.236Z" transform="translate(-185.7 -360.7)" fill="#1682fb"/>
    </g>
    <g id="Grupo_1074751" data-name="Grupo 1074751" transform="translate(41.363 51.952)">
      <path id="Trazado_828713" data-name="Trazado 828713" d="M194.861,381.036h-8.543a.618.618,0,1,1,0-1.236h8.543a.618.618,0,1,1,0,1.236Z" transform="translate(-185.7 -379.8)" fill="#1682fb"/>
    </g>
    <g id="Grupo_1074752" data-name="Grupo 1074752" transform="translate(41.363 54.301)">
      <path id="Trazado_828714" data-name="Trazado 828714" d="M194.861,400.036h-8.543a.618.618,0,1,1,0-1.236h8.543a.618.618,0,0,1,0,1.236Z" transform="translate(-185.7 -398.8)" fill="#1682fb"/>
    </g>
    <g id="Grupo_1074753" data-name="Grupo 1074753" transform="translate(41.363 56.662)">
      <path id="Trazado_828715" data-name="Trazado 828715" d="M194.861,419.136h-8.543a.618.618,0,1,1,0-1.236h8.543a.618.618,0,0,1,0,1.236Z" transform="translate(-185.7 -417.9)" fill="#1682fb"/>
    </g>
    <g id="Grupo_1074754" data-name="Grupo 1074754" transform="translate(56.767 41.579)">
      <path id="Trazado_828716" data-name="Trazado 828716" d="M324.419,314.433h-13.5a.612.612,0,0,1-.618-.618v-17.3a.612.612,0,0,1,.618-.618H320.97a.618.618,0,0,1,0,1.236h-9.433V313.2H323.8V299.968a.618.618,0,0,1,1.236,0v13.859A.618.618,0,0,1,324.419,314.433Z" transform="translate(-310.3 -295.9)" fill="#1682fb"/>
    </g>
    <g id="Grupo_1074755" data-name="Grupo 1074755" transform="translate(66.819 41.566)">
      <path id="Trazado_828717" data-name="Trazado 828717" d="M395.668,300.482h-3.449a.612.612,0,0,1-.618-.618v-3.449a.622.622,0,0,1,1.063-.433l3.449,3.449a.612.612,0,0,1-.445,1.051Zm-2.819-1.236h1.335l-1.335-1.335Z" transform="translate(-391.6 -295.796)" fill="#1682fb"/>
    </g>
    <g id="Grupo_1074756" data-name="Grupo 1074756" transform="translate(59.252 47.229)">
      <path id="Trazado_828718" data-name="Trazado 828718" d="M339.561,342.836h-8.543a.618.618,0,0,1,0-1.236h8.543a.618.618,0,1,1,0,1.236Z" transform="translate(-330.4 -341.6)" fill="#1682fb"/>
    </g>
    <g id="Grupo_1074757" data-name="Grupo 1074757" transform="translate(59.252 49.59)">
      <path id="Trazado_828719" data-name="Trazado 828719" d="M339.561,361.936h-8.543a.618.618,0,0,1,0-1.236h8.543a.618.618,0,1,1,0,1.236Z" transform="translate(-330.4 -360.7)" fill="#1682fb"/>
    </g>
    <g id="Grupo_1074758" data-name="Grupo 1074758" transform="translate(59.252 51.952)">
      <path id="Trazado_828720" data-name="Trazado 828720" d="M339.561,381.036h-8.543a.618.618,0,1,1,0-1.236h8.543a.618.618,0,1,1,0,1.236Z" transform="translate(-330.4 -379.8)" fill="#1682fb"/>
    </g>
    <g id="Grupo_1074759" data-name="Grupo 1074759" transform="translate(59.252 54.301)">
      <path id="Trazado_828721" data-name="Trazado 828721" d="M339.561,400.036h-8.543a.618.618,0,0,1,0-1.236h8.543a.618.618,0,1,1,0,1.236Z" transform="translate(-330.4 -398.8)" fill="#1682fb"/>
    </g>
    <g id="Grupo_1074760" data-name="Grupo 1074760" transform="translate(59.252 56.662)">
      <path id="Trazado_828722" data-name="Trazado 828722" d="M339.561,419.136h-8.543a.618.618,0,0,1,0-1.236h8.543a.618.618,0,1,1,0,1.236Z" transform="translate(-330.4 -417.9)" fill="#1682fb"/>
    </g>
    <g id="Grupo_1074761" data-name="Grupo 1074761" transform="translate(45.64 36.534)">
      <path id="Trazado_828723" data-name="Trazado 828723" d="M220.918,261.381a.612.612,0,0,1-.618-.618v-5.044a.618.618,0,0,1,1.236,0v5.044A.628.628,0,0,1,220.918,261.381Z" transform="translate(-220.3 -255.1)" fill="#1682fb"/>
    </g>
    <g id="Grupo_1074762" data-name="Grupo 1074762" transform="translate(34.501 51.952)">
      <path id="Trazado_828724" data-name="Trazado 828724" d="M135.207,381.036h-4.389a.618.618,0,1,1,0-1.236h4.389a.612.612,0,0,1,.618.618A.62.62,0,0,1,135.207,381.036Z" transform="translate(-130.2 -379.8)" fill="#1682fb"/>
    </g>
    <g id="Grupo_1074763" data-name="Grupo 1074763" transform="translate(52.378 51.952)">
      <path id="Trazado_828725" data-name="Trazado 828725" d="M279.807,381.036h-4.389a.618.618,0,1,1,0-1.236h4.389a.618.618,0,1,1,0,1.236Z" transform="translate(-274.8 -379.8)" fill="#1682fb"/>
    </g>
  </g>
</svg>
