<svg xmlns="http://www.w3.org/2000/svg" width="50.999" height="47.996" viewBox="0 0 50.999 47.996">
  <g id="cli" transform="translate(-1 -2.9)">
    <path id="Trazado_828871" data-name="Trazado 828871" d="M36.379,39.464H4.845A2.833,2.833,0,0,1,2,36.619V6.745A2.833,2.833,0,0,1,4.845,3.9H43.491a2.833,2.833,0,0,1,2.845,2.845V23.1" transform="translate(0 0)" fill="none" stroke="#1682fb" stroke-linecap="round" stroke-linejoin="round" stroke-miterlimit="10" stroke-width="2"/>
    <g id="Grupo_1074806" data-name="Grupo 1074806" transform="translate(5.635 7.377)">
      <path id="Trazado_828872" data-name="Trazado 828872" d="M37.58,36.83H6.6V8.3H43.666V23.79" transform="translate(-6.6 -8.3)" fill="none" stroke="#1682fb" stroke-linecap="round" stroke-linejoin="round" stroke-miterlimit="10" stroke-width="2"/>
    </g>
    <g id="Grupo_1074807" data-name="Grupo 1074807" transform="translate(5.635 7.377)">
      <path id="Trazado_828873" data-name="Trazado 828873" d="M6.6,8.3H43.745v6.085H6.6Z" transform="translate(-6.6 -8.3)" fill="none" stroke="#1682fb" stroke-linecap="round" stroke-linejoin="round" stroke-miterlimit="10" stroke-width="2"/>
    </g>
    <g id="Grupo_1074811" data-name="Grupo 1074811" transform="translate(9.271 10.46)">
      <path id="Trazado_828874" data-name="Trazado 828874" d="M34.666,55.3H22.1l1.264-6.4H33.4Z" transform="translate(-13.486 -19.896)" fill="none" stroke="#1682fb" stroke-linecap="round" stroke-linejoin="round" stroke-miterlimit="10" stroke-width="2"/>
      <path id="Trazado_828875" data-name="Trazado 828875" d="M36.524,61.031H18.9L21.429,57H33.995Z" transform="translate(-12.815 -21.594)" fill="none" stroke="#1682fb" stroke-linecap="round" stroke-linejoin="round" stroke-miterlimit="10" stroke-width="2"/>
      <path id="Trazado_828876" data-name="Trazado 828876" d="M58.071,54.95H48.034A2.125,2.125,0,0,1,45.9,52.816V30.134A2.125,2.125,0,0,1,48.034,28H58.071A2.125,2.125,0,0,1,60.2,30.134V52.816A2.125,2.125,0,0,1,58.071,54.95Z" transform="translate(-18.476 -15.513)" fill="none" stroke="#1682fb" stroke-linecap="round" stroke-linejoin="round" stroke-miterlimit="10" stroke-width="2"/>
      <path id="Trazado_828877" data-name="Trazado 828877" d="M60.226,32.052V30a1.923,1.923,0,0,0-1.9-1.9H47.9A1.923,1.923,0,0,0,46,30v2.055Z" transform="translate(-18.497 -15.534)" fill="none" stroke="#1682fb" stroke-linecap="round" stroke-linejoin="round" stroke-miterlimit="10" stroke-width="2"/>
      <path id="Trazado_828878" data-name="Trazado 828878" d="M60.2,59.155V57.1H45.9v2.055a1.923,1.923,0,0,0,1.9,1.9H58.229A1.941,1.941,0,0,0,60.2,59.155Z" transform="translate(-18.476 -21.615)" fill="none" stroke="#1682fb" stroke-linecap="round" stroke-linejoin="round" stroke-miterlimit="10" stroke-width="2"/>
      <g id="Grupo_1074808" data-name="Grupo 1074808" transform="translate(0.395 7.271)">
        <path id="Trazado_828879" data-name="Trazado 828879" d="M11.7,21.4H23.634" transform="translate(-11.7 -21.4)" fill="none" stroke="#1682fb" stroke-linecap="round" stroke-linejoin="round" stroke-miterlimit="10" stroke-width="2"/>
        <path id="Trazado_828880" data-name="Trazado 828880" d="M11.7,26.9h23" transform="translate(-11.7 -22.553)" fill="none" stroke="#1682fb" stroke-linecap="round" stroke-linejoin="round" stroke-miterlimit="10" stroke-width="2"/>
        <path id="Trazado_828881" data-name="Trazado 828881" d="M11.7,32h5.69v5.69H11.7Z" transform="translate(-11.7 -23.623)" fill="none" stroke="#1682fb" stroke-linecap="round" stroke-linejoin="round" stroke-miterlimit="10" stroke-width="2"/>
        <path id="Trazado_828882" data-name="Trazado 828882" d="M23.2,32h5.69v5.69H23.2Z" transform="translate(-14.111 -23.623)" fill="none" stroke="#1682fb" stroke-linecap="round" stroke-linejoin="round" stroke-miterlimit="10" stroke-width="2"/>
        <path id="Trazado_828883" data-name="Trazado 828883" d="M34.7,32h5.69v5.69H34.7Z" transform="translate(-16.523 -23.623)" fill="none" stroke="#1682fb" stroke-linecap="round" stroke-linejoin="round" stroke-miterlimit="10" stroke-width="2"/>
      </g>
      <g id="Grupo_1074809" data-name="Grupo 1074809">
        <path id="Trazado_828884" data-name="Trazado 828884" d="M11.2,12.2h1.581" transform="translate(-11.2 -12.2)" fill="none" stroke="#1682fb" stroke-linecap="round" stroke-linejoin="round" stroke-miterlimit="10" stroke-width="2"/>
        <path id="Trazado_828885" data-name="Trazado 828885" d="M16.7,12.2h1.581" transform="translate(-12.353 -12.2)" fill="none" stroke="#1682fb" stroke-linecap="round" stroke-linejoin="round" stroke-miterlimit="10" stroke-width="2"/>
        <path id="Trazado_828886" data-name="Trazado 828886" d="M22.2,12.2h1.581" transform="translate(-13.507 -12.2)" fill="none" stroke="#1682fb" stroke-linecap="round" stroke-linejoin="round" stroke-miterlimit="10" stroke-width="2"/>
      </g>
      <g id="Grupo_1074810" data-name="Grupo 1074810" transform="translate(31.771 19.758)">
        <path id="Trazado_828887" data-name="Trazado 828887" d="M51.4,46.3h5.611v5.216H51.4Z" transform="translate(-51.4 -39.108)" fill="none" stroke="#1682fb" stroke-linecap="round" stroke-linejoin="round" stroke-miterlimit="10" stroke-width="2"/>
        <path id="Trazado_828888" data-name="Trazado 828888" d="M51.4,37.2h2.845" transform="translate(-51.4 -37.2)" fill="none" stroke="#1682fb" stroke-linecap="round" stroke-linejoin="round" stroke-miterlimit="10" stroke-width="2"/>
        <path id="Trazado_828889" data-name="Trazado 828889" d="M51.4,41.8h5.611" transform="translate(-51.4 -38.165)" fill="none" stroke="#1682fb" stroke-linecap="round" stroke-linejoin="round" stroke-miterlimit="10" stroke-width="2"/>
      </g>
    </g>
  </g>
</svg>
