<svg xmlns="http://www.w3.org/2000/svg" width="100" height="100" viewBox="0 0 100 100">
  <g id="Grupo_1076206" data-name="Grupo 1076206" transform="translate(-316 -2336)">
    <circle id="Elipse_10044" data-name="Elipse 10044" cx="50" cy="50" r="50" transform="translate(316 2336)" fill="#fff" opacity="0.7"/>
    <g id="coding" transform="translate(336 2359)">
      <g id="Grupo_1076202" data-name="Grupo 1076202" transform="translate(0 0)">
        <path id="Trazado_834033" data-name="Trazado 834033" d="M57.041,29.271H44.471a.879.879,0,0,0,0,1.758h12.57a1.2,1.2,0,0,1,1.2,1.2v4.575L1.758,36.794V32.23a1.2,1.2,0,0,1,1.2-1.2H40.349a.879.879,0,1,0,0-1.758H2.959A2.962,2.962,0,0,0,0,32.23V79.44s0,0,0,0v.007a2.963,2.963,0,0,0,2.959,2.959H57.041A2.962,2.962,0,0,0,60,79.451V32.23a2.963,2.963,0,0,0-2.959-2.959Zm1.2,50.181a1.2,1.2,0,0,1-1.2,1.2H19.226V54.7a.879.879,0,1,0-1.758,0V80.642H2.96a1.2,1.2,0,0,1-1.2-1.2V38.563H17.469V50.675a.879.879,0,0,0,1.758,0V38.563H58.242Z" transform="translate(0 -29.271)" fill="#1682fb"/>
        <path id="Trazado_834034" data-name="Trazado 834034" d="M49.741,130.229H46.756a.879.879,0,0,0,0,1.758h2.986a.879.879,0,0,0,0-1.758Z" transform="translate(-40.501 -118.398)" fill="#1682fb"/>
        <path id="Trazado_834035" data-name="Trazado 834035" d="M49.741,167.81H46.756a.879.879,0,1,0,0,1.758h2.986a.879.879,0,1,0,0-1.758Z" transform="translate(-40.501 -151.575)" fill="#1682fb"/>
        <path id="Trazado_834036" data-name="Trazado 834036" d="M49.741,205.39H46.756a.879.879,0,1,0,0,1.758h2.986a.879.879,0,1,0,0-1.758Z" transform="translate(-40.501 -184.751)" fill="#1682fb"/>
        <path id="Trazado_834037" data-name="Trazado 834037" d="M49.741,242.97H46.756a.879.879,0,1,0,0,1.758h2.986a.879.879,0,1,0,0-1.758Z" transform="translate(-40.501 -217.927)" fill="#1682fb"/>
        <path id="Trazado_834038" data-name="Trazado 834038" d="M49.741,280.551H46.756a.879.879,0,0,0,0,1.758h2.986a.879.879,0,0,0,0-1.758Z" transform="translate(-40.501 -251.104)" fill="#1682fb"/>
        <path id="Trazado_834039" data-name="Trazado 834039" d="M49.741,318.131H46.756a.879.879,0,0,0,0,1.758h2.986a.879.879,0,0,0,0-1.758Z" transform="translate(-40.501 -284.28)" fill="#1682fb"/>
        <path id="Trazado_834040" data-name="Trazado 834040" d="M49.741,355.711H46.756a.879.879,0,1,0,0,1.758h2.986a.879.879,0,1,0,0-1.758Z" transform="translate(-40.501 -317.456)" fill="#1682fb"/>
        <path id="Trazado_834041" data-name="Trazado 834041" d="M49.741,393.292H46.756a.879.879,0,1,0,0,1.758h2.986a.879.879,0,1,0,0-1.758Z" transform="translate(-40.501 -350.633)" fill="#1682fb"/>
        <path id="Trazado_834042" data-name="Trazado 834042" d="M49.741,430.872H46.756a.879.879,0,0,0,0,1.758h2.986a.879.879,0,0,0,0-1.758Z" transform="translate(-40.501 -383.809)" fill="#1682fb"/>
        <path id="Trazado_834043" data-name="Trazado 834043" d="M235.223,140.732a.878.878,0,0,0,1.141-.492l3.5-8.808a.879.879,0,0,0-1.633-.65l-3.5,8.808A.879.879,0,0,0,235.223,140.732Z" transform="translate(-207.168 -118.398)" fill="#1682fb"/>
        <path id="Trazado_834044" data-name="Trazado 834044" d="M293.512,143.434a.878.878,0,0,0,1.2-.32l2.353-4.061a.879.879,0,0,0-.008-.894l-2.353-3.9a.879.879,0,1,0-1.505.907l2.084,3.457-2.092,3.612a.879.879,0,0,0,.32,1.2Z" transform="translate(-258.729 -121.578)" fill="#1682fb"/>
        <path id="Trazado_834045" data-name="Trazado 834045" d="M188.558,143.115a.879.879,0,1,0,1.521-.881l-2.092-3.612,2.084-3.457a.879.879,0,1,0-1.505-.908l-2.352,3.9a.879.879,0,0,0-.008.894Z" transform="translate(-164.28 -121.579)" fill="#1682fb"/>
        <path id="Trazado_834046" data-name="Trazado 834046" d="M186.965,244.729h19.943a.879.879,0,1,0,0-1.758H186.965a.879.879,0,0,0,0,1.758Z" transform="translate(-164.279 -217.928)" fill="#1682fb"/>
        <path id="Trazado_834047" data-name="Trazado 834047" d="M186.965,282.309h3.895a.879.879,0,0,0,0-1.758h-3.895a.879.879,0,1,0,0,1.758Z" transform="translate(-164.279 -251.104)" fill="#1682fb"/>
        <path id="Trazado_834048" data-name="Trazado 834048" d="M263.29,280.551h-3.895a.879.879,0,0,0,0,1.758h3.895a.879.879,0,1,0,0-1.758Z" transform="translate(-228.221 -251.104)" fill="#1682fb"/>
        <path id="Trazado_834049" data-name="Trazado 834049" d="M307.295,319.889h3.895a.879.879,0,1,0,0-1.758h-3.895a.879.879,0,0,0,0,1.758Z" transform="translate(-270.508 -284.28)" fill="#1682fb"/>
        <path id="Trazado_834050" data-name="Trazado 834050" d="M311.189,393.292h-3.895a.879.879,0,1,0,0,1.758h3.895a.879.879,0,1,0,0-1.758Z" transform="translate(-270.507 -350.633)" fill="#1682fb"/>
        <path id="Trazado_834051" data-name="Trazado 834051" d="M186.965,432.631H197.4a.879.879,0,1,0,0-1.758H186.965a.879.879,0,1,0,0,1.758Z" transform="translate(-164.279 -383.81)" fill="#1682fb"/>
        <path id="Trazado_834052" data-name="Trazado 834052" d="M186.965,319.889H197.4a.879.879,0,1,0,0-1.758H186.965a.879.879,0,0,0,0,1.758Z" transform="translate(-164.279 -284.28)" fill="#1682fb"/>
        <path id="Trazado_834053" data-name="Trazado 834053" d="M371.812,319.889h10.435a.879.879,0,0,0,0-1.758H371.812a.879.879,0,0,0,0,1.758Z" transform="translate(-327.464 -284.28)" fill="#1682fb"/>
        <path id="Trazado_834054" data-name="Trazado 834054" d="M186.965,357.47h2.353a.879.879,0,0,0,0-1.758h-2.353a.879.879,0,0,0,0,1.758Z" transform="translate(-164.279 -317.457)" fill="#1682fb"/>
        <path id="Trazado_834055" data-name="Trazado 834055" d="M256.282,355.711h-19a.879.879,0,1,0,0,1.758h19a.879.879,0,0,0,0-1.758Z" transform="translate(-208.698 -317.456)" fill="#1682fb"/>
        <path id="Trazado_834056" data-name="Trazado 834056" d="M186.965,395.049H197.4a.879.879,0,1,0,0-1.758H186.965a.879.879,0,1,0,0,1.758Z" transform="translate(-164.279 -350.633)" fill="#1682fb"/>
      </g>
    </g>
  </g>
</svg>
