<svg xmlns="http://www.w3.org/2000/svg" width="100" height="100" viewBox="0 0 100 100">
  <g id="Grupo_1076208" data-name="Grupo 1076208" transform="translate(-316 -2701)">
    <circle id="Elipse_10046" data-name="Elipse 10046" cx="50" cy="50" r="50" transform="translate(316 2701)" fill="#fff" opacity="0.7"/>
    <g id="software-development" transform="translate(336 2656.834)">
      <g id="Grupo_1076205" data-name="Grupo 1076205" transform="translate(0 73.166)">
        <path id="Trazado_834087" data-name="Trazado 834087" d="M57.671,108.571H56.279a3.971,3.971,0,0,0,.687-2.238V77.16a4,4,0,0,0-3.994-3.994H7.028A4,4,0,0,0,3.034,77.16v29.173a3.971,3.971,0,0,0,.687,2.238H2.329A2.332,2.332,0,0,0,0,110.9a5.123,5.123,0,0,0,5.117,5.118h34.01a.878.878,0,1,0,0-1.757H5.117A3.365,3.365,0,0,1,1.757,110.9a.573.573,0,0,1,.572-.572H22.947v.221a2.626,2.626,0,0,0,2.623,2.623h8.858a2.626,2.626,0,0,0,2.623-2.623v-.221H57.671a.573.573,0,0,1,.572.572,3.365,3.365,0,0,1-3.361,3.361H43.118a.878.878,0,1,0,0,1.757H54.883A5.123,5.123,0,0,0,60,110.9a2.331,2.331,0,0,0-2.329-2.329ZM35.3,110.549a.868.868,0,0,1-.867.867H25.571a.868.868,0,0,1-.867-.867v-.221H35.3v.221Zm19.913-4.216a2.24,2.24,0,0,1-2.238,2.238H7.028a2.24,2.24,0,0,1-2.238-2.238V77.16a2.24,2.24,0,0,1,2.238-2.238H52.972a2.24,2.24,0,0,1,2.238,2.238v29.173Z" transform="translate(0 -73.166)" fill="#1682fb"/>
        <path id="Trazado_834088" data-name="Trazado 834088" d="M96.4,147.694h1.452a.878.878,0,1,0,0-1.757H96.4a.878.878,0,1,0,0,1.757Z" transform="translate(-84.329 -137.409)" fill="#1682fb"/>
        <path id="Trazado_834089" data-name="Trazado 834089" d="M96.4,179.01h1.452a.878.878,0,1,0,0-1.757H96.4a.878.878,0,0,0,0,1.757Z" transform="translate(-84.329 -165.055)" fill="#1682fb"/>
        <path id="Trazado_834090" data-name="Trazado 834090" d="M96.4,210.327h1.452a.878.878,0,1,0,0-1.757H96.4a.878.878,0,0,0,0,1.757Z" transform="translate(-84.329 -192.702)" fill="#1682fb"/>
        <path id="Trazado_834091" data-name="Trazado 834091" d="M96.4,241.643h1.452a.878.878,0,1,0,0-1.757H96.4a.878.878,0,0,0,0,1.757Z" transform="translate(-84.329 -220.348)" fill="#1682fb"/>
        <path id="Trazado_834092" data-name="Trazado 834092" d="M96.4,272.959h1.452a.878.878,0,1,0,0-1.757H96.4a.878.878,0,1,0,0,1.757Z" transform="translate(-84.329 -247.995)" fill="#1682fb"/>
        <path id="Trazado_834093" data-name="Trazado 834093" d="M96.4,304.275h1.452a.878.878,0,1,0,0-1.757H96.4a.878.878,0,1,0,0,1.757Z" transform="translate(-84.329 -275.641)" fill="#1682fb"/>
        <path id="Trazado_834094" data-name="Trazado 834094" d="M179.152,147.694h2.772a.878.878,0,1,0,0-1.757h-2.772a.878.878,0,0,0,0,1.757Z" transform="translate(-157.383 -137.409)" fill="#1682fb"/>
        <path id="Trazado_834095" data-name="Trazado 834095" d="M200.01,302.519H179.152a.878.878,0,1,0,0,1.757H200.01a.878.878,0,1,0,0-1.757Z" transform="translate(-157.383 -275.642)" fill="#1682fb"/>
        <path id="Trazado_834096" data-name="Trazado 834096" d="M179.152,210.327h2.772a.878.878,0,0,0,0-1.757h-2.772a.878.878,0,0,0,0,1.757Z" transform="translate(-157.383 -192.702)" fill="#1682fb"/>
        <path id="Trazado_834097" data-name="Trazado 834097" d="M179.152,241.643h2.772a.878.878,0,1,0,0-1.757h-2.772a.878.878,0,0,0,0,1.757Z" transform="translate(-157.383 -220.348)" fill="#1682fb"/>
        <path id="Trazado_834098" data-name="Trazado 834098" d="M286.95,272.959a.878.878,0,1,0,0-1.757h-2.772a.878.878,0,1,0,0,1.757Z" transform="translate(-250.1 -247.995)" fill="#1682fb"/>
        <path id="Trazado_834099" data-name="Trazado 834099" d="M179.152,272.959h8.23a.878.878,0,1,0,0-1.757h-8.23a.878.878,0,1,0,0,1.757Z" transform="translate(-157.383 -247.995)" fill="#1682fb"/>
        <path id="Trazado_834100" data-name="Trazado 834100" d="M240.5,210.327a.878.878,0,0,0,0-1.757h-2.772a.878.878,0,1,0,0,1.757Z" transform="translate(-209.095 -192.702)" fill="#1682fb"/>
        <path id="Trazado_834101" data-name="Trazado 834101" d="M298.082,208.57h-7.839a.878.878,0,0,0,0,1.757h7.839a.878.878,0,0,0,0-1.757Z" transform="translate(-255.454 -192.702)" fill="#1682fb"/>
        <path id="Trazado_834102" data-name="Trazado 834102" d="M256.871,145.938H237.729a.878.878,0,1,0,0,1.757h19.142a.878.878,0,1,0,0-1.757Z" transform="translate(-209.095 -137.41)" fill="#1682fb"/>
        <path id="Trazado_834103" data-name="Trazado 834103" d="M200.01,177.254H179.152a.878.878,0,1,0,0,1.757H200.01a.878.878,0,1,0,0-1.757Z" transform="translate(-157.383 -165.056)" fill="#1682fb"/>
        <path id="Trazado_834104" data-name="Trazado 834104" d="M101.976,108.708H60.137a2.306,2.306,0,0,0-2.3,2.3v2.532a.878.878,0,1,0,1.757,0v-2.532a.547.547,0,0,1,.546-.546H68.12v25.318H60.137a.547.547,0,0,1-.546-.546V117.619a.878.878,0,0,0-1.757,0v17.618a2.306,2.306,0,0,0,2.3,2.3h41.839a2.306,2.306,0,0,0,2.3-2.3V111.011A2.306,2.306,0,0,0,101.976,108.708Zm.546,26.529a.547.547,0,0,1-.546.546h-32.1V110.465h32.1a.547.547,0,0,1,.546.546v24.225Z" transform="translate(-51.057 -104.543)" fill="#1682fb"/>
      </g>
    </g>
  </g>
</svg>
