<svg xmlns="http://www.w3.org/2000/svg" width="100" height="100" viewBox="0 0 100 100">
  <g id="Grupo_1076213" data-name="Grupo 1076213" transform="translate(-316 -3062)">
    <circle id="Elipse_10048" data-name="Elipse 10048" cx="50" cy="50" r="50" transform="translate(316 3062)" fill="#fff" opacity="0.7"/>
    <g id="web-development" transform="translate(336 3083)">
      <g id="Grupo_1076204" data-name="Grupo 1076204" transform="translate(0 0)">
        <path id="Trazado_834072" data-name="Trazado 834072" d="M60.536,210.351V208.8c0-.579.651-1.069,1.421-1.069a.879.879,0,1,0,0-1.757,3.021,3.021,0,0,0-3.178,2.826v1.47a.877.877,0,0,1-.639.749.879.879,0,0,0,0,1.663.877.877,0,0,1,.639.749v1.47a3.021,3.021,0,0,0,3.178,2.826.879.879,0,1,0,0-1.757c-.77,0-1.421-.489-1.421-1.069v-1.555a.875.875,0,0,0-.014-.156,2.909,2.909,0,0,0-.581-1.339,2.911,2.911,0,0,0,.581-1.339A.877.877,0,0,0,60.536,210.351Z" transform="translate(-50.801 -182.21)" fill="#1682fb"/>
        <path id="Trazado_834073" data-name="Trazado 834073" d="M348.7,296.371a.879.879,0,1,0,0,1.757c.77,0,1.421.49,1.421,1.069v1.555a.875.875,0,0,0,.014.156,2.913,2.913,0,0,0,.581,1.339,2.911,2.911,0,0,0-.581,1.339.875.875,0,0,0-.014.156V305.3c0,.579-.651,1.069-1.421,1.069a.879.879,0,1,0,0,1.757,3.021,3.021,0,0,0,3.178-2.826v-1.47a.877.877,0,0,1,.639-.749.879.879,0,0,0,0-1.663.877.877,0,0,1-.639-.749V299.2A3.021,3.021,0,0,0,348.7,296.371Z" transform="translate(-307.058 -262.017)" fill="#1682fb"/>
        <path id="Trazado_834074" data-name="Trazado 834074" d="M124.426,225.306h2.8a.879.879,0,1,0,0-1.757h-2.8a.879.879,0,1,0,0,1.757Z" transform="translate(-109.069 -197.729)" fill="#1682fb"/>
        <path id="Trazado_834075" data-name="Trazado 834075" d="M124.426,383.427h21.063a.879.879,0,0,0,0-1.757H124.426a.879.879,0,1,0,0,1.757Z" transform="translate(-109.069 -337.32)" fill="#1682fb"/>
        <path id="Trazado_834076" data-name="Trazado 834076" d="M124.426,288.554h2.8a.879.879,0,1,0,0-1.757h-2.8a.879.879,0,0,0,0,1.757Z" transform="translate(-109.069 -253.565)" fill="#1682fb"/>
        <path id="Trazado_834077" data-name="Trazado 834077" d="M124.426,320.178h2.8a.879.879,0,1,0,0-1.757h-2.8a.879.879,0,1,0,0,1.757Z" transform="translate(-109.069 -281.483)" fill="#1682fb"/>
        <path id="Trazado_834078" data-name="Trazado 834078" d="M230.483,350.045a.879.879,0,0,0,0,1.757h2.8a.879.879,0,0,0,0-1.757Z" transform="translate(-202.697 -309.401)" fill="#1682fb"/>
        <path id="Trazado_834079" data-name="Trazado 834079" d="M124.426,351.8h8.311a.879.879,0,0,0,0-1.757h-8.311a.879.879,0,0,0,0,1.757Z" transform="translate(-109.069 -309.401)" fill="#1682fb"/>
        <path id="Trazado_834080" data-name="Trazado 834080" d="M183.579,286.8a.879.879,0,1,0,0,1.757h2.8a.879.879,0,1,0,0-1.757Z" transform="translate(-161.29 -253.565)" fill="#1682fb"/>
        <path id="Trazado_834081" data-name="Trazado 834081" d="M245.4,287.676a.879.879,0,0,0-.879-.879h-7.916a.879.879,0,0,0,0,1.757h7.916A.879.879,0,0,0,245.4,287.676Z" transform="translate(-208.105 -253.565)" fill="#1682fb"/>
        <path id="Trazado_834082" data-name="Trazado 834082" d="M202.908,223.549h-19.33a.879.879,0,1,0,0,1.757h19.33a.879.879,0,0,0,0-1.757Z" transform="translate(-161.29 -197.729)" fill="#1682fb"/>
        <path id="Trazado_834083" data-name="Trazado 834083" d="M124.426,256.93h21.063a.879.879,0,0,0,0-1.757H124.426a.879.879,0,1,0,0,1.757Z" transform="translate(-109.069 -225.647)" fill="#1682fb"/>
        <path id="Trazado_834084" data-name="Trazado 834084" d="M58.424,451.627a.879.879,0,0,0,.879-.879v-2.415a.879.879,0,0,0-1.757,0v2.415A.879.879,0,0,0,58.424,451.627Z" transform="translate(-50.801 -395.396)" fill="#1682fb"/>
        <path id="Trazado_834085" data-name="Trazado 834085" d="M58.522,12.694H56.954a9.549,9.549,0,0,0-.723-1.745L57.34,9.839a1.48,1.48,0,0,0,0-2.09L55.471,5.88a1.478,1.478,0,0,0-2.09,0L52.271,6.989a9.552,9.552,0,0,0-1.745-.723V4.7A1.479,1.479,0,0,0,49.048,3.22H46.405A1.479,1.479,0,0,0,44.927,4.7V6.266a9.549,9.549,0,0,0-1.745.723L42.073,5.88a1.478,1.478,0,0,0-2.09,0L38.114,7.749a1.48,1.48,0,0,0,0,2.09l1.109,1.109a9.549,9.549,0,0,0-.723,1.745H36.932a1.48,1.48,0,0,0-1.478,1.478V15.7H2.7A2.7,2.7,0,0,0,0,18.4V39.394a.879.879,0,0,0,1.757,0V24.062H38.939l1.044,1.044a1.48,1.48,0,0,0,2.09,0L43.182,24a9.537,9.537,0,0,0,1.745.723v1.568a1.48,1.48,0,0,0,1.478,1.478h2.643a1.48,1.48,0,0,0,1.478-1.478V24.72c.172-.052.342-.11.511-.172V52.265H1.757V43.45A.879.879,0,0,0,0,43.45V59.764a2.7,2.7,0,0,0,2.7,2.7H50.093a2.7,2.7,0,0,0,2.7-2.7V24.52l.586.586a1.479,1.479,0,0,0,2.09,0l1.869-1.869a1.48,1.48,0,0,0,0-2.09l-1.109-1.109a9.549,9.549,0,0,0,.723-1.745h1.568A1.48,1.48,0,0,0,60,16.815V14.171a1.48,1.48,0,0,0-1.478-1.478Zm-7.485,47.07a.945.945,0,0,1-.944.944H2.7a.945.945,0,0,1-.944-.944V54.022H51.037v5.742ZM38.114,21.147a1.468,1.468,0,0,0-.433,1.045c0,.031,0,.062,0,.093H1.757V18.4A.945.945,0,0,1,2.7,17.46H35.6a1.478,1.478,0,0,0,1.328.833H38.5a9.546,9.546,0,0,0,.723,1.745Zm20.129-4.612H56.277a.879.879,0,0,0-.858.687,7.816,7.816,0,0,1-1.031,2.487.879.879,0,0,0,.121,1.092l1.39,1.39-1.474,1.474-1.39-1.39a.879.879,0,0,0-1.092-.121,7.816,7.816,0,0,1-2.488,1.031.879.879,0,0,0-.687.858v1.966H46.685V24.043A.879.879,0,0,0,46,23.185a7.817,7.817,0,0,1-2.488-1.031.878.878,0,0,0-1.092.121l-1.39,1.39-1.474-1.474,1.39-1.39a.879.879,0,0,0,.121-1.092,7.816,7.816,0,0,1-1.031-2.487.879.879,0,0,0-.858-.687H37.211V14.451h1.966a.879.879,0,0,0,.858-.687,7.814,7.814,0,0,1,1.031-2.487.879.879,0,0,0-.121-1.092l-1.391-1.39L41.028,7.32l1.39,1.39a.879.879,0,0,0,1.092.121A7.816,7.816,0,0,1,46,7.8a.879.879,0,0,0,.687-.858V4.977h2.084V6.943a.879.879,0,0,0,.687.858,7.816,7.816,0,0,1,2.488,1.031.879.879,0,0,0,1.092-.121l1.39-1.39L55.9,8.794l-1.39,1.39a.879.879,0,0,0-.121,1.092,7.815,7.815,0,0,1,1.031,2.487.879.879,0,0,0,.858.687h1.966v2.084Z" transform="translate(0 -3.22)" fill="#1682fb"/>
        <path id="Trazado_834086" data-name="Trazado 834086" d="M365.4,58.626a.879.879,0,0,0-.379,1.183,4.347,4.347,0,0,1,.34,2.958,2.69,2.69,0,0,0-1.841-.727H356.8c-.007-.144-.007-.289,0-.435a4.4,4.4,0,0,1,4.128-4.133,4.348,4.348,0,0,1,1.6.217.879.879,0,1,0,.552-1.669,6.106,6.106,0,0,0-2.24-.3,6.122,6.122,0,0,0,.329,12.236,6.029,6.029,0,0,0,5.223-3.037,6.237,6.237,0,0,0,.2-5.911A.879.879,0,0,0,365.4,58.626Zm-4.021,7.564a4.323,4.323,0,0,1-3.311-1.273,4.381,4.381,0,0,1-.813-1.119h6.266a.945.945,0,0,1,.937.829A4.173,4.173,0,0,1,361.381,66.19Z" transform="translate(-313.43 -49.558)" fill="#1682fb"/>
      </g>
    </g>
  </g>
</svg>
