<svg xmlns="http://www.w3.org/2000/svg" width="100" height="100" viewBox="0 0 100 100">
  <g id="Grupo_1076210" data-name="Grupo 1076210" transform="translate(-316 -3243)">
    <circle id="Elipse_10049" data-name="Elipse 10049" cx="50" cy="50" r="50" transform="translate(316 3243)" fill="#fff" opacity="0.7"/>
    <g id="file-transfer" transform="translate(336 3269)">
      <g id="Grupo_1076203" data-name="Grupo 1076203" transform="translate(0 0)">
        <path id="Trazado_834057" data-name="Trazado 834057" d="M59.121,83.111A.879.879,0,0,0,60,82.232V75.013A2.512,2.512,0,0,0,57.491,72.5h-.512V56.587a3.01,3.01,0,0,0-3.006-3.006H3.006A3.01,3.01,0,0,0,0,56.587V89.97a3.01,3.01,0,0,0,3.006,3.006h20.4a25.065,25.065,0,0,1-1.85,6.288h-4.6a.879.879,0,1,0,0,1.758h23.07a.879.879,0,1,0,0-1.758h-4.6a25.107,25.107,0,0,1-1.849-6.288h9.773v5.537a2.512,2.512,0,0,0,2.509,2.509H57.491A2.512,2.512,0,0,0,60,98.513V86.387a.879.879,0,0,0-1.758,0V94.8H45.1V75.013a.753.753,0,0,1,.752-.752H57.49a.753.753,0,0,1,.752.752v7.219a.879.879,0,0,0,.879.879ZM23.494,99.265a30.507,30.507,0,0,0,1.7-6.288h6.595a30.5,30.5,0,0,0,1.7,6.288Zm19.851-8.046H3.006A1.25,1.25,0,0,1,1.758,89.97v-2.5H43.345Zm14.9,5.339v1.956a.753.753,0,0,1-.752.752H45.854a.753.753,0,0,1-.752-.752V96.558ZM51.469,72.5H45.854a2.512,2.512,0,0,0-2.509,2.509v10.7H5.509V59.418a.245.245,0,0,1,.245-.245H51.224a.245.245,0,0,1,.245.245V72.5Zm3.751,0H53.227V59.418a2,2,0,0,0-2-2H5.754a2,2,0,0,0-2,2V85.709H1.758V56.587a1.25,1.25,0,0,1,1.248-1.248H53.972a1.25,1.25,0,0,1,1.248,1.248Z" transform="translate(0 -53.581)" fill="#1682fb"/>
        <path id="Trazado_834058" data-name="Trazado 834058" d="M219.14,118.368l-5.166-4.211a2.683,2.683,0,0,0-3.9,3.608H207.14a.879.879,0,0,0,0,1.758h5.239a.879.879,0,0,0,.555-1.56l-1.239-1.01a.925.925,0,1,1,1.169-1.434l5.166,4.211a.93.93,0,0,1-.009,1.441l-5.166,4.106a.915.915,0,0,1-.574.2.93.93,0,0,1-.577-1.649l1.121-.891a.879.879,0,0,0-.547-1.567H201.462a.925.925,0,0,1,0-1.85H203.1a.879.879,0,0,0,0-1.758h-1.642a2.682,2.682,0,0,0,0,5.365h8.544a2.682,2.682,0,0,0,3.943,3.524l5.166-4.106a2.682,2.682,0,0,0,.026-4.179Z" transform="translate(-175.486 -106.526)" fill="#1682fb"/>
        <path id="Trazado_834059" data-name="Trazado 834059" d="M123.973,202.957h-8.654a2.683,2.683,0,0,0-3.9-3.608l-5.166,4.211a2.682,2.682,0,0,0,.026,4.179l5.166,4.106a2.683,2.683,0,0,0,3.943-3.524h8.585a2.682,2.682,0,1,0,0-5.365Zm0,3.607H113.115a.879.879,0,0,0-.547,1.567l1.121.891a.925.925,0,1,1-1.151,1.448l-5.166-4.106a.914.914,0,0,1-.009-1.441l5.166-4.211a.936.936,0,0,1,1.3.132.926.926,0,0,1-.132,1.3l-1.239,1.01a.879.879,0,0,0,.555,1.56h10.958a.925.925,0,1,1,0,1.85Z" transform="translate(-92.93 -181.735)" fill="#1682fb"/>
      </g>
    </g>
  </g>
</svg>
