<svg xmlns="http://www.w3.org/2000/svg" width="86" height="86" viewBox="0 0 86 86">
  <g id="Grupo_1074838" data-name="Grupo 1074838" transform="translate(-228 -2134)">
    <g id="Grupo_1073140" data-name="Grupo 1073140" transform="translate(-105 1206)">
      <circle id="Elipse_9665" data-name="Elipse 9665" cx="43" cy="43" r="43" transform="translate(333 928)" fill="#ffce00"/>
    </g>
    <g id="servers" transform="translate(246 2152)">
      <g id="Grupo_1075274" data-name="Grupo 1075274">
        <g id="Grupo_1075273" data-name="Grupo 1075273">
          <path id="Trazado_831954" data-name="Trazado 831954" d="M257.042,279.416h16.667a1.042,1.042,0,0,0,0-2.083H257.042a1.042,1.042,0,0,0,0,2.083Z" transform="translate(-231 -250.25)" fill="#1682fb"/>
          <path id="Trazado_831955" data-name="Trazado 831955" d="M50,19.792V15.625a5.163,5.163,0,0,0-.8-2.735.817.817,0,0,0-.029-.077L42.733,2.458A5.18,5.18,0,0,0,38.31,0H11.692A5.177,5.177,0,0,0,7.269,2.458L.827,12.813c-.012.021-.012.044-.025.067A5.155,5.155,0,0,0,0,15.625v4.167a5.189,5.189,0,0,0,2.117,4.167A5.186,5.186,0,0,0,0,28.125v4.167a5.189,5.189,0,0,0,2.117,4.167A5.186,5.186,0,0,0,0,40.625v4.167A5.216,5.216,0,0,0,5.208,50H18.867a1.042,1.042,0,0,0,0-2.083H5.208a3.129,3.129,0,0,1-3.125-3.125V40.625A3.127,3.127,0,0,1,5.208,37.5H22.633a1.042,1.042,0,1,0,0-2.083H5.208a3.129,3.129,0,0,1-3.125-3.125V28.125A3.127,3.127,0,0,1,5.208,25H44.792a3.129,3.129,0,0,1,3.125,3.125v4.167a3.1,3.1,0,0,1-.329,1.362,1.042,1.042,0,0,0,1.871.917A5.124,5.124,0,0,0,50,32.292V28.125a5.189,5.189,0,0,0-2.117-4.167A5.192,5.192,0,0,0,50,19.792ZM9.037,3.558A3.1,3.1,0,0,1,11.69,2.083H38.308a3.109,3.109,0,0,1,2.654,1.475l4.3,6.906a4.346,4.346,0,0,0-.469-.048H5.208c-.16,0-.312.031-.469.046ZM47.917,19.792a3.129,3.129,0,0,1-3.125,3.125H5.208a3.129,3.129,0,0,1-3.125-3.125V15.625A3.127,3.127,0,0,1,5.208,12.5H44.792a3.127,3.127,0,0,1,3.125,3.125v4.167Z" fill="#1682fb"/>
          <path id="Trazado_831956" data-name="Trazado 831956" d="M42.667,408.458a3.125,3.125,0,1,0,3.125-3.125A3.129,3.129,0,0,0,42.667,408.458Zm4.167,0a1.042,1.042,0,1,1-1.042-1.042A1.042,1.042,0,0,1,46.834,408.458Z" transform="translate(-38.5 -365.75)" fill="#1682fb"/>
          <path id="Trazado_831957" data-name="Trazado 831957" d="M235.209,324.167c-.19,0-.379.01-.565.027a9.344,9.344,0,0,0-17.1,4.235,5.208,5.208,0,0,0,.994,10.321h16.667a7.292,7.292,0,0,0,0-14.583Zm0,12.5H218.542a3.125,3.125,0,0,1,0-6.25,1.042,1.042,0,0,0,1.042-1.042,7.265,7.265,0,0,1,13.621-3.546,1.041,1.041,0,0,0,1.092.515,5.274,5.274,0,0,1,.913-.094,5.208,5.208,0,1,1,0,10.417Z" transform="translate(-192.501 -288.75)" fill="#1682fb"/>
          <path id="Trazado_831958" data-name="Trazado 831958" d="M273.708,149.333H257.042a1.042,1.042,0,0,0,0,2.083h16.667a1.042,1.042,0,1,0,0-2.083Z" transform="translate(-231 -134.75)" fill="#1682fb"/>
          <path id="Trazado_831959" data-name="Trazado 831959" d="M273.708,192H257.042a1.042,1.042,0,0,0,0,2.083h16.667a1.042,1.042,0,1,0,0-2.083Z" transform="translate(-231 -173.25)" fill="#1682fb"/>
          <path id="Trazado_831960" data-name="Trazado 831960" d="M45.792,149.333a3.125,3.125,0,1,0,3.125,3.125A3.127,3.127,0,0,0,45.792,149.333Zm0,4.167a1.042,1.042,0,1,1,1.042-1.042A1.042,1.042,0,0,1,45.792,153.5Z" transform="translate(-38.5 -134.75)" fill="#1682fb"/>
          <path id="Trazado_831961" data-name="Trazado 831961" d="M42.667,280.458a3.125,3.125,0,1,0,3.125-3.125A3.129,3.129,0,0,0,42.667,280.458Zm4.167,0a1.042,1.042,0,1,1-1.042-1.042A1.042,1.042,0,0,1,46.834,280.458Z" transform="translate(-38.5 -250.25)" fill="#1682fb"/>
        </g>
      </g>
    </g>
  </g>
</svg>
