<svg xmlns="http://www.w3.org/2000/svg" width="86" height="86" viewBox="0 0 86 86">
  <g id="Grupo_1075264" data-name="Grupo 1075264" transform="translate(-228 -2134)">
    <g id="Grupo_1073140" data-name="Grupo 1073140" transform="translate(-105 1206)">
      <circle id="Elipse_9665" data-name="Elipse 9665" cx="43" cy="43" r="43" transform="translate(333 928)" fill="#ffce00"/>
    </g>
    <g id="database_server" data-name="database server" transform="translate(244 2150)">
      <path id="Trazado_831962" data-name="Trazado 831962" d="M36.85,17.008a2.488,2.488,0,0,0-2.35-1.675h-.833V13.667H34.5a2.508,2.508,0,0,0,2.5-2.5V4.5A2.508,2.508,0,0,0,34.5,2H4.5A2.507,2.507,0,0,0,2,4.5v6.667a2.507,2.507,0,0,0,2.5,2.5h.833v1.667H4.5a2.508,2.508,0,0,0-2.5,2.5V24.5A2.507,2.507,0,0,0,4.5,27h.833v1.667H4.5a2.508,2.508,0,0,0-2.5,2.5v6.667a2.508,2.508,0,0,0,2.5,2.5H20.333V47c0,3.283,7.967,5,15.833,5S52,50.283,52,47V22C52,18.808,44.492,17.108,36.85,17.008ZM4.5,12a.833.833,0,0,1-.833-.833V4.5A.833.833,0,0,1,4.5,3.667h30a.833.833,0,0,1,.833.833v6.667A.833.833,0,0,1,34.5,12ZM32,13.667v1.667H28.667V13.667Zm-5,0v1.667H12V13.667Zm-16.667,0v1.667H7V13.667Zm10,25H4.5a.833.833,0,0,1-.833-.833V31.167a.833.833,0,0,1,.833-.833H20.333ZM7,28.667V27h3.333v1.667Zm13.333,0H12V27h8.333Zm0-6.667v3.333H4.5a.833.833,0,0,1-.833-.833V17.833A.833.833,0,0,1,4.5,17h30a.584.584,0,0,1,.117.025C27.283,17.233,20.333,18.933,20.333,22Zm30,25c0,1.133-5,3.333-14.167,3.333S22,48.133,22,47V41.017c2.742,1.742,8.467,2.65,14.167,2.65s11.425-.908,14.167-2.65Zm0-8.333c0,1.133-5,3.333-14.167,3.333S22,39.8,22,38.667V32.683c2.742,1.742,8.467,2.65,14.167,2.65s11.425-.908,14.167-2.65Zm0-8.333c0,1.133-5,3.333-14.167,3.333S22,31.467,22,30.333V24.35C24.742,26.092,30.467,27,36.167,27s11.425-.908,14.167-2.65Zm-14.167-5C27,25.333,22,23.133,22,22s5-3.333,14.167-3.333S50.333,20.867,50.333,22,45.333,25.333,36.167,25.333Z" transform="translate(0 0)" fill="#1682fb"/>
      <path id="Trazado_831963" data-name="Trazado 831963" d="M42,35h1.667v1.667H42Z" transform="translate(-6.667 -5.5)" fill="#1682fb"/>
      <path id="Trazado_831964" data-name="Trazado 831964" d="M42,46h1.667v1.667H42Z" transform="translate(-6.667 -7.333)" fill="#1682fb"/>
      <path id="Trazado_831965" data-name="Trazado 831965" d="M42,55h1.667v1.667H42Z" transform="translate(-6.667 -8.833)" fill="#1682fb"/>
      <path id="Trazado_831966" data-name="Trazado 831966" d="M10.167,22H6.833A.833.833,0,0,0,6,22.833v3.333A.833.833,0,0,0,6.833,27h3.333A.833.833,0,0,0,11,26.167V22.833A.833.833,0,0,0,10.167,22Zm-.833,3.333H7.667V23.667H9.333Z" transform="translate(-0.667 -3.333)" fill="#1682fb"/>
      <path id="Trazado_831967" data-name="Trazado 831967" d="M18.167,22H14.833a.833.833,0,0,0-.833.833v3.333a.833.833,0,0,0,.833.833h3.333A.833.833,0,0,0,19,26.167V22.833A.833.833,0,0,0,18.167,22Zm-.833,3.333H15.667V23.667h1.667Z" transform="translate(-2 -3.333)" fill="#1682fb"/>
      <path id="Trazado_831968" data-name="Trazado 831968" d="M10.167,6H6.833A.833.833,0,0,0,6,6.833v3.333A.833.833,0,0,0,6.833,11h3.333A.833.833,0,0,0,11,10.167V6.833A.833.833,0,0,0,10.167,6ZM9.333,9.333H7.667V7.667H9.333Z" transform="translate(-0.667 -0.667)" fill="#1682fb"/>
      <path id="Trazado_831969" data-name="Trazado 831969" d="M18.167,6H14.833A.833.833,0,0,0,14,6.833v3.333a.833.833,0,0,0,.833.833h3.333A.833.833,0,0,0,19,10.167V6.833A.833.833,0,0,0,18.167,6Zm-.833,3.333H15.667V7.667h1.667Z" transform="translate(-2 -0.667)" fill="#1682fb"/>
      <path id="Trazado_831970" data-name="Trazado 831970" d="M22,6H33.667V7.667H22Z" transform="translate(-3.333 -0.667)" fill="#1682fb"/>
      <path id="Trazado_831971" data-name="Trazado 831971" d="M38,6h1.667V7.667H38Z" transform="translate(-6 -0.667)" fill="#1682fb"/>
      <path id="Trazado_831972" data-name="Trazado 831972" d="M22,10H33.667v1.667H22Z" transform="translate(-3.333 -1.333)" fill="#1682fb"/>
      <path id="Trazado_831973" data-name="Trazado 831973" d="M38,10h1.667v1.667H38Z" transform="translate(-6 -1.333)" fill="#1682fb"/>
      <path id="Trazado_831974" data-name="Trazado 831974" d="M10.167,38H6.833A.833.833,0,0,0,6,38.833v3.333A.833.833,0,0,0,6.833,43h3.333A.833.833,0,0,0,11,42.167V38.833A.833.833,0,0,0,10.167,38Zm-.833,3.333H7.667V39.667H9.333Z" transform="translate(-0.667 -6)" fill="#1682fb"/>
      <path id="Trazado_831975" data-name="Trazado 831975" d="M18.167,38H14.833a.833.833,0,0,0-.833.833v3.333a.833.833,0,0,0,.833.833h3.333A.833.833,0,0,0,19,42.167V38.833A.833.833,0,0,0,18.167,38Zm-.833,3.333H15.667V39.667h1.667Z" transform="translate(-2 -6)" fill="#1682fb"/>
    </g>
  </g>
</svg>
