<svg xmlns="http://www.w3.org/2000/svg" xmlns:xlink="http://www.w3.org/1999/xlink" width="569.278" height="317.27" viewBox="0 0 569.278 317.27">
  <defs>
    <clipPath id="clip-path">
      <rect id="Rectángulo_383784" data-name="Rectángulo 383784" width="281.447" height="293.924" fill="none"/>
    </clipPath>
    <clipPath id="clip-path-3">
      <rect id="Rectángulo_383776" data-name="Rectángulo 383776" width="281.447" height="158.001" fill="none"/>
    </clipPath>
  </defs>
  <g id="Grupo_1075697" data-name="Grupo 1075697" transform="translate(-810 -900.445)">
    <rect id="Rectángulo_382242" data-name="Rectángulo 382242" width="569.278" height="277.813" rx="7" transform="translate(810 939.901)" fill="#1682fb"/>
    <g id="Grupo_1076183" data-name="Grupo 1076183" transform="translate(954 900.445)">
      <g id="Grupo_1076182" data-name="Grupo 1076182" clip-path="url(#clip-path)">
        <g id="Grupo_1076181" data-name="Grupo 1076181">
          <g id="Grupo_1076180" data-name="Grupo 1076180" clip-path="url(#clip-path)">
            <g id="Grupo_1076179" data-name="Grupo 1076179" transform="translate(0 135.923)" opacity="0.5">
              <g id="Grupo_1076178" data-name="Grupo 1076178">
                <g id="Grupo_1076177" data-name="Grupo 1076177" clip-path="url(#clip-path-3)">
                  <path id="Trazado_832942" data-name="Trazado 832942" d="M281.447,165.06c0,43.631-63,79-140.724,79S0,208.691,0,165.06s63-79,140.722-79,140.724,35.371,140.724,79" transform="translate(0 -86.061)" fill="#a3c6d8"/>
                </g>
              </g>
            </g>
            <path id="Trazado_832943" data-name="Trazado 832943" d="M90.835,156.591c-1.69,0-3.061.73-3.061,1.628s1.371,1.627,3.061,1.627,3.061-.728,3.061-1.627-1.371-1.628-3.061-1.628" transform="translate(50.856 90.728)" fill="#672a5c"/>
            <rect id="Rectángulo_383777" data-name="Rectángulo 383777" width="6.122" height="65.125" transform="translate(138.63 183.821)" fill="#672a5c"/>
            <path id="Trazado_832944" data-name="Trazado 832944" d="M90.835,115.357c-1.69,0-3.061.73-3.061,1.628s1.371,1.628,3.061,1.628,3.061-.73,3.061-1.628-1.371-1.628-3.061-1.628" transform="translate(50.856 66.837)" fill="#672a5c"/>
            <path id="Trazado_832945" data-name="Trazado 832945" d="M59.79,139.018c-1.69,0-3.061.73-3.061,1.628s1.371,1.628,3.061,1.628,3.061-.73,3.061-1.628-1.371-1.628-3.061-1.628" transform="translate(32.868 80.546)" fill="#672a5c"/>
            <rect id="Rectángulo_383778" data-name="Rectángulo 383778" width="6.122" height="65.125" transform="translate(89.597 156.068)" fill="#672a5c"/>
            <path id="Trazado_832946" data-name="Trazado 832946" d="M59.79,97.784c-1.69,0-3.061.728-3.061,1.628s1.371,1.627,3.061,1.627,3.061-.728,3.061-1.627-1.371-1.628-3.061-1.628" transform="translate(32.868 56.656)" fill="#672a5c"/>
            <path id="Trazado_832947" data-name="Trazado 832947" d="M135.552,130.736c-1.69,0-3.061.73-3.061,1.628s1.371,1.628,3.061,1.628,3.061-.73,3.061-1.628-1.371-1.628-3.061-1.628" transform="translate(76.765 75.748)" fill="#672a5c"/>
            <rect id="Rectángulo_383779" data-name="Rectángulo 383779" width="6.122" height="65.125" transform="translate(209.256 142.987)" fill="#672a5c"/>
            <path id="Trazado_832948" data-name="Trazado 832948" d="M135.552,89.5c-1.69,0-3.061.73-3.061,1.628s1.371,1.628,3.061,1.628,3.061-.73,3.061-1.628-1.371-1.628-3.061-1.628" transform="translate(76.765 51.857)" fill="#672a5c"/>
            <path id="Trazado_832949" data-name="Trazado 832949" d="M104.507,113.164c-1.69,0-3.061.73-3.061,1.628s1.371,1.628,3.061,1.628,3.061-.73,3.061-1.628-1.371-1.628-3.061-1.628" transform="translate(58.777 65.567)" fill="#672a5c"/>
            <rect id="Rectángulo_383780" data-name="Rectángulo 383780" width="6.122" height="65.125" transform="translate(160.222 115.233)" fill="#672a5c"/>
            <path id="Trazado_832950" data-name="Trazado 832950" d="M104.507,71.929c-1.69,0-3.061.731-3.061,1.63s1.371,1.628,3.061,1.628,3.061-.73,3.061-1.628-1.371-1.63-3.061-1.63" transform="translate(58.777 41.675)" fill="#672a5c"/>
            <path id="Trazado_832951" data-name="Trazado 832951" d="M185.67,104.236l-76.386,44.1L55.45,117.257l76.386-44.1Z" transform="translate(32.128 42.386)" fill="#594554"/>
            <path id="Trazado_832952" data-name="Trazado 832952" d="M185.67,101.874l-76.386,44.1L55.45,114.895l76.386-44.1Z" transform="translate(32.128 41.017)" fill="#e79ce1"/>
            <path id="Trazado_832953" data-name="Trazado 832953" d="M55.45,98.716v3.731l53.834,31.081V129.8Z" transform="translate(32.128 57.196)" fill="#b456b7"/>
            <path id="Trazado_832954" data-name="Trazado 832954" d="M165.921,90.472V94.2L89.535,138.3v-3.73Z" transform="translate(51.876 52.419)" fill="#c66bc6"/>
            <path id="Trazado_832955" data-name="Trazado 832955" d="M130.227,103.5l-28.9,16.622a3.079,3.079,0,0,1-2.772-.115l-14.622-8.442c-.82-.472-.908-1.189-.2-1.6l28.9-16.622a3.079,3.079,0,0,1,2.772.115l14.622,8.442c.82.472.91,1.189.2,1.6" transform="translate(48.239 53.923)" fill="#843a76"/>
            <path id="Trazado_832956" data-name="Trazado 832956" d="M83.9,103.147l-.641.231v1.412l1.818.51Z" transform="translate(48.239 59.763)" fill="#843a76"/>
            <path id="Trazado_832957" data-name="Trazado 832957" d="M113.879,98.311l-.024,1.567-.937.1-.629-1.644Z" transform="translate(65.06 56.961)" fill="#843a76"/>
            <path id="Trazado_832958" data-name="Trazado 832958" d="M130.227,102.6l-28.9,16.622a3.079,3.079,0,0,1-2.772-.115l-14.622-8.44c-.82-.474-.908-1.191-.2-1.6l28.9-16.622a3.079,3.079,0,0,1,2.772.115L130.028,101c.82.474.91,1.189.2,1.6" transform="translate(48.239 53.402)" fill="#954a83"/>
            <path id="Trazado_832959" data-name="Trazado 832959" d="M89.033,104.778l-.864.5a1.209,1.209,0,0,1-1.082-.044l-1-.576c-.317-.185-.354-.464-.077-.624l.864-.5a1.209,1.209,0,0,1,1.082.044l1,.576c.319.183.354.464.077.624" transform="translate(49.727 59.924)" fill="#e79ce1"/>
            <path id="Trazado_832960" data-name="Trazado 832960" d="M90.59,103.879l-.866.5a1.206,1.206,0,0,1-1.08-.044l-1-.576c-.319-.185-.354-.464-.077-.624l.864-.5a1.209,1.209,0,0,1,1.082.044l1,.576c.319.183.352.464.077.624" transform="translate(50.629 59.404)" fill="#e79ce1"/>
            <path id="Trazado_832961" data-name="Trazado 832961" d="M92.147,102.98l-.866.5a1.206,1.206,0,0,1-1.08-.044l-1-.576c-.319-.185-.354-.464-.077-.624l.866-.5a1.207,1.207,0,0,1,1.08.046l1,.576c.317.183.354.464.077.624" transform="translate(51.531 58.882)" fill="#e79ce1"/>
            <path id="Trazado_832962" data-name="Trazado 832962" d="M93.7,102.082l-.864.5a1.209,1.209,0,0,1-1.082-.044l-1-.576c-.319-.185-.354-.466-.077-.624l.866-.5a1.206,1.206,0,0,1,1.08.044l1,.576c.317.183.354.464.077.624" transform="translate(52.432 58.362)" fill="#e79ce1"/>
            <path id="Trazado_832963" data-name="Trazado 832963" d="M95.259,101.183l-.864.5a1.209,1.209,0,0,1-1.082-.044l-1-.576c-.317-.185-.352-.464-.077-.624l.866-.5a1.2,1.2,0,0,1,1.08.044l1,.576c.319.183.354.464.077.624" transform="translate(53.335 57.841)" fill="#e79ce1"/>
            <path id="Trazado_832964" data-name="Trazado 832964" d="M96.817,100.284l-.864.5a1.209,1.209,0,0,1-1.082-.044l-1-.576c-.317-.185-.354-.464-.077-.624l.866-.5a1.206,1.206,0,0,1,1.08.044l1,.576c.319.183.354.464.077.624" transform="translate(54.237 57.321)" fill="#e79ce1"/>
            <path id="Trazado_832965" data-name="Trazado 832965" d="M98.373,99.385l-.866.5a1.206,1.206,0,0,1-1.08-.044l-1-.576c-.319-.185-.354-.464-.077-.624l.864-.5a1.209,1.209,0,0,1,1.082.044l1,.576c.317.183.354.464.077.624" transform="translate(55.138 56.8)" fill="#e79ce1"/>
            <path id="Trazado_832966" data-name="Trazado 832966" d="M99.93,98.487l-.866.5a1.206,1.206,0,0,1-1.08-.044l-1-.576c-.319-.185-.354-.464-.077-.624l.864-.5a1.2,1.2,0,0,1,1.082.044l1,.576c.317.183.354.464.077.624" transform="translate(56.04 56.279)" fill="#e79ce1"/>
            <path id="Trazado_832967" data-name="Trazado 832967" d="M90.751,105.769l-.865.5a1.206,1.206,0,0,1-1.08-.044l-1-.576c-.319-.185-.354-.464-.077-.624l.864-.5a1.209,1.209,0,0,1,1.082.044l1,.576c.317.183.354.464.077.624" transform="translate(50.722 60.499)" fill="#e79ce1"/>
            <path id="Trazado_832968" data-name="Trazado 832968" d="M92.308,104.87l-.866.5a1.2,1.2,0,0,1-1.082-.044l-1-.575c-.319-.185-.354-.466-.077-.624l.864-.5a1.2,1.2,0,0,1,1.082.044l1,.575c.321.183.354.464.079.624" transform="translate(51.623 59.978)" fill="#e79ce1"/>
            <path id="Trazado_832969" data-name="Trazado 832969" d="M93.864,103.972l-.864.5a1.209,1.209,0,0,1-1.082-.044l-1-.576c-.317-.185-.354-.464-.077-.624l.864-.5a1.209,1.209,0,0,1,1.082.044l1,.576c.319.183.354.464.077.624" transform="translate(52.526 59.457)" fill="#e79ce1"/>
            <path id="Trazado_832970" data-name="Trazado 832970" d="M95.421,103.073l-.866.5a1.206,1.206,0,0,1-1.08-.044l-1-.576c-.319-.185-.354-.464-.077-.624l.864-.5a1.2,1.2,0,0,1,1.082.044l1,.576c.319.183.354.464.077.624" transform="translate(53.428 58.936)" fill="#e79ce1"/>
            <path id="Trazado_832971" data-name="Trazado 832971" d="M96.977,102.174l-.866.5a1.206,1.206,0,0,1-1.08-.044l-1-.576c-.319-.183-.352-.464-.077-.624l.866-.5a1.206,1.206,0,0,1,1.08.044l1,.576c.317.183.354.464.077.624" transform="translate(54.329 58.416)" fill="#e79ce1"/>
            <path id="Trazado_832972" data-name="Trazado 832972" d="M98.534,101.276l-.864.5a1.209,1.209,0,0,1-1.082-.044l-1-.576c-.319-.185-.352-.464-.077-.624l.866-.5a1.2,1.2,0,0,1,1.08.044l1,.576c.319.183.354.464.077.624" transform="translate(55.232 57.895)" fill="#e79ce1"/>
            <path id="Trazado_832973" data-name="Trazado 832973" d="M100.089,100.377l-.864.5a1.209,1.209,0,0,1-1.082-.044l-1-.576c-.317-.185-.352-.466-.077-.624l.866-.5a1.206,1.206,0,0,1,1.08.044l1,.576c.319.183.354.464.077.624" transform="translate(56.133 57.374)" fill="#e79ce1"/>
            <path id="Trazado_832974" data-name="Trazado 832974" d="M101.647,99.478l-.866.5a1.206,1.206,0,0,1-1.08-.044l-1-.576c-.319-.185-.354-.464-.077-.624l.864-.5a1.2,1.2,0,0,1,1.082.044l1,.576c.317.183.354.464.077.624" transform="translate(57.035 56.853)" fill="#e79ce1"/>
            <path id="Trazado_832975" data-name="Trazado 832975" d="M103.2,98.579l-.864.5a1.2,1.2,0,0,1-1.082-.044l-1-.575c-.319-.185-.354-.464-.077-.624l.866-.5a1.2,1.2,0,0,1,1.08.044l1,.575c.317.183.354.464.077.624" transform="translate(57.937 56.333)" fill="#e79ce1"/>
            <path id="Trazado_832976" data-name="Trazado 832976" d="M104.761,97.681l-.864.5a1.209,1.209,0,0,1-1.082-.044l-1-.576c-.319-.185-.354-.464-.077-.624l.866-.5a1.206,1.206,0,0,1,1.08.044l1,.576c.319.183.354.464.077.624" transform="translate(58.839 55.812)" fill="#e79ce1"/>
            <path id="Trazado_832977" data-name="Trazado 832977" d="M106.317,96.782l-.864.5a1.209,1.209,0,0,1-1.082-.044l-1-.576c-.319-.185-.354-.464-.077-.624l.864-.5a1.209,1.209,0,0,1,1.082.044l1,.576c.319.183.354.464.077.624" transform="translate(59.741 55.292)" fill="#e79ce1"/>
            <path id="Trazado_832978" data-name="Trazado 832978" d="M107.873,95.883l-.864.5a1.209,1.209,0,0,1-1.082-.044l-1-.576c-.317-.185-.352-.466-.077-.624l.866-.5a1.212,1.212,0,0,1,1.08.046l1,.576c.319.183.354.464.077.624" transform="translate(60.643 54.771)" fill="#e79ce1"/>
            <path id="Trazado_832979" data-name="Trazado 832979" d="M92.468,106.761l-.866.5a1.206,1.206,0,0,1-1.08-.044l-1-.576c-.317-.185-.354-.464-.077-.624l.864-.5a1.209,1.209,0,0,1,1.082.044l1,.576c.317.183.354.464.077.624" transform="translate(51.717 61.073)" fill="#e79ce1"/>
            <path id="Trazado_832980" data-name="Trazado 832980" d="M94.025,105.862l-.866.5a1.206,1.206,0,0,1-1.08-.044l-1-.576c-.319-.185-.354-.464-.077-.624l.864-.5a1.2,1.2,0,0,1,1.082.044l1,.576c.319.183.354.464.077.624" transform="translate(52.619 60.552)" fill="#e79ce1"/>
            <path id="Trazado_832981" data-name="Trazado 832981" d="M95.582,104.963l-.864.5a1.209,1.209,0,0,1-1.082-.044l-1-.576c-.319-.183-.354-.464-.077-.624l.866-.5a1.206,1.206,0,0,1,1.08.044l1,.576c.317.183.354.464.077.624" transform="translate(53.521 60.032)" fill="#e79ce1"/>
            <path id="Trazado_832982" data-name="Trazado 832982" d="M97.138,104.065l-.864.5a1.209,1.209,0,0,1-1.082-.044l-1-.576c-.319-.185-.354-.464-.077-.624l.864-.5a1.2,1.2,0,0,1,1.082.044l1,.576c.319.183.354.464.077.624" transform="translate(54.422 59.511)" fill="#e79ce1"/>
            <path id="Trazado_832983" data-name="Trazado 832983" d="M98.694,103.166l-.864.5a1.2,1.2,0,0,1-1.082-.046l-1-.575c-.317-.185-.352-.466-.077-.624l.866-.5a1.2,1.2,0,0,1,1.08.044l1,.576c.319.183.354.464.077.624" transform="translate(55.325 58.99)" fill="#e79ce1"/>
            <path id="Trazado_832984" data-name="Trazado 832984" d="M100.251,102.267l-.866.5a1.206,1.206,0,0,1-1.08-.044l-1-.576c-.319-.185-.354-.464-.077-.624l.866-.5a1.206,1.206,0,0,1,1.08.044l1,.576c.319.183.354.464.077.624" transform="translate(56.226 58.47)" fill="#e79ce1"/>
            <path id="Trazado_832985" data-name="Trazado 832985" d="M101.808,101.368l-.864.5a1.2,1.2,0,0,1-1.082-.044l-1-.575c-.319-.185-.352-.464-.077-.624l.866-.5a1.191,1.191,0,0,1,1.08.044l1,.576c.319.182.354.463.077.622" transform="translate(57.128 57.949)" fill="#e79ce1"/>
            <path id="Trazado_832986" data-name="Trazado 832986" d="M105.822,99.571,102.5,101.49a1.2,1.2,0,0,1-1.08-.046l-1-.576c-.319-.183-.354-.464-.079-.624l3.323-1.917a1.2,1.2,0,0,1,1.082.044l1,.576c.317.183.354.464.077.624" transform="translate(58.03 56.907)" fill="#e79ce1"/>
            <path id="Trazado_832987" data-name="Trazado 832987" d="M106.478,98.672l-.866.5a1.206,1.206,0,0,1-1.08-.044l-1-.576c-.317-.185-.354-.466-.077-.624l.864-.5a1.2,1.2,0,0,1,1.082.044l1,.576c.319.183.354.464.077.624" transform="translate(59.834 56.386)" fill="#e79ce1"/>
            <path id="Trazado_832988" data-name="Trazado 832988" d="M108.034,97.773l-.864.5a1.2,1.2,0,0,1-1.082-.044l-1-.575c-.317-.183-.354-.464-.077-.624l.866-.5a1.2,1.2,0,0,1,1.08.044l1,.575c.317.183.354.464.077.624" transform="translate(60.736 55.866)" fill="#e79ce1"/>
            <path id="Trazado_832989" data-name="Trazado 832989" d="M109.591,96.875l-.866.5a1.206,1.206,0,0,1-1.08-.044l-1-.576c-.319-.185-.354-.464-.077-.624l.866-.5a1.2,1.2,0,0,1,1.08.044l1,.576c.317.183.354.464.077.624" transform="translate(61.638 55.345)" fill="#e79ce1"/>
            <path id="Trazado_832990" data-name="Trazado 832990" d="M94.186,107.752l-.866.5a1.206,1.206,0,0,1-1.08-.044l-1-.576c-.319-.183-.354-.464-.077-.624l.865-.5a1.206,1.206,0,0,1,1.08.044l1,.576c.317.185.354.464.077.624" transform="translate(52.712 61.648)" fill="#e79ce1"/>
            <path id="Trazado_832991" data-name="Trazado 832991" d="M95.742,106.853l-.864.5a1.209,1.209,0,0,1-1.082-.044l-1-.576c-.317-.185-.354-.464-.077-.624l.866-.5a1.2,1.2,0,0,1,1.08.044l1,.576c.319.182.354.464.077.622" transform="translate(53.614 61.127)" fill="#e79ce1"/>
            <path id="Trazado_832992" data-name="Trazado 832992" d="M97.3,105.955l-.866.5a1.206,1.206,0,0,1-1.08-.044l-1-.576c-.317-.185-.354-.466-.077-.624l.866-.5a1.206,1.206,0,0,1,1.08.044l1,.576c.317.183.354.464.077.624" transform="translate(54.516 60.606)" fill="#e79ce1"/>
            <path id="Trazado_832993" data-name="Trazado 832993" d="M98.856,105.056l-.866.5a1.206,1.206,0,0,1-1.08-.044l-1-.576c-.317-.185-.354-.464-.077-.624l.866-.5a1.206,1.206,0,0,1,1.08.044l1,.576c.319.183.354.464.077.624" transform="translate(55.418 60.085)" fill="#e79ce1"/>
            <path id="Trazado_832994" data-name="Trazado 832994" d="M100.412,104.157l-.864.5a1.209,1.209,0,0,1-1.082-.044l-1-.576c-.319-.185-.352-.464-.077-.624l.866-.5a1.206,1.206,0,0,1,1.08.044l1,.576c.317.183.354.464.077.624" transform="translate(56.32 59.565)" fill="#e79ce1"/>
            <path id="Trazado_832995" data-name="Trazado 832995" d="M101.969,103.258l-.864.5a1.2,1.2,0,0,1-1.082-.044l-1-.575c-.319-.183-.352-.464-.077-.624l.866-.5a1.2,1.2,0,0,1,1.08.044l1,.576c.319.182.354.463.077.622" transform="translate(57.222 59.044)" fill="#e79ce1"/>
            <path id="Trazado_832996" data-name="Trazado 832996" d="M103.524,102.36l-.864.5a1.209,1.209,0,0,1-1.082-.044l-1-.576c-.317-.185-.352-.464-.077-.624l.866-.5a1.206,1.206,0,0,1,1.08.044l1,.576c.319.183.354.464.077.624" transform="translate(58.123 58.523)" fill="#e79ce1"/>
            <path id="Trazado_832997" data-name="Trazado 832997" d="M105.082,101.461l-.866.5a1.206,1.206,0,0,1-1.08-.044l-1-.576c-.317-.185-.354-.464-.077-.624l.866-.5a1.206,1.206,0,0,1,1.08.044l1,.576c.319.183.354.464.077.624" transform="translate(59.025 58.003)" fill="#e79ce1"/>
            <path id="Trazado_832998" data-name="Trazado 832998" d="M106.638,100.562l-.864.5a1.209,1.209,0,0,1-1.082-.044l-1-.576c-.317-.183-.352-.464-.077-.624l.866-.5a1.206,1.206,0,0,1,1.08.044l1,.576c.319.185.354.464.077.624" transform="translate(59.928 57.482)" fill="#e79ce1"/>
            <path id="Trazado_832999" data-name="Trazado 832999" d="M108.195,99.664l-.866.5a1.206,1.206,0,0,1-1.08-.044l-1-.576c-.319-.185-.354-.466-.077-.624l.865-.5a1.2,1.2,0,0,1,1.08.044l1,.576c.317.183.354.464.077.624" transform="translate(60.829 56.961)" fill="#e79ce1"/>
            <path id="Trazado_833000" data-name="Trazado 833000" d="M109.752,98.765l-.864.5a1.209,1.209,0,0,1-1.082-.044l-1-.576c-.319-.183-.354-.464-.077-.624l.864-.5a1.209,1.209,0,0,1,1.082.044l1,.576c.317.185.354.464.077.624" transform="translate(61.731 56.44)" fill="#e79ce1"/>
            <path id="Trazado_833001" data-name="Trazado 833001" d="M111.309,97.866l-.866.5a1.209,1.209,0,0,1-1.082-.044l-1-.576c-.317-.185-.354-.464-.077-.624l.865-.5a1.206,1.206,0,0,1,1.08.044l1,.576c.321.183.354.464.079.624" transform="translate(62.633 55.92)" fill="#e79ce1"/>
            <path id="Trazado_833002" data-name="Trazado 833002" d="M95.9,108.744l-.864.5a1.209,1.209,0,0,1-1.082-.044l-1-.576c-.317-.185-.352-.464-.077-.624l.866-.5a1.206,1.206,0,0,1,1.08.044l1,.576c.319.183.354.464.077.624" transform="translate(53.707 62.222)" fill="#e79ce1"/>
            <path id="Trazado_833003" data-name="Trazado 833003" d="M97.459,107.845l-.864.5a1.209,1.209,0,0,1-1.082-.044l-1-.576c-.317-.185-.352-.464-.077-.624l.866-.5a1.206,1.206,0,0,1,1.08.044l1,.576c.319.183.354.464.077.624" transform="translate(54.609 61.701)" fill="#e79ce1"/>
            <path id="Trazado_833004" data-name="Trazado 833004" d="M99.016,106.946l-.866.5a1.206,1.206,0,0,1-1.08-.044l-1-.576c-.319-.185-.354-.466-.077-.624l.866-.5a1.206,1.206,0,0,1,1.08.044l1,.576c.317.183.354.464.077.624" transform="translate(55.511 61.181)" fill="#e79ce1"/>
            <path id="Trazado_833005" data-name="Trazado 833005" d="M107.948,103.351l-8.24,4.757a1.209,1.209,0,0,1-1.082-.044l-1-.576c-.317-.183-.354-.464-.077-.624l8.241-4.757a1.206,1.206,0,0,1,1.08.044l1,.576c.319.183.354.464.077.624" transform="translate(56.413 59.098)" fill="#e79ce1"/>
            <path id="Trazado_833006" data-name="Trazado 833006" d="M106.8,102.453l-.866.5a1.206,1.206,0,0,1-1.08-.044l-1-.576c-.319-.185-.354-.466-.077-.624l.864-.5a1.21,1.21,0,0,1,1.082.046l1,.576c.317.183.352.464.077.624" transform="translate(60.02 58.577)" fill="#e79ce1"/>
            <path id="Trazado_833007" data-name="Trazado 833007" d="M108.356,101.554l-.864.5a1.209,1.209,0,0,1-1.082-.044l-1-.576c-.319-.185-.354-.464-.077-.624l.864-.5a1.209,1.209,0,0,1,1.082.044l1,.576c.319.183.354.464.077.624" transform="translate(60.922 58.056)" fill="#e79ce1"/>
            <path id="Trazado_833008" data-name="Trazado 833008" d="M109.913,100.655l-.864.5a1.209,1.209,0,0,1-1.082-.044l-1-.576c-.317-.185-.354-.464-.077-.624l.866-.5a1.206,1.206,0,0,1,1.08.044l1,.576c.319.183.354.464.077.624" transform="translate(61.824 57.536)" fill="#e79ce1"/>
            <path id="Trazado_833009" data-name="Trazado 833009" d="M111.469,99.757l-.866.5a1.206,1.206,0,0,1-1.08-.044l-1-.576c-.319-.185-.354-.466-.077-.624l.864-.5a1.2,1.2,0,0,1,1.082.044l1,.576c.317.183.354.464.077.624" transform="translate(62.726 57.015)" fill="#e79ce1"/>
            <path id="Trazado_833010" data-name="Trazado 833010" d="M113.026,98.858l-.866.5a1.206,1.206,0,0,1-1.08-.044l-1-.576c-.319-.185-.354-.464-.077-.624l.866-.5a1.206,1.206,0,0,1,1.08.044l1,.576c.317.183.354.464.077.624" transform="translate(63.628 56.494)" fill="#e79ce1"/>
            <path id="Trazado_833011" data-name="Trazado 833011" d="M101.487,97.588l-.865.5a1.209,1.209,0,0,1-1.082-.044l-1-.576c-.317-.185-.354-.464-.077-.624l.865-.5a1.206,1.206,0,0,1,1.08.044l1,.576c.321.183.354.464.079.624" transform="translate(56.942 55.759)" fill="#e79ce1"/>
            <path id="Trazado_833012" data-name="Trazado 833012" d="M103.043,96.689l-.864.5a1.209,1.209,0,0,1-1.082-.044l-1-.576c-.319-.185-.354-.464-.077-.624l.864-.5a1.209,1.209,0,0,1,1.082.044l1,.576c.319.183.354.464.077.624" transform="translate(57.844 55.238)" fill="#e79ce1"/>
            <path id="Trazado_833013" data-name="Trazado 833013" d="M104.6,95.791l-.864.5a1.209,1.209,0,0,1-1.082-.044l-1-.576c-.319-.185-.352-.466-.077-.624l.866-.5a1.206,1.206,0,0,1,1.08.046l1,.576c.317.183.354.464.077.624" transform="translate(58.746 54.717)" fill="#e79ce1"/>
            <path id="Trazado_833014" data-name="Trazado 833014" d="M106.156,94.892l-.866.5a1.206,1.206,0,0,1-1.08-.044l-1-.576c-.319-.185-.354-.464-.077-.624l.866-.5a1.206,1.206,0,0,1,1.08.044l1,.576c.317.183.354.464.077.624" transform="translate(59.647 54.197)" fill="#e79ce1"/>
            <path id="Trazado_833015" data-name="Trazado 833015" d="M104.275,93.608l-1.207.7a.8.8,0,0,1-.712-.03l-.395-.227c-.21-.122-.232-.306-.051-.411l1.207-.7a.791.791,0,0,1,.712.028l.395.229c.21.12.232.306.051.411" transform="translate(58.976 53.808)" fill="#e79ce1"/>
            <path id="Trazado_833016" data-name="Trazado 833016" d="M102.718,94.507l-1.207.7a.791.791,0,0,1-.712-.03l-.395-.227c-.21-.122-.232-.306-.051-.411l1.207-.7a.8.8,0,0,1,.712.028l.395.229c.208.12.232.306.051.411" transform="translate(58.073 54.329)" fill="#e79ce1"/>
            <path id="Trazado_833017" data-name="Trazado 833017" d="M101.161,95.406l-1.207.7a.8.8,0,0,1-.712-.03l-.395-.227c-.21-.122-.232-.306-.051-.411l1.207-.7a.79.79,0,0,1,.712.028l.395.229c.21.12.232.3.051.411" transform="translate(57.171 54.849)" fill="#e79ce1"/>
            <path id="Trazado_833018" data-name="Trazado 833018" d="M99.605,96.305,98.4,97a.8.8,0,0,1-.712-.03l-.395-.227c-.21-.122-.232-.306-.051-.411l1.207-.7a.791.791,0,0,1,.712.028l.393.229c.212.12.234.306.052.411" transform="translate(56.27 55.37)" fill="#e79ce1"/>
            <path id="Trazado_833019" data-name="Trazado 833019" d="M98.048,97.2l-1.207.7a.791.791,0,0,1-.712-.03l-.395-.227c-.21-.122-.232-.306-.051-.411l1.207-.7a.8.8,0,0,1,.712.028l.395.229c.21.12.232.306.051.411" transform="translate(55.368 55.891)" fill="#e79ce1"/>
            <path id="Trazado_833020" data-name="Trazado 833020" d="M96.491,98.1l-1.207.7a.8.8,0,0,1-.712-.03l-.395-.227c-.21-.122-.232-.306-.051-.411l1.207-.7a.79.79,0,0,1,.712.028l.395.229c.208.12.232.306.051.411" transform="translate(54.466 56.411)" fill="#e79ce1"/>
            <path id="Trazado_833021" data-name="Trazado 833021" d="M94.935,99l-1.207.7a.8.8,0,0,1-.712-.03l-.395-.227c-.21-.122-.232-.306-.051-.411l1.207-.7a.8.8,0,0,1,.712.028l.395.229c.21.12.232.306.051.411" transform="translate(53.564 56.932)" fill="#e79ce1"/>
            <path id="Trazado_833022" data-name="Trazado 833022" d="M93.378,99.9l-1.207.7a.8.8,0,0,1-.712-.03l-.395-.227c-.21-.122-.232-.306-.051-.411l1.207-.7a.79.79,0,0,1,.712.028l.395.227c.21.122.232.306.051.412" transform="translate(52.662 57.453)" fill="#e79ce1"/>
            <path id="Trazado_833023" data-name="Trazado 833023" d="M91.822,100.8l-1.207.7a.791.791,0,0,1-.712-.03l-.395-.227c-.21-.122-.232-.306-.051-.411l1.207-.7a.8.8,0,0,1,.712.028l.393.229c.212.12.234.306.052.411" transform="translate(51.76 57.974)" fill="#e79ce1"/>
            <path id="Trazado_833024" data-name="Trazado 833024" d="M90.265,101.7l-1.207.7a.791.791,0,0,1-.712-.03l-.395-.227c-.21-.122-.232-.306-.051-.411l1.207-.7a.8.8,0,0,1,.712.028l.395.229c.21.12.232.306.051.411" transform="translate(50.858 58.494)" fill="#e79ce1"/>
            <path id="Trazado_833025" data-name="Trazado 833025" d="M88.708,102.6l-1.207.7a.791.791,0,0,1-.712-.03l-.395-.227c-.21-.122-.232-.306-.051-.411l1.207-.7a.8.8,0,0,1,.712.028l.395.229c.21.12.232.3.051.411" transform="translate(49.956 59.015)" fill="#e79ce1"/>
            <path id="Trazado_833026" data-name="Trazado 833026" d="M87.152,103.494l-1.207.7a.8.8,0,0,1-.712-.03l-.395-.227c-.21-.122-.232-.306-.051-.411l1.207-.7a.8.8,0,0,1,.712.028l.395.229c.21.12.232.306.051.411" transform="translate(49.055 59.536)" fill="#e79ce1"/>
            <path id="Trazado_833027" data-name="Trazado 833027" d="M108.5,56.166a4.016,4.016,0,0,0-2.115-2.789l-.18-.1c-.63-.365-.745.265-.745,1.017v.245a2,2,0,0,0,.745,1.876l.18.1c1.354.727,2.115.42,2.115-.346v0" transform="translate(61.101 30.805)" fill="#954a83"/>
            <path id="Trazado_833028" data-name="Trazado 833028" d="M106.916,55.356l.193.332.25-.147.063-.207Z" transform="translate(61.946 32.06)" fill="#954a83"/>
            <path id="Trazado_833029" data-name="Trazado 833029" d="M105.588,53.584l-.131-.221.291-.175.182.1Z" transform="translate(61.101 30.817)" fill="#954a83"/>
            <path id="Trazado_833030" data-name="Trazado 833030" d="M108.351,56.251a4.009,4.009,0,0,0-2.116-2.788l-.178-.1c-.63-.363-.745.265-.745,1.017v.245a2,2,0,0,0,.745,1.876l.178.1c1.355.727,2.116.422,2.116-.346v0" transform="translate(61.017 30.854)" fill="#672a5c"/>
            <path id="Trazado_833031" data-name="Trazado 833031" d="M106.212,55.127c0,.234-.142.341-.317.24a.76.76,0,0,1-.317-.606c0-.234.142-.341.317-.24a.76.76,0,0,1,.317.606" transform="translate(61.171 31.567)" fill="#d1d1d1"/>
            <path id="Trazado_833032" data-name="Trazado 833032" d="M97.834,68.725a.353.353,0,0,1-.267-.584l12.019-13.9a.353.353,0,1,1,.534.463L98.1,68.6a.353.353,0,0,1-.267.122" transform="translate(56.48 31.356)" fill="#672a5c"/>
            <path id="Trazado_833033" data-name="Trazado 833033" d="M98.323,70.312a.707.707,0,0,1-.535-1.169l12.021-13.9a.707.707,0,1,1,1.069.926l-12.019,13.9a.711.711,0,0,1-.535.245" transform="translate(56.558 31.866)" fill="#e79ce1"/>
            <path id="Trazado_833034" data-name="Trazado 833034" d="M115.648,78.819c-4.816-1.436-9.219-2.424-11.549-1.079l-.551.317L101.5,79.239c-.174.1-.355.205-.551.319-2.328,1.344-.618,3.887,1.868,6.667s5.34,2.873,8.117,1.27l2.432-1.4,2.047-1.181c.671-.387,1.486-.859,2.432-1.4,2.775-1.6,2.614-3.25-2.2-4.686" transform="translate(57.852 44.673)" fill="#672a5c"/>
            <rect id="Rectángulo_383781" data-name="Rectángulo 383781" width="1.303" height="1.235" transform="translate(157.701 124.791)" fill="#672a5c"/>
            <rect id="Rectángulo_383782" data-name="Rectángulo 383782" width="1.303" height="1.237" transform="translate(176.213 125.028)" fill="#672a5c"/>
            <path id="Trazado_833035" data-name="Trazado 833035" d="M115.648,78.189c-4.816-1.436-9.219-2.424-11.549-1.079l-.551.317L101.5,78.609c-.174.1-.355.205-.551.319-2.328,1.344-.618,3.887,1.868,6.667s5.34,2.873,8.117,1.27l2.432-1.4,2.047-1.181c.671-.387,1.486-.859,2.432-1.4,2.775-1.6,2.614-3.25-2.2-4.686" transform="translate(57.852 44.308)" fill="#954a83"/>
            <path id="Trazado_833036" data-name="Trazado 833036" d="M111.794,78.182c-3.464-1.033-6.632-1.744-8.306-.777l-.4.229-1.472.85-.4.229c-1.674.968-.444,2.8,1.344,4.8a4.286,4.286,0,0,0,5.839.913c.679-.392,1.267-.731,1.748-1.011l1.472-.85,1.75-1.009c2-1.153,1.881-2.337-1.583-3.37" transform="translate(58.189 44.583)" fill="#843a76"/>
            <path id="Trazado_833037" data-name="Trazado 833037" d="M105.416,77.974a4.443,4.443,0,0,0-3.948,0h-.644v.864c0,.73,1.172,1.324,2.619,1.324s2.619-.594,2.619-1.324v-.864Z" transform="translate(58.416 44.909)" fill="#954a83"/>
            <path id="Trazado_833038" data-name="Trazado 833038" d="M103.442,76.966c-1.447,0-2.619.594-2.619,1.325s1.172,1.325,2.619,1.325,2.619-.594,2.619-1.325-1.172-1.325-2.619-1.325" transform="translate(58.416 44.594)" fill="#954a83"/>
            <path id="Trazado_833039" data-name="Trazado 833039" d="M109.128,57.031a.363.363,0,0,1-.177-.047l-2.628-1.516a.354.354,0,0,1,.354-.613l2.628,1.518a.353.353,0,0,1-.177.659" transform="translate(61.501 31.755)" fill="#954a83"/>
            <path id="Trazado_833040" data-name="Trazado 833040" d="M104.953,78.336a4.012,4.012,0,0,0-2.118-2.788l-.178-.1c-.63-.365-.745.265-.745,1.017v.245a2,2,0,0,0,.745,1.876l.178.1c1.355.727,2.118.42,2.118-.346v0" transform="translate(59.047 43.65)" fill="#954a83"/>
            <path id="Trazado_833041" data-name="Trazado 833041" d="M103.371,77.526l.193.332.25-.147.063-.207Z" transform="translate(59.892 44.905)" fill="#954a83"/>
            <path id="Trazado_833042" data-name="Trazado 833042" d="M102.043,75.754l-.131-.221.291-.175.182.1Z" transform="translate(59.047 43.662)" fill="#954a83"/>
            <path id="Trazado_833043" data-name="Trazado 833043" d="M104.806,78.421a4.009,4.009,0,0,0-2.116-2.788l-.178-.1c-.63-.365-.745.265-.745,1.017v.245a2,2,0,0,0,.745,1.876l.178.1c1.355.727,2.116.42,2.116-.346v0" transform="translate(58.963 43.699)" fill="#672a5c"/>
            <path id="Trazado_833044" data-name="Trazado 833044" d="M102.667,77.3c0,.234-.144.341-.319.24a.759.759,0,0,1-.316-.606c0-.234.141-.341.316-.24a.761.761,0,0,1,.319.606" transform="translate(59.117 44.412)" fill="#d1d1d1"/>
            <path id="Trazado_833045" data-name="Trazado 833045" d="M107.832,56.538a4.011,4.011,0,0,0-2.115-2.788l-.18-.1c-.63-.365-.745.265-.745,1.017v.245a2,2,0,0,0,.745,1.876l.18.1c1.354.727,2.115.42,2.115-.346v0" transform="translate(60.716 31.021)" fill="#954a83"/>
            <path id="Trazado_833046" data-name="Trazado 833046" d="M106.252,55.728l.193.332.25-.147.063-.207Z" transform="translate(61.562 32.275)" fill="#954a83"/>
            <path id="Trazado_833047" data-name="Trazado 833047" d="M104.924,53.956l-.131-.221.291-.175.182.1Z" transform="translate(60.716 31.032)" fill="#954a83"/>
            <path id="Trazado_833048" data-name="Trazado 833048" d="M107.687,56.623a4.016,4.016,0,0,0-2.115-2.789l-.18-.1c-.63-.365-.745.265-.745,1.017v.245a2,2,0,0,0,.745,1.876l.18.1c1.354.727,2.115.42,2.115-.346v0" transform="translate(60.632 31.07)" fill="#672a5c"/>
            <path id="Trazado_833049" data-name="Trazado 833049" d="M105.547,55.5c0,.234-.142.341-.317.24a.76.76,0,0,1-.317-.606c0-.234.142-.341.317-.24a.76.76,0,0,1,.317.606" transform="translate(60.785 31.783)" fill="#d1d1d1"/>
            <path id="Trazado_833050" data-name="Trazado 833050" d="M105.547,54.579c0,.234-.142.341-.317.24a.76.76,0,0,1-.317-.606c0-.234.142-.341.317-.24a.76.76,0,0,1,.317.606" transform="translate(60.785 31.25)" fill="#d1d1d1"/>
            <path id="Trazado_833051" data-name="Trazado 833051" d="M106.069,56.918l-.829.226v1.33l1.573.575V57.365Z" transform="translate(60.975 32.978)" fill="#672a5c"/>
            <path id="Trazado_833052" data-name="Trazado 833052" d="M130.387,68.034v1.391l-.883.3-.371-1.692Z" transform="translate(74.819 39.418)" fill="#672a5c"/>
            <path id="Trazado_833053" data-name="Trazado 833053" d="M111.549,55.562l-2.936,1.7-2.938,1.695c-1.049.6-.5.763,4.917,3.888s21.821,12,26.817,13.867,6.322.824,6.322.824,1.813-.766-1.428-3.65S123.7,61.526,118.283,58.4s-5.686-3.443-6.735-2.838" transform="translate(60.975 32.047)" fill="#672a5c"/>
            <path id="Trazado_833054" data-name="Trazado 833054" d="M111.549,54.755l-2.936,1.695-2.938,1.7c-1.049.6-.5.763,4.917,3.887s21.821,12,26.817,13.869,6.322.824,6.322.824,1.813-.766-1.428-3.65S123.7,60.719,118.283,57.593s-5.686-3.443-6.735-2.838" transform="translate(60.975 31.579)" fill="#e79ce1"/>
            <path id="Trazado_833055" data-name="Trazado 833055" d="M105.275,85.931a.355.355,0,0,1-.325-.216L96.331,65.124a.354.354,0,0,1,.652-.273L105.6,85.441a.352.352,0,0,1-.19.463.371.371,0,0,1-.136.027" transform="translate(55.798 37.449)" fill="#954a83"/>
            <path id="Trazado_833056" data-name="Trazado 833056" d="M106.263,85.66a.707.707,0,0,1-.651-.433l-8.3-19.665a.706.706,0,1,1,1.3-.55l8.3,19.665a.706.706,0,0,1-.651.982" transform="translate(56.351 37.417)" fill="#954a83"/>
            <path id="Trazado_833057" data-name="Trazado 833057" d="M99.358,61.939,95.83,66.6s2.835,3,4.945.213-1.417-4.879-1.417-4.879" transform="translate(55.523 35.887)" fill="#672a5c"/>
            <path id="Trazado_833058" data-name="Trazado 833058" d="M104.062,78.882a4.009,4.009,0,0,0-2.116-2.788l-.178-.1c-.63-.363-.745.265-.745,1.017v.245a2,2,0,0,0,.745,1.876l.178.1c1.355.727,2.116.422,2.116-.346v0" transform="translate(58.532 43.967)" fill="#954a83"/>
            <path id="Trazado_833059" data-name="Trazado 833059" d="M102.481,78.072l.193.332.25-.147.063-.207Z" transform="translate(59.377 45.222)" fill="#954a83"/>
            <path id="Trazado_833060" data-name="Trazado 833060" d="M101.153,76.3l-.131-.221.291-.175.182.1Z" transform="translate(58.531 43.978)" fill="#954a83"/>
            <path id="Trazado_833061" data-name="Trazado 833061" d="M103.916,78.967a4.009,4.009,0,0,0-2.116-2.788l-.178-.1c-.63-.363-.745.265-.745,1.017v.245a2,2,0,0,0,.745,1.876l.178.1c1.355.727,2.116.42,2.116-.346v0" transform="translate(58.447 44.016)" fill="#672a5c"/>
            <path id="Trazado_833062" data-name="Trazado 833062" d="M101.777,77.843c0,.234-.142.341-.317.24a.76.76,0,0,1-.317-.606c0-.234.142-.341.317-.24a.76.76,0,0,1,.317.606" transform="translate(58.601 44.729)" fill="#d1d1d1"/>
            <path id="Trazado_833063" data-name="Trazado 833063" d="M101.777,76.923c0,.234-.142.341-.317.24a.76.76,0,0,1-.317-.606c0-.234.142-.341.317-.24a.76.76,0,0,1,.317.606" transform="translate(58.601 44.196)" fill="#d1d1d1"/>
            <path id="Trazado_833064" data-name="Trazado 833064" d="M108.131,55.612l27.7,16.039s-.385-2.041-3.141-4.024S113.3,56.233,110.535,55a1.77,1.77,0,0,0-2.4.614" transform="translate(62.65 31.736)" fill="#a85a9a"/>
            <path id="Trazado_833065" data-name="Trazado 833065" d="M135.46,70.1l1.159,1.483-2.78,1.646L106.767,56.578l2.856-1.687Z" transform="translate(61.86 31.804)" fill="#a85a9a"/>
            <path id="Trazado_833066" data-name="Trazado 833066" d="M106.371,56.655l27.7,16.039s-.387-2.041-3.141-4.024-19.39-11.394-22.151-12.629a1.772,1.772,0,0,0-2.405.614" transform="translate(61.631 32.341)" fill="#672a5c"/>
            <path id="Trazado_833067" data-name="Trazado 833067" d="M113.963,154.833c-2.718,1.077-3.494,2.055-2.762,3.8,1.077,2.565,3.813,4.154,6.235,4.658,3.656.758,6.395,5.809,10.3,1.786,1-1.031.12-3.748-.224-5.173.069-1-2.581-19.8-2.445-22.487-3.854,1.469-6.126,1.172-7.164,1.849.156.93,3.067,16.931,3.317,17.83-1.393-.428-5.436-2.983-7.256-2.262" transform="translate(64.278 79.617)" fill="#ffc9b6"/>
            <path id="Trazado_833068" data-name="Trazado 833068" d="M128.269,153.671s-2.285.821-3.756,1.289a8.106,8.106,0,0,1-7.7-1.96c-2.1-2.033,1.128-3.432,1.128-3.432s-2.876-3.293-6.278-1.872c-1.579.659-2.521,4.122-1.62,5.668a8.844,8.844,0,0,0,4.476,3.787,29.153,29.153,0,0,1,5.7,2.1c2.124,1.282,5.73,3.492,8.156,1.151s-.1-6.736-.1-6.736" transform="translate(63.555 85.368)" fill="#672a5c"/>
            <path id="Trazado_833069" data-name="Trazado 833069" d="M119.868,129.944s-6.932-2.439-9.852-6.395c-1.207-6.461,4.231-7.423,6.506-7.965a30.37,30.37,0,0,1,19.292,1.636c6.6,2.931-15.946,12.724-15.946,12.724" transform="translate(63.642 66.471)" fill="#672a5c"/>
            <path id="Trazado_833070" data-name="Trazado 833070" d="M100.966,154.21c-2.718,1.077-3.5,2.055-2.762,3.8,1.076,2.565,3.813,4.154,6.235,4.658,3.656.758,6.395,5.809,10.3,1.786,1-1.033.12-3.748-.224-5.173.069-.995-1.693-4.129-1.557-6.812-3.854,1.467-4.286.573-5.323,1.249a26.991,26.991,0,0,0,.588,2.754c-1.395-.428-5.436-2.983-7.256-2.262" transform="translate(56.748 88.339)" fill="#ffc9b6"/>
            <path id="Trazado_833071" data-name="Trazado 833071" d="M115.272,158.8s-2.285.821-3.754,1.289a8.105,8.105,0,0,1-7.7-1.96c-2.1-2.033,1.126-3.432,1.126-3.432s-2.876-3.293-6.278-1.872c-1.579.659-2.521,4.122-1.62,5.668a8.844,8.844,0,0,0,4.476,3.787,29.154,29.154,0,0,1,5.7,2.1c2.124,1.283,5.73,3.492,8.156,1.151s-.1-6.736-.1-6.736" transform="translate(56.025 88.339)" fill="#672a5c"/>
            <path id="Trazado_833072" data-name="Trazado 833072" d="M130.746,135.947v36.009c0,1.085-1.654,1.965-3.693,1.965s-3.694-.88-3.694-1.965V135.947Z" transform="translate(71.474 78.767)" fill="#e79ce1"/>
            <path id="Trazado_833073" data-name="Trazado 833073" d="M127.053,134.7c2.039,0,3.693.88,3.693,1.965s-1.654,1.965-3.693,1.965-3.694-.88-3.694-1.965,1.655-1.965,3.694-1.965" transform="translate(71.474 78.046)" fill="#dce6f9"/>
            <path id="Trazado_833074" data-name="Trazado 833074" d="M118.4,159.491a5.156,5.156,0,0,0-2.15-4.11,1.96,1.96,0,0,0-.94-.261,2.62,2.62,0,0,0-1.379.385,1.987,1.987,0,0,0-.768,1.369l2.416,4.962a1.831,1.831,0,0,0,1.578-.057,2.481,2.481,0,0,0,.933-.971,3.4,3.4,0,0,0,.178-.412,2.946,2.946,0,0,0,.129-.907" transform="translate(65.567 89.876)" fill="#672a5c"/>
            <path id="Trazado_833075" data-name="Trazado 833075" d="M113.119,157.362a5.148,5.148,0,0,0,2.151,4.108c1.188.687,2.15-.041,2.15-1.625a5.146,5.146,0,0,0-2.15-4.108c-1.188-.687-2.151.041-2.151,1.625" transform="translate(65.541 90.083)" fill="#954a83"/>
            <path id="Trazado_833076" data-name="Trazado 833076" d="M113.639,157.446a2.822,2.822,0,0,0,1.178,2.251c.651.376,1.178-.024,1.178-.891a2.822,2.822,0,0,0-1.178-2.251c-.651-.376-1.178.024-1.178.891" transform="translate(65.842 90.625)" fill="#fff"/>
            <path id="Trazado_833077" data-name="Trazado 833077" d="M113.771,157.539a1.683,1.683,0,0,0,.7,1.339c.387.223.7-.014.7-.531a1.677,1.677,0,0,0-.7-1.338c-.385-.224-.7.013-.7.529" transform="translate(65.918 90.922)" fill="#954a83"/>
            <path id="Trazado_833078" data-name="Trazado 833078" d="M142.123,173.183a5.151,5.151,0,0,0-2.15-4.108,1.981,1.981,0,0,0-.94-.262,2.62,2.62,0,0,0-1.379.385,1.99,1.99,0,0,0-.768,1.369l2.416,4.962a1.828,1.828,0,0,0,1.576-.057,2.475,2.475,0,0,0,.935-.971,3.362,3.362,0,0,0,.177-.412,2.9,2.9,0,0,0,.131-.907" transform="translate(79.312 97.809)" fill="#672a5c"/>
            <path id="Trazado_833079" data-name="Trazado 833079" d="M136.842,171.055a5.151,5.151,0,0,0,2.151,4.11c1.188.685,2.15-.043,2.15-1.627a5.149,5.149,0,0,0-2.15-4.108c-1.188-.685-2.151.041-2.151,1.625" transform="translate(79.285 98.017)" fill="#954a83"/>
            <path id="Trazado_833080" data-name="Trazado 833080" d="M137.362,171.139a2.822,2.822,0,0,0,1.178,2.251c.651.376,1.178-.024,1.178-.891a2.822,2.822,0,0,0-1.178-2.251c-.651-.376-1.178.024-1.178.891" transform="translate(79.587 98.559)" fill="#fff"/>
            <path id="Trazado_833081" data-name="Trazado 833081" d="M137.494,171.232a1.68,1.68,0,0,0,.7,1.339c.387.223.7-.014.7-.531a1.676,1.676,0,0,0-.7-1.338c-.387-.224-.7.013-.7.529" transform="translate(79.663 98.855)" fill="#954a83"/>
            <path id="Trazado_833082" data-name="Trazado 833082" d="M135.22,159.37a5.152,5.152,0,0,1,2.15-4.11,1.974,1.974,0,0,1,.94-.261,2.62,2.62,0,0,1,1.379.385,1.987,1.987,0,0,1,.768,1.369l-2.416,4.962a1.828,1.828,0,0,1-1.576-.057,2.453,2.453,0,0,1-.935-.971,3.663,3.663,0,0,1-.178-.412,2.945,2.945,0,0,1-.13-.907" transform="translate(78.346 89.806)" fill="#672a5c"/>
            <path id="Trazado_833083" data-name="Trazado 833083" d="M140.158,157.241a5.156,5.156,0,0,1-2.151,4.111c-1.188.685-2.15-.044-2.15-1.628a5.151,5.151,0,0,1,2.15-4.108c1.188-.685,2.151.043,2.151,1.625" transform="translate(78.715 90.013)" fill="#954a83"/>
            <path id="Trazado_833084" data-name="Trazado 833084" d="M138.924,157.324a2.825,2.825,0,0,1-1.178,2.252c-.651.374-1.178-.024-1.178-.892a2.824,2.824,0,0,1,1.178-2.251c.651-.374,1.178.024,1.178.891" transform="translate(79.127 90.555)" fill="#fff"/>
            <path id="Trazado_833085" data-name="Trazado 833085" d="M138.442,157.419a1.68,1.68,0,0,1-.7,1.339c-.387.223-.7-.014-.7-.531a1.676,1.676,0,0,1,.7-1.338c.387-.224.7.013.7.529" transform="translate(79.401 90.852)" fill="#954a83"/>
            <path id="Trazado_833086" data-name="Trazado 833086" d="M111.2,173.183a5.151,5.151,0,0,1,2.15-4.108,1.981,1.981,0,0,1,.94-.262,2.62,2.62,0,0,1,1.379.385,1.99,1.99,0,0,1,.768,1.369l-2.416,4.962a1.828,1.828,0,0,1-1.576-.057,2.476,2.476,0,0,1-.935-.971,3.663,3.663,0,0,1-.178-.412,2.945,2.945,0,0,1-.13-.907" transform="translate(64.43 97.809)" fill="#672a5c"/>
            <path id="Trazado_833087" data-name="Trazado 833087" d="M116.14,171.055a5.151,5.151,0,0,1-2.151,4.11c-1.188.685-2.15-.043-2.15-1.627a5.149,5.149,0,0,1,2.15-4.108c1.188-.685,2.151.041,2.151,1.625" transform="translate(64.799 98.017)" fill="#954a83"/>
            <path id="Trazado_833088" data-name="Trazado 833088" d="M114.906,171.139a2.822,2.822,0,0,1-1.178,2.251c-.651.376-1.178-.024-1.178-.891a2.822,2.822,0,0,1,1.178-2.251c.651-.376,1.178.024,1.178.891" transform="translate(65.211 98.559)" fill="#fff"/>
            <path id="Trazado_833089" data-name="Trazado 833089" d="M114.424,171.232a1.68,1.68,0,0,1-.7,1.339c-.385.223-.7-.014-.7-.531a1.68,1.68,0,0,1,.7-1.338c.387-.224.7.013.7.529" transform="translate(65.485 98.855)" fill="#954a83"/>
            <path id="Trazado_833090" data-name="Trazado 833090" d="M115.481,154.971c3.239.509,17.648,3.23,17.648,3.23s14.409,13.916,17.648,17.149a8.447,8.447,0,0,1,2.131,7.584l-1.4-.809a8.716,8.716,0,0,0-2.27-4.487c-.907-.826-8.508-8.393-16.11-12.78a53.14,53.14,0,0,0-16.111-5.823c-1.815-.442-2.27,1.867-2.27,1.867l-1.815-1.047s-.692-5.392,2.548-4.883" transform="translate(65.397 89.77)" fill="#e79ce1"/>
            <path id="Trazado_833091" data-name="Trazado 833091" d="M150.919,154.971c-3.239.509-17.648,3.23-17.648,3.23s-14.409,13.916-17.648,17.149a9.121,9.121,0,0,0-2.995,6.209,1.2,1.2,0,0,0,.9,1.35l1.358-.783a8.721,8.721,0,0,1,2.268-4.487c.908-.826,8.51-8.393,16.111-12.78a60.159,60.159,0,0,1,16.983-6.166c.512-.125.752.422,1.047,1.132a4.592,4.592,0,0,1,.351,1.077l1.815-1.047s.692-5.392-2.548-4.883" transform="translate(65.256 89.77)" fill="#e79ce1"/>
            <path id="Trazado_833092" data-name="Trazado 833092" d="M112.978,174.165a5.151,5.151,0,0,1,2.151-4.11,1.951,1.951,0,0,1,.94-.261,2.619,2.619,0,0,1,1.377.385,1.98,1.98,0,0,1,.768,1.369l-2.415,4.962a1.832,1.832,0,0,1-1.578-.057,2.476,2.476,0,0,1-.935-.971,3.362,3.362,0,0,1-.177-.412,2.9,2.9,0,0,1-.131-.907" transform="translate(65.459 98.378)" fill="#672a5c"/>
            <path id="Trazado_833093" data-name="Trazado 833093" d="M117.917,172.036a5.151,5.151,0,0,1-2.151,4.11c-1.188.685-2.15-.043-2.15-1.627a5.149,5.149,0,0,1,2.15-4.108c1.188-.685,2.151.041,2.151,1.625" transform="translate(65.828 98.585)" fill="#954a83"/>
            <path id="Trazado_833094" data-name="Trazado 833094" d="M116.683,172.12a2.822,2.822,0,0,1-1.178,2.251c-.651.376-1.178-.024-1.178-.891a2.822,2.822,0,0,1,1.178-2.251c.651-.376,1.178.024,1.178.891" transform="translate(66.24 99.127)" fill="#fff"/>
            <path id="Trazado_833095" data-name="Trazado 833095" d="M116.2,172.213a1.679,1.679,0,0,1-.7,1.339c-.387.223-.7-.014-.7-.531a1.677,1.677,0,0,1,.7-1.338c.387-.224.7.014.7.529" transform="translate(66.515 99.424)" fill="#954a83"/>
            <path id="Trazado_833096" data-name="Trazado 833096" d="M140.347,174.165a5.149,5.149,0,0,0-2.15-4.11,1.961,1.961,0,0,0-.94-.261,2.62,2.62,0,0,0-1.379.385,1.987,1.987,0,0,0-.768,1.369l2.416,4.962a1.828,1.828,0,0,0,1.576-.057,2.476,2.476,0,0,0,.935-.971,3.389,3.389,0,0,0,.178-.412,2.945,2.945,0,0,0,.13-.907" transform="translate(78.283 98.378)" fill="#672a5c"/>
            <path id="Trazado_833097" data-name="Trazado 833097" d="M135.065,172.036a5.149,5.149,0,0,0,2.15,4.11c1.189.685,2.151-.043,2.151-1.627a5.146,5.146,0,0,0-2.151-4.108c-1.188-.685-2.15.041-2.15,1.625" transform="translate(78.256 98.585)" fill="#954a83"/>
            <path id="Trazado_833098" data-name="Trazado 833098" d="M135.586,172.12a2.822,2.822,0,0,0,1.178,2.251c.651.376,1.178-.024,1.178-.891a2.822,2.822,0,0,0-1.178-2.251c-.651-.376-1.178.024-1.178.891" transform="translate(78.558 99.127)" fill="#fff"/>
            <path id="Trazado_833099" data-name="Trazado 833099" d="M135.717,172.213a1.683,1.683,0,0,0,.7,1.339c.389.223.7-.014.7-.531a1.673,1.673,0,0,0-.7-1.338c-.385-.224-.7.014-.7.529" transform="translate(78.634 99.424)" fill="#954a83"/>
            <path id="Trazado_833100" data-name="Trazado 833100" d="M116.623,160.472a5.153,5.153,0,0,0-2.151-4.11,1.986,1.986,0,0,0-.938-.261,2.62,2.62,0,0,0-1.379.385,1.985,1.985,0,0,0-.768,1.368l2.416,4.964a1.828,1.828,0,0,0,1.576-.057,2.476,2.476,0,0,0,.935-.971,3.364,3.364,0,0,0,.177-.412,2.9,2.9,0,0,0,.131-.907" transform="translate(64.537 90.445)" fill="#672a5c"/>
            <path id="Trazado_833101" data-name="Trazado 833101" d="M111.342,158.343a5.151,5.151,0,0,0,2.151,4.11c1.188.685,2.15-.043,2.15-1.627a5.149,5.149,0,0,0-2.15-4.108c-1.188-.687-2.151.041-2.151,1.625" transform="translate(64.511 90.652)" fill="#954a83"/>
            <path id="Trazado_833102" data-name="Trazado 833102" d="M111.862,158.427a2.822,2.822,0,0,0,1.178,2.251c.651.376,1.178-.024,1.178-.891a2.822,2.822,0,0,0-1.178-2.251c-.651-.376-1.178.024-1.178.891" transform="translate(64.812 91.194)" fill="#fff"/>
            <path id="Trazado_833103" data-name="Trazado 833103" d="M111.994,158.52a1.683,1.683,0,0,0,.7,1.341c.387.223.7-.014.7-.531a1.681,1.681,0,0,0-.7-1.339c-.387-.223-.7.014-.7.529" transform="translate(64.889 91.49)" fill="#954a83"/>
            <path id="Trazado_833104" data-name="Trazado 833104" d="M137,160.351a5.155,5.155,0,0,1,2.151-4.11,1.986,1.986,0,0,1,.938-.261,2.62,2.62,0,0,1,1.379.385,1.987,1.987,0,0,1,.768,1.369l-2.415,4.962a1.832,1.832,0,0,1-1.578-.057,2.476,2.476,0,0,1-.935-.971,3.261,3.261,0,0,1-.177-.412,2.89,2.89,0,0,1-.131-.907" transform="translate(79.375 90.375)" fill="#672a5c"/>
            <path id="Trazado_833105" data-name="Trazado 833105" d="M141.935,158.223a5.153,5.153,0,0,1-2.151,4.11c-1.188.685-2.15-.043-2.15-1.627a5.149,5.149,0,0,1,2.15-4.108c1.188-.687,2.151.041,2.151,1.625" transform="translate(79.744 90.582)" fill="#954a83"/>
            <path id="Trazado_833106" data-name="Trazado 833106" d="M140.7,158.307a2.822,2.822,0,0,1-1.178,2.251c-.651.376-1.178-.022-1.178-.891a2.822,2.822,0,0,1,1.178-2.251c.651-.376,1.178.024,1.178.891" transform="translate(80.156 91.124)" fill="#fff"/>
            <path id="Trazado_833107" data-name="Trazado 833107" d="M140.219,158.4a1.683,1.683,0,0,1-.7,1.339c-.387.223-.7-.014-.7-.531a1.681,1.681,0,0,1,.7-1.339c.387-.223.7.014.7.531" transform="translate(80.43 91.42)" fill="#954a83"/>
            <path id="Trazado_833108" data-name="Trazado 833108" d="M155.033,133.576v7.193c0,6.308-9.615,11.424-21.477,11.424s-21.478-5.116-21.478-11.424v-7.193Z" transform="translate(64.937 77.393)" fill="#d680d4"/>
            <path id="Trazado_833109" data-name="Trazado 833109" d="M159.117,132.534v4.193c0,7.164-10.92,12.972-24.389,12.972s-24.392-5.807-24.392-12.972v-4.193Z" transform="translate(63.928 76.789)" fill="#f8b505"/>
            <path id="Trazado_833110" data-name="Trazado 833110" d="M134.728,124.319c13.471,0,24.389,5.809,24.389,12.975s-10.918,12.973-24.389,12.973-24.391-5.807-24.391-12.973,10.92-12.975,24.391-12.975" transform="translate(63.929 72.03)" fill="#fed03d"/>
            <path id="Trazado_833111" data-name="Trazado 833111" d="M112.971,90.115s-2.017,1.911-.194,3.655,8.745,8.819,12.247,10.947,10.28-1.946,10.236-3.058-12.1-7.08-15.025-8.876a32.175,32.175,0,0,1-4.582-3.331Z" transform="translate(64.9 51.828)" fill="#ffc9b6"/>
            <path id="Trazado_833112" data-name="Trazado 833112" d="M101.631,124.361c-1.489,4.906.153,13.606,1.058,21.491s3.6,29.015,3.6,29.015l6.436.7s.689-12.455,2.224-22.255a148.2,148.2,0,0,0,1.734-21.322Z" transform="translate(58.537 72.054)" fill="#ffc9b6"/>
            <path id="Trazado_833113" data-name="Trazado 833113" d="M130.445,88.123c4.1-1.208,6.055.665,8.873,5.763s3.868,13.381-2.071,15.65-10.516-18.446-10.516-18.446,2.633-2.649,3.713-2.968" transform="translate(73.428 50.853)" fill="#bdd6e5"/>
            <path id="Trazado_833114" data-name="Trazado 833114" d="M126.342,136.849c2.067,3.2,1.616,5.795,1.682,9.238,5.727-.393,11.338-.272,16.146-3.055,9.968-5.771,2.751-19.831-3.075-28.736-4.04,5.42-12.529,9.416-19.578,8.788a39.056,39.056,0,0,0,1.36,7.538c.736,2.434,2.124,4.147,3.465,6.226" transform="translate(70.406 66.223)" fill="#f8b505"/>
            <path id="Trazado_833115" data-name="Trazado 833115" d="M153.31,134.565c-1.439-7.761-.67-14.208-.8-16.045-.092-1.306-18.817,4.3-25.144,2.944-4.117-.884-18.191-.6-23.432,3.141-3.966,2.833-3.438,8.289.734,11.626,5.7,4.553,22.472,5.51,25.218,6.2,2.047,2.236,8.541,5.062,13.681,5.04,7.5-.033,10.574-8.42,9.743-12.9" transform="translate(58.652 68.555)" fill="#843a76"/>
            <path id="Trazado_833116" data-name="Trazado 833116" d="M138.985,95.713a1,1,0,0,0-.646-.755c-4.727-1.707-5.646-4.4-6.145-8.84a.994.994,0,0,0-1.4-.7,37.431,37.431,0,0,1-9.265,3.222c2.078,8.293-2.056,9.307-4.435,12.352-.6.769,4.673,5.27,7.695,5.083a18.565,18.565,0,0,0,7.556-2.018c2.563-1.361,7.091-4.966,6.641-8.341" transform="translate(67.816 49.434)" fill="#ffc9b6"/>
            <path id="Trazado_833117" data-name="Trazado 833117" d="M134.392,84.862c-.128-4.195-5.1-10.614-9.791-10.625-4.782-.011-7.377,6.275-8,9.532-1.065,5.534-.588,17.234,8.489,14.54,7.071-2.1,9.494-7.189,9.3-13.447" transform="translate(67.322 43.013)" fill="#ffc9b6"/>
            <path id="Trazado_833118" data-name="Trazado 833118" d="M115.518,106.7c1.3-5.319,2.356-8.453,6.049-10.612,3.757-.644,7.467,2.778,11.722-.19,3.023-2.108,3.075-4.9,3.623-5.253,4-2.578,5.965-.414,7.668,2.492,3.961,6.763,2.917,14.342,2.908,22.874,0,5.381,3.034,15.045,5.337,19.349-1.346,3.061-7.243,10-13.627,10.268-4.125.172-13.805-1.7-16.555-7.2.973-5.253,0-13.069-1.7-15.21-1.977-2.494-6.874-6.029-7.166-8.429-.329-2.694,1.058-5.318,1.737-8.093" transform="translate(65.895 51.852)" fill="#dceaf4"/>
            <path id="Trazado_833119" data-name="Trazado 833119" d="M136.183,89.125a6.564,6.564,0,0,1-.406,5.22c-1.458,2.467-4.149,3.761-7.407,3.824s-10.064-1.292-10.064-1.292a2.473,2.473,0,0,1,1.812-2.593c2.037-.64,8.112.978,10.711-.324s2.6-3.013,3.579-4.391,1.775-.444,1.775-.444" transform="translate(68.541 51.46)" fill="#bdd6e5"/>
            <path id="Trazado_833120" data-name="Trazado 833120" d="M140.81,83.632a7.436,7.436,0,0,0-4.147-5.867c-.913-1.995-.989-3.653-5.525-5.785-5.867-2.758-11.384.576-11.384,4.677-3.325-.524-4.41,2.483-3.8,6.594.674,4.579,5.1,9.168,9.584,8.56.889,3.47,3.347,8.443,7.54,9.015.58-5.46,8.682-10.945,7.737-17.193" transform="translate(67.088 41.12)" fill="#672a5c"/>
            <path id="Trazado_833121" data-name="Trazado 833121" d="M119.342,85.781s-.069-4.722,2.579-3.189,2.745,5.7.7,6.768-3.276-3.579-3.276-3.579" transform="translate(69.146 47.676)" fill="#ffc9b6"/>
            <path id="Trazado_833122" data-name="Trazado 833122" d="M135.085,81.027a8.63,8.63,0,0,0-1.491-4.056,2.385,2.385,0,0,0-1.322-2.811c.872-2.137-2.871-3.449-4.519-3.039a2.9,2.9,0,0,0-2.208,2.589,5.235,5.235,0,0,0,.281,2.183,2.9,2.9,0,0,0-2.814,3.127,3.7,3.7,0,0,0,2.047,2.8,5.833,5.833,0,0,0,1.677.554c-1.56,2.761,1.878,6.967,5.421,5.261,2.367-1.14,3.192-4.192,2.928-6.6" transform="translate(71.263 41.164)" fill="#fed03d"/>
            <path id="Trazado_833123" data-name="Trazado 833123" d="M129.783,74.675c-3.974-.281-5.893,3.659-3.569,9.2s6.9,5.378,9.8,6.343c2.543.843,1.849,4.324.161,5.692a4.469,4.469,0,0,1-3.863,1.145,8.293,8.293,0,0,0,9.919,1.777c4.217-1.979,5.55-10.231,2.222-20.5-2.307-7.115-6.929-9.571-10.618-7.523a17.12,17.12,0,0,0-4.054,3.863" transform="translate(72.545 40.624)" fill="#672a5c"/>
            <path id="Trazado_833124" data-name="Trazado 833124" d="M161.525,93.078c.815-.561,1.279-1.12.788-1.527A31.126,31.126,0,0,0,156.89,88.7c-.182-.088-.366-.164-.553-.24l-.2-.085,0,0a9.108,9.108,0,0,0-7.889,1.028c-9.775,5.643-18.386,25.82-18.386,46.921,0,16.6,1.3,24.746,4.239,27.006l-.011.022a43.288,43.288,0,0,0,5.2,2.666,33.243,33.243,0,0,0,1.707-2.919l-.739-.63c3.235-2.12,5.833-5.724,7.993-6.971,2.871-1.658,6.515-.039,11.4-4.722s6.757-14.451,6.757-35.551c0-9.966-1.872-17.533-4.876-22.153" transform="translate(75.237 50.924)" fill="#fed03d"/>
            <path id="Trazado_833125" data-name="Trazado 833125" d="M150.918,90.771c9.773-5.643,18.158,4.719,18.158,25.82s-1.868,30.868-6.757,35.552-8.53,3.064-11.4,4.722-6.518,7.485-11.4,8.445-6.983-6.52-6.983-27.62,8.611-41.276,18.387-46.919" transform="translate(76.788 51.71)" fill="#f8b505"/>
            <path id="Trazado_833126" data-name="Trazado 833126" d="M139.535,162.836a12.463,12.463,0,0,0,6.837-2.1c5.177-3.363,8.268-10.02,8.268-17.809V118.505a2.2,2.2,0,0,0-4.392,0v24.424c0,6.2-2.4,11.616-6.267,14.126a9.674,9.674,0,0,1-5.383,1.325,20.261,20.261,0,0,1-7.073,2.265c1.7.76,6.281,2.191,8.009,2.191" transform="translate(76.205 67.389)" fill="#d680d4"/>
            <path id="Trazado_833127" data-name="Trazado 833127" d="M98.428,99.55c-2.571-1.674-4.435-3.013-5.886-2.965-.894.028-1.191.395-.771,1.445-2.606.8-.81,6.872,3.4,9.172,3.284,1.793,5.089.43,7.561,1.884a17.342,17.342,0,0,1,3.383,3.4c4.2,5.327,5.6,8.27,9.224,11.029s5.084,1.057,8.87.426c4.05-.674,12.668-11.4,12.668-11.4l-9.434-8.4-8.87,10.843s-8.538-8.417-11.449-11.084c-1.829-1.677-1.216-3.039-1.129-4.962.074-1.6.52-2.349-.771-2.349-1.611,0-1.481,2.9-2.031,3.991s-4.234-.681-4.765-1.027" transform="translate(52.468 55.96)" fill="#ffc9b6"/>
            <path id="Trazado_833128" data-name="Trazado 833128" d="M127.471,97.324s-3.617-2.5-6.979-1.284-6.177,6.719-7.818,9.852-3.934,7.15-3.934,7.15,2.252,4.359,5.274,6.308a14.292,14.292,0,0,0,6.951,1.916,19.06,19.06,0,0,0,6.872-9.739c2.134-6.678,2.737-12.85-.365-14.2" transform="translate(63.003 55.452)" fill="#bdd6e5"/>
            <path id="Trazado_833129" data-name="Trazado 833129" d="M122.225,93.108a34.336,34.336,0,0,0-5.3-4.726c-1.373-.987-2.15-2.382-2.754-2.533-1.211-.3-1.169.728-.674,1.638.741,1.361,2.791,3.6-1.035,3.182s-6-.715-7.513-.333c-.911.232-1.445.85-.712,1.237-.866.437-.933,1.143-.133,1.676-.561.068-.624.933.333,1.467-.636.469-.3.954,2.134,1.6,4.5,1.2,11.117-.425,11.117-.425Z" transform="translate(59.991 49.709)" fill="#ffc9b6"/>
            <path id="Trazado_833130" data-name="Trazado 833130" d="M91.333,87.316,74.615,96.925a4.2,4.2,0,0,0,.363,2.336c.75,1.322,3.152,2.251,3.152,2.251l7.082,3.527,15.23-8.769.984.569V95.7L93.089,90.89a3.839,3.839,0,0,1-1.756-3.574" transform="translate(43.219 50.59)" fill="#954a83"/>
            <path id="Trazado_833131" data-name="Trazado 833131" d="M91.6,90.017c.847-2.148,3.356-9.077,3.381-9.148l-.924-.333c-.013.035-.673,1.857-1.428,3.917-3.1,1.854-15.74,9.156-15.74,9.156s-1.352,3.356-1.761,4.656a11.989,11.989,0,0,0-.526,2.59l16.718-9.611a4.194,4.194,0,0,1,.28-1.227" transform="translate(43.227 46.662)" fill="#843a76"/>
            <path id="Trazado_833132" data-name="Trazado 833132" d="M85.386,105.542l-8.338-4.814a3.92,3.92,0,0,1-1.477-4.8c.847-2.148,3.356-9.077,3.38-9.146l-.924-.335c-.025.069-2.529,6.986-3.37,9.121a4.921,4.921,0,0,0,1.9,6.013l8.829,5.1Z" transform="translate(43.047 50.086)" fill="#672a5c"/>
            <path id="Trazado_833133" data-name="Trazado 833133" d="M97.532,92.627l-16.214,9.336V103.1l16.214-9.336Z" transform="translate(47.115 53.667)" fill="#843a76"/>
            <path id="Trazado_833134" data-name="Trazado 833134" d="M65.331,125.677V82.466L123.769,48.8V92.01Z" transform="translate(37.853 28.274)" fill="#a85a9a"/>
            <path id="Trazado_833135" data-name="Trazado 833135" d="M123.146,91.411,65.584,124.645V82.5l57.563-33.234Z" transform="translate(37.999 28.544)" fill="#954a83"/>
            <path id="Trazado_833136" data-name="Trazado 833136" d="M122.107,86.142,66,118.533V82.59l56.1-32.393Z" transform="translate(38.241 29.083)" fill="#fff"/>
            <path id="Trazado_833137" data-name="Trazado 833137" d="M83.843,87.839c-.436,0-.9-.352-.9-1.123A2.371,2.371,0,0,1,83.96,84.8l3.9-2.252a1.05,1.05,0,0,1,.528-.152c.434,0,.9.351.9,1.123a2.368,2.368,0,0,1-1.02,1.911l-3.9,2.254A1.041,1.041,0,0,1,83.843,87.839Z" transform="translate(48.055 47.742)" fill="#fff"/>
            <path id="Trazado_833138" data-name="Trazado 833138" d="M84.015,87.182l3.9-2.252a1.963,1.963,0,0,0,.813-1.557c0-.6-.366-.875-.813-.616l-3.9,2.252a1.96,1.96,0,0,0-.815,1.557c0,.6.366.875.815.616" transform="translate(48.206 47.893)" fill="#d680d4"/>
            <path id="Trazado_833139" data-name="Trazado 833139" d="M65.816,70.4l-1.32-.761v43.209l1.32.763Z" transform="translate(37.368 40.345)" fill="#843a76"/>
            <path id="Trazado_833140" data-name="Trazado 833140" d="M124.254,49.089l-1.4-.79L64.495,81.994l1.322.761Z" transform="translate(37.368 27.984)" fill="#a85a9a"/>
            <path id="Trazado_833141" data-name="Trazado 833141" d="M84.687,78.529a13.488,13.488,0,0,1-4.823,5.46c-1.813,1.047-3.462,1.05-4.681.213l.411,3.532-2.816,3.045c1.941.959,4.4.782,7.087-.768a22.237,22.237,0,0,0,7.884-8.821l-.338-3.847Z" transform="translate(42.167 44.812)" fill="#ff5a72"/>
            <path id="Trazado_833142" data-name="Trazado 833142" d="M76.737,86.418c-1.309-.9-2.127-2.766-2.127-5.362a16.446,16.446,0,0,1,1.553-6.668L73.389,76.6l-1.125-3.085a26.967,26.967,0,0,0-2.173,10.146c0,4.765,1.657,8.055,4.242,9.331l2.814-3.045Z" transform="translate(40.61 42.596)" fill="#e79ce1"/>
            <path id="Trazado_833143" data-name="Trazado 833143" d="M75.364,79.1a14.107,14.107,0,0,1,5.258-6.344c2.09-1.207,3.956-1.03,5.206.224l.31-4.084,2.919-2c-2.074-1.887-5.082-2.1-8.434-.16-3.762,2.173-7.095,6.545-9.154,11.5l1.123,3.083Z" transform="translate(41.408 37.88)" fill="#fed03d"/>
            <path id="Trazado_833144" data-name="Trazado 833144" d="M91.578,68.075c.013-.03.024-.062.036-.092v0l.088-.229-.1-.043-.182-3.367-3.053,1.249c-.1.227-.2.456-.3.687l0,0-.055.145c-.175.426-.343.858-.5,1.294L81.746,82.691s-.493,1.282-.608,1.575a18.461,18.461,0,0,1-.821,1.8l2.724-1.185.338,3.846c.431-.809.828-1.644,1.189-2.5.041-.1.608-1.534.608-1.534Z" transform="translate(46.535 37.28)" fill="#fed03d"/>
            <path id="Trazado_833145" data-name="Trazado 833145" d="M103.372,59.662c-2.064-2.524-5.375-3.021-9.108-.866-3.584,2.069-6.777,6.134-8.851,10.8l3.051-1.249.2,3.641a14.562,14.562,0,0,1,5.6-7.166c2.075-1.2,3.933-1.031,5.182.2L102.3,63.95Z" transform="translate(49.488 33.279)" fill="#e79ce1"/>
            <path id="Trazado_833146" data-name="Trazado 833146" d="M100.7,66.544c0-3.364-.826-5.994-2.221-7.7L97.4,63.132,94.548,64.2a6.837,6.837,0,0,1,1.63,4.95,16.749,16.749,0,0,1-1.887,7.362l-.428,4.155,2.7-.066A28.479,28.479,0,0,0,100.7,66.544" transform="translate(54.384 34.095)" fill="#ff5a72"/>
            <path id="Trazado_833147" data-name="Trazado 833147" d="M91.326,76.919l-.009,0-6.2-8.941s-.742-1.03-.805-1.1a7.434,7.434,0,0,0-.528-.54l-2.919,2-.308,4.084a3.921,3.921,0,0,1,.355.412L87.5,82.334c.074.112.477.654.534.719a6.213,6.213,0,0,0,.818.824l.3-3.77,3.056-2.21a4.056,4.056,0,0,1-.889-.978" transform="translate(46.677 38.436)" fill="#e79ce1"/>
            <path id="Trazado_833148" data-name="Trazado 833148" d="M98.529,74.187l.426-4.155a13.625,13.625,0,0,1-4.923,5.653c-1.906,1.1-3.623,1.042-4.858.073l-3.058,2.21-.3,3.768c2.063,1.714,4.983,1.842,8.221-.028a21.323,21.323,0,0,0,7.193-7.587Z" transform="translate(49.719 40.576)" fill="#fed03d"/>
            <path id="Trazado_833149" data-name="Trazado 833149" d="M108.1,64.232,57.446,93.479c-4.2,2.426-7.641-.174-7.641-5.776V44.757c0-5.6,3.438-12.174,7.641-14.6L108.1.909c4.2-2.426,7.641.174,7.641,5.776V49.632c0,5.6-3.438,12.174-7.641,14.6" transform="translate(28.857 0)" fill="#bdd6e5"/>
            <path id="Trazado_833150" data-name="Trazado 833150" d="M52.9,64.247V50.753L55.82,37.724l1.9,4.6L63.7,23.616l8.875,11.653,7.175-15.041,9.018,14.491,3.579-8.777,9.767,19.138Z" transform="translate(30.647 11.72)" fill="#954a83"/>
            <path id="Trazado_833151" data-name="Trazado 833151" d="M56.025,70.959l49.28-28.374,2.2-2.222-7.387-13.306L94.043,41.516,84.587,29.654s-7.957,13.46-7.816,13.763-9.757-12.87-9.757-12.87l-5.4,17.533-4.552-6.044L52.9,55.395V69.347Z" transform="translate(30.647 15.677)" fill="#ff5a72"/>
            <path id="Trazado_833152" data-name="Trazado 833152" d="M105.569,56.817,56.925,84.9c-2.473,1.428-4.484-.092-4.484-3.388V41.334c0-3.3,2.011-7.139,4.484-8.567L105.569,4.684c2.472-1.428,4.482.092,4.482,3.388V48.25c0,3.3-2.011,7.139-4.482,8.567M56.925,34.678a7.316,7.316,0,0,0-3.051,5.828V80.684c0,2.243,1.369,3.277,3.051,2.306l48.644-28.085a7.315,7.315,0,0,0,3.05-5.828V8.9c0-2.243-1.368-3.276-3.05-2.306Z" transform="translate(30.384 2.403)" fill="#fff"/>
            <path id="Trazado_833153" data-name="Trazado 833153" d="M10.2,62.853v80.1c0,5.411,3.32,7.921,7.377,5.577l27.057-15.62c4.057-2.342,7.377-8.687,7.377-14.1v-80.1Z" transform="translate(5.912 22.431)" fill="#e79ce1"/>
            <path id="Trazado_833154" data-name="Trazado 833154" d="M52.015,46.574V38.5c0-5.409-3.32-7.919-7.377-5.577L17.581,48.55C13.524,50.892,10.2,57.235,10.2,62.644v8.069Z" transform="translate(5.912 18.57)" fill="#954a83"/>
            <path id="Trazado_833155" data-name="Trazado 833155" d="M32.322,56.65l-17.2,9.933c-.862.5-1.567-.035-1.567-1.185A3.765,3.765,0,0,1,15.118,62.4l17.2-9.933c.862-.5,1.567.035,1.567,1.185a3.765,3.765,0,0,1-1.567,2.995" transform="translate(7.851 30.293)" fill="#ff5a72"/>
            <path id="Trazado_833156" data-name="Trazado 833156" d="M37.667,53.92l-9.912,5.724a3.766,3.766,0,0,0-1.568,2.995c0,1.148.706,1.682,1.568,1.185L37.667,58.1A3.765,3.765,0,0,0,39.233,55.1c0-1.15-.7-1.682-1.567-1.185" transform="translate(15.172 31.133)" fill="#fff"/>
            <path id="Trazado_833157" data-name="Trazado 833157" d="M28.243,59.361,18.33,65.085a3.766,3.766,0,0,0-1.568,2.995c0,1.148.706,1.682,1.568,1.185l9.912-5.724a3.765,3.765,0,0,0,1.567-2.995c0-1.148-.7-1.682-1.567-1.185" transform="translate(9.712 34.286)" fill="#fff"/>
            <path id="Trazado_833158" data-name="Trazado 833158" d="M32.322,80.941l-17.2,9.933c-.862.5-1.567-.035-1.567-1.185a3.765,3.765,0,0,1,1.567-2.995l17.2-9.933c.862-.5,1.567.035,1.567,1.185a3.765,3.765,0,0,1-1.567,2.995" transform="translate(7.851 44.367)" fill="#fff"/>
            <path id="Trazado_833159" data-name="Trazado 833159" d="M37.667,78.211l-9.912,5.724a3.766,3.766,0,0,0-1.568,2.995c0,1.15.706,1.682,1.568,1.185l9.912-5.724A3.765,3.765,0,0,0,39.233,79.4c0-1.148-.7-1.682-1.567-1.185" transform="translate(15.172 45.207)" fill="#ff5a72"/>
            <path id="Trazado_833160" data-name="Trazado 833160" d="M28.243,83.652,18.33,89.376a3.766,3.766,0,0,0-1.568,2.995c0,1.148.706,1.682,1.568,1.185l9.912-5.724a3.765,3.765,0,0,0,1.567-2.995c0-1.15-.7-1.682-1.567-1.185" transform="translate(9.712 48.36)" fill="#ff5a72"/>
            <path id="Trazado_833161" data-name="Trazado 833161" d="M40.164,61.733,15.118,76.194a3.766,3.766,0,0,0-1.568,2.995c0,1.15.706,1.682,1.568,1.185L40.164,65.913a3.765,3.765,0,0,0,1.567-2.995c0-1.15-.7-1.682-1.567-1.185" transform="translate(7.851 35.66)" fill="#ff5a72"/>
            <path id="Trazado_833162" data-name="Trazado 833162" d="M37.667,66.05l-9.912,5.724a3.766,3.766,0,0,0-1.568,2.995c0,1.148.706,1.682,1.568,1.185l9.912-5.724a3.765,3.765,0,0,0,1.567-2.995c0-1.148-.7-1.682-1.567-1.185" transform="translate(15.172 38.161)" fill="#ff5a72"/>
            <path id="Trazado_833163" data-name="Trazado 833163" d="M28.243,71.491,18.33,77.215a3.766,3.766,0,0,0-1.568,2.995c0,1.148.706,1.682,1.568,1.185l9.912-5.724a3.765,3.765,0,0,0,1.567-2.995c0-1.148-.7-1.682-1.567-1.185" transform="translate(9.712 41.314)" fill="#ff5a72"/>
            <path id="Trazado_833164" data-name="Trazado 833164" d="M28.243,95.813l-9.912,5.724a3.766,3.766,0,0,0-1.568,2.995c0,1.148.706,1.682,1.568,1.185l9.912-5.724A3.765,3.765,0,0,0,29.809,97c0-1.15-.7-1.682-1.567-1.185" transform="translate(9.712 55.406)" fill="#954a83"/>
            <path id="Trazado_833165" data-name="Trazado 833165" d="M35.8,37.95a5.279,5.279,0,0,1-2.2,4.211c-1.218.7-2.2-.043-2.2-1.666a5.278,5.278,0,0,1,2.2-4.211c1.216-.7,2.2.044,2.2,1.666" transform="translate(18.189 20.87)" fill="#ff5a72"/>
            <path id="Trazado_833166" data-name="Trazado 833166" d="M31.047,40.7a5.279,5.279,0,0,1-2.2,4.211c-1.218.7-2.2-.043-2.2-1.666a5.278,5.278,0,0,1,2.2-4.211c1.216-.7,2.2.044,2.2,1.666" transform="translate(15.434 22.46)" fill="#954a83"/>
            <path id="Trazado_833167" data-name="Trazado 833167" d="M195.078,101.463,134.946,66.747c-3.851-2.224-7-8.241-7-13.374V15.011c0-5.133,3.149-7.513,7-5.291l60.132,34.718c3.851,2.222,7,8.24,7,13.373V96.172c0,5.133-3.149,7.513-7,5.291" transform="translate(74.131 5.149)" fill="#a3c6d8"/>
            <path id="Trazado_833168" data-name="Trazado 833168" d="M136.655,44.362,133.4,62.47l3.25-1.865,11.157-8.314Z" transform="translate(77.294 25.703)" fill="#a3c6d8"/>
            <path id="Trazado_833169" data-name="Trazado 833169" d="M175.074,66.213l-4.411,2.533.521,1.944,4.1-2.339Z" transform="translate(98.881 38.363)" fill="#a3c6d8"/>
            <path id="Trazado_833170" data-name="Trazado 833170" d="M130.941,9.127l-3.656,2.112a19.981,19.981,0,0,0,.948,1.993c.088,0,4.811-1.993,4.811-1.993Z" transform="translate(73.748 5.288)" fill="#a3c6d8"/>
            <path id="Trazado_833171" data-name="Trazado 833171" d="M193.02,102.644,132.888,67.928c-3.851-2.224-7-8.241-7-13.376V16.192c0-5.133,3.149-7.513,7-5.291L193.02,45.617c3.851,2.224,7,8.241,7,13.376v38.36c0,5.133-3.149,7.513-7,5.291" transform="translate(72.939 5.833)" fill="#dceaf4"/>
            <path id="Trazado_833172" data-name="Trazado 833172" d="M133.4,45.544V61.784l11.157-8.312Z" transform="translate(77.294 26.388)" fill="#dceaf4"/>
            <path id="Trazado_833173" data-name="Trazado 833173" d="M150.8,44.872c-1.845,1.4-4.394,1.466-7.213-.163a19.886,19.886,0,0,1-7-7.769l.614,5.992-4.211-.308c2.9,4.786,6.588,8.777,10.6,11.094,4.587,2.647,8.742,2.609,11.792.422L154.87,47.8Z" transform="translate(77.05 21.403)" fill="#fed03d"/>
            <path id="Trazado_833174" data-name="Trazado 833174" d="M138.906,46.852a25.323,25.323,0,0,1-3.182-11.7c0-3.279.87-5.784,2.322-7.294L133.9,26.387l-1.681-6.554c-2.042,2.552-3.25,6.449-3.25,11.422a42.654,42.654,0,0,0,6.343,21.281l4.211.308Z" transform="translate(74.723 11.491)" fill="#954a83"/>
            <path id="Trazado_833175" data-name="Trazado 833175" d="M136.853,29.117c1.868-1.944,4.7-2.236,7.864-.409,3.126,1.8,5.918,5.3,7.786,9.326l.463-5.575,4.365,2.044c-3.1-6.4-7.6-11.909-12.615-14.8-5.627-3.25-10.61-2.465-13.692,1.385l1.68,6.554Z" transform="translate(75.915 10.237)" fill="#ff5a72"/>
            <path id="Trazado_833176" data-name="Trazado 833176" d="M161.1,40.64c.017-.025.036-.051.054-.074v0l.133-.191-.155-.24-.273-5.353-4.566-3.4q-.227.249-.442.516l0,0-.084.12a11.419,11.419,0,0,0-.744,1.074L146.4,45.52s-.738,1.066-.91,1.3a5.986,5.986,0,0,1-1.227,1.27l4.073,2.93.507,6.338a9.529,9.529,0,0,0,1.778-1.682c.063-.076.911-1.24.911-1.24Z" transform="translate(83.585 18.179)" fill="#954a83"/>
            <path id="Trazado_833177" data-name="Trazado 833177" d="M178.744,48.6c-3.086-7.338-8.039-13.8-13.622-17.024-5.36-3.1-10.138-2.532-13.24.859l4.566,3.405.3,5.785c1.837-2.486,4.9-3.05,8.379-1.041,3.1,1.791,5.882,5.248,7.75,9.246l4.269,3.331Z" transform="translate(88 17.118)" fill="#ff5a72"/>
            <path id="Trazado_833178" data-name="Trazado 833178" d="M174.742,56.959a40.392,40.392,0,0,0-3.321-15.35l-1.6,4.563-4.269-3.333a24.754,24.754,0,0,1,2.437,10.219c0,3.64-1.076,6.322-2.824,7.752l-.638,5.477,4.032,4.555c3.778-1.963,6.186-6.851,6.186-13.883" transform="translate(95.324 24.108)" fill="#fff"/>
            <path id="Trazado_833179" data-name="Trazado 833179" d="M160.727,57.921l-.011-.008-9.271-24.078s-1.11-2.822-1.205-3.04q-.377-.869-.788-1.718l-4.365-2.042-.461,5.574c.188.406.365.818.534,1.234l9.852,25.578c.109.292.714,1.8.794,1.992q.571,1.346,1.224,2.645l.456-5.111,4.572,1.976a28.024,28.024,0,0,1-1.331-3" transform="translate(83.795 15.663)" fill="#fff"/>
            <path id="Trazado_833180" data-name="Trazado 833180" d="M171.5,63.025l.638-5.477c-1.854,1.516-4.467,1.622-7.363-.051a20.244,20.244,0,0,1-7.268-8.282l-4.572-1.976-.456,5.111c3.086,6.126,7.453,11.361,12.3,14.156,4.084,2.358,7.831,2.593,10.757,1.074Z" transform="translate(88.346 27.37)" fill="#fed03d"/>
            <path id="Trazado_833181" data-name="Trazado 833181" d="M126.06,65.056,103.2,51.857a7.2,7.2,0,0,1-3-5.725v-20.8c0-2.2,1.347-3.216,3-2.265l22.863,13.2A7.2,7.2,0,0,1,129.055,42v20.8c0,2.2-1.347,3.216-2.995,2.265" transform="translate(58.056 13.161)" fill="#ff5a72"/>
            <path id="Trazado_833182" data-name="Trazado 833182" d="M126.06,65.056,103.2,51.857a7.2,7.2,0,0,1-3-5.725v-20.8c0-2.2,1.347-3.216,3-2.265l22.863,13.2A7.2,7.2,0,0,1,129.055,42v20.8c0,2.2-1.347,3.216-2.995,2.265" transform="translate(58.056 13.161)" fill="#bdd6e5"/>
            <path id="Trazado_833183" data-name="Trazado 833183" d="M102.894,50.312a5.2,5.2,0,0,1-2.169-4.144V25.374c0-1.6.973-2.331,2.169-1.639l22.862,13.2a5.2,5.2,0,0,1,2.169,4.144V61.872c0,1.6-.973,2.33-2.169,1.639Z" transform="translate(58.36 13.601)" fill="#dceaf4"/>
            <path id="Trazado_833184" data-name="Trazado 833184" d="M106.277,49.438l-3.483-2.011V25.52l3.483,2.011Z" transform="translate(59.558 14.786)" fill="#fff"/>
            <path id="Trazado_833185" data-name="Trazado 833185" d="M109.888,49.37l-3.483-2.011V31.321l3.483,2.011Z" transform="translate(61.651 18.147)" fill="#fff"/>
            <path id="Trazado_833186" data-name="Trazado 833186" d="M113.592,49.62,110.11,47.61V36.718l3.483,2.011Z" transform="translate(63.797 21.274)" fill="#fff"/>
            <path id="Trazado_833187" data-name="Trazado 833187" d="M117.255,50.552l-3.483-2.011V40.875l3.483,2.011Z" transform="translate(65.919 23.683)" fill="#fff"/>
            <path id="Trazado_833188" data-name="Trazado 833188" d="M124.854,53.1l-22.51-13a1.459,1.459,0,0,1-.61-1.162c0-.449.273-.655.61-.461l22.51,13a1.459,1.459,0,0,1,.61,1.162c0,.449-.273.655-.61.461" transform="translate(58.945 22.251)" fill="#954a83"/>
            <path id="Trazado_833189" data-name="Trazado 833189" d="M44.2,141.332c8.3-7.387,13.458-21.017,11.512-30.443S45.461,99.81,37.158,107.2,23.7,128.215,25.648,137.641,35.9,148.721,44.2,141.332m-9.87-11.419c-.8-3.895,1.327-9.528,4.757-12.581s6.866-2.369,7.67,1.526S45.433,128.386,42,131.439s-6.864,2.369-7.668-1.526" transform="translate(14.622 59.434)" fill="#fff"/>
            <path id="Trazado_833190" data-name="Trazado 833190" d="M48.6,111.38l-.4-1.941-.678-3.29-.4-1.941-4.16,1.684.728,3.527.728,3.528.728,3.527Z" transform="translate(24.892 60.377)" fill="#fff"/>
            <path id="Trazado_833191" data-name="Trazado 833191" d="M24.977,132.911l-.4-1.941-.678-3.29-.4-1.941,3.456-5.094.728,3.528.728,3.527.728,3.528Z" transform="translate(13.614 69.901)" fill="#fff"/>
            <path id="Trazado_833192" data-name="Trazado 833192" d="M36.482,134.771l1.71-1.521,2.9-2.578,1.71-1.523.61-5.659L40.3,126.255l-3.108,2.766-3.107,2.764Z" transform="translate(19.75 71.55)" fill="#fff"/>
            <path id="Trazado_833193" data-name="Trazado 833193" d="M30.651,107.607l1.71-1.521,2.9-2.578,1.71-1.523,2.394,2.987-3.108,2.766L33.148,110.5l-3.108,2.766Z" transform="translate(17.405 59.09)" fill="#fff"/>
            <path id="Trazado_833194" data-name="Trazado 833194" d="M45.094,125.442l.926-2.448,1.568-4.149.926-2.448L46,113.584l-1.682,4.449-1.682,4.449-1.684,4.451Z" transform="translate(23.73 65.81)" fill="#fff"/>
            <path id="Trazado_833195" data-name="Trazado 833195" d="M24.288,121.12l.926-2.448,1.568-4.149.926-2.448,4.138-1.491-1.682,4.451-1.684,4.449L26.8,123.933Z" transform="translate(14.073 64.072)" fill="#fff"/>
            <path id="Trazado_833196" data-name="Trazado 833196" d="M27.287,133.881l1.493.3,2.529.5,1.493.3,3.374-5.191-2.713-.54-2.712-.539-2.712-.54Z" transform="translate(15.81 74.259)" fill="#fff"/>
            <path id="Trazado_833197" data-name="Trazado 833197" d="M40.49,100.141l1.493.3,2.529.5,1.493.3-.75,5.714-2.713-.54-2.712-.539-2.712-.54Z" transform="translate(21.505 58.021)" fill="#fff"/>
            <path id="Trazado_833198" data-name="Trazado 833198" d="M56.112,100.03c6.145-5.469,9.961-15.56,8.521-22.538s-7.591-8.2-13.736-2.732S40.934,90.318,42.375,97.3s7.591,8.2,13.738,2.734M48.8,91.575c-.6-2.884.982-7.054,3.522-9.314S57.409,80.507,58,83.391s-.981,7.054-3.522,9.314S49.4,94.459,48.8,91.575" transform="translate(24.375 41.334)" fill="#e79ce1"/>
            <path id="Trazado_833199" data-name="Trazado 833199" d="M59.369,77.854l-.3-1.437-.5-2.435-.3-1.436-3.08,1.245.54,2.612.539,2.611.539,2.612Z" transform="translate(31.978 42.033)" fill="#e79ce1"/>
            <path id="Trazado_833200" data-name="Trazado 833200" d="M41.879,93.794l-.3-1.437-.5-2.434-.3-1.437,2.559-3.772.54,2.611.539,2.612.539,2.612Z" transform="translate(23.629 49.083)" fill="#e79ce1"/>
            <path id="Trazado_833201" data-name="Trazado 833201" d="M50.4,95.172l1.265-1.126,2.146-1.908,1.265-1.126.452-4.192-2.3,2.047-2.3,2.047-2.3,2.047Z" transform="translate(28.172 50.303)" fill="#e79ce1"/>
            <path id="Trazado_833202" data-name="Trazado 833202" d="M46.079,75.061l1.265-1.126,2.146-1.908L50.755,70.9l1.774,2.21-2.3,2.047-2.3,2.047-2.3,2.047Z" transform="translate(26.436 41.08)" fill="#e79ce1"/>
            <path id="Trazado_833203" data-name="Trazado 833203" d="M56.771,88.265l.685-1.812,1.161-3.072.685-1.813-1.857-2.082L56.2,82.779l-1.246,3.295-1.245,3.295Z" transform="translate(31.119 46.054)" fill="#e79ce1"/>
            <path id="Trazado_833204" data-name="Trazado 833204" d="M41.369,85.065l.685-1.812,1.161-3.072.685-1.813,3.064-1.1-1.246,3.293-1.246,3.295-1.246,3.295Z" transform="translate(23.969 44.767)" fill="#e79ce1"/>
            <path id="Trazado_833205" data-name="Trazado 833205" d="M43.589,94.512l1.106.22,1.872.373,1.1.22,2.5-3.843-2.007-.4-2.007-.4-2.007-.4Z" transform="translate(25.255 52.309)" fill="#e79ce1"/>
            <path id="Trazado_833206" data-name="Trazado 833206" d="M53.363,69.534l1.106.22,1.872.373,1.1.22-.556,4.23-2.007-.4-2.007-.4-2.007-.4Z" transform="translate(29.471 40.288)" fill="#e79ce1"/>
          </g>
        </g>
      </g>
    </g>
  </g>
</svg>
