<svg xmlns="http://www.w3.org/2000/svg" xmlns:xlink="http://www.w3.org/1999/xlink" width="569.278" height="317.27" viewBox="0 0 569.278 317.27">
  <defs>
    <clipPath id="clip-path">
      <rect id="Rectángulo_383787" data-name="Rectángulo 383787" width="271.491" height="279.299" fill="none"/>
    </clipPath>
    <clipPath id="clip-path-3">
      <rect id="Rectángulo_383785" data-name="Rectángulo 383785" width="271.491" height="152.412" fill="none"/>
    </clipPath>
  </defs>
  <g id="Grupo_1075701" data-name="Grupo 1075701" transform="translate(-810 -900.445)">
    <rect id="Rectángulo_382242" data-name="Rectángulo 382242" width="569.278" height="277.813" rx="7" transform="translate(810 939.901)" fill="#1682fb"/>
    <g id="Grupo_1076190" data-name="Grupo 1076190" transform="translate(959 900.445)">
      <g id="Grupo_1076189" data-name="Grupo 1076189" clip-path="url(#clip-path)">
        <g id="Grupo_1076188" data-name="Grupo 1076188">
          <g id="Grupo_1076187" data-name="Grupo 1076187" clip-path="url(#clip-path)">
            <g id="Grupo_1076186" data-name="Grupo 1076186" transform="translate(0 126.887)" opacity="0.5">
              <g id="Grupo_1076185" data-name="Grupo 1076185">
                <g id="Grupo_1076184" data-name="Grupo 1076184" clip-path="url(#clip-path-3)">
                  <path id="Trazado_833207" data-name="Trazado 833207" d="M271.491,159.491c0,42.087-60.775,76.207-135.746,76.207S0,201.578,0,159.491,60.775,83.284,135.745,83.284,271.491,117.4,271.491,159.491" transform="translate(0 -83.286)" fill="#a3c6d8"/>
                </g>
              </g>
            </g>
            <path id="Trazado_833208" data-name="Trazado 833208" d="M66.959,119.269a8.084,8.084,0,0,0-3.375-6.448,2.145,2.145,0,0,0-2.159-.177l-.009-.021L11.131,141.362l4.668,9.321,49.87-28.622-.009-.018a2.85,2.85,0,0,0,1.3-2.773" transform="translate(5.827 58.86)" fill="#672a5c"/>
            <path id="Trazado_833209" data-name="Trazado 833209" d="M17.224,138.14c0,2.485-1.511,3.626-3.375,2.55a8.078,8.078,0,0,1-3.373-6.446c0-2.485,1.51-3.628,3.373-2.552a8.084,8.084,0,0,1,3.375,6.448" transform="translate(5.484 68.732)" fill="#954a83"/>
            <path id="Trazado_833210" data-name="Trazado 833210" d="M107.834,95.78a8.079,8.079,0,0,0-3.375-6.446,2.146,2.146,0,0,0-2.159-.178l-.009-.021L52.006,117.873l4.668,9.321,49.87-28.622-.009-.018a2.85,2.85,0,0,0,1.3-2.773" transform="translate(27.226 46.563)" fill="#672a5c"/>
            <path id="Trazado_833211" data-name="Trazado 833211" d="M58.1,114.651c0,2.485-1.51,3.626-3.375,2.55a8.078,8.078,0,0,1-3.373-6.446c0-2.485,1.51-3.628,3.373-2.552a8.08,8.08,0,0,1,3.375,6.448" transform="translate(26.883 56.435)" fill="#954a83"/>
            <path id="Trazado_833212" data-name="Trazado 833212" d="M231.15,147.918l.009,0c.008.107,0-5.677,0-5.677s-5.849-1.485-5.794-1.265c.009.034.033.253.067.576L147.594,96.613c-5.285-3.05-13.306-3.384-17.883-.74L18.021,160.356c-1.831-.178-4.781-.408-4.781-.408v5.785l0,0c-.041,2.055,1.435,4.234,4.365,5.927l79.207,45.729c5.284,3.052,13.306,3.384,17.883.742l113.385-65.463c2.182-1.26,3.18-2.972,3.067-4.75" transform="translate(6.931 49.258)" fill="#672a5c"/>
            <path id="Trazado_833213" data-name="Trazado 833213" d="M114.7,214.386c-4.577,2.642-12.6,2.31-17.883-.742L17.609,167.916c-5.284-3.052-5.859-7.683-1.283-10.325L129.712,92.128c4.577-2.643,12.6-2.31,17.883.74L226.8,138.6c5.285,3.05,5.861,7.682,1.284,10.325Z" transform="translate(6.93 47.298)" fill="#7f3371"/>
            <path id="Trazado_833214" data-name="Trazado 833214" d="M226.539,148.03,113.152,213.493c-4.059,2.345-11.215,2.048-15.9-.658L18.044,167.1c-4.686-2.706-5.2-6.838-1.141-9.181L130.288,92.459c4.06-2.343,11.215-2.046,15.9.66l79.207,45.73c4.686,2.706,5.2,6.838,1.141,9.181" transform="translate(7.415 47.577)" fill="#954a83"/>
            <path id="Trazado_833215" data-name="Trazado 833215" d="M37.627,143.141l-3.475,2.006a4.847,4.847,0,0,1-4.344-.18l-4.014-2.317c-1.28-.739-1.42-1.868-.311-2.508l3.475-2.006a4.847,4.847,0,0,1,4.344.18l4.013,2.317c1.281.739,1.421,1.868.312,2.508" transform="translate(12.949 72.092)" fill="#7f3371"/>
            <path id="Trazado_833216" data-name="Trazado 833216" d="M44.113,139.4,40.638,141.4a4.847,4.847,0,0,1-4.344-.18l-4.013-2.317c-1.281-.739-1.421-1.868-.312-2.508l3.475-2.006a4.847,4.847,0,0,1,4.344.18l4.013,2.317c1.281.739,1.421,1.868.312,2.508" transform="translate(16.345 70.131)" fill="#7f3371"/>
            <path id="Trazado_833217" data-name="Trazado 833217" d="M50.6,135.651l-3.475,2.006a4.847,4.847,0,0,1-4.344-.18l-4.014-2.317c-1.28-.739-1.42-1.868-.311-2.508l3.475-2.006a4.847,4.847,0,0,1,4.344.18l4.013,2.317c1.281.739,1.421,1.868.312,2.508" transform="translate(19.741 68.171)" fill="#7f3371"/>
            <path id="Trazado_833218" data-name="Trazado 833218" d="M57.086,131.906l-3.475,2.006a4.847,4.847,0,0,1-4.344-.18l-4.013-2.317c-1.281-.739-1.421-1.868-.312-2.508l3.475-2.006a4.847,4.847,0,0,1,4.344.18l4.013,2.317c1.281.739,1.421,1.868.312,2.508" transform="translate(23.137 66.21)" fill="#7f3371"/>
            <path id="Trazado_833219" data-name="Trazado 833219" d="M63.573,128.161,60.1,130.168a4.844,4.844,0,0,1-4.342-.18l-4.014-2.317c-1.281-.739-1.42-1.868-.311-2.508l3.474-2.006a4.85,4.85,0,0,1,4.345.18l4.013,2.317c1.28.739,1.42,1.868.312,2.508" transform="translate(26.533 64.25)" fill="#7f3371"/>
            <path id="Trazado_833220" data-name="Trazado 833220" d="M70.059,124.416l-3.475,2.006a4.847,4.847,0,0,1-4.344-.18l-4.014-2.317c-1.28-.739-1.42-1.868-.311-2.508l3.475-2.006a4.847,4.847,0,0,1,4.344.18l4.013,2.317c1.281.739,1.421,1.868.312,2.508" transform="translate(29.928 62.289)" fill="#7f3371"/>
            <path id="Trazado_833221" data-name="Trazado 833221" d="M76.545,120.671l-3.475,2.006a4.847,4.847,0,0,1-4.344-.18l-4.013-2.317c-1.281-.739-1.421-1.868-.312-2.508l3.475-2.006a4.847,4.847,0,0,1,4.344.18l4.013,2.317c1.281.739,1.421,1.868.312,2.508" transform="translate(33.324 60.328)" fill="#7f3371"/>
            <path id="Trazado_833222" data-name="Trazado 833222" d="M83.032,116.926l-3.475,2.006a4.847,4.847,0,0,1-4.344-.18L71.2,116.436c-1.28-.739-1.42-1.868-.311-2.508l3.475-2.006a4.847,4.847,0,0,1,4.344.18l4.013,2.317c1.281.739,1.421,1.868.312,2.508" transform="translate(36.72 58.368)" fill="#7f3371"/>
            <path id="Trazado_833223" data-name="Trazado 833223" d="M44.783,147.272l-3.475,2.006a4.847,4.847,0,0,1-4.344-.18l-4.014-2.317c-1.28-.739-1.42-1.868-.311-2.508l3.475-2.006a4.847,4.847,0,0,1,4.344.18l4.013,2.317c1.281.739,1.421,1.868.312,2.508" transform="translate(16.696 74.255)" fill="#7f3371"/>
            <path id="Trazado_833224" data-name="Trazado 833224" d="M51.271,143.528l-3.477,2.006a4.844,4.844,0,0,1-4.342-.18l-4.014-2.317c-1.281-.739-1.421-1.868-.312-2.508l3.475-2.006a4.847,4.847,0,0,1,4.344.18l4.013,2.317c1.281.739,1.421,1.868.314,2.508" transform="translate(20.091 72.295)" fill="#7f3371"/>
            <path id="Trazado_833225" data-name="Trazado 833225" d="M57.756,139.783l-3.475,2.006a4.847,4.847,0,0,1-4.344-.18l-4.013-2.317c-1.281-.739-1.421-1.868-.312-2.508l3.475-2.006a4.847,4.847,0,0,1,4.344.18l4.013,2.317c1.281.739,1.421,1.868.312,2.508" transform="translate(23.487 70.334)" fill="#7f3371"/>
            <path id="Trazado_833226" data-name="Trazado 833226" d="M64.242,136.038l-3.475,2.006a4.847,4.847,0,0,1-4.344-.18l-4.014-2.317c-1.28-.739-1.42-1.868-.311-2.508l3.475-2.006a4.847,4.847,0,0,1,4.344.18l4.013,2.317c1.281.739,1.421,1.868.312,2.508" transform="translate(26.883 68.373)" fill="#7f3371"/>
            <path id="Trazado_833227" data-name="Trazado 833227" d="M70.729,132.293,67.254,134.3a4.847,4.847,0,0,1-4.344-.18L58.9,131.8c-1.28-.739-1.42-1.868-.311-2.508l3.475-2.006a4.847,4.847,0,0,1,4.344.18l4.013,2.317c1.281.739,1.421,1.868.312,2.508" transform="translate(30.279 66.413)" fill="#7f3371"/>
            <path id="Trazado_833228" data-name="Trazado 833228" d="M77.215,128.548l-3.475,2.006a4.847,4.847,0,0,1-4.344-.18l-4.014-2.317c-1.28-.739-1.42-1.868-.311-2.508l3.475-2.006a4.847,4.847,0,0,1,4.344.18L76.9,126.04c1.281.739,1.421,1.868.312,2.508" transform="translate(33.675 64.452)" fill="#7f3371"/>
            <path id="Trazado_833229" data-name="Trazado 833229" d="M83.7,124.8l-3.475,2.006a4.847,4.847,0,0,1-4.344-.18l-4.013-2.317c-1.281-.739-1.421-1.868-.312-2.508l3.475-2.006a4.847,4.847,0,0,1,4.344.18L83.39,122.3c1.281.739,1.421,1.868.312,2.508" transform="translate(37.071 62.492)" fill="#7f3371"/>
            <path id="Trazado_833230" data-name="Trazado 833230" d="M90.188,121.058l-3.475,2.006a4.85,4.85,0,0,1-4.345-.18l-4.013-2.317c-1.28-.739-1.42-1.868-.311-2.508l3.475-2.006a4.847,4.847,0,0,1,4.344.18l4.013,2.317c1.281.739,1.421,1.868.312,2.508" transform="translate(40.466 60.531)" fill="#7f3371"/>
            <path id="Trazado_833231" data-name="Trazado 833231" d="M96.675,117.313,93.2,119.32a4.847,4.847,0,0,1-4.344-.18l-4.013-2.317c-1.281-.739-1.421-1.868-.312-2.508l3.475-2.006a4.847,4.847,0,0,1,4.344.18l4.013,2.317c1.281.739,1.421,1.868.312,2.508" transform="translate(43.863 58.57)" fill="#7f3371"/>
            <path id="Trazado_833232" data-name="Trazado 833232" d="M103.161,113.568l-3.475,2.006a4.847,4.847,0,0,1-4.344-.18l-4.014-2.317c-1.28-.739-1.42-1.868-.311-2.508l3.475-2.006a4.847,4.847,0,0,1,4.344.18l4.013,2.317c1.281.739,1.421,1.868.312,2.508" transform="translate(47.258 56.61)" fill="#7f3371"/>
            <path id="Trazado_833233" data-name="Trazado 833233" d="M109.647,109.823l-3.475,2.007a4.847,4.847,0,0,1-4.344-.18l-4.014-2.317c-1.28-.739-1.42-1.868-.311-2.508l3.475-2.006a4.847,4.847,0,0,1,4.344.18l4.013,2.317c1.281.739,1.421,1.868.312,2.508" transform="translate(50.654 54.649)" fill="#7f3371"/>
            <path id="Trazado_833234" data-name="Trazado 833234" d="M116.134,106.078l-3.475,2.006a4.847,4.847,0,0,1-4.344-.18l-4.014-2.317c-1.28-.739-1.42-1.868-.311-2.508l3.475-2.006a4.847,4.847,0,0,1,4.344.18l4.013,2.317c1.281.739,1.421,1.868.312,2.508" transform="translate(54.05 52.689)" fill="#7f3371"/>
            <path id="Trazado_833235" data-name="Trazado 833235" d="M51.939,151.4l-3.475,2.007a4.85,4.85,0,0,1-4.345-.18l-4.013-2.317c-1.28-.739-1.42-1.868-.311-2.508L43.27,146.4a4.847,4.847,0,0,1,4.344.18l4.013,2.317c1.281.739,1.421,1.868.312,2.508" transform="translate(20.442 76.418)" fill="#7f3371"/>
            <path id="Trazado_833236" data-name="Trazado 833236" d="M58.426,147.659l-3.475,2.006a4.847,4.847,0,0,1-4.344-.18l-4.013-2.317c-1.281-.739-1.421-1.868-.312-2.508l3.475-2.006a4.847,4.847,0,0,1,4.344.18l4.013,2.317c1.281.739,1.421,1.868.312,2.508" transform="translate(23.838 74.457)" fill="#7f3371"/>
            <path id="Trazado_833237" data-name="Trazado 833237" d="M64.912,143.914l-3.475,2.006a4.847,4.847,0,0,1-4.344-.18l-4.014-2.317c-1.28-.739-1.42-1.868-.311-2.508l3.475-2.006a4.847,4.847,0,0,1,4.344.18l4.013,2.317c1.28.739,1.421,1.868.312,2.508" transform="translate(27.234 72.497)" fill="#7f3371"/>
            <path id="Trazado_833238" data-name="Trazado 833238" d="M71.4,140.169l-3.475,2.006A4.847,4.847,0,0,1,63.58,142l-4.013-2.317c-1.281-.739-1.421-1.868-.312-2.508l3.475-2.006a4.847,4.847,0,0,1,4.344.18l4.013,2.317c1.281.739,1.421,1.868.312,2.508" transform="translate(30.63 70.536)" fill="#7f3371"/>
            <path id="Trazado_833239" data-name="Trazado 833239" d="M77.885,136.424l-3.475,2.006a4.847,4.847,0,0,1-4.344-.18l-4.013-2.317c-1.281-.739-1.421-1.868-.312-2.508l3.475-2.006a4.847,4.847,0,0,1,4.344.18l4.013,2.317c1.281.739,1.421,1.868.312,2.508" transform="translate(34.025 68.575)" fill="#7f3371"/>
            <path id="Trazado_833240" data-name="Trazado 833240" d="M84.372,132.68,80.9,134.687a4.847,4.847,0,0,1-4.344-.18l-4.014-2.317c-1.28-.739-1.42-1.868-.311-2.508l3.475-2.006a4.847,4.847,0,0,1,4.344.18l4.013,2.317c1.281.739,1.421,1.868.312,2.508" transform="translate(37.422 66.615)" fill="#7f3371"/>
            <path id="Trazado_833241" data-name="Trazado 833241" d="M90.858,128.935l-3.475,2.006a4.847,4.847,0,0,1-4.344-.18l-4.014-2.317c-1.28-.739-1.42-1.868-.311-2.508l3.475-2.006a4.847,4.847,0,0,1,4.344.18l4.013,2.317c1.281.739,1.421,1.868.312,2.508" transform="translate(40.817 64.655)" fill="#7f3371"/>
            <path id="Trazado_833242" data-name="Trazado 833242" d="M107.227,121.445l-13.358,7.712a4.847,4.847,0,0,1-4.344-.18l-4.013-2.317c-1.28-.739-1.42-1.868-.312-2.508l13.358-7.712a4.847,4.847,0,0,1,4.344.18l4.013,2.317c1.281.739,1.421,1.868.312,2.508" transform="translate(44.213 60.734)" fill="#7f3371"/>
            <path id="Trazado_833243" data-name="Trazado 833243" d="M110.317,117.7l-3.475,2.006a4.847,4.847,0,0,1-4.344-.18l-4.014-2.317c-1.28-.739-1.42-1.868-.311-2.508l3.475-2.006a4.847,4.847,0,0,1,4.344.18L110,115.192c1.281.739,1.421,1.868.312,2.508" transform="translate(51.004 58.773)" fill="#7f3371"/>
            <path id="Trazado_833244" data-name="Trazado 833244" d="M116.8,113.955l-3.475,2.006a4.847,4.847,0,0,1-4.344-.18l-4.013-2.317c-1.281-.739-1.421-1.868-.312-2.508l3.475-2.006a4.847,4.847,0,0,1,4.344.18l4.013,2.317c1.281.739,1.421,1.868.312,2.508" transform="translate(54.401 56.812)" fill="#7f3371"/>
            <path id="Trazado_833245" data-name="Trazado 833245" d="M123.29,110.21l-3.475,2.006a4.847,4.847,0,0,1-4.344-.18l-4.014-2.317c-1.28-.739-1.42-1.868-.311-2.508l3.475-2.006a4.847,4.847,0,0,1,4.344.18l4.013,2.317c1.281.739,1.421,1.868.312,2.508" transform="translate(57.796 54.852)" fill="#7f3371"/>
            <path id="Trazado_833246" data-name="Trazado 833246" d="M59.1,155.536l-3.475,2.006a4.847,4.847,0,0,1-4.344-.18l-4.014-2.317c-1.28-.739-1.42-1.868-.311-2.508l3.475-2.006a4.847,4.847,0,0,1,4.344.18l4.013,2.317c1.281.739,1.421,1.868.312,2.508" transform="translate(24.189 78.581)" fill="#7f3371"/>
            <path id="Trazado_833247" data-name="Trazado 833247" d="M65.582,151.791,62.107,153.8a4.847,4.847,0,0,1-4.344-.18L53.75,151.3c-1.281-.739-1.421-1.868-.312-2.508l3.475-2.006a4.847,4.847,0,0,1,4.344.18l4.013,2.317c1.281.739,1.421,1.868.312,2.508" transform="translate(27.585 76.62)" fill="#7f3371"/>
            <path id="Trazado_833248" data-name="Trazado 833248" d="M72.069,148.046l-3.475,2.006a4.847,4.847,0,0,1-4.344-.18l-4.013-2.317c-1.281-.739-1.421-1.868-.312-2.508l3.475-2.006a4.847,4.847,0,0,1,4.344.18l4.013,2.317c1.281.739,1.421,1.868.312,2.508" transform="translate(30.981 74.66)" fill="#7f3371"/>
            <path id="Trazado_833249" data-name="Trazado 833249" d="M78.555,144.3l-3.475,2.006a4.847,4.847,0,0,1-4.344-.18l-4.014-2.317c-1.28-.739-1.42-1.868-.311-2.508l3.475-2.006a4.847,4.847,0,0,1,4.344.18l4.013,2.317c1.281.739,1.421,1.868.312,2.508" transform="translate(34.376 72.699)" fill="#7f3371"/>
            <path id="Trazado_833250" data-name="Trazado 833250" d="M85.042,140.556l-3.475,2.006a4.847,4.847,0,0,1-4.344-.18l-4.014-2.317c-1.28-.739-1.42-1.868-.311-2.508l3.475-2.006a4.847,4.847,0,0,1,4.344.18l4.013,2.317c1.28.739,1.421,1.868.312,2.508" transform="translate(37.772 70.739)" fill="#7f3371"/>
            <path id="Trazado_833251" data-name="Trazado 833251" d="M91.528,136.811l-3.475,2.006a4.847,4.847,0,0,1-4.344-.18L79.7,136.321c-1.281-.739-1.421-1.868-.312-2.508l3.475-2.006a4.847,4.847,0,0,1,4.344.18l4.013,2.317c1.281.739,1.421,1.868.312,2.508" transform="translate(41.168 68.778)" fill="#7f3371"/>
            <path id="Trazado_833252" data-name="Trazado 833252" d="M98.014,133.066l-3.475,2.006a4.847,4.847,0,0,1-4.344-.18l-4.013-2.317c-1.281-.739-1.421-1.868-.312-2.508l3.475-2.006a4.847,4.847,0,0,1,4.344.18l4.013,2.317c1.281.739,1.421,1.868.312,2.508" transform="translate(44.564 66.817)" fill="#7f3371"/>
            <path id="Trazado_833253" data-name="Trazado 833253" d="M104.5,129.321l-3.475,2.006a4.85,4.85,0,0,1-4.345-.18l-4.013-2.317c-1.28-.739-1.42-1.868-.311-2.508l3.475-2.006a4.847,4.847,0,0,1,4.344.18l4.013,2.317c1.281.739,1.421,1.868.312,2.508" transform="translate(47.96 64.857)" fill="#7f3371"/>
            <path id="Trazado_833254" data-name="Trazado 833254" d="M110.987,125.576l-3.475,2.006a4.847,4.847,0,0,1-4.344-.18l-4.014-2.317c-1.28-.739-1.42-1.868-.311-2.508l3.475-2.006a4.847,4.847,0,0,1,4.344.18l4.013,2.317c1.281.739,1.421,1.868.312,2.508" transform="translate(51.355 62.896)" fill="#7f3371"/>
            <path id="Trazado_833255" data-name="Trazado 833255" d="M117.474,121.831,114,123.838a4.847,4.847,0,0,1-4.344-.18l-4.014-2.317c-1.28-.739-1.42-1.868-.311-2.508l3.475-2.006a4.847,4.847,0,0,1,4.344.18l4.013,2.317c1.281.739,1.421,1.868.312,2.508" transform="translate(54.751 60.936)" fill="#7f3371"/>
            <path id="Trazado_833256" data-name="Trazado 833256" d="M123.96,118.086l-3.475,2.006a4.847,4.847,0,0,1-4.344-.18l-4.014-2.317c-1.28-.739-1.42-1.868-.311-2.508l3.475-2.006a4.847,4.847,0,0,1,4.344.18l4.013,2.317c1.281.739,1.421,1.868.312,2.508" transform="translate(58.147 58.975)" fill="#7f3371"/>
            <path id="Trazado_833257" data-name="Trazado 833257" d="M130.447,114.341l-3.477,2.006a4.847,4.847,0,0,1-4.344-.18l-4.013-2.317c-1.28-.739-1.421-1.868-.311-2.508l3.474-2.006a4.847,4.847,0,0,1,4.344.18l4.014,2.317c1.28.739,1.42,1.868.312,2.508" transform="translate(61.543 57.014)" fill="#7f3371"/>
            <path id="Trazado_833258" data-name="Trazado 833258" d="M66.252,159.668l-3.475,2.006a4.847,4.847,0,0,1-4.344-.18l-4.014-2.317c-1.28-.739-1.42-1.868-.311-2.508l3.475-2.006a4.847,4.847,0,0,1,4.344.18l4.013,2.317c1.281.739,1.421,1.868.312,2.508" transform="translate(27.935 80.744)" fill="#7f3371"/>
            <path id="Trazado_833259" data-name="Trazado 833259" d="M72.739,155.923l-3.475,2.006a4.847,4.847,0,0,1-4.344-.18l-4.014-2.317c-1.28-.739-1.42-1.868-.311-2.508l3.475-2.006a4.847,4.847,0,0,1,4.344.18l4.013,2.317c1.281.739,1.421,1.868.312,2.508" transform="translate(31.331 78.784)" fill="#7f3371"/>
            <path id="Trazado_833260" data-name="Trazado 833260" d="M79.225,152.178l-3.475,2.006a4.847,4.847,0,0,1-4.344-.18l-4.013-2.317c-1.281-.739-1.421-1.868-.312-2.508l3.475-2.006a4.847,4.847,0,0,1,4.344.18l4.013,2.317c1.281.739,1.421,1.868.312,2.508" transform="translate(34.727 76.823)" fill="#7f3371"/>
            <path id="Trazado_833261" data-name="Trazado 833261" d="M115.359,137.2,82.237,156.321a4.851,4.851,0,0,1-4.345-.18l-4.013-2.317c-1.28-.739-1.42-1.868-.312-2.508l33.123-19.123a4.847,4.847,0,0,1,4.344.18l4.013,2.317c1.281.739,1.421,1.868.312,2.508" transform="translate(38.123 68.981)" fill="#7f3371"/>
            <path id="Trazado_833262" data-name="Trazado 833262" d="M111.657,133.453l-3.475,2.006a4.847,4.847,0,0,1-4.344-.18l-4.014-2.317c-1.28-.739-1.42-1.868-.311-2.508l3.475-2.006a4.847,4.847,0,0,1,4.344.18l4.013,2.317c1.281.739,1.421,1.868.312,2.508" transform="translate(51.706 67.02)" fill="#7f3371"/>
            <path id="Trazado_833263" data-name="Trazado 833263" d="M118.144,129.708l-3.475,2.006a4.847,4.847,0,0,1-4.344-.18l-4.013-2.317c-1.281-.739-1.421-1.868-.312-2.508l3.475-2.006a4.847,4.847,0,0,1,4.344.18l4.013,2.317c1.281.739,1.421,1.868.312,2.508" transform="translate(55.102 65.059)" fill="#7f3371"/>
            <path id="Trazado_833264" data-name="Trazado 833264" d="M124.63,125.963l-3.475,2.007a4.847,4.847,0,0,1-4.344-.18l-4.013-2.317c-1.281-.739-1.421-1.868-.312-2.508l3.475-2.006a4.847,4.847,0,0,1,4.344.18l4.013,2.317c1.281.739,1.421,1.868.312,2.508" transform="translate(58.498 63.099)" fill="#7f3371"/>
            <path id="Trazado_833265" data-name="Trazado 833265" d="M131.117,122.218l-3.475,2.006a4.85,4.85,0,0,1-4.345-.18l-4.013-2.317c-1.28-.739-1.42-1.868-.311-2.508l3.475-2.006a4.847,4.847,0,0,1,4.344.18l4.013,2.317c1.281.739,1.421,1.868.312,2.508" transform="translate(61.894 61.138)" fill="#7f3371"/>
            <path id="Trazado_833266" data-name="Trazado 833266" d="M137.6,118.473l-3.475,2.006a4.847,4.847,0,0,1-4.344-.18l-4.013-2.317c-1.281-.739-1.421-1.868-.312-2.508l3.475-2.006a4.847,4.847,0,0,1,4.344.18l4.013,2.317c1.281.739,1.421,1.868.312,2.508" transform="translate(65.289 59.178)" fill="#7f3371"/>
            <path id="Trazado_833267" data-name="Trazado 833267" d="M89.518,113.181l-3.475,2.006a4.847,4.847,0,0,1-4.344-.18l-4.014-2.317c-1.28-.739-1.42-1.868-.311-2.508l3.475-2.006a4.847,4.847,0,0,1,4.344.18l4.013,2.317c1.281.739,1.421,1.868.312,2.508" transform="translate(40.116 56.407)" fill="#7f3371"/>
            <path id="Trazado_833268" data-name="Trazado 833268" d="M96.005,109.436l-3.475,2.006a4.85,4.85,0,0,1-4.345-.18l-4.013-2.317c-1.28-.739-1.42-1.868-.311-2.508l3.475-2.006a4.847,4.847,0,0,1,4.344.18l4.013,2.317c1.281.739,1.421,1.868.312,2.508" transform="translate(43.512 54.447)" fill="#7f3371"/>
            <path id="Trazado_833269" data-name="Trazado 833269" d="M102.491,105.691,99.016,107.7a4.847,4.847,0,0,1-4.344-.18L90.659,105.2c-1.281-.739-1.421-1.868-.312-2.508l3.475-2.006a4.847,4.847,0,0,1,4.344.18l4.013,2.317c1.281.739,1.421,1.868.312,2.508" transform="translate(46.907 52.486)" fill="#7f3371"/>
            <path id="Trazado_833270" data-name="Trazado 833270" d="M108.978,101.946l-3.475,2.006a4.847,4.847,0,0,1-4.344-.18l-4.014-2.317c-1.28-.739-1.42-1.868-.311-2.508l3.475-2.006a4.847,4.847,0,0,1,4.344.18l4.013,2.317c1.281.739,1.421,1.868.312,2.508" transform="translate(50.303 50.525)" fill="#7f3371"/>
            <path id="Trazado_833271" data-name="Trazado 833271" d="M101.246,96.689,96.4,99.49a3.2,3.2,0,0,1-2.864-.119l-1.586-.916c-.844-.488-.937-1.231-.206-1.653L96.59,94a3.2,3.2,0,0,1,2.864.119l1.586.916c.844.488.937,1.231.206,1.653" transform="translate(47.77 49.063)" fill="#7f3371"/>
            <path id="Trazado_833272" data-name="Trazado 833272" d="M94.76,100.434l-4.849,2.8a3.2,3.2,0,0,1-2.864-.119L85.46,102.2c-.844-.488-.937-1.233-.206-1.653l4.849-2.8a3.2,3.2,0,0,1,2.864.119l1.586.916c.844.488.937,1.231.206,1.653" transform="translate(44.375 51.024)" fill="#7f3371"/>
            <path id="Trazado_833273" data-name="Trazado 833273" d="M88.273,104.179l-4.849,2.8a3.2,3.2,0,0,1-2.864-.119l-1.586-.916c-.844-.488-.937-1.233-.206-1.653l4.849-2.8a3.2,3.2,0,0,1,2.864.119l1.586.916c.844.488.937,1.231.206,1.653" transform="translate(40.979 52.985)" fill="#7f3371"/>
            <path id="Trazado_833274" data-name="Trazado 833274" d="M81.787,107.924l-4.849,2.8a3.192,3.192,0,0,1-2.863-.119l-1.588-.916c-.844-.488-.937-1.233-.206-1.653l4.849-2.8a3.2,3.2,0,0,1,2.864.119l1.586.916c.844.488.937,1.231.206,1.653" transform="translate(37.583 54.945)" fill="#7f3371"/>
            <path id="Trazado_833275" data-name="Trazado 833275" d="M75.3,111.669l-4.851,2.8a3.2,3.2,0,0,1-2.864-.119L66,113.435c-.844-.488-.935-1.231-.206-1.653l4.849-2.8a3.2,3.2,0,0,1,2.864.119l1.586.916c.846.488.937,1.231.207,1.653" transform="translate(34.187 56.906)" fill="#7f3371"/>
            <path id="Trazado_833276" data-name="Trazado 833276" d="M68.814,115.413l-4.849,2.8a3.2,3.2,0,0,1-2.864-.119l-1.586-.916c-.844-.488-.937-1.231-.206-1.653l4.849-2.8a3.2,3.2,0,0,1,2.864.119l1.586.916c.844.488.937,1.231.206,1.653" transform="translate(30.791 58.866)" fill="#7f3371"/>
            <path id="Trazado_833277" data-name="Trazado 833277" d="M62.328,119.158l-4.849,2.8a3.2,3.2,0,0,1-2.864-.119l-1.586-.916c-.844-.488-.937-1.231-.206-1.653l4.849-2.8a3.2,3.2,0,0,1,2.864.119l1.586.916c.844.488.937,1.231.206,1.653" transform="translate(27.396 60.826)" fill="#7f3371"/>
            <path id="Trazado_833278" data-name="Trazado 833278" d="M55.841,122.9l-4.849,2.8a3.192,3.192,0,0,1-2.863-.119l-1.588-.916c-.844-.488-.937-1.233-.206-1.653l4.849-2.8a3.2,3.2,0,0,1,2.864.119l1.586.916c.844.488.937,1.231.206,1.653" transform="translate(24 62.787)" fill="#7f3371"/>
            <path id="Trazado_833279" data-name="Trazado 833279" d="M49.355,126.648l-4.849,2.8a3.2,3.2,0,0,1-2.864-.119l-1.586-.916c-.844-.488-.937-1.233-.206-1.653l4.849-2.8a3.2,3.2,0,0,1,2.864.119l1.586.916c.844.488.937,1.231.206,1.653" transform="translate(20.604 64.748)" fill="#7f3371"/>
            <path id="Trazado_833280" data-name="Trazado 833280" d="M42.868,130.393l-4.849,2.8a3.2,3.2,0,0,1-2.864-.119l-1.586-.916c-.844-.488-.937-1.231-.206-1.653l4.849-2.8a3.2,3.2,0,0,1,2.864.119l1.586.916c.844.488.937,1.231.206,1.653" transform="translate(17.208 66.708)" fill="#7f3371"/>
            <path id="Trazado_833281" data-name="Trazado 833281" d="M36.382,134.138l-4.849,2.8a3.2,3.2,0,0,1-2.864-.119l-1.586-.916c-.844-.488-.937-1.233-.206-1.653l4.849-2.8a3.2,3.2,0,0,1,2.864.119l1.586.916c.844.488.937,1.231.206,1.653" transform="translate(13.812 68.669)" fill="#7f3371"/>
            <path id="Trazado_833282" data-name="Trazado 833282" d="M29.895,137.883l-4.849,2.8a3.2,3.2,0,0,1-2.864-.119l-1.586-.916c-.844-.488-.937-1.231-.206-1.653l4.849-2.8a3.2,3.2,0,0,1,2.864.119l1.586.916c.844.488.937,1.231.206,1.653" transform="translate(10.416 70.629)" fill="#7f3371"/>
            <path id="Trazado_833283" data-name="Trazado 833283" d="M141.239,147.882,110.6,165.573a7.824,7.824,0,0,1-7.016-.291l-15.656-9.039c-2.069-1.193-2.294-3.017-.5-4.049L118.063,134.5a7.833,7.833,0,0,1,7.016.291l15.656,9.039c2.069,1.194,2.294,3.018.5,4.051" transform="translate(45.134 70.05)" fill="#7f3371"/>
            <path id="Trazado_833284" data-name="Trazado 833284" d="M26.9,150.505,18.224,145.5a1.972,1.972,0,0,1-.818-1.565c0-.6.369-.879.818-.619l8.676,5.009a1.963,1.963,0,0,1,.818,1.565c0,.6-.367.879-.818.619" transform="translate(9.112 74.977)" fill="#fff"/>
            <path id="Trazado_833285" data-name="Trazado 833285" d="M35.321,155.455l-8.676-5.009a1.972,1.972,0,0,1-.818-1.565c0-.6.369-.879.818-.619l8.676,5.009a1.964,1.964,0,0,1,.82,1.565c0,.6-.369.879-.82.619" transform="translate(13.521 77.568)" fill="#fff"/>
            <path id="Trazado_833286" data-name="Trazado 833286" d="M60.845,170.2l-8.676-5.009a1.972,1.972,0,0,1-.818-1.565c0-.6.369-.879.818-.619l8.676,5.008a1.969,1.969,0,0,1,.82,1.566c0,.6-.369.879-.82.619" transform="translate(26.883 85.287)" fill="#fff"/>
            <path id="Trazado_833287" data-name="Trazado 833287" d="M136.869,16.714l-4.008-2.3,0,0a2.588,2.588,0,0,0-2.879.1L10.857,83.295C8.56,84.62,6.681,88.21,6.681,91.27V191.325a3.754,3.754,0,0,0,1.364,3.3l0,.015,4.292,2.465,2.154-4.717,115.488-66.677c2.3-1.325,4.174-4.915,4.174-7.976V19.674c.829.533,1.476.94,1.525.94.142,0,1.193-3.9,1.193-3.9" transform="translate(3.498 7.344)" fill="#672a5c"/>
            <path id="Trazado_833288" data-name="Trazado 833288" d="M13.69,196.114l119.123-68.775c2.294-1.325,4.173-4.915,4.173-7.976V19.308c0-3.062-1.878-4.482-4.173-3.157L13.69,84.927c-2.3,1.325-4.174,4.915-4.174,7.976V192.958c0,3.061,1.879,4.481,4.174,3.155" transform="translate(4.982 8.196)" fill="#7f3371"/>
            <path id="Trazado_833289" data-name="Trazado 833289" d="M14.3,193.515l117.2-67.663c2.258-1.3,4.106-4.836,4.106-7.848V20.279c0-3.01-1.848-4.408-4.106-3.1L14.3,84.839c-2.259,1.3-4.107,4.836-4.107,7.846V190.41c0,3.012,1.848,4.409,4.107,3.1" transform="translate(5.336 8.736)" fill="#954a83"/>
            <path id="Trazado_833290" data-name="Trazado 833290" d="M130.548,22.576,12.661,90.638v91.31l117.887-68.062Z" transform="translate(6.628 11.819)" fill="#672a5c"/>
            <path id="Trazado_833291" data-name="Trazado 833291" d="M50.252,43.6c0,1.08.657,1.577,1.467,1.109a3.513,3.513,0,0,0,1.467-2.8c0-1.08-.657-1.577-1.467-1.109a3.513,3.513,0,0,0-1.467,2.8" transform="translate(26.308 21.266)" fill="#fff"/>
            <path id="Trazado_833292" data-name="Trazado 833292" d="M54.937,40.545c0,.875.532,1.277,1.188.9a2.846,2.846,0,0,0,1.188-2.272c0-.874-.532-1.277-1.188-.9a2.846,2.846,0,0,0-1.188,2.272" transform="translate(28.761 19.963)" fill="#fff"/>
            <path id="Trazado_833293" data-name="Trazado 833293" d="M9.548,69.915a.194.194,0,0,1,.388,0c.218,4.377.02,8.782.075,13.165.053,4.368.011,8.8-.235,13.157-.014.276-.462.463-.462-.122,0-8.023-.663-17.807.233-26.2" transform="translate(4.753 36.504)" fill="#fff"/>
            <path id="Trazado_833294" data-name="Trazado 833294" d="M14.985,64.708c3.172-2.349,17.426-10.6,22.787-13.428.826-.436,1.213-.248.39.39-4.077,3.166-19.218,12.074-22.851,13.6-.306.128-.829-.187-.326-.561" transform="translate(7.735 26.722)" fill="#fff"/>
            <path id="Trazado_833295" data-name="Trazado 833295" d="M33.9,53.822c3.172-2.349,17.426-10.6,22.787-13.428.826-.436,1.213-.25.39.39C53,43.949,37.864,52.857,34.23,54.382c-.306.128-.829-.189-.326-.561" transform="translate(17.64 21.023)" fill="#fff"/>
            <path id="Trazado_833296" data-name="Trazado 833296" d="M107.629,165.558c-7.449,3.609-15.151,9.953-24.026,10.94-5.172.576-9.376-2.092-13.757-4.45-3.766-2.026-7.407-4.31-11.228-6.228a.086.086,0,0,0-.087.148A128.1,128.1,0,0,0,71.7,174.181c3.792,2.125,7.791,3.844,12.235,3.439,7.567-.687,17.53-6.694,23.883-11.81.154-.123-.044-.323-.193-.251" transform="translate(30.622 86.666)" fill="#fff"/>
            <path id="Trazado_833297" data-name="Trazado 833297" d="M111.652,89.048v8.378l-3.743-3.643Z" transform="translate(56.493 46.619)" fill="#d63259"/>
            <path id="Trazado_833298" data-name="Trazado 833298" d="M123.488,97.115C107.875,90.8,85.9,92.956,74.4,101.931s-8.16,21.369,7.453,27.684,37.587,4.159,49.083-4.816,8.16-21.369-7.452-27.684m-8.881,21.078c-4.75,3.708-13.832,4.6-20.284,1.99s-7.831-7.732-3.079-11.44,13.832-4.6,20.284-1.99,7.829,7.732,3.079,11.44" transform="translate(35.372 48.947)" fill="#e43c5d"/>
            <path id="Trazado_833299" data-name="Trazado 833299" d="M74.945,95.584l-2.368,1.848-4.011,3.131L66.2,102.411l5.079,4.522,4.3-3.359,4.3-3.358,4.3-3.359Z" transform="translate(34.657 50.041)" fill="#e43c5d"/>
            <path id="Trazado_833300" data-name="Trazado 833300" d="M121.2,114.561l-2.368,1.848-4.011,3.131-2.368,1.848-9.24-1.271,4.3-3.359,4.3-3.359,4.3-3.358Z" transform="translate(54.033 57.609)" fill="#e43c5d"/>
            <path id="Trazado_833301" data-name="Trazado 833301" d="M117.23,97.383l-3.215-1.3-5.448-2.2-3.215-1.3-8.1,2.972,5.844,2.363,5.843,2.365,5.843,2.363Z" transform="translate(50.915 48.468)" fill="#e43c5d"/>
            <path id="Trazado_833302" data-name="Trazado 833302" d="M82.727,123.952l-3.215-1.3-5.448-2.2-3.215-1.3L73.3,113.89l5.843,2.363,5.843,2.363,5.843,2.365Z" transform="translate(37.091 59.624)" fill="#e43c5d"/>
            <path id="Trazado_833303" data-name="Trazado 833303" d="M97.123,91.152l-3.947.387-6.688.657-3.947.387-2.134,5.3,7.174-.7,7.173-.7,7.174-.7Z" transform="translate(42.094 47.721)" fill="#e43c5d"/>
            <path id="Trazado_833304" data-name="Trazado 833304" d="M106.07,122.8l-3.947.387-6.688.657-3.947.387-4.8-4.618,7.174-.7,7.173-.7,7.174-.7Z" transform="translate(45.381 61.517)" fill="#e43c5d"/>
            <path id="Trazado_833305" data-name="Trazado 833305" d="M121.741,110.142V99.957l-11.532.865,1.089,4.046,1.088,4.046,1.089,4.045Z" transform="translate(57.698 52.33)" fill="#e43c5d"/>
            <path id="Trazado_833306" data-name="Trazado 833306" d="M65.65,116.1l-.6-2.226L64.035,110.1l-.6-2.227,1.615-4.185,6.65,1.367,1.088,4.046,1.089,4.045,1.089,4.046Z" transform="translate(33.211 54.282)" fill="#e43c5d"/>
            <path id="Trazado_833307" data-name="Trazado 833307" d="M66.2,93.381v9.7l3.932-.811,1.952-6.257Z" transform="translate(34.657 48.887)" fill="#ed4069"/>
            <path id="Trazado_833308" data-name="Trazado 833308" d="M113.415,102.225v10.185l6.649-2.269V99.958Z" transform="translate(59.376 52.33)" fill="#d63259"/>
            <path id="Trazado_833309" data-name="Trazado 833309" d="M123.488,90.43C107.875,84.115,85.9,86.271,74.4,95.246s-8.16,21.369,7.453,27.684,37.587,4.159,49.083-4.816,8.16-21.369-7.452-27.684m-8.881,21.078c-4.75,3.708-13.832,4.6-20.284,1.99s-7.831-7.732-3.079-11.44,13.832-4.6,20.284-1.99,7.829,7.732,3.079,11.44" transform="translate(35.372 45.447)" fill="#ff5a72"/>
            <path id="Trazado_833310" data-name="Trazado 833310" d="M74.945,88.9l-2.368,1.848-4.011,3.131L66.2,95.728l5.079,4.52,4.3-3.359,4.3-3.358,4.3-3.359Z" transform="translate(34.657 46.541)" fill="#ff5a72"/>
            <path id="Trazado_833311" data-name="Trazado 833311" d="M121.2,107.877l-2.368,1.848-4.011,3.132-2.368,1.848-9.24-1.274,4.3-3.358,4.3-3.359,4.3-3.358Z" transform="translate(54.033 54.11)" fill="#ff5a72"/>
            <path id="Trazado_833312" data-name="Trazado 833312" d="M117.23,90.7l-3.215-1.3-5.448-2.2-3.215-1.3-8.1,2.974,5.844,2.363,5.843,2.364,5.843,2.363Z" transform="translate(50.915 44.968)" fill="#ff5a72"/>
            <path id="Trazado_833313" data-name="Trazado 833313" d="M82.727,117.268l-3.215-1.3-5.448-2.2-3.215-1.3L73.3,107.2l5.843,2.363,5.843,2.363,5.843,2.363Z" transform="translate(37.091 56.125)" fill="#ff5a72"/>
            <path id="Trazado_833314" data-name="Trazado 833314" d="M97.123,84.467l-3.947.387-6.688.657L82.54,85.9l-2.134,5.3,7.174-.7,7.173-.7,7.174-.7Z" transform="translate(42.094 44.221)" fill="#ff5a72"/>
            <path id="Trazado_833315" data-name="Trazado 833315" d="M106.07,116.119l-3.947.387-6.688.657-3.947.387-4.8-4.618,7.174-.7,7.173-.7,7.174-.7Z" transform="translate(45.381 58.017)" fill="#ff5a72"/>
            <path id="Trazado_833316" data-name="Trazado 833316" d="M121.741,103.16l-.6-2.226-1.016-3.774-.6-2.226L110.21,93.84l1.089,4.046,1.088,4.046,1.089,4.045Z" transform="translate(57.698 49.128)" fill="#ff5a72"/>
            <path id="Trazado_833317" data-name="Trazado 833317" d="M65.65,108.941l-.6-2.226-1.016-3.772-.6-2.227L71.7,97.9l1.088,4.046,1.089,4.045,1.089,4.046Z" transform="translate(33.211 51.252)" fill="#ff5a72"/>
            <path id="Trazado_833318" data-name="Trazado 833318" d="M89.836,115.728v10.185l14.583-1.431V114.3Z" transform="translate(47.032 59.838)" fill="#ed4069"/>
            <path id="Trazado_833319" data-name="Trazado 833319" d="M109.275,113.151v10.185l8.747-6.828V106.323Z" transform="translate(57.208 55.663)" fill="#ed4069"/>
            <path id="Trazado_833320" data-name="Trazado 833320" d="M82.727,115.461v10.185L70.849,120.84V110.657Z" transform="translate(37.091 57.932)" fill="#ed4069"/>
            <path id="Trazado_833321" data-name="Trazado 833321" d="M65.65,107.972v10.185l-2.214-8.226V99.747Z" transform="translate(33.211 52.22)" fill="#ed4069"/>
            <path id="Trazado_833322" data-name="Trazado 833322" d="M85.157,122.425V112.241l-6.512,2.39v10.185Z" transform="translate(41.173 58.761)" fill="#d63259"/>
            <path id="Trazado_833323" data-name="Trazado 833323" d="M72.385,106.026v10.183l-7.5-.879V105.146Z" transform="translate(33.971 55.046)" fill="#d63259"/>
            <path id="Trazado_833324" data-name="Trazado 833324" d="M87.3,112.8v10.185l3.864,3.714V116.513Z" transform="translate(45.704 59.053)" fill="#d63259"/>
            <path id="Trazado_833325" data-name="Trazado 833325" d="M99.408,115.763l1.717-4.263v10.185l-1.717,4.263Z" transform="translate(52.043 58.373)" fill="#d63259"/>
            <path id="Trazado_833326" data-name="Trazado 833326" d="M104.4,110.134v10.185l7.43,1.022V111.156Z" transform="translate(54.655 57.658)" fill="#d63259"/>
            <path id="Trazado_833327" data-name="Trazado 833327" d="M83.994,126.089v7.084l-3.164-3.081Z" transform="translate(42.316 66.011)" fill="#c66bc6"/>
            <path id="Trazado_833328" data-name="Trazado 833328" d="M94,132.911c-13.2-5.34-31.785-3.516-41.505,4.072s-6.9,18.069,6.3,23.409,31.784,3.518,41.5-4.071,6.9-18.071-6.3-23.411m-7.509,17.824c-4.018,3.137-11.7,3.89-17.152,1.683s-6.623-6.539-2.605-9.674,11.7-3.89,17.153-1.684,6.621,6.539,2.6,9.674" transform="translate(24.456 67.979)" fill="#c66bc6"/>
            <path id="Trazado_833329" data-name="Trazado 833329" d="M52.955,131.616l-2,1.563-3.391,2.648-2,1.563,4.3,3.823,3.638-2.841,3.638-2.84,3.638-2.84Z" transform="translate(23.851 68.904)" fill="#c66bc6"/>
            <path id="Trazado_833330" data-name="Trazado 833330" d="M92.065,147.664l-2,1.563-3.391,2.648-2,1.563-7.814-1.077,3.638-2.84,3.638-2.84,3.638-2.84Z" transform="translate(40.236 75.305)" fill="#c66bc6"/>
            <path id="Trazado_833331" data-name="Trazado 833331" d="M88.711,133.138l-2.718-1.1-4.607-1.863-2.718-1.1L71.82,131.59l4.941,2,4.941,2,4.941,2Z" transform="translate(37.599 67.574)" fill="#c66bc6"/>
            <path id="Trazado_833332" data-name="Trazado 833332" d="M59.535,155.6l-2.718-1.1-4.607-1.863-2.718-1.1,2.069-4.446,4.941,2,4.941,2,4.941,2Z" transform="translate(25.91 77.008)" fill="#c66bc6"/>
            <path id="Trazado_833333" data-name="Trazado 833333" d="M71.709,127.868l-3.338.328-5.655.555-3.338.328-1.805,4.481,6.067-.6,6.067-.594,6.065-.6Z" transform="translate(30.141 66.943)" fill="#c66bc6"/>
            <path id="Trazado_833334" data-name="Trazado 833334" d="M79.274,154.633l-3.338.328-5.655.555-3.338.328-4.062-3.9,6.065-.6,6.067-.594,6.067-.6Z" transform="translate(32.92 78.609)" fill="#c66bc6"/>
            <path id="Trazado_833335" data-name="Trazado 833335" d="M92.526,143.926v-8.613l-9.752.731.922,3.422.92,3.422.922,3.422Z" transform="translate(43.334 70.84)" fill="#c66bc6"/>
            <path id="Trazado_833336" data-name="Trazado 833336" d="M45.1,148.96l-.507-1.883-.858-3.189-.507-1.883,1.365-3.539,5.623,1.155.922,3.422.92,3.422.922,3.42Z" transform="translate(22.628 72.491)" fill="#c66bc6"/>
            <path id="Trazado_833337" data-name="Trazado 833337" d="M45.559,129.753v8.2l3.324-.686,1.651-5.291Z" transform="translate(23.851 67.929)" fill="#c66bc6"/>
            <path id="Trazado_833338" data-name="Trazado 833338" d="M85.485,137.232v8.612l5.622-1.918v-8.612Z" transform="translate(44.754 70.84)" fill="#b456b7"/>
            <path id="Trazado_833339" data-name="Trazado 833339" d="M94,127.258c-13.2-5.34-31.785-3.516-41.505,4.072S45.6,149.4,58.8,154.74s31.784,3.518,41.5-4.071,6.9-18.071-6.3-23.411m-7.509,17.824c-4.018,3.137-11.7,3.89-17.152,1.682s-6.623-6.537-2.605-9.673,11.7-3.89,17.153-1.684,6.621,6.537,2.6,9.674" transform="translate(24.456 65.02)" fill="#e79ce1"/>
            <path id="Trazado_833340" data-name="Trazado 833340" d="M52.955,125.963l-2,1.563-3.391,2.648-2,1.563,4.3,3.823,3.638-2.841,3.638-2.84,3.638-2.84Z" transform="translate(23.851 65.945)" fill="#e79ce1"/>
            <path id="Trazado_833341" data-name="Trazado 833341" d="M92.065,142.011l-2,1.563-3.391,2.648-2,1.563-7.814-1.077,3.638-2.84,3.638-2.84,3.638-2.84Z" transform="translate(40.236 72.345)" fill="#e79ce1"/>
            <path id="Trazado_833342" data-name="Trazado 833342" d="M88.711,127.485l-2.718-1.1-4.607-1.863-2.718-1.1-6.848,2.515,4.941,2,4.941,2,4.941,2Z" transform="translate(37.599 64.615)" fill="#e79ce1"/>
            <path id="Trazado_833343" data-name="Trazado 833343" d="M59.535,149.952l-2.718-1.1-4.607-1.863-2.718-1.1,2.069-4.446,4.941,2,4.941,2,4.941,2Z" transform="translate(25.91 74.049)" fill="#e79ce1"/>
            <path id="Trazado_833344" data-name="Trazado 833344" d="M71.709,122.216l-3.338.328-5.655.555-3.338.328-1.805,4.481,6.067-.594,6.067-.6,6.065-.6Z" transform="translate(30.141 63.983)" fill="#e79ce1"/>
            <path id="Trazado_833345" data-name="Trazado 833345" d="M79.274,148.98l-3.338.328-5.655.555-3.338.328-4.062-3.9,6.065-.6,6.067-.6,6.067-.594Z" transform="translate(32.92 75.649)" fill="#e79ce1"/>
            <path id="Trazado_833346" data-name="Trazado 833346" d="M92.526,138.022l-.507-1.883-.858-3.19-.507-1.882-7.88-.926.922,3.422.92,3.422.922,3.422Z" transform="translate(43.334 68.132)" fill="#e79ce1"/>
            <path id="Trazado_833347" data-name="Trazado 833347" d="M45.1,142.911l-.507-1.883-.858-3.189-.507-1.883,6.988-2.384.922,3.422.92,3.422.922,3.42Z" transform="translate(22.628 69.928)" fill="#e79ce1"/>
            <path id="Trazado_833348" data-name="Trazado 833348" d="M65.547,148.65v8.613l12.331-1.21v-8.613Z" transform="translate(34.316 77.189)" fill="#d680d4"/>
            <path id="Trazado_833349" data-name="Trazado 833349" d="M81.984,146.471v8.612l7.4-5.774V140.7Z" transform="translate(42.921 73.659)" fill="#d680d4"/>
            <path id="Trazado_833350" data-name="Trazado 833350" d="M59.535,148.424v8.613l-10.043-4.063v-8.612Z" transform="translate(25.91 75.577)" fill="#d680d4"/>
            <path id="Trazado_833351" data-name="Trazado 833351" d="M45.1,142.091V150.7l-1.872-6.955v-8.612Z" transform="translate(22.628 70.748)" fill="#d680d4"/>
            <path id="Trazado_833352" data-name="Trazado 833352" d="M61.59,154.313V145.7l-5.506,2.022v8.612Z" transform="translate(29.361 76.278)" fill="#b456b7"/>
            <path id="Trazado_833353" data-name="Trazado 833353" d="M50.791,140.446v8.611l-6.339-.743V139.7Z" transform="translate(23.271 73.137)" fill="#b456b7"/>
            <path id="Trazado_833354" data-name="Trazado 833354" d="M63.4,146.173v8.613l3.268,3.141v-8.613Z" transform="translate(33.193 76.525)" fill="#b456b7"/>
            <path id="Trazado_833355" data-name="Trazado 833355" d="M73.641,148.679l1.452-3.6v8.613l-1.452,3.6Z" transform="translate(38.553 75.95)" fill="#b456b7"/>
            <path id="Trazado_833356" data-name="Trazado 833356" d="M77.86,143.919v8.612l6.283.864v-8.611Z" transform="translate(40.762 75.345)" fill="#b456b7"/>
            <path id="Trazado_833357" data-name="Trazado 833357" d="M40.329,96.75l-16.358,9.444c-2.605,1.505-4.738-.107-4.738-3.582V80.8c0-3.475,2.133-7.549,4.738-9.054L40.329,62.3c2.607-1.5,4.738.108,4.738,3.583V87.7c0,3.475-2.131,7.549-4.738,9.054" transform="translate(10.069 32.322)" fill="#d680d4"/>
            <path id="Trazado_833358" data-name="Trazado 833358" d="M21.582,87.8c-.1.215-1.246,4.958-1.246,4.958l5.954,3.475,2.671-7.115Z" transform="translate(10.646 45.965)" fill="#d680d4"/>
            <path id="Trazado_833359" data-name="Trazado 833359" d="M35.554,61.9l5.96,3.428-2.491,4.438-5.07-3.018Z" transform="translate(17.775 32.404)" fill="#d680d4"/>
            <path id="Trazado_833360" data-name="Trazado 833360" d="M44.2,98.975l-16.358,9.444c-2.607,1.505-4.738-.108-4.738-3.582V83.026c0-3.475,2.131-7.549,4.738-9.054L44.2,64.528c2.607-1.5,4.738.108,4.738,3.582V89.92c0,3.475-2.131,7.549-4.738,9.054" transform="translate(12.094 33.487)" fill="#e79ce1"/>
            <path id="Trazado_833361" data-name="Trazado 833361" d="M36.48,92.835c4.773-4.248,7.736-12.083,6.618-17.5S37.2,68.964,32.429,73.21s-7.736,12.083-6.618,17.5,5.895,6.37,10.669,2.122M30.805,86.27c-.462-2.24.762-5.477,2.735-7.232s3.947-1.364,4.409.876-.762,5.479-2.735,7.234-3.947,1.362-4.409-.878" transform="translate(13.389 36.938)" fill="#fff"/>
            <path id="Trazado_833362" data-name="Trazado 833362" d="M39.382,75.649l-.23-1.115-.39-1.892-.232-1.115-2.39.967.417,2.028.419,2.028.419,2.028Z" transform="translate(18.92 37.446)" fill="#fff"/>
            <path id="Trazado_833363" data-name="Trazado 833363" d="M25.39,88.374l-.23-1.115-.39-1.892-.232-1.115,1.988-2.928.417,2.028.419,2.028.419,2.028Z" transform="translate(12.846 42.575)" fill="#fff"/>
            <path id="Trazado_833364" data-name="Trazado 833364" d="M32.227,89.5l.983-.874,1.667-1.482.983-.874.35-3.254-1.786,1.589L32.637,86.2,30.85,87.787Z" transform="translate(16.151 43.462)" fill="#fff"/>
            <path id="Trazado_833365" data-name="Trazado 833365" d="M28.789,73.433l.983-.874,1.665-1.482.984-.875L33.8,71.919l-1.786,1.589L30.224,75.1l-1.786,1.589Z" transform="translate(14.888 36.752)" fill="#fff"/>
            <path id="Trazado_833366" data-name="Trazado 833366" d="M37.323,83.931l.532-1.408.9-2.384.533-1.408-1.444-1.618-.966,2.558-.967,2.558-.967,2.558Z" transform="translate(18.294 40.371)" fill="#fff"/>
            <path id="Trazado_833367" data-name="Trazado 833367" d="M25.01,81.383l.532-1.408.9-2.384.533-1.408,2.378-.858-.967,2.558-.967,2.558L26.453,83Z" transform="translate(13.094 39.435)" fill="#fff"/>
            <path id="Trazado_833368" data-name="Trazado 833368" d="M26.8,89.09l.858.171,1.453.289.858.171,1.939-2.985-1.559-.311-1.559-.309-1.56-.311Z" transform="translate(14.029 44.921)" fill="#fff"/>
            <path id="Trazado_833369" data-name="Trazado 833369" d="M34.6,69.1l.858.171,1.453.289.858.171-.431,3.285-1.559-.311-1.56-.309-1.559-.311Z" transform="translate(17.096 36.177)" fill="#fff"/>
            <path id="Trazado_833370" data-name="Trazado 833370" d="M65.718,101.2,49.36,110.646c-2.607,1.505-4.738-.108-4.738-3.582V85.253c0-3.475,2.131-7.549,4.738-9.054l16.358-9.444c2.607-1.5,4.738.108,4.738,3.583V92.147c0,3.475-2.131,7.549-4.738,9.054" transform="translate(23.361 34.653)" fill="#f8b505"/>
            <path id="Trazado_833371" data-name="Trazado 833371" d="M46.972,92.25c-.1.215-1.246,4.958-1.246,4.958l5.954,3.475,2.671-7.115Z" transform="translate(23.939 48.295)" fill="#f8b505"/>
            <path id="Trazado_833372" data-name="Trazado 833372" d="M60.943,66.348l5.96,3.428-2.491,4.438L59.342,71.2Z" transform="translate(31.067 34.735)" fill="#f8b505"/>
            <path id="Trazado_833373" data-name="Trazado 833373" d="M69.586,103.427l-16.358,9.444c-2.605,1.505-4.738-.107-4.738-3.582V87.478c0-3.475,2.133-7.549,4.738-9.054L69.586,68.98c2.607-1.5,4.738.108,4.738,3.583V94.372c0,3.475-2.131,7.549-4.738,9.054" transform="translate(25.386 35.818)" fill="#fed03d"/>
            <path id="Trazado_833374" data-name="Trazado 833374" d="M55.185,82.073l1.67.756-3.6,5.818,3.6,1.658-1.67,2.665-5.226-2.442Z" transform="translate(26.155 42.967)" fill="#fff"/>
            <path id="Trazado_833375" data-name="Trazado 833375" d="M58.67,78.778l2.928-1.69L57.856,93.993l-2.928,1.69Z" transform="translate(28.756 40.358)" fill="#fff"/>
            <path id="Trazado_833376" data-name="Trazado 833376" d="M63.351,82.111l-3.6-1.659,1.668-2.683,5.226,2.459-5.226,8.439-1.668-.739Z" transform="translate(31.281 40.714)" fill="#fff"/>
            <path id="Trazado_833377" data-name="Trazado 833377" d="M90.446,62.8,74.088,72.24c-2.607,1.5-4.738-.108-4.738-3.582V46.847c0-3.475,2.131-7.549,4.738-9.054l16.358-9.444c2.607-1.505,4.738.108,4.738,3.583V53.741c0,3.475-2.131,7.549-4.738,9.054" transform="translate(36.307 14.546)" fill="#bdd6e5"/>
            <path id="Trazado_833378" data-name="Trazado 833378" d="M71.767,53.912c-.1.215-1.246,4.958-1.246,4.958l5.954,3.474,2.671-7.115Z" transform="translate(36.92 28.224)" fill="#bdd6e5"/>
            <path id="Trazado_833379" data-name="Trazado 833379" d="M85.738,28.01,91.7,31.438l-2.489,4.438-5.07-3.018Z" transform="translate(44.048 14.664)" fill="#bdd6e5"/>
            <path id="Trazado_833380" data-name="Trazado 833380" d="M94.314,65.021,77.956,74.465c-2.605,1.505-4.738-.108-4.738-3.582V49.072c0-3.475,2.133-7.549,4.738-9.054l16.358-9.444c2.607-1.5,4.738.108,4.738,3.583V55.966c0,3.475-2.131,7.549-4.738,9.054" transform="translate(38.332 15.711)" fill="#dceaf4"/>
            <path id="Trazado_833381" data-name="Trazado 833381" d="M75.477,52.7v-.812c.8-1.865,1.562-2.138,1.562-5.786,0-1.236.617-3.664,3.611-5.393a12.42,12.42,0,0,1,2.281-1.088v2.419c-.477.264-1.164.462-1.773.814a2.472,2.472,0,0,0-1.351,2.3c-.017,3.221-.8,4.214-1.3,5.064v.812c.984.474,1.173.032,1.19,3.754.006,1.266.769,1.115,1.568.654.669-.387,1.367-.992,1.665-1.165v2.439a14.864,14.864,0,0,1-2.156,1.557c-2.5,1.444-3.736.843-3.736-.865,0-3.733-.64-3.53-1.562-4.706" transform="translate(39.514 20.742)" fill="#fff"/>
            <path id="Trazado_833382" data-name="Trazado 833382" d="M84.813,52.7a2.755,2.755,0,0,0,1.565-2.462c.015-3.74.2-3.515,1.187-5.125V44.3c-.5-.276-1.281-.366-1.3-3.567,0-1.237-.616-1.169-1.347-.747-.611.353-1.3.951-1.778,1.237V38.805a15.513,15.513,0,0,1,2.281-1.546c2.921-1.685,3.611-.16,3.611,1.22v.05c.014,3.64.765,3,1.562,3.934v.815c-.922,2.24-1.562,2.776-1.562,6.509,0,1.709-1.236,3.734-3.736,5.178a10.354,10.354,0,0,1-2.156.932V53.459c.3-.172,1-.372,1.67-.76" transform="translate(43.528 19.118)" fill="#fff"/>
            <path id="Trazado_833383" data-name="Trazado 833383" d="M175.776,116.147a6.051,6.051,0,0,1,1.79,2.767,7.319,7.319,0,0,1,0,4.051c-.565,1.792-1.472,1.5-1.472,1.5a15.856,15.856,0,0,1-1.825,5.284c-1.319,1.979-4.8,2.73-6.5,2.732-2.921.006-2.567-1.978-.922-4.993,1.744-3.195,2.98-5.628,2.892-8.037s.009-5.154.009-5.154Z" transform="translate(86.689 59.837)" fill="#672a5c"/>
            <path id="Trazado_833384" data-name="Trazado 833384" d="M159.136,105.862s-.4-.715.4.736a15.977,15.977,0,0,1,1.687,6.067c.075,1.942-3.35,2.588-3.35,2.588l-.925-.6s-.413,1.024-3.224,2.68-6.193,1.789-7.583,1.015-2.147-1.14.6-3.736a107.947,107.947,0,0,0,7.185-8.137Z" transform="translate(75.855 55.33)" fill="#672a5c"/>
            <path id="Trazado_833385" data-name="Trazado 833385" d="M171.265,70.481c-1.432-.891-16.1-4.493-15.212-3.824.006,0-3.873,12.552-4.947,19.027a93.607,93.607,0,0,0-.772,10.333,5.954,5.954,0,0,0,0,3.481c.434,1.93-.41,25.4-.274,29.179,2.323,2.086,4.56,2.977,8.428.815,1.332-8.74,4.2-17.885,2.173-28.432,2.447-1.8,5.908-8.169,6.725-11.167,1.505-5.54,6.469-17.8,3.88-19.411" transform="translate(78.552 34.854)" fill="#672a5c"/>
            <path id="Trazado_833386" data-name="Trazado 833386" d="M173.795,141.279a14.93,14.93,0,0,0,2.386,1.025c1.813.413,3.635-.445,5.188-1.44,1.135-6.184.165-14.99-.832-21a28.318,28.318,0,0,0-5.075-12.3c1.077-2.063,1.84-7.017,1.955-8.491.294-3.813.193-10.051-1.12-13.885.565-1.173,1.022-2.381,1.409-3.315,1.653-3.982.309-9.242-2.368-13.051-.612-.871-5.783,1.856-8.727,2.825-2.579.85-5.971,2.131-8.777,1.4a12.27,12.27,0,0,0,.456,6.208c.446,1.313.928,4.939,1.717,6.074.922,5.241,2.366,17.335,4.11,24.549.306,1.266.619,3.006,1.956,3.727,2.873,11.807,7.552,27.033,7.721,27.678" transform="translate(82.523 35.942)" fill="#954a83"/>
            <path id="Trazado_833387" data-name="Trazado 833387" d="M173,46.85c-.846-1.682-2.2-2.02-3.618-2.5-7.014-2.363-13.073,2.512-11.405,6.621-1.487.917-4.979,12.159-5.089,14.007-.076.072-.175.155-.294.247.309,2.171,2.244,3.823,4.61,4.883a5.339,5.339,0,0,0,.25-.69c2.413-.265,7.305-5.45,8.413-10.029,3.35-2.68,8.126-10.563,7.133-12.54" transform="translate(79.885 22.895)" fill="#bdd6e5"/>
            <path id="Trazado_833388" data-name="Trazado 833388" d="M155.35,69.132l0,0c-.038.062-.046.073,0,0" transform="translate(81.312 36.192)" fill="#23234c"/>
            <path id="Trazado_833389" data-name="Trazado 833389" d="M170.2,45.483c-2.441-.839-4.027-1.411-8.588,3.588-3.209,3.513-5.114,13.588-4.849,15.2.209,1.278.113,11.4-4.423,17.53,2.445,3.76,8.53,8.017,13.282,8.57,6.9.8,11.361-.786,15.037-3.73-.248-1.522-2.521-6.774-1.292-9.879,2.121-5.355,3.961-8.794,5.079-14.627,1.783-9.294-8.829-14.79-14.246-16.655" transform="translate(79.753 23.521)" fill="#dceaf4"/>
            <path id="Trazado_833390" data-name="Trazado 833390" d="M163.972,45.034a27.025,27.025,0,0,1-2.156,7.548c-.315,3.26.946,5.5,4.426,3a63.414,63.414,0,0,0,6.952-6.019l-.74-5.82Z" transform="translate(84.69 22.903)" fill="#ffb9a4"/>
            <path id="Trazado_833391" data-name="Trazado 833391" d="M173.371,46.3a7.2,7.2,0,0,1-3.1,4.024c-2.355,1.673-3.486,1.255-5.614,1.586a3.886,3.886,0,0,0-3.7,3.419c.871-.175,1-.612,1.69.2.452.539.32,1.2.385,1.789a1.666,1.666,0,0,0,2.2,1.223c-.512-2.38,4.616-3.864,5.905-4.342a5.72,5.72,0,0,0,3.215-3.343c.448-2.022.2-3.844-.981-4.56" transform="translate(84.267 24.237)" fill="#bdd6e5"/>
            <path id="Trazado_833392" data-name="Trazado 833392" d="M164.744,45.623s-2.055,2.153-3.029,3.433-.832,2.724-1.661,3.356a5.458,5.458,0,0,1-1.63.861,4.894,4.894,0,0,0,2.177.1c.562-.291,1.266-.448,1.415-.279s1.265,1.392,1.345,1.239a14.271,14.271,0,0,1,1.776-.972,4.725,4.725,0,0,1-.472-3.274,14.063,14.063,0,0,1,1.432-3.439Z" transform="translate(82.939 23.885)" fill="#bdd6e5"/>
            <path id="Trazado_833393" data-name="Trazado 833393" d="M174.913,40.51c-.513-2.494-7.5-4.456-9.938-3.582-3.676,1.319-4.209,6.253-4.124,9.844.088,3.777,2.6,8.5,7.831,5.671,4.24-2.293,7.231-7.075,6.231-11.932" transform="translate(84.205 19.222)" fill="#ffc9b6"/>
            <path id="Trazado_833394" data-name="Trazado 833394" d="M176.264,41.42a3.766,3.766,0,0,0-1.8-3.821,7.408,7.408,0,0,0-4.126-.952c-1.265-.006-1.754.224-2.9-.413-1.226-.683-1-1.106-1.647-2.2-1.993-3.376-5.384.53-4.7,3.7a1.3,1.3,0,0,0-1.22.349c-.9.855-.39,2.18.344,2.924a6.727,6.727,0,0,0,4.837,1.894c1.2,2.822,4.558,2.371,5.672,1.662-.056,2.217,2.188,4.628,3.065,7.15.774-1.322,4.529-3.608,4.494-6.871a4.037,4.037,0,0,0-2.017-3.42" transform="translate(83.443 17.137)" fill="#672a5c"/>
            <path id="Trazado_833395" data-name="Trazado 833395" d="M167.09,42.671s1.418-1.7,2.317-.241c.788,1.284.44,2.913-1.35,3.143-1.572.2-.967-2.9-.967-2.9" transform="translate(87.416 21.904)" fill="#ffc9b6"/>
            <path id="Trazado_833396" data-name="Trazado 833396" d="M158.934,58.3c-.413-.117-7.962,1.761-11.519,4.193s-4.761,4.237-4.01,7.618,11.8.4,15.031-1.865,2.409-9.019,2.409-9.019Z" transform="translate(74.964 30.517)" fill="#bdd6e5"/>
            <path id="Trazado_833397" data-name="Trazado 833397" d="M160.31,53.169a3.174,3.174,0,0,1,.037-2.453s.37-.081.85-.225c.375-.114.553.332.553.332a12.258,12.258,0,0,0-.4,2.223s.974-.23,1.4-.312c1.167-.229.974,1.106.974,1.106s-1,.207-1.824.293a8.759,8.759,0,0,1-.692,1.559.884.884,0,0,1-1.208.416A1.238,1.238,0,0,1,159.5,54.5a8.412,8.412,0,0,1,.809-1.329" transform="translate(83.45 26.423)" fill="#d680d4"/>
            <path id="Trazado_833398" data-name="Trazado 833398" d="M159.184,58.383c1.152-3.2,1.755-3.963,2.5-4.773.23-.251.974.114.916.451a94.769,94.769,0,0,0-1.257,10.986c-.393,5.533-1.022,9.444-1.022,9.444a14.72,14.72,0,0,1-3.454,2.276,11.472,11.472,0,0,1-1.062-5.3s2.166-9.7,3.384-13.083" transform="translate(81.559 28.022)" fill="#d680d4"/>
            <path id="Trazado_833399" data-name="Trazado 833399" d="M147.41,79.946l4.418-2.668-1.185-1.054-2.666,1.254Z" transform="translate(77.173 39.905)" fill="#ed4069"/>
            <path id="Trazado_833400" data-name="Trazado 833400" d="M152.185,84.491c-6.5-5.786-10.54-16.463-9.016-23.846s8.031-8.678,14.534-2.892,10.541,16.463,9.018,23.846-8.032,8.678-14.536,2.892m7.732-8.945c.629-3.052-1.039-7.464-3.727-9.854s-5.377-1.857-6.007,1.194,1.039,7.464,3.727,9.854,5.378,1.857,6.007-1.194" transform="translate(74.784 28.342)" fill="#e43c5d"/>
            <path id="Trazado_833401" data-name="Trazado 833401" d="M141.435,61.076l.314-1.52.532-2.576.314-1.52,3.259,1.318-.57,2.764-.571,2.762-.57,2.764Z" transform="translate(74.045 29.034)" fill="#e43c5d"/>
            <path id="Trazado_833402" data-name="Trazado 833402" d="M160.5,78.413l.314-1.52.532-2.576.314-1.52-2.707-3.99-.57,2.764-.571,2.762-.57,2.764Z" transform="translate(82.32 36.022)" fill="#e43c5d"/>
            <path id="Trazado_833403" data-name="Trazado 833403" d="M152.174,79.952l-1.339-1.191-2.27-2.019-1.339-1.191-.478-4.435,2.435,2.166,2.435,2.165,2.433,2.166Z" transform="translate(76.826 37.231)" fill="#e43c5d"/>
            <path id="Trazado_833404" data-name="Trazado 833404" d="M156.858,58.057l-1.339-1.191-2.27-2.019-1.339-1.193-1.875,2.34,2.435,2.165,2.433,2.166,2.435,2.165Z" transform="translate(78.547 28.089)" fill="#e43c5d"/>
            <path id="Trazado_833405" data-name="Trazado 833405" d="M144.756,72.36l-.725-1.918-1.229-3.25-.724-1.917,1.965-2.2,1.318,3.486,1.318,3.486L148,73.527Z" transform="translate(74.382 33.019)" fill="#e43c5d"/>
            <path id="Trazado_833406" data-name="Trazado 833406" d="M161.532,68.888l-.725-1.918-1.228-3.25-.725-1.917-3.242-1.169,1.318,3.486,1.318,3.484,1.319,3.486Z" transform="translate(81.467 31.744)" fill="#e43c5d"/>
            <path id="Trazado_833407" data-name="Trazado 833407" d="M159.455,79.389l-4.418,2.668-2.543-5.875,2.125-.424,2.124-.422,2.124-.424Z" transform="translate(79.835 39.219)" fill="#e43c5d"/>
            <path id="Trazado_833408" data-name="Trazado 833408" d="M149.267,52.156l-1.169.233-1.981.393-1.17.233-1.268,2.04,1.856,2.435,2.125-.422,2.124-.422,2.124-.424Z" transform="translate(75.22 27.305)" fill="#e43c5d"/>
            <path id="Trazado_833409" data-name="Trazado 833409" d="M139.3,58.126l4.418-2.668s1.217,1.927,1.05,2-3.044,3.195-3.044,3.195Z" transform="translate(72.925 29.034)" fill="#ed4069"/>
            <path id="Trazado_833410" data-name="Trazado 833410" d="M149.286,86.242c-6.5-5.786-10.54-16.463-9.016-23.846S148.3,53.718,154.8,59.5s10.541,16.463,9.018,23.846-8.032,8.678-14.536,2.892m7.732-8.945c.629-3.052-1.039-7.464-3.727-9.854s-5.377-1.857-6.007,1.194,1.039,7.464,3.727,9.854,5.378,1.857,6.007-1.194" transform="translate(73.266 29.258)" fill="#ff5a72"/>
            <path id="Trazado_833411" data-name="Trazado 833411" d="M138.535,62.827l.314-1.52.532-2.576.314-1.52,3.259,1.318-.571,2.764-.57,2.762-.57,2.764Z" transform="translate(72.527 29.951)" fill="#ff5a72"/>
            <path id="Trazado_833412" data-name="Trazado 833412" d="M157.6,80.164l.314-1.52.532-2.576.314-1.52-2.707-3.99-.57,2.764-.571,2.762-.57,2.764Z" transform="translate(80.801 36.938)" fill="#ff5a72"/>
            <path id="Trazado_833413" data-name="Trazado 833413" d="M149.274,81.7l-1.339-1.191-2.27-2.019L144.326,77.3l-.478-4.433,2.435,2.166,2.435,2.165,2.433,2.166Z" transform="translate(75.308 38.148)" fill="#ff5a72"/>
            <path id="Trazado_833414" data-name="Trazado 833414" d="M153.959,59.807l-1.339-1.191-2.27-2.019L149.01,55.4l-1.875,2.34,2.435,2.165L152,62.076l2.435,2.165Z" transform="translate(77.029 29.006)" fill="#ff5a72"/>
            <path id="Trazado_833415" data-name="Trazado 833415" d="M141.857,74.111l-.725-1.918-1.229-3.25-.725-1.917,1.967-2.2,1.318,3.486,1.318,3.486,1.318,3.484Z" transform="translate(72.863 33.936)" fill="#ff5a72"/>
            <path id="Trazado_833416" data-name="Trazado 833416" d="M158.632,70.639l-.725-1.918-1.229-3.25-.724-1.917-3.242-1.169,1.318,3.486,1.318,3.486,1.319,3.484Z" transform="translate(79.949 32.661)" fill="#ff5a72"/>
            <path id="Trazado_833417" data-name="Trazado 833417" d="M156.555,81.14l-1.169.233-1.981.393-1.17.233-2.642-4.066,2.125-.424,2.124-.422,2.124-.424Z" transform="translate(78.316 40.135)" fill="#ff5a72"/>
            <path id="Trazado_833418" data-name="Trazado 833418" d="M145.931,53.906l-1.169.233-1.981.393-1.169.233.587,4.475,2.125-.422,2.124-.422,2.124-.424Z" transform="translate(74.138 28.221)" fill="#ff5a72"/>
            <path id="Trazado_833419" data-name="Trazado 833419" d="M159.258,61.4l-4.418,2.668,2.68,7.084,4.417-2.668Z" transform="translate(81.062 32.146)" fill="#ed4069"/>
            <path id="Trazado_833420" data-name="Trazado 833420" d="M157.732,58.057l-4.418,2.668-4.948-4.4,4.418-2.668Z" transform="translate(77.673 28.089)" fill="#ed4069"/>
            <path id="Trazado_833421" data-name="Trazado 833421" d="M162.057,71.425l-4.418,2.668-1.159,5.617,4.418-2.668Z" transform="translate(81.921 37.393)" fill="#ed4069"/>
            <path id="Trazado_833422" data-name="Trazado 833422" d="M146.031,53.015l-4.418,2.668,4.319-.859,4.418-2.668Z" transform="translate(74.138 27.305)" fill="#ed4069"/>
            <path id="Trazado_833423" data-name="Trazado 833423" d="M162.99,89.357c4.534-2.509,12.018-5.709,14.122-9.248,4.05-4.147,6.068-12.98,6.118-20.274.043-6.19-3.592-12.926-8-7.334-3.259,4.127-4.295,12.263-5.29,20.805-4.606,2.3-8.1,4.619-10.244,11.518,2.179,1.418,2.275,3.816,3.3,4.532" transform="translate(83.603 26.393)" fill="#bdd6e5"/>
            <path id="Trazado_833424" data-name="Trazado 833424" d="M163.6,77.533a4.972,4.972,0,0,0-1.121-2.552A13.394,13.394,0,0,0,160.3,73l-1.767,2.43,1.95,3.525s2.13-.906,3.116-1.423" transform="translate(82.996 38.217)" fill="#fff"/>
            <path id="Trazado_833425" data-name="Trazado 833425" d="M160.976,74.636c-1.738-.52-4.013.806-5.989,1.443s-1.1,1.886.745,1.988,3.068-.922,2.835.094-3.746,3.855-3.746,3.855,3.474,1.249,5.945,0,2.782-4.5,2.782-4.5.3-2.022-2.572-2.881" transform="translate(80.552 39.012)" fill="#ffc9b6"/>
            <path id="Trazado_833426" data-name="Trazado 833426" d="M140.769,63.757a5.172,5.172,0,0,0-2.022,3.14c-.731,2.546,1.3,5.8,2.819,5.047s-.507-6.221-.507-6.221Z" transform="translate(72.557 33.378)" fill="#ffc9b6"/>
            <path id="Trazado_833427" data-name="Trazado 833427" d="M106.793,93.883l55.964-32.311c4.773-2.756,8.678-10.217,8.678-16.581V7.593c0-6.364-3.9-9.316-8.678-6.56L106.793,33.344c-4.773,2.756-8.678,10.217-8.678,16.581v37.4c0,6.364,3.9,9.316,8.678,6.56" transform="translate(51.366 0)" fill="#e79ce1"/>
            <path id="Trazado_833428" data-name="Trazado 833428" d="M106.793,93.883l55.964-32.311c4.773-2.756,8.678-10.217,8.678-16.581V7.593c0-6.364-3.9-9.316-8.678-6.56L106.793,33.344c-4.773,2.756-8.678,10.217-8.678,16.581v37.4c0,6.364,3.9,9.316,8.678,6.56" transform="translate(51.366 0)" fill="#dceaf4"/>
            <path id="Trazado_833429" data-name="Trazado 833429" d="M102.5,91.509a4.508,4.508,0,0,0,2.156-.693L160.619,58.5c3.946-2.279,7.409-9,7.409-14.384V6.722c0-2.333-.712-5.057-2.718-5.057a4.5,4.5,0,0,0-2.156.693L107.189,34.669c-3.946,2.279-7.409,9-7.409,14.384v37.4c0,2.333.712,5.057,2.718,5.057M165.31,2.68c1.118,0,1.7,2.034,1.7,4.042v37.4c0,5.072-3.225,11.382-6.9,13.5L104.146,89.937a3.579,3.579,0,0,1-1.648.558c-1.118,0-1.7-2.034-1.7-4.042v-37.4c0-5.072,3.225-11.382,6.9-13.5L163.661,3.237a3.579,3.579,0,0,1,1.648-.558" transform="translate(52.237 0.872)" fill="#fff"/>
            <path id="Trazado_833430" data-name="Trazado 833430" d="M129.355,36.48c1.758,1.339,4.188,1.4,6.876-.155a18.95,18.95,0,0,0,6.676-7.4l-.587,5.712,4.014-.294a30.212,30.212,0,0,1-10.1,10.573c-4.373,2.524-8.334,2.488-11.241.4l.483-6.041Z" transform="translate(65.436 15.14)" fill="#954a83"/>
            <path id="Trazado_833431" data-name="Trazado 833431" d="M136.952,37.77a24.118,24.118,0,0,0,3.033-11.148c0-3.125-.83-5.512-2.214-6.95l3.954-1.408,1.6-6.248c1.946,2.433,3.1,6.149,3.1,10.889a40.662,40.662,0,0,1-6.045,20.283l-4.014.294Z" transform="translate(71.391 6.291)" fill="#ff5a72"/>
            <path id="Trazado_833432" data-name="Trazado 833432" d="M143.995,20.79c-1.781-1.853-4.478-2.133-7.5-.39-2.979,1.72-5.64,5.047-7.421,8.89l-.44-5.314-4.161,1.947c2.956-6.1,7.244-11.35,12.022-14.108,5.364-3.1,10.115-2.351,13.051,1.321l-1.6,6.246Z" transform="translate(65.167 5.171)" fill="#954a83"/>
            <path id="Trazado_833433" data-name="Trazado 833433" d="M117.379,32.252l-.052-.072v0L117.2,32l.146-.229.261-5.1,4.353-3.244c.143.157.285.321.42.492l0-.006.081.116a11.051,11.051,0,0,1,.71,1.024L131.4,36.9s.7,1.016.867,1.243a5.717,5.717,0,0,0,1.17,1.211l-3.883,2.793-.481,6.041a9.121,9.121,0,0,1-1.7-1.6c-.059-.073-.868-1.182-.868-1.182Z" transform="translate(61.358 12.262)" fill="#e79ce1"/>
            <path id="Trazado_833434" data-name="Trazado 833434" d="M103.52,39.775c2.942-6.995,7.662-13.154,12.985-16.227,5.108-2.95,9.662-2.412,12.619.82l-4.351,3.245-.283,5.515c-1.751-2.371-4.67-2.907-7.985-.993-2.959,1.708-5.607,5-7.388,8.814l-4.069,3.175Z" transform="translate(54.195 11.315)" fill="#954a83"/>
            <path id="Trazado_833435" data-name="Trazado 833435" d="M101.443,48.164a38.507,38.507,0,0,1,3.166-14.63l1.528,4.348,4.069-3.175a23.574,23.574,0,0,0-2.323,9.74c0,3.469,1.025,6.024,2.691,7.386l.609,5.223L107.341,61.4c-3.6-1.871-5.9-6.53-5.9-13.232" transform="translate(53.108 17.556)" fill="#e79ce1"/>
            <path id="Trazado_833436" data-name="Trazado 833436" d="M117.859,48.572l.011-.008,8.836-22.949s1.059-2.691,1.149-2.9q.359-.827.751-1.638l4.161-1.947.44,5.314c-.18.387-.347.78-.509,1.176L123.307,50c-.1.279-.679,1.717-.757,1.9-.364.853-.751,1.7-1.167,2.521l-.434-4.872-4.359,1.885a26.407,26.407,0,0,0,1.269-2.861" transform="translate(61.038 10.016)" fill="#ff5a72"/>
            <path id="Trazado_833437" data-name="Trazado 833437" d="M109.157,54.143l-.608-5.221c1.766,1.446,4.255,1.546,7.016-.047a19.286,19.286,0,0,0,6.929-7.895l4.359-1.883.434,4.871c-2.942,5.841-7.1,10.828-11.722,13.494-3.893,2.247-7.462,2.471-10.252,1.022Z" transform="translate(55.134 20.468)" fill="#954a83"/>
            <path id="Trazado_833438" data-name="Trazado 833438" d="M158.949,147.239v7.292l-3.257-3.17Z" transform="translate(81.508 77.083)" fill="#d63259"/>
            <path id="Trazado_833439" data-name="Trazado 833439" d="M169.25,154.261c-13.588-5.5-32.715-3.62-42.721,4.191s-7.1,18.6,6.486,24.1,32.715,3.62,42.721-4.191,7.1-18.6-6.486-24.1m-7.729,18.346c-4.135,3.228-12.039,4-17.655,1.732s-6.816-6.729-2.681-9.958,12.04-4,17.656-1.732,6.815,6.729,2.68,9.958" transform="translate(63.124 79.11)" fill="#e43c5d"/>
            <path id="Trazado_833440" data-name="Trazado 833440" d="M127,152.928l-2.06,1.609-3.492,2.726-2.061,1.609,4.421,3.934,3.745-2.924,3.745-2.922,3.745-2.924Z" transform="translate(62.502 80.062)" fill="#e43c5d"/>
            <path id="Trazado_833441" data-name="Trazado 833441" d="M167.256,169.446l-2.06,1.609-3.492,2.726-2.061,1.609-8.043-1.108,3.745-2.924,3.745-2.924,3.745-2.924Z" transform="translate(79.367 86.649)" fill="#e43c5d"/>
            <path id="Trazado_833442" data-name="Trazado 833442" d="M163.8,154.494l-2.8-1.132-4.741-1.918-2.8-1.132-7.048,2.588,5.086,2.057,5.086,2.057,5.086,2.058Z" transform="translate(76.653 78.692)" fill="#e43c5d"/>
            <path id="Trazado_833443" data-name="Trazado 833443" d="M133.772,177.62l-2.8-1.132-4.741-1.918-2.8-1.132,2.13-4.577,5.086,2.057,5.084,2.057,5.086,2.057Z" transform="translate(64.621 88.403)" fill="#e43c5d"/>
            <path id="Trazado_833444" data-name="Trazado 833444" d="M146.3,149.071l-3.436.337-5.821.571-3.436.337-1.859,4.613,6.245-.612,6.243-.614,6.243-.612Z" transform="translate(68.976 78.042)" fill="#e43c5d"/>
            <path id="Trazado_833445" data-name="Trazado 833445" d="M154.09,176.619l-3.436.337-5.821.571-3.436.337-4.182-4.019,6.245-.612,6.243-.612,6.243-.612Z" transform="translate(71.836 90.05)" fill="#e43c5d"/>
            <path id="Trazado_833446" data-name="Trazado 833446" d="M167.73,165.6v-8.864l-10.037.753.948,3.522.948,3.521.948,3.522Z" transform="translate(82.557 82.055)" fill="#e43c5d"/>
            <path id="Trazado_833447" data-name="Trazado 833447" d="M118.909,170.781l-.521-1.938-.885-3.283-.521-1.938,1.406-3.643,5.788,1.188.948,3.522.948,3.521.949,3.522Z" transform="translate(61.243 83.753)" fill="#e43c5d"/>
            <path id="Trazado_833448" data-name="Trazado 833448" d="M119.387,151.01v8.442l3.422-.705,1.7-5.447Z" transform="translate(62.502 79.058)" fill="#ed4069"/>
            <path id="Trazado_833449" data-name="Trazado 833449" d="M160.483,158.708v8.864l5.786-1.973v-8.865Z" transform="translate(84.017 82.054)" fill="#d63259"/>
            <path id="Trazado_833450" data-name="Trazado 833450" d="M169.25,148.442c-13.588-5.5-32.715-3.62-42.721,4.191s-7.1,18.6,6.486,24.1,32.715,3.62,42.721-4.191,7.1-18.6-6.486-24.1m-7.729,18.346c-4.135,3.228-12.039,4-17.655,1.732s-6.816-6.729-2.681-9.958,12.04-4,17.656-1.732,6.815,6.729,2.68,9.958" transform="translate(63.124 76.063)" fill="#ff5a72"/>
            <path id="Trazado_833451" data-name="Trazado 833451" d="M127,147.11l-2.06,1.609-3.492,2.726-2.061,1.609,4.421,3.934,3.745-2.924,3.745-2.922,3.745-2.924Z" transform="translate(62.502 77.016)" fill="#ff5a72"/>
            <path id="Trazado_833452" data-name="Trazado 833452" d="M167.256,163.628l-2.06,1.609-3.492,2.726-2.061,1.609-8.043-1.108,3.745-2.924,3.745-2.924,3.745-2.924Z" transform="translate(79.367 83.603)" fill="#ff5a72"/>
            <path id="Trazado_833453" data-name="Trazado 833453" d="M163.8,148.676l-2.8-1.132-4.741-1.918-2.8-1.132-7.048,2.588,5.086,2.057,5.086,2.057,5.086,2.058Z" transform="translate(76.653 75.646)" fill="#ff5a72"/>
            <path id="Trazado_833454" data-name="Trazado 833454" d="M133.772,171.8l-2.8-1.132-4.741-1.918-2.8-1.132,2.13-4.577,5.086,2.057,5.084,2.057,5.086,2.057Z" transform="translate(64.621 85.357)" fill="#ff5a72"/>
            <path id="Trazado_833455" data-name="Trazado 833455" d="M146.3,143.252l-3.436.337-5.821.571-3.436.337-1.859,4.613L138,148.5l6.243-.612,6.243-.614Z" transform="translate(68.976 74.996)" fill="#ff5a72"/>
            <path id="Trazado_833456" data-name="Trazado 833456" d="M154.09,170.8l-3.436.337-5.821.571-3.436.337-4.182-4.019,6.245-.612,6.243-.612,6.243-.612Z" transform="translate(71.836 87.004)" fill="#ff5a72"/>
            <path id="Trazado_833457" data-name="Trazado 833457" d="M167.73,159.522l-.521-1.938-.884-3.283-.523-1.938-8.11-.952.948,3.522.948,3.521.948,3.522Z" transform="translate(82.557 79.267)" fill="#ff5a72"/>
            <path id="Trazado_833458" data-name="Trazado 833458" d="M118.909,164.553l-.521-1.938-.885-3.283-.521-1.938,7.194-2.453.948,3.521.948,3.522.949,3.521Z" transform="translate(61.243 81.116)" fill="#ff5a72"/>
            <path id="Trazado_833459" data-name="Trazado 833459" d="M139.961,170.461v8.864l12.692-1.245v-8.864Z" transform="translate(73.273 88.589)" fill="#ed4069"/>
            <path id="Trazado_833460" data-name="Trazado 833460" d="M156.88,168.218v8.864l7.613-5.942v-8.865Z" transform="translate(82.131 84.955)" fill="#ed4069"/>
            <path id="Trazado_833461" data-name="Trazado 833461" d="M133.772,170.229v8.864l-10.337-4.181v-8.865Z" transform="translate(64.621 86.93)" fill="#ed4069"/>
            <path id="Trazado_833462" data-name="Trazado 833462" d="M118.909,163.711v8.864l-1.927-7.159v-8.864Z" transform="translate(61.243 81.959)" fill="#ed4069"/>
            <path id="Trazado_833463" data-name="Trazado 833463" d="M135.887,176.29v-8.864l-5.667,2.081v8.864Z" transform="translate(68.174 87.652)" fill="#d63259"/>
            <path id="Trazado_833464" data-name="Trazado 833464" d="M124.772,162.017v8.864l-6.525-.765V161.25Z" transform="translate(61.905 84.419)" fill="#d63259"/>
            <path id="Trazado_833465" data-name="Trazado 833465" d="M137.753,167.911v8.864l3.364,3.234v-8.865Z" transform="translate(72.117 87.906)" fill="#d63259"/>
            <path id="Trazado_833466" data-name="Trazado 833466" d="M148.292,170.491l1.495-3.71v8.864l-1.495,3.71Z" transform="translate(77.635 87.314)" fill="#d63259"/>
            <path id="Trazado_833467" data-name="Trazado 833467" d="M152.635,165.592v8.864l6.467.891v-8.865Z" transform="translate(79.908 86.692)" fill="#d63259"/>
          </g>
        </g>
      </g>
    </g>
  </g>
</svg>
