<svg xmlns="http://www.w3.org/2000/svg" xmlns:xlink="http://www.w3.org/1999/xlink" width="569.278" height="317.27" viewBox="0 0 569.278 317.27">
  <defs>
    <clipPath id="clip-path">
      <rect id="Rect치ngulo_383788" data-name="Rect치ngulo 383788" width="282.155" height="274.696" fill="none"/>
    </clipPath>
  </defs>
  <g id="Grupo_1076176" data-name="Grupo 1076176" transform="translate(-810 -900.445)">
    <rect id="Rect치ngulo_382242" data-name="Rect치ngulo 382242" width="569.278" height="277.813" rx="7" transform="translate(810 939.901)" fill="#1682fb"/>
    <g id="Grupo_1076192" data-name="Grupo 1076192" transform="translate(954 900.445)">
      <g id="Grupo_1076191" data-name="Grupo 1076191" clip-path="url(#clip-path)">
        <path id="Trazado_833468" data-name="Trazado 833468" d="M280.632,153.163c0,43.5-62.821,78.773-140.317,78.773S0,196.667,0,153.163,62.821,74.39,140.315,74.39s140.317,35.268,140.317,78.773" transform="translate(0 42.761)" fill="#dceaf4"/>
        <path id="Trazado_833469" data-name="Trazado 833469" d="M63.647,18.943c7.668,6.825,13.1,17.677,19.482,13.992V67.427L63.647,78.674Z" transform="translate(36.586 10.889)" fill="#f8b505"/>
        <path id="Trazado_833470" data-name="Trazado 833470" d="M78.569,27.828l5.413,3.277L78.22,38.269l-6.638-8.406,5.737-.241Z" transform="translate(41.147 15.996)" fill="#f8b505"/>
        <path id="Trazado_833471" data-name="Trazado 833471" d="M67.085,21.024c7.668,6.825,13.1,17.677,19.482,13.992V69.508L67.085,80.755Z" transform="translate(38.562 12.085)" fill="#fed03d"/>
        <path id="Trazado_833472" data-name="Trazado 833472" d="M69.06,81.953l-5.413-3.277V18.944l5.413,3.277Z" transform="translate(36.586 10.889)" fill="#f8b505"/>
        <path id="Trazado_833473" data-name="Trazado 833473" d="M68.39,22.171V81.9L48.906,93.152V19.519c8.154-4.709,14.325-1.939,19.484,2.652" transform="translate(28.112 9.816)" fill="#7f3371"/>
        <path id="Trazado_833474" data-name="Trazado 833474" d="M48.906,18.627,54.319,21.9V95.537L48.906,92.26Z" transform="translate(28.112 10.707)" fill="#672a5c"/>
        <path id="Trazado_833475" data-name="Trazado 833475" d="M69.442,21.7l-6.036-3.611-14.5.85,5.413,3.277Z" transform="translate(28.113 10.397)" fill="#7f3371"/>
        <path id="Trazado_833476" data-name="Trazado 833476" d="M71.826,24.252V83.984L52.344,95.233V21.6c8.154-4.709,14.325-1.939,19.482,2.652" transform="translate(30.089 11.013)" fill="#954a83"/>
        <path id="Trazado_833477" data-name="Trazado 833477" d="M53.647,20l5.413,3.277L53.647,93.628,34.165,104.877V44.922C39.186,34.554,45.282,24.826,53.647,20" transform="translate(19.639 11.494)" fill="#d680d4"/>
        <path id="Trazado_833478" data-name="Trazado 833478" d="M57.084,22.077V95.709L37.6,106.958V47c5.021-10.369,11.117-20.1,19.482-24.926" transform="translate(21.614 12.69)" fill="#e79ce1"/>
        <path id="Trazado_833479" data-name="Trazado 833479" d="M34.165,35.824,39.577,39.1V99.056l-5.413-3.277Z" transform="translate(19.639 20.592)" fill="#c66bc6"/>
        <path id="Trazado_833480" data-name="Trazado 833480" d="M38.906,37.192l5.413,3.277L38.906,97.147,19.424,108.4V73.9C26.193,70,31.319,52.861,38.906,37.192" transform="translate(11.165 21.379)" fill="#ed4069"/>
        <path id="Trazado_833481" data-name="Trazado 833481" d="M42.343,39.273V99.228L22.861,110.477V75.984c6.767-3.907,11.895-21.041,19.482-36.711" transform="translate(13.141 22.575)" fill="#ff5a72"/>
        <path id="Trazado_833482" data-name="Trazado 833482" d="M19.423,60.5l5.413,3.277V98.272L19.423,95Z" transform="translate(11.165 34.779)" fill="#e43c5d"/>
        <path id="Trazado_833483" data-name="Trazado 833483" d="M75.454,84.31,94.426,73.357l-19.068-11.1L56.386,73.21Z" transform="translate(32.412 35.787)" fill="#954a83"/>
        <path id="Trazado_833484" data-name="Trazado 833484" d="M87.466,69.305v4.873L68.494,85.13V80.258Z" transform="translate(39.372 39.838)" fill="#7f3371"/>
        <path id="Trazado_833485" data-name="Trazado 833485" d="M56.387,74.085V69.212l19.068,11.1v4.872Z" transform="translate(32.412 39.785)" fill="#672a5c"/>
        <path id="Trazado_833486" data-name="Trazado 833486" d="M90.2,75.761l18.972-10.953L90.1,53.709,71.129,64.662Z" transform="translate(40.886 30.873)" fill="#fed03d"/>
        <path id="Trazado_833487" data-name="Trazado 833487" d="M102.208,60.757v4.872L83.236,76.582V71.71Z" transform="translate(47.846 34.924)" fill="#f8b505"/>
        <path id="Trazado_833488" data-name="Trazado 833488" d="M71.128,65.536V60.664l19.066,11.1v4.873Z" transform="translate(40.886 34.871)" fill="#f99e4b"/>
        <path id="Trazado_833489" data-name="Trazado 833489" d="M46.34,101.278,65.312,90.325l-19.068-11.1L27.272,90.178Z" transform="translate(15.676 45.541)" fill="#ff5a72"/>
        <path id="Trazado_833490" data-name="Trazado 833490" d="M58.352,86.273v4.873L39.38,102.1V97.226Z" transform="translate(22.636 49.592)" fill="#ed4069"/>
        <path id="Trazado_833491" data-name="Trazado 833491" d="M27.272,91.053V86.18L46.34,97.28v4.872Z" transform="translate(15.677 49.538)" fill="#e43c5d"/>
        <path id="Trazado_833492" data-name="Trazado 833492" d="M61.081,92.729,80.053,81.776l-19.066-11.1L42.013,81.63Z" transform="translate(24.15 40.627)" fill="#e79ce1"/>
        <path id="Trazado_833493" data-name="Trazado 833493" d="M73.093,77.725V82.6L54.121,93.55V88.678Z" transform="translate(31.11 44.678)" fill="#d680d4"/>
        <path id="Trazado_833494" data-name="Trazado 833494" d="M42.013,82.5V77.632l19.068,11.1V93.6Z" transform="translate(24.15 44.625)" fill="#c66bc6"/>
        <path id="Trazado_833495" data-name="Trazado 833495" d="M139.8,101.044a8,8,0,0,1,3.342-6.384,2.13,2.13,0,0,1,2.139-.176l.009-.02,49.8,28.459-4.622,9.232-49.385-28.345.008-.017a2.824,2.824,0,0,1-1.287-2.746" transform="translate(80.359 54.189)" fill="#672a5c"/>
        <path id="Trazado_833496" data-name="Trazado 833496" d="M171.288,119.123c0,2.46,1.5,3.592,3.342,2.526a8,8,0,0,0,3.34-6.384c0-2.46-1.5-3.591-3.34-2.526a8,8,0,0,0-3.342,6.384" transform="translate(98.46 64.574)" fill="#954a83"/>
        <path id="Trazado_833497" data-name="Trazado 833497" d="M100.638,78.54a8,8,0,0,1,3.342-6.384,2.13,2.13,0,0,1,2.139-.176l.009-.02,49.8,28.459-4.624,9.232L101.917,81.3l.008-.017a2.824,2.824,0,0,1-1.287-2.746" transform="translate(57.849 41.254)" fill="#672a5c"/>
        <path id="Trazado_833498" data-name="Trazado 833498" d="M132.129,96.62c0,2.46,1.5,3.591,3.342,2.526a8.007,8.007,0,0,0,3.34-6.384c0-2.46-1.5-3.592-3.34-2.526a8,8,0,0,0-3.342,6.384" transform="translate(75.951 51.639)" fill="#954a83"/>
        <path id="Trazado_833499" data-name="Trazado 833499" d="M35.86,130.006l-.009,0c-.006.105,0-5.622,0-5.622s5.792-1.469,5.737-1.25c-.008.033-.033.249-.066.569L118.6,79.2c5.233-3.022,13.178-3.351,17.71-.734l110.6,63.857c1.814-.176,4.735-.4,4.735-.4v5.728l0,0c.041,2.036-1.42,4.194-4.323,5.869L168.89,198.8c-5.233,3.021-13.177,3.35-17.709.734L38.9,134.71c-2.161-1.247-3.148-2.943-3.036-4.7" transform="translate(20.606 44.089)" fill="#672a5c"/>
        <path id="Trazado_833500" data-name="Trazado 833500" d="M151.185,195.949c4.532,2.617,12.477,2.287,17.709-.734l78.437-45.286c5.233-3.02,5.8-7.608,1.271-10.224L136.319,74.879c-4.532-2.617-12.477-2.287-17.709.734L40.172,120.9c-5.233,3.021-5.8,7.608-1.271,10.224Z" transform="translate(20.603 42.027)" fill="#7f3371"/>
        <path id="Trazado_833501" data-name="Trazado 833501" d="M39.442,130.221l112.285,64.828c4.019,2.321,11.106,2.027,15.747-.654l78.437-45.284c4.641-2.68,5.15-6.772,1.131-9.093L134.756,75.19c-4.019-2.32-11.106-2.027-15.747.654L40.572,121.129c-4.641,2.679-5.15,6.77-1.131,9.091" transform="translate(21.113 42.321)" fill="#954a83"/>
        <path id="Trazado_833502" data-name="Trazado 833502" d="M154.034,123.868l3.443,1.987a4.8,4.8,0,0,0,4.3-.178l3.975-2.295c1.268-.732,1.406-1.85.309-2.484l-3.443-1.987a4.794,4.794,0,0,0-4.3.178l-3.975,2.294c-1.268.732-1.406,1.849-.309,2.484" transform="translate(88.117 68.107)" fill="#7f3371"/>
        <path id="Trazado_833503" data-name="Trazado 833503" d="M147.82,120.281l3.441,1.987a4.807,4.807,0,0,0,4.3-.178l3.973-2.295c1.269-.732,1.408-1.85.31-2.483l-3.443-1.987a4.794,4.794,0,0,0-4.3.178l-3.975,2.295c-1.268.732-1.406,1.849-.309,2.483" transform="translate(84.545 66.045)" fill="#7f3371"/>
        <path id="Trazado_833504" data-name="Trazado 833504" d="M141.606,116.693l3.443,1.987a4.8,4.8,0,0,0,4.3-.178l3.975-2.295c1.268-.732,1.406-1.85.309-2.483l-3.443-1.987a4.794,4.794,0,0,0-4.3.178l-3.975,2.295c-1.268.732-1.406,1.85-.309,2.483" transform="translate(80.973 63.983)" fill="#7f3371"/>
        <path id="Trazado_833505" data-name="Trazado 833505" d="M135.392,113.105l3.441,1.987a4.807,4.807,0,0,0,4.3-.178l3.973-2.295c1.269-.732,1.408-1.85.31-2.484l-3.443-1.987a4.794,4.794,0,0,0-4.3.178l-3.975,2.295c-1.268.732-1.406,1.85-.309,2.483" transform="translate(77.401 61.921)" fill="#7f3371"/>
        <path id="Trazado_833506" data-name="Trazado 833506" d="M129.179,109.517l3.441,1.987a4.8,4.8,0,0,0,4.3-.178l3.973-2.294c1.269-.732,1.409-1.85.31-2.484l-3.443-1.987a4.794,4.794,0,0,0-4.3.178l-3.973,2.295c-1.269.732-1.408,1.85-.309,2.484" transform="translate(73.828 59.858)" fill="#7f3371"/>
        <path id="Trazado_833507" data-name="Trazado 833507" d="M122.963,105.93l3.441,1.987a4.807,4.807,0,0,0,4.3-.178l3.973-2.295c1.269-.732,1.408-1.85.31-2.483l-3.443-1.987a4.794,4.794,0,0,0-4.3.178l-3.975,2.295c-1.268.732-1.406,1.849-.309,2.483" transform="translate(70.256 57.796)" fill="#7f3371"/>
        <path id="Trazado_833508" data-name="Trazado 833508" d="M116.749,102.342l3.443,1.987a4.8,4.8,0,0,0,4.3-.18l3.975-2.293c1.268-.732,1.406-1.85.309-2.483l-3.443-1.987a4.794,4.794,0,0,0-4.3.178l-3.975,2.295c-1.268.732-1.406,1.849-.309,2.483" transform="translate(66.684 55.734)" fill="#7f3371"/>
        <path id="Trazado_833509" data-name="Trazado 833509" d="M110.535,98.754l3.441,1.987a4.807,4.807,0,0,0,4.3-.178l3.975-2.295c1.268-.732,1.406-1.85.309-2.483L119.12,93.8a4.794,4.794,0,0,0-4.3.178l-3.975,2.295c-1.268.732-1.406,1.849-.309,2.483" transform="translate(63.112 53.671)" fill="#7f3371"/>
        <path id="Trazado_833510" data-name="Trazado 833510" d="M147.178,127.827l3.441,1.987a4.807,4.807,0,0,0,4.3-.178l3.975-2.3c1.268-.731,1.406-1.849.309-2.482l-3.443-1.987a4.794,4.794,0,0,0-4.3.178l-3.975,2.295c-1.268.732-1.406,1.85-.309,2.483" transform="translate(84.176 70.383)" fill="#7f3371"/>
        <path id="Trazado_833511" data-name="Trazado 833511" d="M140.964,124.239l3.441,1.987a4.8,4.8,0,0,0,4.3-.18l3.975-2.295c1.268-.731,1.406-1.849.309-2.482l-3.443-1.987a4.794,4.794,0,0,0-4.3.178l-3.975,2.295c-1.268.732-1.406,1.849-.309,2.484" transform="translate(80.604 68.321)" fill="#7f3371"/>
        <path id="Trazado_833512" data-name="Trazado 833512" d="M134.75,120.651l3.443,1.987a4.8,4.8,0,0,0,4.3-.18l3.975-2.295c1.268-.731,1.406-1.849.309-2.482l-3.443-1.987a4.794,4.794,0,0,0-4.3.178l-3.975,2.295c-1.268.732-1.406,1.849-.309,2.483" transform="translate(77.032 66.258)" fill="#7f3371"/>
        <path id="Trazado_833513" data-name="Trazado 833513" d="M128.536,117.063l3.443,1.987a4.8,4.8,0,0,0,4.3-.178l3.973-2.3c1.269-.731,1.408-1.849.31-2.482l-3.443-1.987a4.794,4.794,0,0,0-4.3.178l-3.975,2.295c-1.268.732-1.406,1.849-.309,2.483" transform="translate(73.46 64.196)" fill="#7f3371"/>
        <path id="Trazado_833514" data-name="Trazado 833514" d="M122.321,113.476l3.443,1.987a4.8,4.8,0,0,0,4.3-.178l3.975-2.3c1.268-.731,1.406-1.849.309-2.482l-3.443-1.987a4.794,4.794,0,0,0-4.3.178l-3.975,2.295c-1.268.732-1.406,1.849-.309,2.483" transform="translate(69.887 62.134)" fill="#7f3371"/>
        <path id="Trazado_833515" data-name="Trazado 833515" d="M116.107,109.888l3.441,1.987a4.807,4.807,0,0,0,4.3-.178l3.975-2.295c1.268-.732,1.406-1.85.309-2.483l-3.443-1.987a4.794,4.794,0,0,0-4.3.178l-3.975,2.295c-1.268.732-1.406,1.85-.309,2.483" transform="translate(66.315 60.071)" fill="#7f3371"/>
        <path id="Trazado_833516" data-name="Trazado 833516" d="M109.893,106.3l3.441,1.987a4.807,4.807,0,0,0,4.3-.178l3.975-2.295c1.268-.732,1.406-1.85.309-2.484l-3.443-1.987a4.794,4.794,0,0,0-4.3.178l-3.975,2.295c-1.268.732-1.406,1.85-.309,2.483" transform="translate(62.743 58.009)" fill="#7f3371"/>
        <path id="Trazado_833517" data-name="Trazado 833517" d="M103.679,102.712l3.441,1.987a4.807,4.807,0,0,0,4.3-.178l3.975-2.295c1.268-.732,1.406-1.85.309-2.484l-3.443-1.987a4.794,4.794,0,0,0-4.3.178l-3.975,2.295c-1.268.732-1.406,1.85-.309,2.484" transform="translate(59.172 55.946)" fill="#7f3371"/>
        <path id="Trazado_833518" data-name="Trazado 833518" d="M97.465,99.125l3.443,1.987a4.8,4.8,0,0,0,4.3-.178l3.975-2.295c1.268-.732,1.406-1.85.309-2.483l-3.443-1.987a4.794,4.794,0,0,0-4.3.178l-3.975,2.295c-1.268.732-1.406,1.85-.309,2.484" transform="translate(55.6 53.885)" fill="#7f3371"/>
        <path id="Trazado_833519" data-name="Trazado 833519" d="M91.251,95.537l3.443,1.987a4.8,4.8,0,0,0,4.3-.178l3.975-2.295c1.268-.732,1.406-1.85.309-2.483l-3.443-1.987a4.794,4.794,0,0,0-4.3.178L91.56,93.054c-1.268.732-1.406,1.85-.309,2.483" transform="translate(52.028 51.822)" fill="#7f3371"/>
        <path id="Trazado_833520" data-name="Trazado 833520" d="M85.038,91.949l3.439,1.987a4.806,4.806,0,0,0,4.3-.18l3.973-2.295c1.268-.731,1.408-1.849.309-2.482L93.62,86.993a4.794,4.794,0,0,0-4.3.178l-3.973,2.295c-1.268.732-1.408,1.849-.309,2.483" transform="translate(48.455 49.76)" fill="#7f3371"/>
        <path id="Trazado_833521" data-name="Trazado 833521" d="M78.822,88.361l3.443,1.987a4.8,4.8,0,0,0,4.3-.178l3.975-2.3c1.268-.731,1.406-1.849.309-2.482l-3.443-1.987a4.794,4.794,0,0,0-4.3.178l-3.975,2.295c-1.268.732-1.406,1.849-.309,2.483" transform="translate(44.883 47.697)" fill="#7f3371"/>
        <path id="Trazado_833522" data-name="Trazado 833522" d="M140.322,131.785l3.443,1.987a4.8,4.8,0,0,0,4.3-.18l3.975-2.294c1.268-.731,1.406-1.849.309-2.482l-3.443-1.987a4.794,4.794,0,0,0-4.3.178l-3.975,2.295c-1.268.732-1.406,1.85-.309,2.484" transform="translate(80.235 72.658)" fill="#7f3371"/>
        <path id="Trazado_833523" data-name="Trazado 833523" d="M134.108,128.2l3.443,1.987a4.8,4.8,0,0,0,4.3-.178l3.975-2.3c1.268-.731,1.406-1.849.309-2.482l-3.443-1.987a4.794,4.794,0,0,0-4.3.178l-3.975,2.295c-1.268.732-1.406,1.849-.309,2.484" transform="translate(76.663 70.596)" fill="#7f3371"/>
        <path id="Trazado_833524" data-name="Trazado 833524" d="M127.894,124.609l3.443,1.987a4.8,4.8,0,0,0,4.3-.18l3.975-2.293c1.268-.732,1.406-1.85.309-2.483l-3.443-1.987a4.794,4.794,0,0,0-4.3.178l-3.975,2.295c-1.268.732-1.406,1.85-.309,2.483" transform="translate(73.091 68.533)" fill="#7f3371"/>
        <path id="Trazado_833525" data-name="Trazado 833525" d="M121.68,121.022l3.441,1.987a4.8,4.8,0,0,0,4.3-.18l3.975-2.293c1.268-.732,1.406-1.85.309-2.484l-3.443-1.987a4.794,4.794,0,0,0-4.3.178l-3.975,2.295c-1.268.732-1.406,1.85-.309,2.483" transform="translate(69.519 66.471)" fill="#7f3371"/>
        <path id="Trazado_833526" data-name="Trazado 833526" d="M115.467,117.434l3.443,1.987a4.8,4.8,0,0,0,4.3-.178l3.973-2.295c1.268-.732,1.408-1.85.309-2.484l-3.443-1.987a4.794,4.794,0,0,0-4.3.178l-3.973,2.295c-1.268.732-1.408,1.85-.309,2.484" transform="translate(65.947 64.409)" fill="#7f3371"/>
        <path id="Trazado_833527" data-name="Trazado 833527" d="M109.251,113.846l3.441,1.987a4.8,4.8,0,0,0,4.3-.18l3.975-2.295c1.268-.731,1.406-1.849.309-2.482l-3.443-1.987a4.794,4.794,0,0,0-4.3.178l-3.975,2.295c-1.268.732-1.406,1.849-.309,2.483" transform="translate(62.374 62.346)" fill="#7f3371"/>
        <path id="Trazado_833528" data-name="Trazado 833528" d="M103.037,110.258l3.443,1.987a4.794,4.794,0,0,0,4.3-.18l3.975-2.295c1.268-.729,1.406-1.847.309-2.48l-3.443-1.989a4.8,4.8,0,0,0-4.3.178l-3.975,2.295c-1.268.732-1.406,1.849-.309,2.483" transform="translate(58.802 60.284)" fill="#7f3371"/>
        <path id="Trazado_833529" data-name="Trazado 833529" d="M90.609,103.083l13.229,7.636a4.794,4.794,0,0,0,4.3-.178l3.975-2.295c1.268-.732,1.406-1.849.309-2.483L99.194,98.127a4.794,4.794,0,0,0-4.3.178L90.918,100.6c-1.268.732-1.406,1.849-.309,2.483" transform="translate(51.659 56.16)" fill="#7f3371"/>
        <path id="Trazado_833530" data-name="Trazado 833530" d="M84.4,99.5l3.443,1.987a4.8,4.8,0,0,0,4.3-.178l3.975-2.295c1.268-.732,1.406-1.85.309-2.484L92.98,94.539a4.794,4.794,0,0,0-4.3.178L84.7,97.012c-1.268.732-1.406,1.85-.309,2.483" transform="translate(48.087 54.097)" fill="#7f3371"/>
        <path id="Trazado_833531" data-name="Trazado 833531" d="M78.18,95.907l3.443,1.987a4.8,4.8,0,0,0,4.3-.18L89.9,95.422c1.268-.732,1.406-1.85.309-2.484l-3.443-1.987a4.794,4.794,0,0,0-4.3.178l-3.975,2.295c-1.268.732-1.406,1.85-.309,2.484" transform="translate(44.514 52.035)" fill="#7f3371"/>
        <path id="Trazado_833532" data-name="Trazado 833532" d="M71.966,92.32l3.441,1.987a4.8,4.8,0,0,0,4.3-.18l3.975-2.295c1.268-.731,1.406-1.849.309-2.482l-3.443-1.987a4.794,4.794,0,0,0-4.3.178l-3.975,2.295c-1.268.732-1.406,1.849-.309,2.484" transform="translate(40.942 49.973)" fill="#7f3371"/>
        <path id="Trazado_833533" data-name="Trazado 833533" d="M133.466,135.743l3.441,1.987a4.807,4.807,0,0,0,4.3-.178l3.975-2.295c1.268-.732,1.406-1.85.309-2.483l-3.443-1.987a4.794,4.794,0,0,0-4.3.178l-3.975,2.295c-1.268.732-1.406,1.849-.309,2.483" transform="translate(76.294 74.933)" fill="#7f3371"/>
        <path id="Trazado_833534" data-name="Trazado 833534" d="M127.252,132.155l3.441,1.987a4.8,4.8,0,0,0,4.3-.18l3.973-2.293c1.268-.732,1.408-1.85.31-2.483l-3.443-1.987a4.8,4.8,0,0,0-4.3.178l-3.973,2.295c-1.268.732-1.406,1.849-.309,2.483" transform="translate(72.722 72.871)" fill="#7f3371"/>
        <path id="Trazado_833535" data-name="Trazado 833535" d="M121.038,128.568l3.443,1.987a4.8,4.8,0,0,0,4.3-.178l3.973-2.295c1.269-.732,1.408-1.85.31-2.483l-3.443-1.987a4.794,4.794,0,0,0-4.3.178l-3.975,2.295c-1.268.732-1.406,1.849-.309,2.483" transform="translate(69.15 70.809)" fill="#7f3371"/>
        <path id="Trazado_833536" data-name="Trazado 833536" d="M114.824,124.98l3.443,1.987a4.8,4.8,0,0,0,4.3-.178l3.975-2.295c1.268-.732,1.406-1.85.309-2.484l-3.443-1.987a4.794,4.794,0,0,0-4.3.178l-3.975,2.295c-1.268.732-1.406,1.849-.309,2.483" transform="translate(65.578 68.747)" fill="#7f3371"/>
        <path id="Trazado_833537" data-name="Trazado 833537" d="M108.611,121.392l3.441,1.987a4.807,4.807,0,0,0,4.3-.178l3.973-2.295c1.268-.732,1.408-1.85.309-2.483l-3.443-1.987a4.794,4.794,0,0,0-4.3.178l-3.975,2.295c-1.268.732-1.406,1.85-.307,2.484" transform="translate(62.005 66.684)" fill="#7f3371"/>
        <path id="Trazado_833538" data-name="Trazado 833538" d="M102.4,117.8l3.441,1.987a4.807,4.807,0,0,0,4.3-.178l3.975-2.295c1.268-.732,1.406-1.85.309-2.483l-3.443-1.987a4.794,4.794,0,0,0-4.3.178l-3.975,2.295c-1.268.732-1.406,1.85-.309,2.483" transform="translate(58.433 64.622)" fill="#7f3371"/>
        <path id="Trazado_833539" data-name="Trazado 833539" d="M96.181,114.217l3.441,1.987a4.807,4.807,0,0,0,4.3-.178l3.973-2.295c1.268-.732,1.408-1.85.31-2.484l-3.443-1.987a4.8,4.8,0,0,0-4.3.178l-3.973,2.295c-1.268.732-1.406,1.85-.309,2.483" transform="translate(54.861 62.56)" fill="#7f3371"/>
        <path id="Trazado_833540" data-name="Trazado 833540" d="M89.967,110.629l3.443,1.987a4.8,4.8,0,0,0,4.3-.178l3.973-2.295c1.269-.732,1.408-1.85.31-2.484l-3.443-1.987a4.794,4.794,0,0,0-4.3.178l-3.975,2.295c-1.268.732-1.406,1.849-.309,2.484" transform="translate(51.29 60.497)" fill="#7f3371"/>
        <path id="Trazado_833541" data-name="Trazado 833541" d="M83.753,107.041l3.443,1.987a4.8,4.8,0,0,0,4.3-.178l3.975-2.295c1.268-.732,1.406-1.85.309-2.483l-3.443-1.987a4.794,4.794,0,0,0-4.3.178l-3.975,2.295c-1.268.732-1.406,1.849-.309,2.483" transform="translate(47.718 58.435)" fill="#7f3371"/>
        <path id="Trazado_833542" data-name="Trazado 833542" d="M77.539,103.453l3.443,1.987a4.8,4.8,0,0,0,4.3-.178l3.975-2.295c1.268-.732,1.406-1.85.309-2.484L86.124,98.5a4.794,4.794,0,0,0-4.3.178l-3.975,2.295c-1.268.732-1.406,1.85-.309,2.483" transform="translate(44.146 56.372)" fill="#7f3371"/>
        <path id="Trazado_833543" data-name="Trazado 833543" d="M71.325,99.866l3.441,1.987a4.8,4.8,0,0,0,4.3-.18l3.975-2.293c1.266-.732,1.406-1.85.309-2.483L79.91,94.91a4.794,4.794,0,0,0-4.3.178l-3.975,2.295c-1.268.732-1.406,1.849-.309,2.483" transform="translate(40.574 54.31)" fill="#7f3371"/>
        <path id="Trazado_833544" data-name="Trazado 833544" d="M65.11,96.278l3.441,1.987a4.807,4.807,0,0,0,4.3-.178l3.973-2.295c1.268-.732,1.408-1.85.31-2.483l-3.443-1.987a4.794,4.794,0,0,0-4.3.178l-3.975,2.295c-1.268.732-1.406,1.849-.309,2.483" transform="translate(37.001 52.248)" fill="#7f3371"/>
        <path id="Trazado_833545" data-name="Trazado 833545" d="M126.61,139.7l3.441,1.987a4.807,4.807,0,0,0,4.3-.178l3.973-2.295c1.269-.732,1.408-1.85.31-2.483l-3.443-1.987a4.794,4.794,0,0,0-4.3.178l-3.975,2.295c-1.268.732-1.406,1.849-.309,2.483" transform="translate(72.353 77.209)" fill="#7f3371"/>
        <path id="Trazado_833546" data-name="Trazado 833546" d="M120.4,136.114l3.443,1.987a4.8,4.8,0,0,0,4.3-.178l3.975-2.295c1.268-.732,1.406-1.85.309-2.483l-3.443-1.987a4.794,4.794,0,0,0-4.3.178l-3.975,2.295c-1.268.732-1.406,1.85-.309,2.483" transform="translate(68.781 75.147)" fill="#7f3371"/>
        <path id="Trazado_833547" data-name="Trazado 833547" d="M114.182,132.526l3.443,1.987a4.8,4.8,0,0,0,4.3-.178l3.973-2.295c1.269-.732,1.408-1.85.31-2.484l-3.443-1.987a4.794,4.794,0,0,0-4.3.178l-3.975,2.295c-1.268.732-1.406,1.85-.309,2.484" transform="translate(65.209 73.084)" fill="#7f3371"/>
        <path id="Trazado_833548" data-name="Trazado 833548" d="M89.325,118.175l32.8,18.937a4.8,4.8,0,0,0,4.3-.178l3.973-2.295c1.268-.732,1.408-1.85.309-2.483l-32.8-18.937a4.794,4.794,0,0,0-4.3.178l-3.975,2.295c-1.268.732-1.406,1.849-.309,2.483" transform="translate(50.921 64.835)" fill="#7f3371"/>
        <path id="Trazado_833549" data-name="Trazado 833549" d="M83.111,114.587l3.443,1.987a4.8,4.8,0,0,0,4.3-.178L94.83,114.1c1.268-.732,1.406-1.85.309-2.483L91.7,109.631a4.794,4.794,0,0,0-4.3.178L83.42,112.1c-1.268.732-1.406,1.849-.309,2.484" transform="translate(47.349 62.772)" fill="#7f3371"/>
        <path id="Trazado_833550" data-name="Trazado 833550" d="M76.9,111l3.441,1.987a4.807,4.807,0,0,0,4.3-.178l3.975-2.295c1.268-.732,1.406-1.85.309-2.483l-3.443-1.987a4.794,4.794,0,0,0-4.3.178l-3.975,2.295c-1.268.732-1.406,1.85-.309,2.483" transform="translate(43.777 60.71)" fill="#7f3371"/>
        <path id="Trazado_833551" data-name="Trazado 833551" d="M70.683,107.412l3.441,1.987a4.807,4.807,0,0,0,4.3-.178l3.973-2.295c1.269-.732,1.408-1.85.31-2.484l-3.443-1.987a4.794,4.794,0,0,0-4.3.178l-3.975,2.295c-1.268.732-1.406,1.85-.309,2.483" transform="translate(40.205 58.648)" fill="#7f3371"/>
        <path id="Trazado_833552" data-name="Trazado 833552" d="M64.47,103.824l3.441,1.987a4.807,4.807,0,0,0,4.3-.178l3.973-2.295c1.268-.732,1.408-1.85.309-2.484l-3.443-1.987a4.794,4.794,0,0,0-4.3.178l-3.973,2.295c-1.268.732-1.408,1.849-.309,2.484" transform="translate(36.632 56.586)" fill="#7f3371"/>
        <path id="Trazado_833553" data-name="Trazado 833553" d="M58.254,100.236l3.443,1.987a4.8,4.8,0,0,0,4.3-.178l3.973-2.295c1.269-.732,1.408-1.85.31-2.483L66.839,95.28a4.794,4.794,0,0,0-4.3.178l-3.975,2.295c-1.268.732-1.406,1.849-.309,2.484" transform="translate(33.06 54.523)" fill="#7f3371"/>
        <path id="Trazado_833554" data-name="Trazado 833554" d="M104.321,95.166l3.441,1.987a4.807,4.807,0,0,0,4.3-.178l3.973-2.295c1.268-.732,1.408-1.85.31-2.483l-3.443-1.987a4.8,4.8,0,0,0-4.3.178l-3.973,2.295c-1.268.732-1.406,1.849-.309,2.483" transform="translate(59.541 51.609)" fill="#7f3371"/>
        <path id="Trazado_833555" data-name="Trazado 833555" d="M98.107,91.579l3.441,1.987a4.807,4.807,0,0,0,4.3-.178l3.973-2.295c1.269-.732,1.408-1.85.31-2.484l-3.443-1.987a4.794,4.794,0,0,0-4.3.178L98.416,89.1c-1.268.732-1.406,1.85-.309,2.483" transform="translate(55.969 49.547)" fill="#7f3371"/>
        <path id="Trazado_833556" data-name="Trazado 833556" d="M91.892,87.991l3.443,1.987a4.8,4.8,0,0,0,4.3-.178l3.973-2.295c1.269-.732,1.408-1.85.31-2.484l-3.443-1.987a4.794,4.794,0,0,0-4.3.178L92.2,85.508c-1.268.732-1.406,1.85-.309,2.484" transform="translate(52.396 47.484)" fill="#7f3371"/>
        <path id="Trazado_833557" data-name="Trazado 833557" d="M85.678,84.4l3.443,1.987a4.8,4.8,0,0,0,4.3-.178L97.4,83.918c1.268-.732,1.406-1.85.309-2.483l-3.443-1.987a4.794,4.794,0,0,0-4.3.178L85.987,81.92c-1.268.732-1.406,1.85-.309,2.484" transform="translate(48.824 45.422)" fill="#7f3371"/>
        <path id="Trazado_833558" data-name="Trazado 833558" d="M92.041,79.287l4.8,2.773a3.16,3.16,0,0,0,2.835-.118l1.572-.907c.836-.482.928-1.219.2-1.636l-4.8-2.773a3.168,3.168,0,0,0-2.836.117l-1.572.909c-.835.482-.928,1.219-.2,1.636" transform="translate(52.627 43.884)" fill="#7f3371"/>
        <path id="Trazado_833559" data-name="Trazado 833559" d="M98.255,82.875l4.8,2.773a3.164,3.164,0,0,0,2.836-.118l1.572-.907c.835-.483.928-1.219.2-1.638l-4.8-2.772a3.163,3.163,0,0,0-2.836.117l-1.572.909c-.835.482-.928,1.219-.2,1.636" transform="translate(56.199 45.946)" fill="#7f3371"/>
        <path id="Trazado_833560" data-name="Trazado 833560" d="M104.469,86.463l4.8,2.773a3.164,3.164,0,0,0,2.836-.118l1.572-.907c.836-.482.928-1.219.2-1.638l-4.8-2.772a3.163,3.163,0,0,0-2.836.117l-1.572.907c-.836.483-.928,1.22-.2,1.638" transform="translate(59.77 48.008)" fill="#7f3371"/>
        <path id="Trazado_833561" data-name="Trazado 833561" d="M110.683,90.051l4.8,2.773a3.166,3.166,0,0,0,2.835-.118l1.572-.907c.836-.482.928-1.219.2-1.638l-4.8-2.772a3.16,3.16,0,0,0-2.835.117l-1.572.907c-.835.483-.928,1.22-.2,1.638" transform="translate(63.343 50.071)" fill="#7f3371"/>
        <path id="Trazado_833562" data-name="Trazado 833562" d="M116.9,93.639l4.8,2.773a3.166,3.166,0,0,0,2.835-.118l1.572-.907c.836-.483.928-1.219.2-1.638l-4.8-2.772a3.163,3.163,0,0,0-2.836.117L117.1,92c-.835.483-.928,1.22-.2,1.638" transform="translate(66.914 52.133)" fill="#7f3371"/>
        <path id="Trazado_833563" data-name="Trazado 833563" d="M123.112,97.226l4.8,2.773a3.16,3.16,0,0,0,2.835-.118l1.572-.907c.836-.482.928-1.219.2-1.636l-4.8-2.773a3.159,3.159,0,0,0-2.836.118l-1.572.907c-.835.482-.928,1.219-.2,1.636" transform="translate(70.487 54.195)" fill="#7f3371"/>
        <path id="Trazado_833564" data-name="Trazado 833564" d="M129.326,100.814l4.8,2.773a3.164,3.164,0,0,0,2.836-.118l1.572-.907c.835-.482.928-1.219.2-1.638l-4.8-2.772a3.159,3.159,0,0,0-2.836.118l-1.572.907c-.836.482-.928,1.219-.2,1.636" transform="translate(74.059 56.258)" fill="#7f3371"/>
        <path id="Trazado_833565" data-name="Trazado 833565" d="M135.54,104.4l4.8,2.773a3.169,3.169,0,0,0,2.836-.118l1.572-.907c.836-.482.928-1.219.2-1.638l-4.8-2.772a3.163,3.163,0,0,0-2.836.117l-1.572.907c-.835.483-.928,1.22-.2,1.638" transform="translate(77.631 58.32)" fill="#7f3371"/>
        <path id="Trazado_833566" data-name="Trazado 833566" d="M141.754,107.99l4.8,2.773a3.16,3.16,0,0,0,2.835-.118l1.572-.907c.836-.483.928-1.219.2-1.638l-4.8-2.772a3.163,3.163,0,0,0-2.836.117l-1.572.907c-.835.483-.928,1.22-.2,1.638" transform="translate(81.203 60.383)" fill="#7f3371"/>
        <path id="Trazado_833567" data-name="Trazado 833567" d="M147.968,111.577l4.8,2.773a3.161,3.161,0,0,0,2.835-.118l1.572-.907c.836-.483.928-1.219.2-1.638l-4.8-2.772a3.163,3.163,0,0,0-2.836.117l-1.572.907c-.835.483-.928,1.22-.2,1.638" transform="translate(84.775 62.444)" fill="#7f3371"/>
        <path id="Trazado_833568" data-name="Trazado 833568" d="M154.184,115.165l4.8,2.773a3.169,3.169,0,0,0,2.836-.118l1.572-.907c.836-.482.928-1.219.2-1.638l-4.8-2.772a3.16,3.16,0,0,0-2.835.117l-1.573.907c-.833.483-.928,1.22-.2,1.638" transform="translate(88.347 64.507)" fill="#7f3371"/>
        <path id="Trazado_833569" data-name="Trazado 833569" d="M160.4,118.753l4.8,2.773a3.169,3.169,0,0,0,2.836-.118l1.572-.907c.836-.483.928-1.219.2-1.638l-4.8-2.772a3.163,3.163,0,0,0-2.836.117l-1.572.907c-.835.483-.926,1.22-.2,1.638" transform="translate(91.919 66.569)" fill="#7f3371"/>
        <path id="Trazado_833570" data-name="Trazado 833570" d="M68.809,128.689l30.345,17.52a7.748,7.748,0,0,0,6.947-.288l15.5-8.951c2.049-1.183,2.272-2.987.5-4.011L91.76,115.438a7.751,7.751,0,0,0-6.948.288l-15.5,8.951c-2.049,1.183-2.272,2.987-.5,4.011" transform="translate(38.865 65.959)" fill="#7f3371"/>
        <path id="Trazado_833571" data-name="Trazado 833571" d="M163.217,130.983l8.592-4.961a1.949,1.949,0,0,0,.811-1.55c0-.594-.365-.871-.811-.613l-8.592,4.961a1.949,1.949,0,0,0-.811,1.55c0,.594.365.869.811.613" transform="translate(93.355 71.142)" fill="#fff"/>
        <path id="Trazado_833572" data-name="Trazado 833572" d="M155.151,135.726l8.592-4.961a1.949,1.949,0,0,0,.811-1.55c0-.594-.365-.871-.811-.613l-8.592,4.961a1.949,1.949,0,0,0-.811,1.55c0,.594.365.871.811.613" transform="translate(88.718 73.868)" fill="#fff"/>
        <path id="Trazado_833573" data-name="Trazado 833573" d="M130.7,149.849l8.592-4.961a1.948,1.948,0,0,0,.811-1.55c0-.6-.365-.871-.811-.613l-8.592,4.961a1.949,1.949,0,0,0-.811,1.55c0,.594.365.869.811.613" transform="translate(74.662 81.987)" fill="#fff"/>
        <path id="Trazado_833574" data-name="Trazado 833574" d="M97.3,2.66,101.27.379l.006,0a2.56,2.56,0,0,1,2.85.1L222.09,68.594c2.274,1.312,4.134,4.866,4.134,7.9v99.083a3.714,3.714,0,0,1-1.348,3.261l0,.016-4.25,2.441-2.134-4.671L104.126,110.593c-2.274-1.313-4.134-4.868-4.134-7.9V5.591c-.82.528-1.461.931-1.51.931-.14,0-1.181-3.861-1.181-3.861" transform="translate(55.931 0)" fill="#672a5c"/>
        <path id="Trazado_833575" data-name="Trazado 833575" d="M218.393,180.263,100.427,112.156c-2.272-1.313-4.132-4.868-4.132-7.9V5.175c0-3.032,1.86-4.438,4.132-3.126L218.393,70.157c2.274,1.312,4.134,4.866,4.134,7.9v99.083c0,3.032-1.86,4.438-4.134,3.124" transform="translate(55.353 0.896)" fill="#7f3371"/>
        <path id="Trazado_833576" data-name="Trazado 833576" d="M217.067,177.657,101.009,110.652c-2.236-1.291-4.066-4.789-4.066-7.77V6.106c0-2.983,1.83-4.365,4.066-3.074L217.067,70.037c2.236,1.291,4.068,4.789,4.068,7.77v96.776c0,2.983-1.832,4.365-4.068,3.074" transform="translate(55.725 1.464)" fill="#954a83"/>
        <path id="Trazado_833577" data-name="Trazado 833577" d="M99.308,8.189l116.742,67.4v90.423L99.308,98.612Z" transform="translate(57.084 4.707)" fill="#fff"/>
        <path id="Trazado_833578" data-name="Trazado 833578" d="M138.486,28.426c0,1.071-.65,1.562-1.454,1.1a3.486,3.486,0,0,1-1.454-2.776c0-1.071.652-1.562,1.454-1.1a3.479,3.479,0,0,1,1.454,2.776" transform="translate(77.934 14.644)" fill="#fff"/>
        <path id="Trazado_833579" data-name="Trazado 833579" d="M133.8,25.482c0,.866-.528,1.265-1.176.89a2.819,2.819,0,0,1-1.178-2.249c0-.866.528-1.265,1.178-.89a2.822,2.822,0,0,1,1.176,2.249" transform="translate(75.556 13.274)" fill="#fff"/>
        <path id="Trazado_833580" data-name="Trazado 833580" d="M176.754,53.546a.193.193,0,0,0-.386,0c-.216,4.335-.019,8.7-.072,13.038-.054,4.324-.013,8.712.23,13.029.016.272.457.458.457-.121,0-7.945.657-17.633-.228-25.945" transform="translate(101.321 30.672)" fill="#fff"/>
        <path id="Trazado_833581" data-name="Trazado 833581" d="M179.824,48.993c-3.142-2.326-17.255-10.5-22.567-13.3-.817-.432-1.2-.247-.387.386,4.039,3.135,19.032,11.956,22.632,13.466.3.128.819-.186.323-.554" transform="translate(89.913 20.384)" fill="#fff"/>
        <path id="Trazado_833582" data-name="Trazado 833582" d="M161.7,38.563c-3.14-2.326-17.257-10.5-22.566-13.3-.817-.432-1.2-.247-.387.386,4.039,3.135,19.032,11.956,22.63,13.466.3.128.82-.186.323-.554" transform="translate(79.495 14.388)" fill="#fff"/>
        <path id="Trazado_833583" data-name="Trazado 833583" d="M98.722,145.169c7.376,3.575,15,9.857,23.792,10.835,5.121.568,9.284-2.072,13.624-4.408,3.729-2.006,7.336-4.268,11.12-6.167a.085.085,0,0,1,.085.146,126.907,126.907,0,0,1-13.046,8.132c-3.754,2.106-7.715,3.806-12.115,3.406-7.495-.68-17.359-6.63-23.652-11.7-.151-.123.046-.32.192-.249" transform="translate(56.606 83.438)" fill="#fff"/>
        <path id="Trazado_833584" data-name="Trazado 833584" d="M141.156,78.761c-8.1-3.728-18.652-5.989-30.205-5.989s-22.1,2.26-30.2,5.987L110.956,96.2Z" transform="translate(46.417 41.831)" fill="#ff5a72"/>
        <path id="Trazado_833585" data-name="Trazado 833585" d="M80.752,76.574V92.141l30.2,17.438V94.012Z" transform="translate(46.418 44.017)" fill="#ed4069"/>
        <path id="Trazado_833586" data-name="Trazado 833586" d="M130.132,76.575v39.476l-30.2,17.436V94.012Z" transform="translate(57.443 44.017)" fill="#e43c5d"/>
        <path id="Trazado_833587" data-name="Trazado 833587" d="M70.6,98.261V122.2c0,6.866,5.3,13.073,13.841,17.531V109.645Z" transform="translate(40.58 56.483)" fill="#a3c6d8"/>
        <path id="Trazado_833588" data-name="Trazado 833588" d="M140.764,121.613V97.679l-13.84,10.047v31.416c8.539-4.458,13.84-10.663,13.84-17.529" transform="translate(72.959 56.148)" fill="#f99e4b"/>
        <path id="Trazado_833589" data-name="Trazado 833589" d="M138.734,121.995c8.537-4.458,13.84-10.665,13.84-17.532,0-7.425-6.2-14.077-15.992-18.584l-30.2,17.436Z" transform="translate(61.149 49.365)" fill="#fed03d"/>
        <path id="Trazado_833590" data-name="Trazado 833590" d="M106.379,96.95v23.931l32.355,18.679V115.631Z" transform="translate(61.149 55.729)" fill="#f8b505"/>
        <path id="Trazado_833591" data-name="Trazado 833591" d="M79.384,116.807v12.26c8.334,4.351,19.751,7.039,32.353,7.039s24.024-2.688,32.359-7.041V116.8Z" transform="translate(45.632 67.142)" fill="#c66bc6"/>
        <path id="Trazado_833592" data-name="Trazado 833592" d="M70.6,105.045c0,6.868,5.3,13.074,13.841,17.534L116.794,103.9,86.59,86.459c-9.792,4.506-16,11.159-16,18.586" transform="translate(40.58 49.699)" fill="#dceaf4"/>
        <path id="Trazado_833593" data-name="Trazado 833593" d="M79.384,123.625c8.334,4.353,19.751,7.039,32.353,7.039s24.024-2.688,32.359-7.041l-32.355-18.681Z" transform="translate(45.632 60.324)" fill="#e79ce1"/>
        <path id="Trazado_833594" data-name="Trazado 833594" d="M111.742,97.532V109.2L79.384,127.885V116.214Z" transform="translate(45.632 56.064)" fill="#bdd6e5"/>
        <path id="Trazado_833595" data-name="Trazado 833595" d="M12.323,144.362a23.178,23.178,0,0,0-.82,5.5,4.084,4.084,0,0,0,1.208,3.175,1.207,1.207,0,0,0,1.323.386s.28,4.156,2.25,5.835a8.421,8.421,0,0,0,7.183,1.23c1.641-.609.562-3.586-1.043-6.5s-3.654-6.057-4.165-8.693c-3.929-.542-5.936-.928-5.936-.928" transform="translate(6.606 82.983)" fill="#672a5c"/>
        <path id="Trazado_833596" data-name="Trazado 833596" d="M24.363,138.6a20.543,20.543,0,0,1-.646,3.058,8.365,8.365,0,0,0,.107,3.743,2.25,2.25,0,0,0,1.786,1.244,5.636,5.636,0,0,0,2.441-.058,18,18,0,0,0,3.06,2.83,14.171,14.171,0,0,0,6.6,2.021c1.679-.255,2.576-1.564,2.449-2.408s-2.107-3.183-3.729-4.194a33.235,33.235,0,0,1-4.169-3.655,19.988,19.988,0,0,1-2.069-2.695Z" transform="translate(13.528 79.606)" fill="#672a5c"/>
        <path id="Trazado_833597" data-name="Trazado 833597" d="M37.551,144.676c1.079-6.347,2.335-5.918,2.309-11.816-.014-2.9-1.05-9.528-3.148-23.288-1.088-7.147-2.787-8.345-5.036-12.851-.233-.465-7.469,3.243-10.769,4.991-.3.159-3.176,7.776-1.917,13.726.483,2.282,7.965,17.723,10.54,20.583-6.43,6.348-4.863,12.2-2.913,27.974,1.644,2.208,4.625,2,7.608.255,0-3.243,2.6-15.312,3.326-19.573" transform="translate(10.733 55.574)" fill="#672a5c"/>
        <path id="Trazado_833598" data-name="Trazado 833598" d="M30.064,114.574c4.046-4.948,3.211-8.706,1.269-14.594-.106-.321-16.925-2.573-17.131-2.213-6.38,11.18-5.517,29.095-.866,40.041-2.17,5.3-1.129,6.173-2.751,13.166-1.4,6.032-.644,12.66-.293,20.2,2.3,1.575,8.879,2.425,10.028-.417,3.959-9.451,7-18.948,4.307-29.055,1.213-3.18,5.113-19.095,5.436-27.123" transform="translate(5.538 56.176)" fill="#7f3371"/>
        <path id="Trazado_833599" data-name="Trazado 833599" d="M24.545,70.615a1.983,1.983,0,0,1,2.143-.9c3.132.387,4.176.123,6.638,3.024,2.2,2.594,3.816,4.643,3.932,7.581,7.131,9.441,7.547,12.455,7.079,15.7-.15,1.03-6.433,2.587-7.614,1.868-1.249-.762-3.943-8.534-4.97-9.573-.847-.858-5.537-5.7-6-8.025-.387-1.924-.789-3.847-1.145-5.776-.211-1.137-.706-2.775-.058-3.9" transform="translate(13.924 40.059)" fill="#7f3371"/>
        <path id="Trazado_833600" data-name="Trazado 833600" d="M34.008,71.321c-4.082-1.709-8.94.5-8.762.3.123-.139-5.666,3.211-5.674,3.232-4.132,1.542-8.37,2.658-10.8,8.211-1.184,2.7,3.077,8.491,4.854,16.329.8,3.526.883,8.554-.42,10.9-.912,1.639-2.923,4.093,2.975,5.947,1.717.539,9.685,3.619,14.332,2.756,2.15-.4,12.487-6.124,9.332-8.315a2.184,2.184,0,0,1-.918-2.791,6.149,6.149,0,0,0,1.027-4.268c-.943-4.324-.178-6.027.461-9.41,2.991-3.131.348-7.85-1.485-12.9-1.244-3.422-.731-8.239-4.92-9.992" transform="translate(4.923 40.622)" fill="#fff"/>
        <path id="Trazado_833601" data-name="Trazado 833601" d="M28.047,71.484c0-.058,0-.126.006-.187-2.422.37-5.617-1.019-7.713-2.482a34.4,34.4,0,0,1-3.106,6.573c.912.046,2.713,2.556,4.208,5.192.635,1.12,3.375,4.016,5.1,3.346,2.657-1.03,1.328-3.158,1.406-6.148.054-2.1.1-4.2.1-6.295" transform="translate(9.906 39.556)" fill="#ffb9a4"/>
        <path id="Trazado_833602" data-name="Trazado 833602" d="M27.132,88a45.95,45.95,0,0,0-1.63-6.1l0,0a18.989,18.989,0,0,1,.806-3.1L23.695,77.76,22.167,79.6s.869,2.043,1.877,2.578c-.055,2.671-.151,7.561-.209,12-.091,7.084,0,12.177,0,12.177a16.02,16.02,0,0,0,3.361,3.471,17.422,17.422,0,0,0,1.632-4.783S27.891,92.053,27.132,88" transform="translate(12.742 44.698)" fill="#ff5a72"/>
        <path id="Trazado_833603" data-name="Trazado 833603" d="M15.93,73.022a34.876,34.876,0,0,1,6.2,3.4C24.582,78.45,25.752,79,26.973,80.17c.115-.293.447-5.8.447-5.8s2.043.257,2.027.294a7.275,7.275,0,0,1,1.633,3.318,11.316,11.316,0,0,1-.362,4.844l-3.4-2.076L24.993,84.9a86.557,86.557,0,0,1-6.61-6.255,11.65,11.65,0,0,1-2.454-5.621" transform="translate(9.157 41.975)" fill="#fff"/>
        <path id="Trazado_833604" data-name="Trazado 833604" d="M25.5,71.074a6.26,6.26,0,0,1,5.835,4.049A42.3,42.3,0,0,1,34.7,91.69c.044,4.858-1.022,11.2-.2,14.662.707,2.975,4.65,13.926,4.65,13.926s-.3,4.5-1.757,6.271a4.883,4.883,0,0,1-3.92,2.095s-2.444-13.578-2.691-15.718-1.05-13.449-.83-16.8S28.255,81.584,27.5,79.1s-5.329-7.57-5.329-7.57Z" transform="translate(12.742 40.853)" fill="#954a83"/>
        <path id="Trazado_833605" data-name="Trazado 833605" d="M23.835,74.323a20.375,20.375,0,0,1,2.42,4.315c1.079,2.6,1.424,8.3,1.731,11.628a65.459,65.459,0,0,0,1.025,6.676A33.148,33.148,0,0,0,30.5,90.86c.231-2.46.546-4.354.546-4.354l-1.718-1.345,1.592-3.846s-4.2-9.148-5.975-9.679-1.11,2.687-1.11,2.687" transform="translate(13.631 41.144)" fill="#7f3371"/>
        <path id="Trazado_833606" data-name="Trazado 833606" d="M22.272,72.3a38.79,38.79,0,0,1,6.476,15.684c1.472,9.1.543,18.479,0,24.981-.685,8.2-1.293,19.874-1.293,19.874s-8.153,1.346-12.725.378c-4.885-1.035-6.6-5.817-6.6-5.817a75.475,75.475,0,0,1,4.151-22.081c1.364-3.975.5-12.6-1.117-17.566-.959-2.953.435-8.846,2.917-11.532,1.691-1.832,5.824-2.621,8.2-3.921" transform="translate(4.67 41.56)" fill="#954a83"/>
        <path id="Trazado_833607" data-name="Trazado 833607" d="M19.53,71.464s-2.857.178-3.942,2.353a18.138,18.138,0,0,1,2.244,5.424,27.581,27.581,0,0,1,.35,5.939l3.224,1.441-1.883,3.323,5.589,7.232s.836-9.526-1.369-16.41-4.213-9.3-4.213-9.3" transform="translate(8.96 41.079)" fill="#7f3371"/>
        <path id="Trazado_833608" data-name="Trazado 833608" d="M32.231,64.947c-2.227-2.734-7.095-3.359-10.17-1.495a5.1,5.1,0,0,0-1.972,1.039c-2,1.781-1.784,4.973-1.184,7.329.9,3.553,5.958,11.72,10.628,8.666,2.485-1.625,4.1-5.658,4.5-8.482a9.037,9.037,0,0,0-1.8-7.058" transform="translate(10.626 35.86)" fill="#ffc9b6"/>
        <path id="Trazado_833609" data-name="Trazado 833609" d="M36.082,61.994c-1.559-2.1-5.54-4.606-8.154-3.145a2.713,2.713,0,0,0-1.353,2.461c-2.531-.463-7.095,1.181-8.227,3.356-1.924,3.7-.584,10.028,1.1,11.931,1.764-1.537,4.487-4.8,5.2-7.937a10.974,10.974,0,0,0,9.74-.1c2.4-1.378,3.406-4.254,1.685-6.569" transform="translate(10.003 33.577)" fill="#672a5c"/>
        <path id="Trazado_833610" data-name="Trazado 833610" d="M22.731,67.727s-1.417-2.353-2.724-.633a2.384,2.384,0,0,0,.921,3.885Z" transform="translate(11.102 38.205)" fill="#ffc9b6"/>
        <path id="Trazado_833611" data-name="Trazado 833611" d="M33.251,78.008c-.106-.49-.625-3.243-1.008-5.05a5.609,5.609,0,0,1,.294-2c.028-.5-.443-.828-1.008-.3a8.424,8.424,0,0,0-1.175,2.471c-.42.923-.8,2.731-4.978,1.258a4.471,4.471,0,0,0-3.92.751c-.759.784-.016,2,.872,2.439,1.272.627,6.559,2.435,8.446,4.221.638.6,4.323,0,4.323,0a19.637,19.637,0,0,1-1.847-3.787" transform="translate(12.153 40.46)" fill="#ffc9b6"/>
        <path id="Trazado_833612" data-name="Trazado 833612" d="M30.906,71.5s-.164,2.406-1.339,2.832-3.617-.894-5.433-.894A5.317,5.317,0,0,0,21.341,74.5s.271-1.235,2.761-1.5c2.027-.214,4.169.946,5.131.578S30.906,71.5,30.906,71.5" transform="translate(12.267 41.1)" fill="#ffb9a4"/>
        <path id="Trazado_833613" data-name="Trazado 833613" d="M30.848,74.716c.055.178-4.806,3.649-4.806,3.649s.909,2.194,2.162,6.488,2.841,9.526,5.315,12.044,7.792,3.233,8.917-.22C43.529,93.33,44.389,89.036,41,85.45L30.848,74.716" transform="translate(14.97 42.948)" fill="#7f3371"/>
        <path id="Trazado_833614" data-name="Trazado 833614" d="M13.985,95.185a35.167,35.167,0,0,1,4.68,4.307c1.024,1.443.494,3.765.313,6.528s-2.806,2.049-4.932,1.781-2.624-1.293-1.375-1.781a5.257,5.257,0,0,1,2.9,0S12.2,104.141,12,100.713a7.491,7.491,0,0,1,1.987-5.528" transform="translate(6.889 54.714)" fill="#ffc9b6"/>
        <path id="Trazado_833615" data-name="Trazado 833615" d="M2.091,99.389a50.093,50.093,0,0,1,4-7.3,65.288,65.288,0,0,1,5.347-8.136c.926-6.025,3.8-9.674,7.674-9.855,2.353,1.8,4.1,14.844,1.8,18.843-1.846,3.2-2.789,4.1-4.682,5.192-.49,1.26-1.665,2.284-2.4,3.34,1.346.959,2.91,2.085,4.14,3a20.388,20.388,0,0,1,4.436,4.7,14.028,14.028,0,0,1-2.013,2.756c-1.22,1.269-2.32,2.339-2.32,2.339s-8.668-2.52-11.219-4.6a10.932,10.932,0,0,1-3.367-4.556c-.46-1.378-2.063-4.192-1.386-5.718" transform="translate(1.107 42.591)" fill="#7f3371"/>
        <path id="Trazado_833616" data-name="Trazado 833616" d="M137.486,65.034c-2.672,2.036-6.367,2.124-10.455-.236-3.932-2.271-7.5-6.387-10.151-11.258l.891,8.684-6.1-.446c4.208,6.934,9.547,12.718,15.362,16.077,6.649,3.838,12.671,3.783,17.092.611l-.732-9.184Z" transform="translate(64.189 30.775)" fill="#bdd6e5"/>
        <path id="Trazado_833617" data-name="Trazado 833617" d="M120.235,67.831a36.682,36.682,0,0,1-4.613-16.95c0-4.753,1.263-8.383,3.365-10.57l-6.011-2.139-2.436-9.5c-2.959,3.7-4.71,9.347-4.71,16.556,0,10.326,3.591,21.6,9.194,30.841l6.1.446Z" transform="translate(60.833 16.482)" fill="#ff5a72"/>
        <path id="Trazado_833618" data-name="Trazado 833618" d="M117.269,42.12c2.707-2.817,6.808-3.243,11.4-.592,4.528,2.614,8.576,7.674,11.284,13.515l.669-8.079,6.328,2.961c-4.495-9.28-11.016-17.258-18.281-21.452-8.158-4.71-15.38-3.573-19.846,2.008l2.436,9.5Z" transform="translate(62.553 14.674)" fill="#954a83"/>
        <path id="Trazado_833619" data-name="Trazado 833619" d="M152.47,58.878c.027-.035.052-.072.079-.109l0,0,.192-.277-.224-.348-.4-7.756L145.5,45.451q-.328.359-.639.748l0-.008-.121.175a16.8,16.8,0,0,0-1.08,1.557l-12.5,18.027s-1.069,1.545-1.32,1.891a8.755,8.755,0,0,1-1.776,1.841l5.9,4.246.734,9.186a13.9,13.9,0,0,0,2.576-2.438c.091-.11,1.321-1.8,1.321-1.8Z" transform="translate(73.613 26.126)" fill="#e79ce1"/>
        <path id="Trazado_833620" data-name="Trazado 833620" d="M178.07,70.408c-4.474-10.635-11.651-20-19.744-24.673-7.769-4.487-14.692-3.669-19.189,1.246l6.617,4.934.43,8.386c2.661-3.6,7.1-4.421,12.142-1.51,4.5,2.6,8.524,7.606,11.232,13.4l6.187,4.828Z" transform="translate(79.979 24.597)" fill="#ff5a72"/>
        <path id="Trazado_833621" data-name="Trazado 833621" d="M172.321,82.572a58.57,58.57,0,0,0-4.813-22.246l-2.324,6.611L159,62.109a35.844,35.844,0,0,1,3.532,14.81c0,5.276-1.559,9.162-4.093,11.233l-.924,7.939,5.843,6.6c5.476-2.844,8.967-9.929,8.967-20.12" transform="translate(90.541 34.677)" fill="#bdd6e5"/>
        <path id="Trazado_833622" data-name="Trazado 833622" d="M151.926,83.9l-.017-.011L138.471,49s-1.608-4.091-1.743-4.406q-.55-1.259-1.143-2.49l-6.328-2.961-.668,8.079c.272.589.528,1.186.773,1.787l14.277,37.07c.157.424,1.035,2.609,1.153,2.887.553,1.3,1.143,2.581,1.773,3.835l.661-7.408,6.628,2.865a39.8,39.8,0,0,1-1.929-4.35" transform="translate(73.916 22.499)" fill="#bdd6e5"/>
        <path id="Trazado_833623" data-name="Trazado 833623" d="M167.574,91.388l.924-7.939c-2.688,2.2-6.473,2.351-10.671-.072-4.132-2.384-7.857-6.81-10.534-12l-6.628-2.863-.66,7.406c4.472,8.882,10.8,16.465,17.822,20.518,5.92,3.417,11.35,3.759,15.589,1.556Z" transform="translate(80.478 39.381)" fill="#954a83"/>
        <path id="Trazado_833624" data-name="Trazado 833624" d="M160.164,181.489c-13.614-12.112-22.065-34.46-18.876-49.916s16.811-18.166,30.426-6.052,22.065,34.46,18.874,49.916-16.811,18.166-30.424,6.052m16.183-18.723c1.318-6.387-2.175-15.622-7.8-20.629s-11.255-3.885-12.573,2.5,2.173,15.624,7.8,20.629,11.255,3.887,12.573-2.5" transform="translate(80.829 67.8)" fill="#f8b505"/>
        <path id="Trazado_833625" data-name="Trazado 833625" d="M137.755,132.386l.657-3.183,1.113-5.394.657-3.183L147,123.386l-1.194,5.784-1.194,5.784-1.194,5.784Z" transform="translate(79.185 69.339)" fill="#f8b505"/>
        <path id="Trazado_833626" data-name="Trazado 833626" d="M176.585,167.767l.657-3.183,1.113-5.392.657-3.183-5.666-8.353-1.194,5.784-1.2,5.784-1.192,5.784Z" transform="translate(97.584 84.876)" fill="#f8b505"/>
        <path id="Trazado_833627" data-name="Trazado 833627" d="M159.873,170.832l-2.8-2.495-4.751-4.227-2.8-2.495-1-9.28,5.095,4.534L158.7,161.4l5.095,4.534Z" transform="translate(85.37 87.566)" fill="#f8b505"/>
        <path id="Trazado_833628" data-name="Trazado 833628" d="M169.454,126.189l-2.8-2.495-4.751-4.227-2.8-2.495-3.926,4.9,5.095,4.532,5.095,4.534,5.1,4.532Z" transform="translate(89.196 67.239)" fill="#f8b505"/>
        <path id="Trazado_833629" data-name="Trazado 833629" d="M144.665,155.487l-1.518-4.014-2.572-6.8-1.518-4.014,4.115-4.613,2.759,7.3,2.759,7.295,2.759,7.3Z" transform="translate(79.933 78.201)" fill="#f8b505"/>
        <path id="Trazado_833630" data-name="Trazado 833630" d="M178.857,148.386l-1.518-4.014-2.572-6.8-1.518-4.014-6.783-2.444,2.758,7.295,2.759,7.3,2.759,7.3Z" transform="translate(95.689 75.366)" fill="#f8b505"/>
        <path id="Trazado_833631" data-name="Trazado 833631" d="M174.722,169.393l-8.246,4.928-6.324-11.643,4.446-.883,4.447-.885,4.447-.885Z" transform="translate(92.059 91.986)" fill="#f8b505"/>
        <path id="Trazado_833632" data-name="Trazado 833632" d="M161.033,167.5l-8.246,4.928-6.324-11.643,4.446-.885,4.447-.883,4.447-.885Z" transform="translate(84.19 90.898)" fill="#f8b505"/>
        <path id="Trazado_833633" data-name="Trazado 833633" d="M153.027,113.939l-2.447.487-4.145.825-2.447.487,1.23,9.369,4.447-.885,4.447-.885,4.446-.883Z" transform="translate(82.767 65.494)" fill="#f8b505"/>
        <path id="Trazado_833634" data-name="Trazado 833634" d="M171.286,157.887l8.246-4.928L177.1,164.719l-8.246,4.926Z" transform="translate(97.064 87.925)" fill="#f99e4b"/>
        <path id="Trazado_833635" data-name="Trazado 833635" d="M179.391,147.494l-8.246,4.928-5.608-14.83,8.246-4.928Z" transform="translate(95.155 76.258)" fill="#f99e4b"/>
        <path id="Trazado_833636" data-name="Trazado 833636" d="M171.031,126.189l-8.246,4.928L152.428,121.9l8.246-4.928Z" transform="translate(87.619 67.239)" fill="#f99e4b"/>
        <path id="Trazado_833637" data-name="Trazado 833637" d="M156.037,113.939l-8.246,4.928-9.039,1.8L147,115.737Z" transform="translate(79.757 65.494)" fill="#f99e4b"/>
        <path id="Trazado_833638" data-name="Trazado 833638" d="M142.306,120.627l-8.246,4.928,6.822,2.758,5.964-4.776Z" transform="translate(77.061 69.339)" fill="#f99e4b"/>
        <path id="Trazado_833639" data-name="Trazado 833639" d="M154.927,184.618c-13.613-12.112-22.063-34.46-18.874-49.916s16.811-18.166,30.426-6.052,22.063,34.46,18.874,49.916-16.811,18.166-30.426,6.052m16.184-18.723c1.318-6.387-2.175-15.622-7.8-20.629s-11.255-3.885-12.573,2.5,2.173,15.624,7.8,20.629,11.255,3.887,12.573-2.5" transform="translate(77.819 69.598)" fill="#fed03d"/>
        <path id="Trazado_833640" data-name="Trazado 833640" d="M132.519,135.514l.657-3.183,1.113-5.392.657-3.183,6.821,2.758-1.194,5.784-1.194,5.784-1.194,5.784Z" transform="translate(76.175 71.138)" fill="#fed03d"/>
        <path id="Trazado_833641" data-name="Trazado 833641" d="M171.349,170.9l.657-3.183,1.113-5.394.657-3.181-5.668-8.353-1.194,5.784-1.194,5.784-1.192,5.783Z" transform="translate(94.574 86.675)" fill="#fed03d"/>
        <path id="Trazado_833642" data-name="Trazado 833642" d="M154.637,173.96l-2.8-2.495-4.751-4.227-2.8-2.495-1-9.28L148.374,160l5.095,4.532,5.095,4.534Z" transform="translate(82.36 89.364)" fill="#fed03d"/>
        <path id="Trazado_833643" data-name="Trazado 833643" d="M164.218,129.318l-2.8-2.495-4.751-4.227-2.8-2.495-3.926,4.9,5.095,4.532,5.095,4.534,5.1,4.532Z" transform="translate(86.186 69.037)" fill="#fed03d"/>
        <path id="Trazado_833644" data-name="Trazado 833644" d="M139.429,158.616l-1.518-4.014-2.572-6.8-1.518-4.014,4.115-4.613,2.759,7.3,2.759,7.295,2.759,7.3Z" transform="translate(76.923 80)" fill="#fed03d"/>
        <path id="Trazado_833645" data-name="Trazado 833645" d="M173.621,151.515,172.1,147.5l-2.572-6.8-1.518-4.014-6.783-2.444,2.758,7.295,2.759,7.3,2.759,7.3Z" transform="translate(92.679 77.164)" fill="#fed03d"/>
        <path id="Trazado_833646" data-name="Trazado 833646" d="M169.486,172.522l-2.447.487-4.145.825-2.447.487-5.531-8.514,4.446-.883,4.447-.885,4.447-.885Z" transform="translate(89.049 93.784)" fill="#fed03d"/>
        <path id="Trazado_833647" data-name="Trazado 833647" d="M147.791,117.067l-2.447.487-4.145.825-2.447.487,1.23,9.369,4.447-.885,4.447-.885,4.446-.883Z" transform="translate(79.757 67.293)" fill="#fed03d"/>
      </g>
    </g>
  </g>
</svg>
