<svg xmlns="http://www.w3.org/2000/svg" xmlns:xlink="http://www.w3.org/1999/xlink" width="569.278" height="317.27" viewBox="0 0 569.278 317.27">
  <defs>
    <clipPath id="clip-path">
      <rect id="Rect치ngulo_383790" data-name="Rect치ngulo 383790" width="269.503" height="274.696" fill="none"/>
    </clipPath>
  </defs>
  <g id="Grupo_1076199" data-name="Grupo 1076199" transform="translate(-810 -900.445)">
    <rect id="Rect치ngulo_382242" data-name="Rect치ngulo 382242" width="569.278" height="277.813" rx="7" transform="translate(810 939.901)" fill="#1682fb"/>
    <g id="Grupo_1076200" data-name="Grupo 1076200" transform="translate(960 900.445)">
      <g id="Grupo_1076200-2" data-name="Grupo 1076200" clip-path="url(#clip-path)">
        <path id="Trazado_833814" data-name="Trazado 833814" d="M258.8,161.751c0,40.12-57.933,72.644-129.4,72.644S0,201.87,0,161.751,57.933,89.107,129.4,89.107s129.4,32.524,129.4,72.644" transform="translate(0 40.302)" fill="#dceaf4"/>
        <path id="Trazado_833815" data-name="Trazado 833815" d="M50,100.765l-.327,1.9a1.875,1.875,0,0,0,3.7.633l.327-1.9Z" transform="translate(22.454 45.575)" fill="#672a5c"/>
        <path id="Trazado_833816" data-name="Trazado 833816" d="M53.587,101.641c-.1.579-1.006.906-2.027.732s-1.767-.786-1.669-1.365,1.008-.906,2.027-.732,1.767.786,1.669,1.365" transform="translate(22.561 45.332)" fill="#7f3371"/>
        <path id="Trazado_833817" data-name="Trazado 833817" d="M68.653,38.038l-2.329-.2L50.391,129.186c-.061.36.4.739,1.037.848s1.2-.094,1.261-.455Z" transform="translate(22.789 17.111)" fill="#954a83"/>
        <path id="Trazado_833818" data-name="Trazado 833818" d="M79.45,83.9l-.327,1.9a1.875,1.875,0,0,0,3.7.633l.327-1.9Z" transform="translate(35.775 37.947)" fill="#672a5c"/>
        <path id="Trazado_833819" data-name="Trazado 833819" d="M83.039,84.776c-.1.579-1.006.906-2.027.732s-1.767-.786-1.669-1.365,1.008-.906,2.029-.732,1.766.786,1.667,1.365" transform="translate(35.882 37.705)" fill="#7f3371"/>
        <path id="Trazado_833820" data-name="Trazado 833820" d="M98.105,21.173l-2.329-.2L79.843,112.321c-.061.36.4.739,1.037.848s1.2-.094,1.261-.455Z" transform="translate(36.11 9.484)" fill="#954a83"/>
        <path id="Trazado_833821" data-name="Trazado 833821" d="M75.03,113.359l.221,1.918a1.875,1.875,0,1,1-3.725.427l-.221-1.918Z" transform="translate(32.251 51.271)" fill="#672a5c"/>
        <path id="Trazado_833822" data-name="Trazado 833822" d="M71.306,114.055c.067.584.956.961,1.984.844s1.808-.687,1.741-1.271-.956-.961-1.984-.844-1.808.687-1.741,1.271" transform="translate(32.249 51.002)" fill="#7f3371"/>
        <path id="Trazado_833823" data-name="Trazado 833823" d="M79.191,143.178H79.2L62.118,47.623c-.01-.074-.009-.139-.019-.213H60.041c.023.18.038.356.064.537l17.144,95.545h0v0l.009.046.013,0c.077.283.516.465,1.035.405.548-.064.963-.367.928-.678a.35.35,0,0,0-.044-.087" transform="translate(27.156 21.443)" fill="#954a83"/>
        <path id="Trazado_833824" data-name="Trazado 833824" d="M105.239,96.294l.219,1.918a1.874,1.874,0,1,1-3.724.427l-.221-1.918Z" transform="translate(45.914 43.553)" fill="#672a5c"/>
        <path id="Trazado_833825" data-name="Trazado 833825" d="M101.515,96.991c.067.584.956.961,1.984.844s1.808-.687,1.741-1.271-.956-.961-1.984-.844-1.808.687-1.741,1.271" transform="translate(45.913 43.284)" fill="#7f3371"/>
        <path id="Trazado_833826" data-name="Trazado 833826" d="M109.4,126.113h.006L92.326,30.558c-.01-.074-.01-.139-.02-.212H90.249c.023.179.038.354.064.536l17.144,95.545h0v0l.009.046.013,0c.077.283.516.465,1.034.405.549-.064.964-.366.928-.678,0-.032-.029-.057-.042-.087" transform="translate(40.819 13.725)" fill="#954a83"/>
        <path id="Trazado_833827" data-name="Trazado 833827" d="M122.317,60.242,66.8,92.193l-5.754-3.372,55.518-31.952Z" transform="translate(27.61 25.721)" fill="#c66bc6"/>
        <path id="Trazado_833828" data-name="Trazado 833828" d="M120.715,57.852,65.2,89.8l-.611-.365L120.1,57.488Z" transform="translate(29.211 26.001)" fill="#e79ce1"/>
        <path id="Trazado_833829" data-name="Trazado 833829" d="M61.045,78.87v.776l5.754,3.4V80.134l-.613-.366V81.89Z" transform="translate(27.61 35.672)" fill="#b456b7"/>
        <path id="Trazado_833830" data-name="Trazado 833830" d="M120.525,57.759v2.883L65.007,92.594V89.711Z" transform="translate(29.402 26.124)" fill="#d680d4"/>
        <path id="Trazado_833831" data-name="Trazado 833831" d="M121.188,82.537,65.751,114.543,50.817,32.006,106.254,0Z" transform="translate(22.984 0)" fill="#89dbef"/>
        <path id="Trazado_833832" data-name="Trazado 833832" d="M121.88,83.025,66.443,115.03,51.509,32.494,106.946.487Z" transform="translate(23.297 0.22)" fill="#d680d4"/>
        <path id="Trazado_833833" data-name="Trazado 833833" d="M115.639,81.437,101.256,1.944l-.389.225,14.309,79.083-52.813,30.6.076.41Z" transform="translate(28.206 0.879)" fill="#b456b7"/>
        <path id="Trazado_833834" data-name="Trazado 833834" d="M105.322,2.1,52.511,32.7l14.309,79.083,52.811-30.6Z" transform="translate(23.75 0.949)" fill="#fff"/>
        <path id="Trazado_833835" data-name="Trazado 833835" d="M51.822,22.746l-1-.709,14.935,82.538,1,.709Z" transform="translate(22.984 9.967)" fill="#b456b7"/>
        <path id="Trazado_833836" data-name="Trazado 833836" d="M107.258.708l-1-.709L50.818,32.006l1,.707Z" transform="translate(22.984 0)" fill="#e79ce1"/>
        <path id="Trazado_833837" data-name="Trazado 833837" d="M94.92,48.895a48.6,48.6,0,0,0-7.873-5.455,26.569,26.569,0,0,0,2.751.333c.317,0,.44-.285.109-.411-1.265-.484-4.45-1.014-4.257-.44a21.935,21.935,0,0,0,2.042,3.311c.256.338.54.007.375-.224a8.578,8.578,0,0,1-1.329-2.261c.819.556,6.286,4.57,7.883,5.543.392.238.656-.083.3-.4" transform="translate(38.735 19.3)" fill="#7f3371"/>
        <path id="Trazado_833838" data-name="Trazado 833838" d="M97.928,47.289a48.8,48.8,0,0,0-9.315,4.721.135.135,0,0,0,.115.24,49.035,49.035,0,0,0,9.44-4.463.28.28,0,0,0-.24-.5" transform="translate(40.053 21.38)" fill="#7f3371"/>
        <path id="Trazado_833839" data-name="Trazado 833839" d="M98.437,49.006a48.8,48.8,0,0,0-9.315,4.721.135.135,0,0,0,.115.24,49.034,49.034,0,0,0,9.44-4.463.28.28,0,0,0-.24-.5" transform="translate(40.283 22.156)" fill="#7f3371"/>
        <path id="Trazado_833840" data-name="Trazado 833840" d="M91.548,55.307a26.865,26.865,0,0,0,3.634-12.786c.052-5.082-1.047-10.529-4.116-14.625-1.256-1.68-6.053-6.222-11.623-5.086S70.259,27.8,68.054,33.58c-4.63,12.151-.937,30.372,11.782,29.8,5.143-.231,9.071-3.619,11.671-8.005a.327.327,0,0,0,.041-.068m-.514-1.014C89.01,52.357,82.912,45.7,80.66,43.306c2.3-1.028,10.483-7.354,12.487-9.087a28.693,28.693,0,0,1-2.113,20.074M80.471,23.764c6.463-.517,10.573,3.777,12.44,9.664-2,1.657-9.8,7.436-12.615,9.393a125.489,125.489,0,0,0-4.239-17.805,11.613,11.613,0,0,1,4.414-1.252M75.53,25.309c1.747,6.381,4.252,18.023,4.255,18.032a78.621,78.621,0,0,0-3.311,7.935c-1.127,2.884-2.4,5.784-3.276,8.762-8.291-7.109-8.022-28.707,2.332-34.729M80.968,62.2a9.231,9.231,0,0,1-7.253-1.735c1.2-2.491,2.07-5.147,3.043-7.731,1.065-2.828,3.035-8.15,3.451-9.075,1.474,1.74,3.257,4.021,4.839,5.67,1.85,1.932,3.647,3.918,5.507,5.84-2.193,3.666-5.389,6.361-9.587,7.032" transform="translate(29.913 10.235)" fill="#7f3371"/>
        <path id="Trazado_833841" data-name="Trazado 833841" d="M72.791,35.636a28.213,28.213,0,0,0-1.759-3.809c-.976,1.907-1.383,7.793-.852,11.421.051.344.622.261.607-.083-.057-1.372-.081-2.719-.084-4.059.427-.264,1.82-1.458,2.222-1.733a25.8,25.8,0,0,0,.874,2.655c.148.295.61.089.526-.221a43.484,43.484,0,0,0-1.534-4.171m-2.162,2.812a17.994,17.994,0,0,1,.455-5.757c.408.985,1.538,3.956,1.669,4.31a10.547,10.547,0,0,1-2.123,1.446" transform="translate(31.636 14.395)" fill="#7f3371"/>
        <path id="Trazado_833842" data-name="Trazado 833842" d="M81.713,30.744c-.407-.854-1.426-1.249-2.815-.976a2.989,2.989,0,0,0-.022-3,1.692,1.692,0,0,0-2.268-.314c.606,2.8,1.852,7.238,2.257,8.879,1.942-.346,3.785-2.626,2.848-4.589m-3.079-2.932a3.342,3.342,0,0,1-.5,2.284c-.354-1.149-.751-2.284-1.159-3.4a1.313,1.313,0,0,1,1.654,1.114M79.15,34.6a25.111,25.111,0,0,0-.806-3.84c.943-.539,2.415-.664,2.934.51.659,1.492-.728,2.831-2.128,3.33" transform="translate(34.649 11.826)" fill="#7f3371"/>
        <path id="Trazado_833843" data-name="Trazado 833843" d="M84.422,40.346a1.579,1.579,0,0,1-.87.976,2.115,2.115,0,0,1-2.145-.89,4.6,4.6,0,0,1-.613-2.242c-.061-1.326.638-2.758,2.072-2.8.37-.012.351-.4.177-.449-2.344-.687-3.332,2.527-2.855,4.509a3.167,3.167,0,0,0,2.395,2.658c1,.137,2.289-.61,2.207-1.683-.019-.259-.238-.366-.369-.08" transform="translate(36.216 15.761)" fill="#7f3371"/>
        <path id="Trazado_833844" data-name="Trazado 833844" d="M80.509,44.2A3.5,3.5,0,0,0,77.8,41.99a3.237,3.237,0,0,0-2.656,1.022c-.07.093,1.5,6.11,1.807,6.766,2.823-.665,4.486-3.028,3.557-5.581m-3.3,4.916c-.257-1.263-1.152-4.887-1.525-5.866a3.2,3.2,0,0,1,1.939-.572A2.891,2.891,0,0,1,80.027,44.6c.829,2.026-.929,4-2.82,4.517" transform="translate(33.987 18.982)" fill="#7f3371"/>
        <path id="Trazado_833845" data-name="Trazado 833845" d="M83.719,22.9a26.926,26.926,0,0,1-2.884,1.644c.757-3,1.844-6.448,2.284-9.5.1-.658-.427-.948-.7.131C81.69,18.1,80.84,21.14,80.2,24.107c-.151-.52-.309-1.037-.455-1.56a.3.3,0,0,0-.574.158,9.333,9.333,0,0,0,.668,3.008.342.342,0,0,0,.379.155c1.352-.35,2.711-1.59,3.866-2.341.394-.257.023-.893-.369-.632" transform="translate(35.808 6.535)" fill="#7f3371"/>
        <path id="Trazado_833846" data-name="Trazado 833846" d="M87.95,10.029c-2.123,1.4-6.447,3.545-9.3,5.739-.386.3-.147.611.308.4A54.938,54.938,0,0,0,88.284,10.6c.338-.251.028-.809-.334-.571" transform="translate(35.483 4.51)" fill="#7f3371"/>
        <path id="Trazado_833847" data-name="Trazado 833847" d="M92.189,57.226c-2.123,1.4-6.447,3.545-9.3,5.739-.386.3-.147.611.308.4A55.027,55.027,0,0,0,92.523,57.8c.338-.253.028-.81-.334-.572" transform="translate(37.4 25.857)" fill="#7f3371"/>
        <path id="Trazado_833848" data-name="Trazado 833848" d="M86.994,8.492c-1.307.639-2.562,1.394-3.833,2.1a12.322,12.322,0,0,0-3.252,2.08.135.135,0,0,0,.129.224,12.389,12.389,0,0,0,3.5-1.666c1.272-.7,2.578-1.37,3.811-2.139a.348.348,0,0,0-.351-.6" transform="translate(36.125 3.822)" fill="#7f3371"/>
        <path id="Trazado_833849" data-name="Trazado 833849" d="M71.975,53.98c-.485-1.358-1.611-4.711-1.611-4.881a.164.164,0,0,0-.32-.044,24.778,24.778,0,0,1-1.615,2.074A5.054,5.054,0,0,0,67.221,52.8a.282.282,0,0,0,.41.315,5.076,5.076,0,0,0,1.342-1.561c.2-.273.4-.555.6-.839-.539,3.982-1.444,9.075-2.087,13.474-.062.428.587.62.661.182.719-4.265,1.826-8.737,2.132-13.113.263,1.009.736,2.024,1.053,2.9.212.584.855.423.643-.171" transform="translate(30.399 22.136)" fill="#7f3371"/>
        <path id="Trazado_833850" data-name="Trazado 833850" d="M74.145,59.383c-1.547.8-7.523,3.725-8.907,4.389-.5.238-.061.993.434.742.643-.327,6.615-3.272,8.894-4.409.478-.238.049-.992-.421-.722" transform="translate(29.408 26.832)" fill="#7f3371"/>
        <path id="Trazado_833851" data-name="Trazado 833851" d="M74.632,61.7c-1.547.8-7.523,3.725-8.907,4.389-.5.238-.061.993.434.742.643-.327,6.615-3.272,8.894-4.409.478-.24.049-.992-.421-.722" transform="translate(29.628 27.881)" fill="#7f3371"/>
        <path id="Trazado_833852" data-name="Trazado 833852" d="M87.772,60.917c-2.183-3.326-4.244-7.32-6.949-10.289.424.3,2.5,1.146,3.272,1.6.426.248.545-.254.25-.463-.383-.27-1.3-.7-1.656-.89-.622-.328-2.624-1.217-2.688-.71a17.874,17.874,0,0,0,.277,4.136c.138.4.636.436.579-.045-.091-.784-.166-2.354-.2-2.925,2.046,3.079,4.467,6.66,6.7,9.825.174.247.581.019.411-.24" transform="translate(36.172 22.62)" fill="#7f3371"/>
        <path id="Trazado_833853" data-name="Trazado 833853" d="M117.685,52.468a9.346,9.346,0,0,1,1-2.014,15.4,15.4,0,0,0-1.659-.882c-3.356-1.564-15.107-6.044-15.6-4.852-.556,1.338,1.464,1.589,3.021,2.286a17.508,17.508,0,0,0,2.25.893s-2.295,4.306.4,5.267a12.454,12.454,0,0,0,7.351.893,7.971,7.971,0,0,1,2.867.091,8.3,8.3,0,0,1,.372-1.683" transform="translate(45.831 20.136)" fill="#ffc9b6"/>
        <path id="Trazado_833854" data-name="Trazado 833854" d="M112.7,47.62s-2.072,0-2.643,3.09a6.457,6.457,0,0,0,.378,3.639s10.189,6.018,16.309,7.336c2.3,2.21,7.81,4.779,8.788,5.3S151.207,80.6,153.989,80.256s4.978-10.2,2.536-17.391-9.921-5.006-9.921-5.006a135.612,135.612,0,0,0-14.582-4.5C125.89,50.048,112.7,47.62,112.7,47.62" transform="translate(49.728 21.538)" fill="#f8b505"/>
        <path id="Trazado_833855" data-name="Trazado 833855" d="M145.336,125.73a21.661,21.661,0,0,1,1.444,5.188c.295,2.664-.155,4.037-1.953,4.633-1.929.64-4.627.222-9.125-2.174s-6.47-4.769-6.63-6.313,2.106-3.786,5.991-2.571a52.689,52.689,0,0,1,5.859,2.131Z" transform="translate(58.374 56.149)" fill="#fed03d"/>
        <path id="Trazado_833856" data-name="Trazado 833856" d="M132.182,91.979c.455-2.912.414-6.99,1.638-9.659-.671-.37,7.672-1.735,10.13-2.229,1.246-.25,7.006,10.3,2.849,16.118-.357,6.127-1.1,11.961-4.02,18.216a63.511,63.511,0,0,1,2.308,7.234c2.019,7.293.729,16.931-.216,24.693-.407,3.334-7.074,2.234-8.481.566-.988-4.874-1.7-16.726-3.8-24.5-1.583-5.87-1.99-7.09-1.39-10.988,1.383-8.982.687-17.555.983-19.449" transform="translate(59.221 36.222)" fill="#672a5c"/>
        <path id="Trazado_833857" data-name="Trazado 833857" d="M136.943,125.321a12.274,12.274,0,0,0-3.365,2.482c-1.11,1.4-2.325.253-1.526-1.168a5.386,5.386,0,0,1,2.861-2.011,5.842,5.842,0,0,1,2.03.7" transform="translate(59.609 56.366)" fill="#672a5c"/>
        <path id="Trazado_833858" data-name="Trazado 833858" d="M135.324,131.414a21.655,21.655,0,0,1,1.444,5.189c.295,2.662-.155,4.036-1.952,4.631-1.93.64-4.628.222-9.126-2.174s-6.47-4.769-6.63-6.312,2.106-3.786,5.991-2.572a52.691,52.691,0,0,1,5.859,2.13Z" transform="translate(53.846 58.721)" fill="#fed03d"/>
        <path id="Trazado_833859" data-name="Trazado 833859" d="M124.054,99.445c.455-2.912,1.449-9.922,2.674-12.591-.67-.369,6.423,2.093,8.881,1.6,2.09-.42,8.143-6.871,8.168-6.633,5.464,6.506,4.239,16.067-1.557,20.158a31.231,31.231,0,0,1-9.45,19.921,42.5,42.5,0,0,1,2.308,7.234c1.412,7.434.729,16.929-.216,24.693-.407,3.333-7.074,2.232-8.48.566-.989-4.875-1.706-16.727-3.8-24.5-1.583-5.87-1.99-7.09-1.39-10.988,1.383-8.981,2.569-17.564,2.865-19.458" transform="translate(54.693 37.004)" fill="#954a83"/>
        <path id="Trazado_833860" data-name="Trazado 833860" d="M126.931,131.007a12.273,12.273,0,0,0-3.365,2.482c-1.11,1.4-2.325.253-1.526-1.168a5.391,5.391,0,0,1,2.86-2.013,5.857,5.857,0,0,1,2.032.7" transform="translate(55.081 58.937)" fill="#954a83"/>
        <path id="Trazado_833861" data-name="Trazado 833861" d="M127.106,43.4a7.127,7.127,0,0,1,7.831.109,6.355,6.355,0,0,1,3.472,5.2,18.729,18.729,0,0,1-.418,4.2,18.178,18.178,0,0,1-2.849,5.31c-1.476,1.856-5.446,3.727-8.024,2.906-2.292-.731-3.84-4.084-3.364-9.056.341-3.56.237-6.556,3.352-8.675" transform="translate(55.934 19.121)" fill="#ffc9b6"/>
        <path id="Trazado_833862" data-name="Trazado 833862" d="M133.972,59.736c6.654-3.244,8.73-6.646,13.332-2.6,2.857,2.514,3.342,12.773,2.954,17.038-.289,3.2-2.226,10.124-1.9,15.807.107,1.9,1.9,4.308,2.253,6.063-2.21,2.765-8.934,8.672-14.928,8.635s-8.589-1.088-10.757-3.22c-.01-4.6.36-7.43.141-10.165-.635-7.919-1.734-14.293-2-19.2-.363-6.6,3.166-8.586,10.914-12.363" transform="translate(55.646 25.008)" fill="#fed03d"/>
        <path id="Trazado_833863" data-name="Trazado 833863" d="M135.705,50.182a38.585,38.585,0,0,0,.931,5.529,10.163,10.163,0,0,0,2.829,4.212s2.235,3.365-1.476,4.957-8.13-1.676-8.13-1.676a17.2,17.2,0,0,0-1.439-5.548c-1.03-2.549,7.285-7.473,7.285-7.473" transform="translate(58.043 22.697)" fill="#ffc9b6"/>
        <path id="Trazado_833864" data-name="Trazado 833864" d="M122.956,43.7s-.855,4.45,4.3,6.341c.9,2.678,4.318,4.281,4.318,4.281s-.148,2.508,2.813,4.549a15.291,15.291,0,0,0,5.188,2.085,71.35,71.35,0,0,0,3.109-10.33,8.373,8.373,0,0,0-5.829-9.255,12.647,12.647,0,0,0-7.961.1,53.836,53.836,0,0,0-5.938,2.234" transform="translate(55.588 18.441)" fill="#672a5c"/>
        <path id="Trazado_833865" data-name="Trazado 833865" d="M130.525,50.269c.873,2.993-2.21,3.857-2.21,3.857l-1.75-3.244s2.971-4,3.96-.613" transform="translate(57.244 22.12)" fill="#ffc9b6"/>
        <path id="Trazado_833866" data-name="Trazado 833866" d="M141.988,81.624s-4.447,4.547-8.64,4.887a22.359,22.359,0,0,1-5.787-.022,15.966,15.966,0,0,1,5.9-2.685c3.157-.59,8.531-2.18,8.531-2.18" transform="translate(57.695 36.918)" fill="#f8b505"/>
        <path id="Trazado_833867" data-name="Trazado 833867" d="M112.574,70.929c-.568-1.622,0-2.071,1.137-3.774s-.806-2.321-1.767-.9a10.148,10.148,0,0,1-1.595,1.644,13.176,13.176,0,0,1-.783-1.685c-.661-1.824-1.343-4.342-2.255-3.653a3.546,3.546,0,0,0-.834,1.532c-1.417.055-1.022,4.839-.219,7.016a13.421,13.421,0,0,0,3.56,5.134c.607.951,1.053.508,1.053.508l3.231-1.217s-.96-2.983-1.528-4.605" transform="translate(47.732 28.243)" fill="#ffc9b6"/>
        <path id="Trazado_833868" data-name="Trazado 833868" d="M124.192,89.537c-.624.177-2.138.857-4.4-1.025-3.661-3.045-10.138-8.675-11.033-9.848-1.59-2.085,1.313-5.925,4.5-4.827,3.593,1.236,5.927,1.921,9.942,5.018,2.078-5.073,6.371-14.153,7.408-15.3,4.085-4.512,6.207-3.651,8.2-1.223,1.788,2.178,2.765,6.959,2.858,11.107s-.563,7.431-2.726,8.41A8.257,8.257,0,0,1,134.5,82.86c-.536.768-5.773,5.388-10.311,6.676" transform="translate(48.987 27.291)" fill="#f8b505"/>
        <path id="Trazado_833869" data-name="Trazado 833869" d="M139.9,56.2c1.41.513,3.217,3.369-.144,6s-6.909.423-8.269-.253a11.955,11.955,0,0,0-3.153-.922s.629-2.052,3.944-2.03c2,.013,5.012-.571,5.893-1.8.922-1.287.922-1.287,1.728-.993" transform="translate(58.043 25.346)" fill="#f8b505"/>
        <path id="Trazado_833870" data-name="Trazado 833870" d="M110.326,85.643s.963,7.325,1.647,11.655,1.253,8.091,0,10.141-6.04,10.486-6.04,10.486l-5.243-2.049,6.012-12.083-1.476-11.283Z" transform="translate(45.541 38.735)" fill="#ffc9b6"/>
        <path id="Trazado_833871" data-name="Trazado 833871" d="M110.908,92.116a8.876,8.876,0,0,1-5.722,2.515c-3.2-.054-3.337-3.472-3.337-3.472l8.638-2.026Z" transform="translate(46.065 40.314)" fill="#ff5a72"/>
        <path id="Trazado_833872" data-name="Trazado 833872" d="M107.672,170.54a78.154,78.154,0,0,1,1.16-9.923c1.21-6.248,2.585-15.362-1.534-19.487,4.626-11.766,3-18.277,2.308-21.879,6.893-7.308.328-15.027-2.992-17.4-1.753,2.165-12.193,6.447-12.256,6.711-1.262,5.369-.109,10.988,1.481,16.186.99,3.24,1.846,8.711,4.149,17.583-1.072,4.414.144,11.1.59,16.093.311,3.481.2,7.436.829,11.167,1.006,1.144,2.915,2.225,6.264.948" transform="translate(42.435 46.067)" fill="#672a5c"/>
        <path id="Trazado_833873" data-name="Trazado 833873" d="M95.873,148.924c-2.363.937-3.037,1.786-2.4,3.3a7.541,7.541,0,0,0,5.42,4.049c3.178.659,4.964,4.364,8.358.867.87-.9.7-2.572.4-3.811.061-.864.219-2.925.283-3.886-3.349,1.277-5.257.2-6.264-.948a23.368,23.368,0,0,0,.511,2.395c-1.211-.372-4.726-2.594-6.307-1.966" transform="translate(42.174 67.163)" fill="#ffb9a4"/>
        <path id="Trazado_833874" data-name="Trazado 833874" d="M108.646,153.193s-1.987.715-3.263,1.12a7.046,7.046,0,0,1-6.694-1.7c-1.824-1.769.98-2.983.98-2.983s-4.447-2.656-7.4-1.42c-1.372.574-1.436,2.89-.649,4.313.8,1.448,3.748,3.364,5.077,3.7s4.323.893,5.328,1.5c1.846,1.114,4.181,2.675,6.29.64s.334-5.166.334-5.166" transform="translate(41.207 66.884)" fill="#f05948"/>
        <path id="Trazado_833875" data-name="Trazado 833875" d="M98.851,176.143a78.123,78.123,0,0,1,1.16-9.923c1.21-6.248,2.585-15.362-1.534-19.487,4.626-11.766,5.1-20.867,4.408-24.467,8-6.23,5.108-14.683,1.788-17.054-1.753,2.167-13.325-1.317-14.5,2.244-2.257,6.871-2.152,9.3-1.843,18.493a107.6,107.6,0,0,0,2.833,21.986c-1.072,4.414.144,11.1.59,16.093.311,3.481.206,7.436.829,11.167,1.006,1.143,2.915,2.225,6.264.948" transform="translate(39.879 47.586)" fill="#954a83"/>
        <path id="Trazado_833876" data-name="Trazado 833876" d="M88.04,153.828c-2.363.937-3.038,1.786-2.4,3.3a7.542,7.542,0,0,0,5.421,4.049c3.178.659,4.951,4.068,8.345.571.87-.9.71-2.276.412-3.515.06-.864.219-2.925.283-3.886-3.35,1.277-5.257.195-6.264-.948a22.986,22.986,0,0,0,.511,2.395c-1.213-.372-4.726-2.594-6.307-1.966" transform="translate(38.631 69.381)" fill="#ffb9a4"/>
        <path id="Trazado_833877" data-name="Trazado 833877" d="M100.812,158.1s-1.987.715-3.263,1.12a7.044,7.044,0,0,1-6.694-1.7c-1.824-1.767.98-2.983.98-2.983s-4.447-2.655-7.4-1.42c-1.372.574-1.436,2.892-.649,4.315.8,1.448,3.748,3.364,5.077,3.7s4.323.895,5.328,1.5c1.846,1.114,4.181,2.675,6.29.64s.334-5.166.334-5.166" transform="translate(37.664 69.102)" fill="#f05948"/>
        <path id="Trazado_833878" data-name="Trazado 833878" d="M107.182,80.332c-3.075-1.1-6.814.651-6.967,3.805-1.693,2.868.033,9.232,2.677,11.152,3.075,2.235,8.046.449,9.07-3.006,1.057-3.574-1.191-10.666-4.779-11.951" transform="translate(45.022 36.184)" fill="#ed4069"/>
        <path id="Trazado_833879" data-name="Trazado 833879" d="M109.582,86.087a.75.75,0,0,0-.526-.527c-3.626-1-4.47-2.958-5.1-6.24a.744.744,0,0,0-1.086-.441A22.791,22.791,0,0,1,96.8,81.519c2.033,6.069-1.648,7.366-3.247,9.777-.4.609,3.793,3.663,6.037,3.346a13.909,13.909,0,0,0,5.523-1.945c1.833-1.166,5-4.117,4.472-6.611" transform="translate(42.3 35.631)" fill="#ffc9b6"/>
        <path id="Trazado_833880" data-name="Trazado 833880" d="M105.027,76.418c-.338-3.124-2.9-7.285-6.4-7.02-3.57.27-6,5.57-6.275,8.037-.473,4.193-.1,12.1,6.515,9.56,5.156-1.978,6.669-5.918,6.164-10.577" transform="translate(41.704 31.382)" fill="#ffc9b6"/>
        <path id="Trazado_833881" data-name="Trazado 833881" d="M111.175,71.541c-1.6-3.449-5.41-6.688-10.783-4.13-3.459-1.275-8.532.741-9.616,4.694,1.114,3.172,3.127,6.644,5.417,5.424-.16,3.841,5.016,9.373,8.39,9.373,1.245-2.62,3.982-2.659,5.822-6.333,1.015-2.026,1.763-6.893.77-9.027" transform="translate(41.057 30.074)" fill="#954a83"/>
        <path id="Trazado_833882" data-name="Trazado 833882" d="M94.506,76.056s2.65-1.815,3.069.765a3.2,3.2,0,0,1-2.1,3.471Z" transform="translate(42.744 34.119)" fill="#ffc9b6"/>
        <path id="Trazado_833883" data-name="Trazado 833883" d="M105.985,67.862c-2.194-.96-3.613-1.1-5.491.3-1.943,1.455-1.232,7.478,1.907,8.194,2.016.46,4.617-.084,5.69-1.866,1.368-2.27,1.136-5.211-2.106-6.63" transform="translate(44.965 30.36)" fill="#ff5a72"/>
        <path id="Trazado_833884" data-name="Trazado 833884" d="M113.609,97.342c2.293-7.093.893-11.81-1.134-14.129-.834-.954-2.812-2.921-4.973-.973.7,3.23-4.875,4.265-8.919,4.265-3.06,2.283-5.806,3.881-7.555,6.971-1.852,3.272-2.738,6.6,1.211,8.981-1.211,3.589-1.153,8.643-3.14,17.875,3.687,2.929,10.936,3.22,15.153,1.406,4.562-1.962,8.3-4.643,8.147-6.884-1.018-2.183-3.764-4.264-3.653-6.977.141-3.424,3.809-7.285,4.861-10.535" transform="translate(40.299 36.821)" fill="#ff5a72"/>
        <path id="Trazado_833885" data-name="Trazado 833885" d="M100.14,90.49A19.352,19.352,0,0,0,95.256,94.3c-1.58,1.916-3.481,3.623-4.871,5.7-2.266-2.78-5.437-4.026-8.32-5.957A9.381,9.381,0,0,1,79.5,91.17c-.831-1.435-.135-1.567.138-3.163.311-1.81,1.053-2.778.792-3.009-.848-.752-1.647,1.1-2.928,2.411-.449.459-1.828-.579-2.621-1.082a7.38,7.38,0,0,1-2-1.6c-.4-.5-.591-.931-.969-1.365s-1-.028-.8.742c-.6-.542-1-.372-.826.623-.471.376-.484.858.057,1.542-.64-.257-.274.934.171,1.31.847.713,1.914,2.083,2.963,3.077,1.46,1.383,3.185,2.321,4.046,3.532,2.614,3.677,6.726,8.063,9.47,11.583,1.428,1.828,2.186,2.707,3.917,1.924a34.429,34.429,0,0,0,7.765-4.248c3.189-2.189,5.082-3.016,7.169-6.463,2.293-3.785-3.841-7.6-5.71-6.5" transform="translate(31.634 37.625)" fill="#ffc9b6"/>
        <path id="Trazado_833886" data-name="Trazado 833886" d="M97.169,86.15C92.531,84.421,88.156,89.936,87,93.9c-1.526,1.063,2.7,7.842,4.768,7.909,4.026,2.017,8.243.424,10.461-3.743,2.154-4.048-.943-10.388-5.06-11.922" transform="translate(39.202 38.817)" fill="#ed4069"/>
        <path id="Trazado_833887" data-name="Trazado 833887" d="M87.391,91.389,86,92.91s-.767,1.355.786,3.878a8.519,8.519,0,0,0,4.085,3.379l1.284-.87a13.6,13.6,0,0,1-3.69-3.519,8,8,0,0,1-1.078-4.389" transform="translate(38.813 41.334)" fill="#ff5a72"/>
        <path id="Trazado_833888" data-name="Trazado 833888" d="M102.109,68.649c-1.782,2.155-.988,4.652-.094,6.742.459,1.076,6.13,2.848,4.984,6.945-.742,2.648-3.072,6.614-2.706,11.6s5.077,3.212,5.077,3.212-2.922-1.509-1.226-4.267,6.454-10.345,5.125-17.4-7.864-10.824-11.161-6.836" transform="translate(45.7 30.315)" fill="#672a5c"/>
        <path id="Trazado_833889" data-name="Trazado 833889" d="M11.055,45.512c-2.844,1.509-5.89,2.719-3.712,14.893s6.28,33.147,6.28,33.147l17.138-7.341S20.65,50.149,18.675,47.33a6.181,6.181,0,0,0-7.62-1.818" transform="translate(2.986 20.309)" fill="#a3c6d8"/>
        <path id="Trazado_833890" data-name="Trazado 833890" d="M7.982,122.185,7.689,123.9a1.688,1.688,0,1,0,3.329.569l.293-1.714Z" transform="translate(3.466 55.263)" fill="#672a5c"/>
        <path id="Trazado_833891" data-name="Trazado 833891" d="M11.214,122.974c-.09.521-.908.816-1.827.659s-1.592-.707-1.5-1.23.906-.816,1.826-.659,1.592.709,1.5,1.23" transform="translate(3.563 55.045)" fill="#7f3371"/>
        <path id="Trazado_833892" data-name="Trazado 833892" d="M24.786,65.684l-2.1-.184L8.336,147.784c-.055.325.363.667.934.765s1.081-.086,1.136-.41h0Z" transform="translate(3.768 29.625)" fill="#954a83"/>
        <path id="Trazado_833893" data-name="Trazado 833893" d="M34.51,107l-.293,1.715a1.688,1.688,0,1,0,3.329.569l.293-1.714Z" transform="translate(15.465 48.393)" fill="#672a5c"/>
        <path id="Trazado_833894" data-name="Trazado 833894" d="M37.742,107.783c-.09.521-.906.816-1.826.659s-1.593-.709-1.5-1.23.906-.816,1.826-.659,1.593.709,1.5,1.23" transform="translate(15.561 48.174)" fill="#7f3371"/>
        <path id="Trazado_833895" data-name="Trazado 833895" d="M51.314,50.493l-2.1-.184L34.864,132.593c-.055.325.363.667.935.765s1.079-.086,1.134-.411Z" transform="translate(15.766 22.754)" fill="#954a83"/>
        <path id="Trazado_833896" data-name="Trazado 833896" d="M30.53,133.529l.2,1.728a1.689,1.689,0,1,1-3.356.385l-.2-1.728Z" transform="translate(12.291 60.394)" fill="#672a5c"/>
        <path id="Trazado_833897" data-name="Trazado 833897" d="M27.175,134.156c.061.526.86.866,1.786.76s1.629-.619,1.568-1.144-.86-.866-1.786-.76-1.628.619-1.568,1.144" transform="translate(12.289 60.151)" fill="#7f3371"/>
        <path id="Trazado_833898" data-name="Trazado 833898" d="M34.277,160.388h.006L18.9,74.318c-.009-.065-.009-.125-.017-.19H17.028c.02.161.033.32.058.484L32.527,160.67h0v0l.007.042.012,0c.07.254.465.417.932.363.494-.057.868-.33.837-.61a.33.33,0,0,0-.039-.078" transform="translate(7.702 33.527)" fill="#954a83"/>
        <path id="Trazado_833899" data-name="Trazado 833899" d="M57.739,118.158l.2,1.728a1.689,1.689,0,1,1-3.356.385l-.2-1.728Z" transform="translate(24.597 53.442)" fill="#672a5c"/>
        <path id="Trazado_833900" data-name="Trazado 833900" d="M54.384,118.785c.061.526.86.866,1.786.76s1.629-.619,1.568-1.144-.86-.866-1.786-.76-1.628.619-1.568,1.144" transform="translate(24.596 53.199)" fill="#7f3371"/>
        <path id="Trazado_833901" data-name="Trazado 833901" d="M61.486,145.017h.006L46.108,58.947c-.01-.065-.009-.125-.017-.19H44.237c.02.161.033.32.058.484L59.736,145.3h0l.007.042.012,0c.07.254.465.417.932.365.494-.057.868-.331.837-.611,0-.029-.028-.051-.039-.078" transform="translate(20.008 26.575)" fill="#954a83"/>
        <path id="Trazado_833902" data-name="Trazado 833902" d="M73.121,85.685l-50.007,28.78-5.182-3.038,50.007-28.78Z" transform="translate(8.111 37.38)" fill="#c66bc6"/>
        <path id="Trazado_833903" data-name="Trazado 833903" d="M71.679,83.532l-50.007,28.78-.552-.328L71.129,83.2Z" transform="translate(9.553 37.632)" fill="#e79ce1"/>
        <path id="Trazado_833904" data-name="Trazado 833904" d="M17.932,102.464v.7l5.182,3.061V103.6l-.55-.328v1.91Z" transform="translate(8.111 46.343)" fill="#b456b7"/>
        <path id="Trazado_833905" data-name="Trazado 833905" d="M71.507,83.449v2.6L21.5,114.825v-2.6Z" transform="translate(9.725 37.743)" fill="#d680d4"/>
        <path id="Trazado_833906" data-name="Trazado 833906" d="M72.1,105.767,22.172,134.595,8.72,60.252,58.654,31.422Z" transform="translate(3.944 14.212)" fill="#89dbef"/>
        <path id="Trazado_833907" data-name="Trazado 833907" d="M72.728,106.206,22.8,135.035,9.343,60.691,59.277,31.862Z" transform="translate(4.226 14.411)" fill="#d680d4"/>
        <path id="Trazado_833908" data-name="Trazado 833908" d="M67.107,104.776l-12.956-71.6-.35.2L66.688,104.61,19.12,132.172l.067.369Z" transform="translate(8.648 15.004)" fill="#b456b7"/>
        <path id="Trazado_833909" data-name="Trazado 833909" d="M57.814,33.314,10.246,60.875l12.888,71.233L70.7,104.547Z" transform="translate(4.634 15.067)" fill="#dceaf4"/>
        <path id="Trazado_833910" data-name="Trazado 833910" d="M9.625,51.911l-.9-.638,13.451,74.344.9.638Z" transform="translate(3.944 23.19)" fill="#b456b7"/>
        <path id="Trazado_833911" data-name="Trazado 833911" d="M59.558,32.06l-.9-.638L8.72,60.251l.9.639Z" transform="translate(3.944 14.212)" fill="#e79ce1"/>
        <path id="Trazado_833912" data-name="Trazado 833912" d="M52.489,33.865l-39.6,22.942L25,123.58l39.6-22.943Z" transform="translate(5.831 15.317)" fill="#954a83"/>
        <path id="Trazado_833913" data-name="Trazado 833913" d="M54.188,33.865l-39.6,22.942,12.1,66.773,39.6-22.943Z" transform="translate(6.599 15.317)" fill="#fff"/>
        <path id="Trazado_833914" data-name="Trazado 833914" d="M47.124,74.326l-3.888,2.253,1.188,6.557,3.888-2.252Z" transform="translate(19.556 33.617)" fill="#e79ce1"/>
        <path id="Trazado_833915" data-name="Trazado 833915" d="M29.71,84.269l-3.888,2.253,1.188,6.557L30.9,90.827Z" transform="translate(11.679 38.114)" fill="#fed03d"/>
        <path id="Trazado_833916" data-name="Trazado 833916" d="M41.609,69.115l-3.888,2.253,3.133,17.4,3.888-2.253Z" transform="translate(17.061 31.26)" fill="#954a83"/>
        <path id="Trazado_833917" data-name="Trazado 833917" d="M33.609,78.912l-3.888,2.253,1.987,10.741L35.6,89.653Z" transform="translate(13.443 35.691)" fill="#d680d4"/>
        <path id="Trazado_833918" data-name="Trazado 833918" d="M38.052,74.326l-3.888,2.253L36.613,89.9,40.5,87.644Z" transform="translate(15.452 33.617)" fill="#ff5a72"/>
        <path id="Trazado_833919" data-name="Trazado 833919" d="M50.706,42,17.816,61.062l5.815,32.29,32.89-19.061Z" transform="translate(8.058 18.996)" fill="#e79ce1"/>
        <path id="Trazado_833920" data-name="Trazado 833920" d="M49.964,38.151,17.074,57.213l.335,2.142L50.3,40.295Z" transform="translate(7.723 17.255)" fill="#954a83"/>
        <path id="Trazado_833921" data-name="Trazado 833921" d="M57.67,78.1,24.78,97.159l.167,1.07,32.891-19.06Z" transform="translate(11.208 35.323)" fill="#954a83"/>
        <path id="Trazado_833922" data-name="Trazado 833922" d="M52.434,69.148,45.553,56.371l-.774,4.977L38.206,52.21,36.822,60.9l-2.87-2.428-.813,4.358-7.565-9.213L22.107,86.1Z" transform="translate(9.999 23.614)" fill="#ff5a72"/>
        <path id="Trazado_833923" data-name="Trazado 833923" d="M54.3,68,48.582,57.375l-.957,10.076-8.356-11.62-1.384,8.693L35.013,62.1,33.033,72.708l-7.806-8.545L22.873,86.21Z" transform="translate(10.345 25.252)" fill="#fed03d"/>
        <path id="Trazado_833924" data-name="Trazado 833924" d="M21.663,62.717l10.1,12.543,1.619-11.374,4.936,4.626,1.126-5.552,5.055,4.96,1.3-8.092,6.711,7.717L21.891,85.289Z" transform="translate(9.798 27.059)" fill="#954a83"/>
        <path id="Trazado_833925" data-name="Trazado 833925" d="M27.463,116.436H25l-12.1-66.773h2.466Z" transform="translate(5.831 22.462)" fill="#a3c6d8"/>
        <path id="Trazado_833926" data-name="Trazado 833926" d="M12.893,56.807H15.36l39.6-22.942H52.49Z" transform="translate(5.831 15.317)" fill="#7f3371"/>
        <path id="Trazado_833927" data-name="Trazado 833927" d="M56.414,35.847l-39.6,22.942a11.471,11.471,0,0,0-2.466-4.573c-2.974-2.723-4.684-1.73-4.684-1.73l39.6-23a7.193,7.193,0,0,1,7.15,6.362" transform="translate(4.373 13.335)" fill="#dceaf4"/>
        <path id="Trazado_833928" data-name="Trazado 833928" d="M178.886,130.172l14.642,8.454c2.334,1.346,2.038,3.721-.656,5.276l-16.908,9.762c-2.693,1.555-6.805,1.725-9.139.378l-14.642-8.452c-2.332-1.348-2.038-3.722.656-5.278l16.908-9.761c2.694-1.555,6.807-1.727,9.139-.379" transform="translate(68.119 58.464)" fill="#a3c6d8"/>
        <path id="Trazado_833929" data-name="Trazado 833929" d="M178.895,140.453c.209-.022,4.4-1.253,4.4-1.253l.029-6.169-6.711,1.114Z" transform="translate(79.88 60.168)" fill="#a3c6d8"/>
        <path id="Trazado_833930" data-name="Trazado 833930" d="M150.621,140.974l-.01-6.153,4.556-.057-.071,5.282Z" transform="translate(68.12 60.952)" fill="#a3c6d8"/>
        <path id="Trazado_833931" data-name="Trazado 833931" d="M178.88,125.982l14.642,8.454c2.332,1.346,2.038,3.721-.656,5.276l-16.908,9.762c-2.693,1.555-6.805,1.725-9.139.379L152.177,141.4c-2.332-1.348-2.038-3.722.656-5.278l16.908-9.761c2.694-1.555,6.807-1.725,9.139-.379" transform="translate(68.116 56.57)" fill="#bdd6e5"/>
        <path id="Trazado_833932" data-name="Trazado 833932" d="M176.41,130.216c-5.429-1.8-12.83-.59-16.53,2.7s-2.3,7.42,3.13,9.219,12.828.59,16.529-2.7,2.3-7.42-3.128-9.219m-2.55,7.337a7.687,7.687,0,0,1-6.832,1.117c-2.242-.744-2.822-2.45-1.293-3.809a7.685,7.685,0,0,1,6.83-1.118c2.244.745,2.823,2.45,1.294,3.811" transform="translate(71.377 58.518)" fill="#fff"/>
        <path id="Trazado_833933" data-name="Trazado 833933" d="M159.993,130.593l-.762.678-1.291,1.149-.762.678,1.821,1.42,1.384-1.232,1.385-1.232,1.385-1.233Z" transform="translate(71.09 59.066)" fill="#fff"/>
        <path id="Trazado_833934" data-name="Trazado 833934" d="M176.691,136.245l-.762.678-1.291,1.149-.762.678-3.159-.229,1.384-1.233,1.385-1.232,1.385-1.233Z" transform="translate(77.213 60.979)" fill="#fff"/>
        <path id="Trazado_833935" data-name="Trazado 833935" d="M174.9,130.193l-1.118-.37-1.894-.629-1.118-.37-2.679,1.185,2.032.672,2.032.674,2.032.674Z" transform="translate(76.027 58.266)" fill="#fff"/>
        <path id="Trazado_833936" data-name="Trazado 833936" d="M163.357,140.295l-1.118-.37-1.894-.629-1.118-.37.715-1.836,2.032.674,2.032.674,2.032.672Z" transform="translate(72.017 62.004)" fill="#fff"/>
        <path id="Trazado_833937" data-name="Trazado 833937" d="M167.645,128.573l-1.329.218-2.253.367-1.33.218-.607,1.843,2.415-.4,2.417-.4,2.415-.4Z" transform="translate(73.328 58.152)" fill="#fff"/>
        <path id="Trazado_833938" data-name="Trazado 833938" d="M171.532,139.569l-1.329.218-2.253.367-1.33.218-1.728-1.46,2.415-.4,2.417-.4,2.417-.4Z" transform="translate(74.579 62.292)" fill="#fff"/>
        <path id="Trazado_833939" data-name="Trazado 833939" d="M176.947,134.381l-.251-.741-.427-1.258-.251-.741-3.182-.167.457,1.346.457,1.348.457,1.348Z" transform="translate(78.172 59.465)" fill="#fff"/>
        <path id="Trazado_833940" data-name="Trazado 833940" d="M157.271,137.738,157.02,137l-.427-1.256-.251-.741,2.739-1.136.457,1.348.457,1.346.457,1.348Z" transform="translate(70.712 60.545)" fill="#fff"/>
        <path id="Trazado_833941" data-name="Trazado 833941" d="M183.211,149.74l14.642,8.454c2.334,1.346,2.038,3.721-.656,5.276l-16.908,9.762c-2.693,1.555-6.805,1.725-9.139.379l-14.642-8.454c-2.332-1.348-2.038-3.722.656-5.278l16.908-9.761c2.694-1.555,6.807-1.725,9.139-.379" transform="translate(70.075 67.315)" fill="#ed4069"/>
        <path id="Trazado_833942" data-name="Trazado 833942" d="M183.22,160.021c.209-.022,4.4-1.253,4.4-1.253l.029-6.169-6.711,1.114Z" transform="translate(81.836 69.019)" fill="#ed4069"/>
        <path id="Trazado_833943" data-name="Trazado 833943" d="M154.946,160.542l-.01-6.155,4.556-.055-.071,5.282Z" transform="translate(70.076 69.803)" fill="#ed4069"/>
        <path id="Trazado_833944" data-name="Trazado 833944" d="M183.205,145.549,197.847,154c2.334,1.346,2.038,3.721-.656,5.276l-16.906,9.762c-2.694,1.555-6.807,1.725-9.141.379L156.5,160.966c-2.332-1.348-2.038-3.722.656-5.278l16.908-9.761c2.694-1.555,6.807-1.725,9.139-.379" transform="translate(70.073 65.419)" fill="#ff5a72"/>
        <path id="Trazado_833945" data-name="Trazado 833945" d="M180.144,159.3l-.63.363c-1.8.215-2.354-.254-5.183,1.38a5.767,5.767,0,0,1-5.8-.385,11.034,11.034,0,0,1-1.863-1.282l1.875-1.082c.418.251.879.7,1.425,1.011a2.212,2.212,0,0,0,2.39.016,7.184,7.184,0,0,1,4.506-1.261l.63-.363c-.074-.976-.5-.924,2.377-2.6.977-.571.52-1.1-.2-1.509-.6-.344-1.381-.614-1.648-.768l1.891-1.091a13.385,13.385,0,0,1,2.173.975c2.238,1.293,2.325,2.518,1,3.282-2.893,1.67-2.45,2.077-2.95,3.317" transform="translate(75.383 68.622)" fill="#fff"/>
        <path id="Trazado_833946" data-name="Trazado 833946" d="M175.314,151.081a2.464,2.464,0,0,0-2.61-.11c-2.906,1.661-2.815,1.415-4.5,1.372l-.629.365c.01.511.289,1.156-2.184,2.6-.959.553-.63,1,.023,1.377.548.317,1.32.584,1.756.826l-1.875,1.082a14,14,0,0,1-2.221-1.076c-2.613-1.51-1.74-2.727-.67-3.345l.039-.023c2.816-1.64,1.981-1.934,2.351-2.971l.63-.365c2.149-.288,2.852-.032,5.745-1.7,1.326-.765,3.448-.715,5.686.578a9.223,9.223,0,0,1,1.689,1.253l-1.891,1.092c-.269-.154-.736-.607-1.338-.954" transform="translate(72.979 67.215)" fill="#fff"/>
        <path id="Trazado_833947" data-name="Trazado 833947" d="M52.142,148.513v5.7L49.6,151.732Z" transform="translate(22.432 67.171)" fill="#d63259"/>
        <path id="Trazado_833948" data-name="Trazado 833948" d="M58.844,154.147c-10.616-4.294-25.56-2.829-33.378,3.273s-5.548,14.532,5.067,18.826,25.56,2.828,33.378-3.275,5.549-14.53-5.067-18.825M52.806,168.48c-3.231,2.523-9.406,3.128-13.794,1.354s-5.324-5.257-2.094-7.78,9.406-3.128,13.794-1.354,5.326,5.257,2.094,7.78" transform="translate(9.415 68.605)" fill="#e43c5d"/>
        <path id="Trazado_833949" data-name="Trazado 833949" d="M25.79,153.175l-1.609,1.256-2.729,2.131-1.609,1.256,3.454,3.074,2.926-2.284,2.925-2.284,2.926-2.283Z" transform="translate(8.975 69.28)" fill="#e43c5d"/>
        <path id="Trazado_833950" data-name="Trazado 833950" d="M58.476,166.563l-1.609,1.256-2.729,2.13-1.609,1.256-6.284-.866,2.925-2.283,2.926-2.284,2.926-2.284Z" transform="translate(20.916 73.944)" fill="#e43c5d"/>
        <path id="Trazado_833951" data-name="Trazado 833951" d="M55.579,154.3l-2.186-.884-3.7-1.5-2.186-.884L42,153.054l3.973,1.606,3.972,1.608,3.973,1.606Z" transform="translate(18.994 68.31)" fill="#e43c5d"/>
        <path id="Trazado_833952" data-name="Trazado 833952" d="M31.236,173.077l-2.186-.884-3.7-1.5-2.186-.884,1.664-3.576,3.972,1.608,3.973,1.606,3.973,1.608Z" transform="translate(10.475 75.186)" fill="#e43c5d"/>
        <path id="Trazado_833953" data-name="Trazado 833953" d="M41.345,150.014l-2.684.263-4.549.447-2.684.263-1.452,3.6,4.878-.478,4.878-.479,4.878-.479Z" transform="translate(13.558 67.85)" fill="#e43c5d"/>
        <path id="Trazado_833954" data-name="Trazado 833954" d="M47.638,172.416l-2.684.263-4.549.447-2.684.263-3.268-3.14,4.878-.479,4.878-.479,4.878-.478Z" transform="translate(15.583 76.352)" fill="#e43c5d"/>
        <path id="Trazado_833955" data-name="Trazado 833955" d="M59.08,163.22v-6.926l-7.842.588.741,2.752.741,2.751.741,2.752Z" transform="translate(23.174 70.69)" fill="#e43c5d"/>
        <path id="Trazado_833956" data-name="Trazado 833956" d="M19.377,167.393l-.408-1.513-.69-2.566-.408-1.513,1.1-2.846,4.522.929.741,2.751.741,2.752.741,2.751Z" transform="translate(8.083 71.893)" fill="#e43c5d"/>
        <path id="Trazado_833957" data-name="Trazado 833957" d="M19.842,151.6v6.6l2.674-.552,1.327-4.255Z" transform="translate(8.974 68.569)" fill="#ed4069"/>
        <path id="Trazado_833958" data-name="Trazado 833958" d="M53.524,157.837v6.926l4.521-1.542v-6.926Z" transform="translate(24.208 70.691)" fill="#d63259"/>
        <path id="Trazado_833959" data-name="Trazado 833959" d="M58.844,149.379c-10.616-4.294-25.56-2.829-33.378,3.273s-5.548,14.532,5.067,18.826,25.56,2.828,33.378-3.275,5.549-14.53-5.067-18.825m-6.039,14.333c-3.231,2.523-9.406,3.128-13.794,1.354s-5.324-5.259-2.094-7.78,9.406-3.128,13.794-1.354,5.326,5.257,2.094,7.78" transform="translate(9.415 66.449)" fill="#ff5a72"/>
        <path id="Trazado_833960" data-name="Trazado 833960" d="M25.79,148.407l-1.609,1.256-2.729,2.13-1.609,1.256,3.454,3.074,2.926-2.284,2.925-2.284,2.926-2.283Z" transform="translate(8.975 67.123)" fill="#ff5a72"/>
        <path id="Trazado_833961" data-name="Trazado 833961" d="M58.476,161.794l-1.609,1.256-2.729,2.131-1.609,1.256-6.284-.866,2.925-2.283L52.1,161l2.926-2.284Z" transform="translate(20.916 71.787)" fill="#ff5a72"/>
        <path id="Trazado_833962" data-name="Trazado 833962" d="M55.579,149.53l-2.186-.884-3.7-1.5-2.186-.884L42,148.286l3.973,1.606,3.972,1.608,3.973,1.608Z" transform="translate(18.994 66.153)" fill="#ff5a72"/>
        <path id="Trazado_833963" data-name="Trazado 833963" d="M31.236,168.308l-2.186-.884-3.7-1.5-2.186-.884,1.664-3.576,3.972,1.608,3.973,1.606,3.973,1.608Z" transform="translate(10.475 73.029)" fill="#ff5a72"/>
        <path id="Trazado_833964" data-name="Trazado 833964" d="M41.345,145.245l-2.684.263-4.549.447-2.684.263-1.452,3.6,4.878-.478,4.878-.479,4.878-.479Z" transform="translate(13.558 65.693)" fill="#ff5a72"/>
        <path id="Trazado_833965" data-name="Trazado 833965" d="M47.638,167.647l-2.684.263-4.549.447-2.684.263-3.268-3.141L39.333,165l4.878-.479,4.878-.478Z" transform="translate(15.583 74.195)" fill="#ff5a72"/>
        <path id="Trazado_833966" data-name="Trazado 833966" d="M59.08,158.269l-.408-1.513-.69-2.566-.408-1.513-6.336-.745.741,2.752.741,2.751.741,2.752Z" transform="translate(23.174 68.717)" fill="#ff5a72"/>
        <path id="Trazado_833967" data-name="Trazado 833967" d="M19.377,162.335l-.408-1.513-.69-2.566-.408-1.513,5.62-1.917.741,2.751.741,2.752.741,2.751Z" transform="translate(8.083 70.026)" fill="#ff5a72"/>
        <path id="Trazado_833968" data-name="Trazado 833968" d="M36.7,167.5v6.926l9.916-.973v-6.926Z" transform="translate(16.601 75.318)" fill="#ed4069"/>
        <path id="Trazado_833969" data-name="Trazado 833969" d="M50.571,165.479v6.926l5.947-4.643v-6.926Z" transform="translate(22.873 72.745)" fill="#ed4069"/>
        <path id="Trazado_833970" data-name="Trazado 833970" d="M31.236,167.195v6.926l-8.076-3.268v-6.926Z" transform="translate(10.475 74.143)" fill="#ed4069"/>
        <path id="Trazado_833971" data-name="Trazado 833971" d="M19.377,161.738v6.926l-1.506-5.594v-6.924Z" transform="translate(8.083 70.623)" fill="#ed4069"/>
        <path id="Trazado_833972" data-name="Trazado 833972" d="M33.149,171.983v-6.926l-4.428,1.627v6.925Z" transform="translate(12.99 74.654)" fill="#d63259"/>
        <path id="Trazado_833973" data-name="Trazado 833973" d="M24.005,160.595v6.925l-5.1-.6V160Z" transform="translate(8.552 72.365)" fill="#d63259"/>
        <path id="Trazado_833974" data-name="Trazado 833974" d="M34.895,165.456v6.926l2.627,2.526v-6.926Z" transform="translate(15.783 74.834)" fill="#d63259"/>
        <path id="Trazado_833975" data-name="Trazado 833975" d="M43.532,167.428l1.168-2.9v6.926l-1.168,2.9Z" transform="translate(19.689 74.415)" fill="#d63259"/>
        <path id="Trazado_833976" data-name="Trazado 833976" d="M47.092,163.554v6.926l5.053.7V164.25Z" transform="translate(21.299 73.974)" fill="#d63259"/>
        <path id="Trazado_833977" data-name="Trazado 833977" d="M143.808,164.453l14.642,8.454c2.334,1.346,2.038,3.721-.656,5.276l-16.908,9.762c-2.693,1.555-6.805,1.725-9.139.379l-14.642-8.454c-2.332-1.348-2.038-3.722.656-5.278l16.908-9.761c2.694-1.555,6.807-1.725,9.139-.379" transform="translate(52.254 73.97)" fill="#f8b505"/>
        <path id="Trazado_833978" data-name="Trazado 833978" d="M143.816,174.734c.209-.022,4.4-1.253,4.4-1.253l.029-6.169-6.711,1.114Z" transform="translate(64.014 75.673)" fill="#f8b505"/>
        <path id="Trazado_833979" data-name="Trazado 833979" d="M115.542,175.255l-.01-6.153,4.556-.057-.071,5.282Z" transform="translate(52.254 76.457)" fill="#f8b505"/>
        <path id="Trazado_833980" data-name="Trazado 833980" d="M143.8,160.263l14.642,8.454c2.334,1.346,2.038,3.721-.656,5.276l-16.906,9.762c-2.694,1.555-6.807,1.725-9.139.379L117.1,175.68c-2.332-1.348-2.038-3.722.656-5.278l16.908-9.761c2.694-1.555,6.807-1.725,9.139-.379" transform="translate(52.251 72.074)" fill="#fed03d"/>
        <path id="Trazado_833981" data-name="Trazado 833981" d="M131.665,173.184l-.161-1.632,6.121.189-.325-3.535,2.812.1.446,5.144Z" transform="translate(59.478 76.078)" fill="#fff"/>
        <path id="Trazado_833982" data-name="Trazado 833982" d="M127.4,172.129l-2.621-1.513,14.78-4.666,2.621,1.513Z" transform="translate(56.438 75.057)" fill="#fff"/>
        <path id="Trazado_833983" data-name="Trazado 833983" d="M127.249,165.754l.325,3.535-2.826-.093-.431-5.151,8.879.274.174,1.624Z" transform="translate(56.227 74.196)" fill="#fff"/>
        <path id="Trazado_833984" data-name="Trazado 833984" d="M64.776,137.858v4.817l-2.152-2.094Z" transform="translate(28.324 62.352)" fill="#c66bc6"/>
        <path id="Trazado_833985" data-name="Trazado 833985" d="M70.445,142.622c-8.978-3.631-21.613-2.39-28.225,2.77S37.527,157.68,46.5,161.31s21.613,2.392,28.225-2.768,4.691-12.288-4.284-15.92m-5.106,12.121c-2.732,2.132-7.954,2.645-11.665,1.144s-4.5-4.445-1.772-6.579,7.954-2.645,11.665-1.144,4.5,4.445,1.772,6.579" transform="translate(17.317 63.565)" fill="#c66bc6"/>
        <path id="Trazado_833986" data-name="Trazado 833986" d="M42.493,141.8l-1.361,1.063-2.308,1.8-1.361,1.062,2.921,2.6,2.475-1.932,2.473-1.93,2.475-1.932Z" transform="translate(16.944 64.135)" fill="#c66bc6"/>
        <path id="Trazado_833987" data-name="Trazado 833987" d="M70.133,153.121l-1.361,1.063-2.308,1.8L65.1,157.047l-5.314-.731,2.475-1.932,2.473-1.932,2.475-1.932Z" transform="translate(27.042 68.079)" fill="#c66bc6"/>
        <path id="Trazado_833988" data-name="Trazado 833988" d="M67.683,142.751,65.835,142,62.7,140.736l-1.849-.748L56.2,141.7l3.359,1.359,3.361,1.358,3.359,1.359Z" transform="translate(25.417 63.315)" fill="#c66bc6"/>
        <path id="Trazado_833989" data-name="Trazado 833989" d="M47.1,158.63l-1.849-.748-3.133-1.266-1.849-.748,1.407-3.025,3.361,1.359,3.359,1.359,3.359,1.359Z" transform="translate(18.213 69.129)" fill="#c66bc6"/>
        <path id="Trazado_833990" data-name="Trazado 833990" d="M55.646,139.127l-2.27.222-3.846.378-2.27.224L46.034,143l4.125-.405,4.126-.405,4.125-.4Z" transform="translate(20.821 62.926)" fill="#c66bc6"/>
        <path id="Trazado_833991" data-name="Trazado 833991" d="M60.968,158.071l-2.27.222-3.846.378-2.27.224-2.762-2.656,4.125-.405,4.126-.4,4.125-.405Z" transform="translate(22.533 70.116)" fill="#c66bc6"/>
        <path id="Trazado_833992" data-name="Trazado 833992" d="M70.643,150.295v-5.856l-6.631.5.626,2.327.626,2.327.627,2.327Z" transform="translate(28.952 65.328)" fill="#c66bc6"/>
        <path id="Trazado_833993" data-name="Trazado 833993" d="M37.07,153.824l-.344-1.281-.584-2.168-.346-1.281.929-2.406,3.824.786.626,2.327.626,2.327.626,2.327Z" transform="translate(16.19 66.345)" fill="#c66bc6"/>
        <path id="Trazado_833994" data-name="Trazado 833994" d="M37.464,140.472v5.577l2.261-.466,1.123-3.6Z" transform="translate(16.944 63.534)" fill="#c66bc6"/>
        <path id="Trazado_833995" data-name="Trazado 833995" d="M65.945,145.743V151.6l3.822-1.3v-5.857Z" transform="translate(29.826 65.328)" fill="#b456b7"/>
        <path id="Trazado_833996" data-name="Trazado 833996" d="M70.445,138.591c-8.978-3.632-21.613-2.392-28.225,2.768s-4.692,12.288,4.284,15.919,21.613,2.392,28.225-2.768,4.691-12.288-4.284-15.919M65.339,150.71c-2.732,2.132-7.954,2.645-11.665,1.144s-4.5-4.445-1.772-6.579,7.954-2.645,11.665-1.144,4.5,4.447,1.772,6.579" transform="translate(17.317 61.741)" fill="#e79ce1"/>
        <path id="Trazado_833997" data-name="Trazado 833997" d="M42.493,137.768l-1.361,1.063-2.308,1.8-1.361,1.062,2.921,2.6,2.475-1.932,2.473-1.93,2.475-1.932Z" transform="translate(16.944 62.311)" fill="#e79ce1"/>
        <path id="Trazado_833998" data-name="Trazado 833998" d="M70.133,149.089l-1.361,1.063-2.308,1.8L65.1,153.014l-5.314-.731,2.475-1.932,2.473-1.932,2.475-1.932Z" transform="translate(27.042 66.256)" fill="#e79ce1"/>
        <path id="Trazado_833999" data-name="Trazado 833999" d="M67.683,138.718l-1.849-.748L62.7,136.7l-1.849-.748L56.2,137.665l3.359,1.359,3.361,1.358,3.359,1.359Z" transform="translate(25.417 61.492)" fill="#e79ce1"/>
        <path id="Trazado_834000" data-name="Trazado 834000" d="M47.1,154.6l-1.849-.748-3.133-1.266-1.849-.748,1.407-3.024,3.361,1.358,3.359,1.359,3.359,1.359Z" transform="translate(18.213 67.306)" fill="#e79ce1"/>
        <path id="Trazado_834001" data-name="Trazado 834001" d="M55.646,135.1l-2.27.222-3.846.378-2.27.222-1.227,3.048,4.125-.405,4.126-.405,4.125-.4Z" transform="translate(20.821 61.102)" fill="#e79ce1"/>
        <path id="Trazado_834002" data-name="Trazado 834002" d="M60.968,154.038l-2.27.222-3.846.378-2.27.222-2.762-2.655,4.125-.405,4.126-.4,4.125-.405Z" transform="translate(22.533 68.292)" fill="#e79ce1"/>
        <path id="Trazado_834003" data-name="Trazado 834003" d="M70.643,146.108l-.344-1.281-.584-2.168-.346-1.281-5.357-.629.626,2.327.626,2.327.627,2.327Z" transform="translate(28.952 63.659)" fill="#e79ce1"/>
        <path id="Trazado_834004" data-name="Trazado 834004" d="M37.07,149.547l-.344-1.281-.584-2.168-.346-1.281L40.55,143.2l.626,2.327.626,2.327.626,2.327Z" transform="translate(16.19 64.766)" fill="#e79ce1"/>
        <path id="Trazado_834005" data-name="Trazado 834005" d="M51.722,153.912v5.856l8.386-.822V153.09Z" transform="translate(23.393 69.241)" fill="#d680d4"/>
        <path id="Trazado_834006" data-name="Trazado 834006" d="M63.448,152.205v5.856l5.029-3.926V148.28Z" transform="translate(28.697 67.065)" fill="#d680d4"/>
        <path id="Trazado_834007" data-name="Trazado 834007" d="M47.1,153.655v5.856l-6.83-2.762v-5.856Z" transform="translate(18.213 68.247)" fill="#d680d4"/>
        <path id="Trazado_834008" data-name="Trazado 834008" d="M37.07,149.042V154.9L35.8,150.169v-5.857Z" transform="translate(16.19 65.271)" fill="#d680d4"/>
        <path id="Trazado_834009" data-name="Trazado 834009" d="M48.716,157.7v-5.856l-3.744,1.374v5.857Z" transform="translate(20.34 68.68)" fill="#b456b7"/>
        <path id="Trazado_834010" data-name="Trazado 834010" d="M40.984,148.075v5.856l-4.31-.505v-5.856Z" transform="translate(16.587 66.744)" fill="#b456b7"/>
        <path id="Trazado_834011" data-name="Trazado 834011" d="M50.192,152.185v5.856l2.222,2.136v-5.856Z" transform="translate(22.701 68.832)" fill="#b456b7"/>
        <path id="Trazado_834012" data-name="Trazado 834012" d="M57.5,153.853l.988-2.451v5.857l-.988,2.45Z" transform="translate(26.005 68.477)" fill="#b456b7"/>
        <path id="Trazado_834013" data-name="Trazado 834013" d="M60.506,150.577v5.856l4.273.588v-5.856Z" transform="translate(27.366 68.105)" fill="#b456b7"/>
      </g>
    </g>
  </g>
</svg>
