<svg xmlns="http://www.w3.org/2000/svg" xmlns:xlink="http://www.w3.org/1999/xlink" width="122" height="122" viewBox="0 0 122 122">
  <defs>
    <filter id="Trazado_824488" x="0" y="0" width="122" height="122" filterUnits="userSpaceOnUse">
      <feOffset dy="3" input="SourceAlpha"/>
      <feGaussianBlur stdDeviation="7" result="blur"/>
      <feFlood flood-color="#fff" flood-opacity="0.659"/>
      <feComposite operator="in" in2="blur"/>
      <feComposite in="SourceGraphic"/>
    </filter>
  </defs>
  <g id="Grupo_1074724" data-name="Grupo 1074724" transform="translate(-182 -2353)">
    <g id="Grupo_1074191" data-name="Grupo 1074191" transform="translate(-2 1577)">
      <g transform="matrix(1, 0, 0, 1, 184, 776)" filter="url(#Trazado_824488)">
        <path id="Trazado_824488-2" data-name="Trazado 824488" d="M40,0A40,40,0,1,1,0,40,40,40,0,0,1,40,0Z" transform="translate(21 18)" fill="#ffce00"/>
      </g>
    </g>
    <g id="video" transform="translate(223 2389)">
      <path id="Trazado_828688" data-name="Trazado 828688" d="M64.713,216.676v20.817a3.977,3.977,0,0,1-3.965,3.965H32.927a3.977,3.977,0,0,1-3.965-3.965V216.676Zm0,0" transform="translate(-26.446 -197.856)" fill="#d0d7df" fill-rule="evenodd"/>
      <path id="Trazado_828689" data-name="Trazado 828689" d="M10.172,22.809l1.489,5.142L46,18l-1.489-5.142A3.976,3.976,0,0,0,39.6,10.156L12.877,17.9a3.977,3.977,0,0,0-2.705,4.912Zm0,0" transform="translate(-9.146 -9.131)" fill="#49aaee" fill-rule="evenodd"/>
      <path id="Trazado_828690" data-name="Trazado 828690" d="M28.961,216.676H64.713V224.8H28.961Zm0,0" transform="translate(-26.446 -197.856)" fill="#49aaee" fill-rule="evenodd"/>
      <path id="Trazado_828691" data-name="Trazado 828691" d="M213.7,358.8l-3.815-2.2-3.815-2.2V363.2l3.815-2.2Zm0,0" transform="translate(-188.169 -323.61)" fill="#fa5c66" fill-rule="evenodd"/>
      <path id="Trazado_828692" data-name="Trazado 828692" d="M38.267,17.951H8.635L37.1,9.706A.869.869,0,0,0,37.69,8.63L36.2,3.488A4.862,4.862,0,0,0,31.55,0a4.812,4.812,0,0,0-1.338.19L3.489,7.932a4.845,4.845,0,0,0-3.3,5.988l1.455,5.023V39.636A4.839,4.839,0,0,0,6.48,44.47H16.917a.869.869,0,0,0,0-1.737H6.48a3.1,3.1,0,0,1-3.1-3.1V27.816H37.4v11.82a3.1,3.1,0,0,1-3.1,3.1H23.865a.869.869,0,0,0,0,1.737H34.3a4.839,4.839,0,0,0,4.834-4.834V18.82a.868.868,0,0,0-.869-.869ZM22.952,26.079l3.69-6.391h4.8l-3.69,6.391Zm-6.806,0,3.69-6.391h4.8l-3.69,6.391Zm-6.806,0,3.69-6.391h4.8l-3.69,6.391ZM12.57,14.835,6.39,8.9l4.63-1.341a.861.861,0,0,0,.114.134l6.18,5.935-4.63,1.341a.864.864,0,0,0-.114-.134ZM24.208,3.906l6.18,5.935-4.63,1.341a.846.846,0,0,0-.114-.134l-6.18-5.935,4.63-1.341A.862.862,0,0,0,24.208,3.906ZM17.671,5.8l6.18,5.935-4.63,1.341a.846.846,0,0,0-.114-.134l-6.18-5.935,4.63-1.341A.917.917,0,0,0,17.671,5.8ZM30.7,1.859a3.071,3.071,0,0,1,.854-.122,3.116,3.116,0,0,1,2.982,2.234L35.78,8.279,32.295,9.288a.883.883,0,0,0-.114-.134L26,3.219ZM2.126,11.083A3.074,3.074,0,0,1,3.973,9.6l.51-.148a.883.883,0,0,0,.114.134l6.18,5.935L3.108,17.743,1.86,13.436a3.075,3.075,0,0,1,.266-2.353Zm1.258,8.605h7.641l-3.69,6.391H3.384Zm26.374,6.391,3.69-6.391H37.4v6.391Zm0,0" transform="translate(0 0)" fill-rule="evenodd"/>
      <path id="Trazado_828693" data-name="Trazado 828693" d="M205.434,349.665a.868.868,0,0,0-.434-.752l-7.631-4.405a.869.869,0,0,0-1.3.752v8.811a.868.868,0,0,0,1.3.752L205,350.417a.868.868,0,0,0,.434-.752Zm-7.631,2.9v-5.8l5.025,2.9Zm0,0" transform="translate(-179.037 -314.479)" fill-rule="evenodd"/>
      <path id="Trazado_828694" data-name="Trazado 828694" d="M225.642,492a.869.869,0,1,0,.869.869A.87.87,0,0,0,225.642,492Zm0,0" transform="translate(-205.25 -449.267)" fill-rule="evenodd"/>
    </g>
  </g>
</svg>
